<svg width="80" height="97" viewBox="0 0 80 97" fill="none" xmlns="http://www.w3.org/2000/svg">
<path d="M6.55219 89.3036C7.19701 88.7274 7.81496 88.1327 8.38877 87.5358L9.44535 88.5518C8.84597 89.1751 8.20115 89.7958 7.52863 90.3965L6.55219 89.3036ZM10.2873 54.1174C10.2894 53.2329 10.3304 52.336 10.4091 51.4516L11.8693 51.5817C11.7942 52.4243 11.7551 53.2785 11.7531 54.1209L10.2873 54.1174ZM10.5412 58.1127L11.9947 57.9226C12.1045 58.7626 12.2535 59.6035 12.4375 60.4223L11.0073 60.7436C10.8135 59.8817 10.6567 58.9966 10.5412 58.1127ZM10.8445 84.627C11.3508 83.9349 11.8168 83.2238 12.2292 82.5133L13.4969 83.2495C13.0586 84.0043 12.5641 84.7591 12.0273 85.4925L10.8445 84.627ZM11.0202 47.4979C11.2121 46.6311 11.444 45.7636 11.7095 44.9196L13.1078 45.3595C12.855 46.1631 12.6341 46.9891 12.4514 47.8147L11.0202 47.4979ZM12.1603 64.5839L13.5304 64.0629C13.8313 64.8538 14.173 65.6342 14.5461 66.3826L13.2343 67.0367C12.8397 66.2453 12.4784 65.4201 12.1603 64.5839ZM13.1622 41.1886C13.5409 40.3809 13.9596 39.5851 14.407 38.8235L15.6711 39.5657C15.2467 40.2885 14.8491 41.044 14.4895 41.8109L13.1622 41.1886ZM13.8223 79.0993C14.1056 78.3025 14.3316 77.4923 14.4945 76.6912L15.9309 76.9832C15.7545 77.8516 15.5097 78.7287 15.2035 79.5902L13.8223 79.0993ZM14.5121 70.5203L15.9461 70.2159C16.1326 71.0938 16.2435 72.0054 16.276 72.9258L14.8111 72.9776C14.7815 72.142 14.681 71.3153 14.5121 70.5203ZM16.6805 35.5181C17.0722 35.0293 17.4843 34.5502 17.9051 34.0943C18.0854 33.8991 18.2713 33.7039 18.4573 33.514L19.5041 34.5403C19.3283 34.7196 19.1528 34.904 18.9822 35.0887C18.5845 35.5197 18.1951 35.9725 17.8243 36.4349L16.6805 35.5181ZM21.4697 30.8644C22.1736 30.3308 22.9152 29.8216 23.6737 29.3511L24.4464 30.5967C23.7265 31.0432 23.023 31.5263 22.3554 32.0323L21.4697 30.8644ZM27.2129 27.4762C28.0199 27.1158 28.8551 26.7858 29.6956 26.4955L30.1741 27.8811C29.3739 28.1575 28.5787 28.4716 27.8106 28.8147L27.2129 27.4762ZM33.5543 25.4368C34.4229 25.2578 35.3093 25.1145 36.1885 25.0111L36.3598 26.4669C35.5221 26.5654 34.6778 26.7019 33.8502 26.8724L33.5543 25.4368ZM34.0558 30.6595C34.1017 29.7705 34.1848 28.8774 34.3027 28.0051L35.7554 28.2015C35.6428 29.034 35.5635 29.8863 35.5199 30.735L34.0558 30.6595ZM34.0895 34.653L35.5519 34.5545C35.6086 35.3944 35.6992 36.2476 35.821 37.0895L34.3703 37.2994C34.2432 36.4206 34.1488 35.5301 34.0895 34.653ZM35.0928 24.0825C35.3257 23.222 35.5988 22.3658 35.9049 21.5379L37.2797 22.0462C36.9888 22.8331 36.729 23.6472 36.5077 24.4655L35.0928 24.0825ZM35.1605 41.2083L36.5792 40.8389C36.7921 41.6567 37.0383 42.4795 37.3113 43.2843L35.9231 43.7552C35.6389 42.917 35.3822 42.0601 35.1605 41.2083ZM37.4056 47.4557L38.735 46.8381C39.0927 47.6082 39.4825 48.3734 39.8934 49.113L38.6121 49.8249C38.184 49.0547 37.7781 48.2576 37.4056 47.4557ZM37.5468 17.8848C37.962 17.1069 38.4195 16.334 38.9065 15.5882L40.134 16.3896C39.6704 17.0995 39.2351 17.8349 38.8402 18.5749L37.5468 17.8848ZM40.1646 26.27L40.1854 24.8042C41.0765 24.8169 41.9737 24.8699 42.852 24.9619L42.6993 26.4198C41.8647 26.3325 41.0119 26.282 40.1646 26.27ZM40.7377 53.1997L41.9329 52.351C42.4255 53.0446 42.9481 53.725 43.4868 54.3732L42.3592 55.3098C41.7971 54.6332 41.2515 53.9232 40.7377 53.1997ZM41.3011 12.3866C41.8712 11.7167 42.4794 11.0581 43.1091 10.4293L44.145 11.4665C43.5433 12.0675 42.962 12.6967 42.4177 13.3366L41.3011 12.3866ZM45.0859 58.227L46.0956 57.1643C46.7127 57.7505 47.3569 58.3143 48.0105 58.8403L47.0915 59.9824C46.4067 59.4312 45.7319 58.8406 45.0859 58.227ZM46.0941 7.77814C46.7848 7.23267 47.5077 6.7048 48.2424 6.209L49.0623 7.42405C48.3577 7.89949 47.6647 8.4057 47.0025 8.92854L46.0941 7.77814ZM46.4448 27.078L46.8 25.6557C47.667 25.8722 48.5289 26.1325 49.3622 26.4296L48.87 27.8104C48.0817 27.5293 47.2657 27.2829 46.4448 27.078ZM50.36 62.2861L51.1252 61.0358C51.848 61.4782 52.5956 61.8914 53.3473 62.2638L52.6964 63.5772C51.906 63.1855 51.12 62.7511 50.36 62.2861ZM51.6659 4.16344C52.4466 3.75299 53.2528 3.36567 54.062 3.0119L54.649 4.35514C53.8719 4.69474 53.0978 5.06675 52.348 5.46091L51.6659 4.16344ZM52.3394 29.3494L53.032 28.0574C53.8102 28.4746 54.5819 28.9377 55.3256 29.4338L54.512 30.6531C53.8073 30.1832 53.0763 29.7446 52.3394 29.3494ZM56.5887 64.9455L56.7877 63.4933C57.1386 63.5414 57.4998 63.5656 57.8612 63.5656C58.2922 63.5656 58.7331 63.5311 59.1719 63.463L59.3965 64.9118C58.8836 64.9913 58.3671 65.0315 57.8612 65.0315C57.4334 65.0315 57.0053 65.0025 56.5887 64.9455ZM57.5215 32.9809L58.4953 31.8853C59.155 32.4718 59.799 33.0982 60.4096 33.7476L59.3416 34.7519C58.761 34.1342 58.1486 33.5385 57.5215 32.9809ZM57.7958 1.61491C58.6404 1.34991 59.503 1.11325 60.3599 0.911614L60.6959 2.33858C59.8736 2.53208 59.0455 2.75928 58.2345 3.01353L57.7958 1.61491ZM61.7657 37.6926L62.9552 36.8359C63.473 37.5547 63.966 38.3049 64.4204 39.0657L63.1619 39.8173C62.7288 39.0924 62.2591 38.3775 61.7657 37.6926ZM62.5745 62.2416C63.2803 61.8313 63.9328 61.3409 64.5137 60.7834L65.5286 61.8411C64.8636 62.4791 64.1175 63.0402 63.3111 63.509L62.5745 62.2416ZM64.2873 0.214997C65.169 0.10929 66.0616 0.0369723 66.9404 -5.70852e-07L67.0022 1.46458C66.1608 1.49993 65.3061 1.56931 64.462 1.67045L64.2873 0.214997ZM64.9001 43.2092L66.2453 42.6268C66.5986 43.4429 66.9189 44.2819 67.1973 45.1209L65.806 45.5825C65.5412 44.7844 65.2364 43.9857 64.9001 43.2092ZM66.5754 57.8456C66.8922 57.1026 67.0877 56.3317 67.1558 55.5544L68.6161 55.6826C68.5343 56.6141 68.3014 57.5353 67.9239 58.4209L66.5754 57.8456ZM66.7569 49.2674L68.1982 48.9998C68.3612 49.8783 68.4835 50.7694 68.5619 51.6491L67.1017 51.7789C67.0274 50.9455 66.9114 50.1003 66.7569 49.2674ZM70.819 1.53217L70.934 0.0706912C71.8217 0.140565 72.7124 0.24839 73.5815 0.390906L73.3442 1.83741C72.5155 1.70157 71.666 1.59895 70.819 1.53217ZM77.0557 2.69804L77.4806 1.29519C78.3335 1.55352 79.1811 1.85271 80 2.18449L79.4496 3.54321C78.6717 3.22788 77.8662 2.9435 77.0557 2.69804Z" fill="#F7ECFF"/>
<path d="M2.44965 96.442C1.19306 96.6878 0.0323784 95.7059 0.066478 94.426L0.488174 78.5966C0.502548 78.057 0.951664 77.6312 1.49126 77.6457C2.03075 77.6601 2.45642 78.1091 2.44205 78.6486L2.08533 92.0395C2.05123 93.3194 3.21191 94.3013 4.46851 94.0556L17.2779 91.5503C17.8076 91.4467 18.321 91.7921 18.4246 92.3219C18.5282 92.8516 18.1828 93.365 17.6531 93.4686L2.44965 96.442Z" fill="#F7ECFF"/>
</svg>
