<svg xmlns="http://www.w3.org/2000/svg" viewBox="0 0 749.28 784.54"><defs><style>.cls-1{fill:#e9a172;}.cls-2{fill:#481f1f;}.cls-3{fill:#812f9a;}.cls-4{fill:#882164;}.cls-5{fill:#65402d;}.cls-6{fill:#b23085;}.cls-7{fill:#eba317;}.cls-8{fill:#f2c6a1;}.cls-9{fill:#31221f;}.cls-10{fill:#54a35e;}.cls-11{fill:#7d3523;}.cls-12{fill:#361314;}.cls-13{fill:#a06850;}.cls-14{fill:#a77058;}.cls-15{fill:#a36d55;}.cls-16{fill:#3e1c1a;}.cls-17{fill:#a87158;}.cls-18{fill:#9d6a4b;}.cls-19{fill:#7f3826;}.cls-20{fill:#ab7552;}.cls-21{fill:#a67252;}.cls-22{fill:#442422;}.cls-23{fill:#a97554;}.cls-24{fill:#a97454;}.cls-25{fill:#7f3b2a;}.cls-26{fill:#aa7159;}.cls-27{fill:#a47153;}.cls-28{fill:#6b5655;}.cls-29{fill:#5e433e;}.cls-30{fill:#523632;}.cls-31{fill:#4b2b28;}.cls-32{fill:#cc5534;}.cls-33{fill:#704c34;}.cls-34{fill:#6f4c34;}.cls-35{fill:#a56b50;}.cls-36{fill:#efebc6;}.cls-37{fill:#eee9df;}.cls-38{fill:#614743;}.cls-39{fill:#a87056;}.cls-40{fill:#a9735c;}.cls-41{fill:#e9a171;}.cls-42{fill:#e8a071;}.cls-43{fill:#8c2867;}.cls-44{fill:#fcd782;}.cls-45{fill:#efc29f;}.cls-46{fill:#faf9f9;}.cls-47{fill:#f8f5f6;}.cls-48{fill:#d08b6c;}.cls-49{fill:#f0eaec;}.cls-50{fill:#feda82;}.cls-51{fill:#bfbdbb;}.cls-52{fill:#efeadf;}.cls-53{fill:#4cc95c;}.cls-54{fill:#4cca5c;}.cls-55{fill:#4d301f;}.cls-56{fill:#381515;}.cls-57{fill:#371415;}.cls-58{fill:#3d1c1a;}.cls-59{fill:#892969;}.cls-60{fill:#ee3e58;}.cls-61{fill:#ecbca6;}.cls-62{fill:#eaad9b;}.cls-63{fill:#ecbaa4;}.cls-64{fill:#fdda83;}.cls-65{fill:#fdd983;}.cls-66{fill:#8b2665;}.cls-67{fill:#892364;}.cls-68{fill:#feda83;}</style></defs><title>Asset 3</title><g id="Layer_2" data-name="Layer 2"><g id="Layer_1-2" data-name="Layer 1"><path class="cls-1" d="M562.54,28c.32-2.48,2.6-2.35,3.74-1.82,2.51,1.17,4.71.06,7-.09,1,.83,2.45,1,3.33,2.05,6.33,8.48,8.46,18.33,9.07,28.58.41,6.77.19,6.45,6.74,6.27,12.29-.33,24.56-.61,36.85,1.11,19.67,2.77,33.83,13.82,45.61,28.78,12.33,15.65,19.78,33.77,26.48,52.31,8.28,22.92,13.26,46.71,18.91,70.33.59,2.48,1.64,5.15.11,7.75-3.21-.33-3.39-3.15-4.6-5.2,6,10.3,8.87,21.89,13.35,32.82,6.78,16.58,10.19,34,14.21,51.33,2.43,10.49,3.63,21.18,4.94,31.86,1,8-1.06,14.15-8.3,18.67-8.17,5.11-17,8.44-26.13,11-19.69,5.55-39.36,11.19-59.51,15-18,3.37-36.07,6.25-54.31,7.42-11.07.72-22.17,1.29-33.24,2.09-6.59.48-13.23.9-19.78,1.95-10.37,1.67-16.28,8.74-16.61,19.81-.14,4.63-.38,9.31,1.28,13.79a39.16,39.16,0,0,0,2.81,15.61,5.9,5.9,0,0,1,.48,4.36,3.65,3.65,0,0,1-3.22,2.75c-2,.06-2.3-1.6-2.55-3.11a37.92,37.92,0,0,1-.18-4c-.37-7.44-4-12.85-10.32-16.6-1.55-.92-3.49-1.25-4.52-3,.38-7.59-1.8-14.86-3.44-22.1-3.17-13.94-5.92-28-10.41-41.62-4.27-13-10.32-24.64-20.4-34.37C464.53,306.8,449.8,291.09,432.75,278c-14.22-10.94-28.12-22.47-44.59-30.16-4.1-1.91-8.52-2.94-12.56-4.87-3.55-1.69-6.48,1.31-9.79.68-3.05-15-12.9-25.17-24.14-34.38-1.56-1.28-3.69-2.3-2.66-4.7s3.47-2.08,5.66-1.66c7.16,1.37,14.27,3,21.56,3.72,5.34.55,10.42-.75,13.61-.78-5.29,1.34-6.31.86-9.22-5.37-10.67-22.81-12.34-46.61-8.2-71.16A107.68,107.68,0,0,1,369,105.9c3.07-7.41,8.66-10.8,16.33-10.77,9.13.05,18.26,0,27.42.66s18.13-1.06,27.17-2.25c2.83-.38,6.1-2.62,8.81.55,2.89,5.78,6.43,11,11.63,15,.89.68,2.28,1.32,2,2.56-.37,1.51-2,1.43-3.28,1.55-11-2.23-21.81-1.52-32.6,1.2-8,2-14.15,6.5-17.77,14.08-10.53,22.07-11.89,44.57-.13,66.27,9.15,16.87,24.37,27.41,42.54,33.57A104.29,104.29,0,0,0,509.18,231c9.94-2.31,16.42-7.64,19.42-17.81,4.42-15,1.88-29.29-4.21-42.77-8.84-19.59-21.59-36.32-40.69-47.33-1.14-.66-2.38-1.31-2.49-2.88,3.73-2.57,6.21,1.06,9.26,1.86,8.34,4.78,17.18,8.79,24.23,15.59,15.2,14.66,25.6,32,30,51.29-.65-6.84-7.66-23.37-14.34-32.9-8.08-11.52-17.12-22-29.91-28.61-1.26-.65-3.16-1.33-2.82-3s2.37-1.42,3.8-1.6a23.12,23.12,0,0,1,2.5-.12c1.54,0,3.07-.06,4.61,0,3.34-.11,6.7.39,10-.39,13.13-3.11,21.56-12.8,30.09-22a130.74,130.74,0,0,0,17-23.36c7.25-12.56,8.08-25.72,3.88-39.43C568.28,33.4,564.18,31.62,562.54,28Z"/><path class="cls-2" d="M138.1,438.07c.52-5.43-3.85-6.5-7.43-7.71-5.64-1.9-11.58-2.81-17.1-5.22-10.65-4.65-20.25-10.65-27.06-20.38-5.28-7.54-6.28-16-4.78-24.74,1.43-8.28,7.06-13.23,14.41-16.52a1.75,1.75,0,0,1,.78,1.27c-.17,2.27-2.21,2.75-3.68,3.7a17.18,17.18,0,0,0-7.91,11.63c-1.91,10.22-.18,19.29,7.47,27.12,12,12.28,27.06,17.71,43.46,20.44a66.23,66.23,0,0,0,15.4,1c7.75-.52,13.1-4.46,16.07-11.54,5.29-12.6,1.8-24.34-9.94-32.83a57.56,57.56,0,0,0-19.14-9.44c-2.35-.62-5-.93-6.59-3.17-.53-2.16.94-3.45,2.22-4.7,7.62-7.43,14.18-15.87,22-23.1,4.53-4.17,7.84-9.49,12.56-13.49,2.65-2.24,5.15-4.9,9.17-4.1,5.14,1.38,10.41,2.21,15.49,3.79,3.74,1.16,7.35-1,10.75-.56,3.17.43,5.37,4.08,9.39,4,10.61-.13,21.28,1.08,31.71-1.92,5.16-1.49,10.57-.85,15.81-1.9,8.16-1.64,16.25-3.38,24-6.45,6.94-2.74,13.81-5.71,21.17-7.32a20.68,20.68,0,0,0,8.45-4.13c1.77-1.4,3.14-3.05,2.32-5.55-.75-2.3-2.4-3-4.68-2.67a3.05,3.05,0,0,1-3.08-1.2,1.76,1.76,0,0,1,.45-2.09,16.69,16.69,0,0,0,2.7-3.53c2.06-3.07,4.18-3.19,5.37.09,1.81,5,4.06,7.55,9.84,5.52,2.74-1,3.81,1.3,3.18,3.94-.58,2.4-1.86,4.59-2.63,7.84,3.2-1.42,5.69-2.89,8.24-4.16,5.14-2.57,10.55-2.72,16-1.93,2,.28,3.94.82,5,2.79-.74,3.05-3.05,1.79-4.8,1.62-7.88-.77-15.27.13-21.69,5.35-2.9,2.36-4.72,5.06-4.45,9a29.56,29.56,0,0,1-1.21,9.37c-.65,2.53-1.6,5,.37,7.59.93,1.22.23,2.94-.34,4.33-1.63,4-3.25,8-5.18,12,0,0,.2-.14.56-.36,2.26-1.37,5.17-3.63,7.2-1.56,2.46,2.5-.51,5.18-2,7.39-9.44,14-17.58,28.63-23.17,44.62-1,2.85-1.24,5.86-2.22,8.7a11.17,11.17,0,0,1-.49,1.37c-2.36,4-3.6,8.55-6.06,12.51-.48.76-1.4,1.71.24,2.29,4.8,1.7,2.22,4.37.59,6.41a58.15,58.15,0,0,1-13.2,12c-8.11,5.43-15.69,11.69-24.52,16a23.65,23.65,0,0,1-10.46,2.88c-1.83,0-3.67,0-5.5,0-15.64-3.91-31.56-4-47.55-4.06a63.17,63.17,0,0,1-44.61-18.13C145.18,446.42,141.23,442.61,138.1,438.07Z"/><path class="cls-1" d="M560.59,571.88c2.93,15,5.95,29.91,8.76,44.89,2.08,11.08,3.9,22.21,5.83,33.32.13,7.15,2.44,14,3.16,21,1.54,15,5.25,29.7,6.16,44.81a218.52,218.52,0,0,0,3.09,23.14c.67,3.94-.45,4.94-4.2,5.06a261.85,261.85,0,0,1-27.3-.92c-14.39-1-28.34,2.19-42,6.51a71.94,71.94,0,0,1-23.52,3.35c-2.66-.07-5.34-.17-7.7,1.45-4.08.85-4.82-1.65-4.84-4.85-.07-8.75,0-17.5,0-26.26a75.42,75.42,0,0,0-.56-10.84c.22-2.27,2-3.37,3.58-4.54,8.12-5.92,9.42-14,7.4-23.15-1.13-5.11-.85-5.48,4.28-5.36,8.44.21,13.76-6.31,12.21-15.5-.92-5.48-3.1-10.5-7.4-14.39-3.35-3-3.2-3.87.78-6,10.11-5.47,17.39-13.05,20-24.74,2-9.08-1.24-16.32-6.63-23a44,44,0,0,0-7.6-7.21c-2.67-2.05-2.84-4.12-.19-6.56a27.36,27.36,0,0,0,8.71-15.89c.9-5.32-.06-10-4.19-13.62-2.66-2.3-3.12-4.49-1-7.28a13.18,13.18,0,0,0,1.3-2.13c3-6.43,3-6.44,8.86-2.1,4.78,3.55,9.88,6.22,16.09,5.67,7.1-.64,11.16-6.26,9.79-13.28-.42-2.16-2.15-5.09.39-6.42,2.95-1.54,5.27,1.21,7.29,3.09s1.88,4.54,2.7,6.88c1.37,11.71,6,22.86,6.14,34.79,0,.11.13.32.19.32A1.63,1.63,0,0,0,560.59,571.88Z"/><path class="cls-3" d="M98.72,279.83c-5.57-.16-10.35,2.75-15.56,4-4.61,1.14-9.11,2.79-13.65,4.22-2.79,0-5.58-.81-8.35.1-15.11-7-30.74-11.2-47.58-9.06-3.14-1.39-3-3.5-1.28-5.93,5.34-7,8.72-14.76,8.81-23.72-1.87-2.44-1.71-4.79.32-7.06a9.7,9.7,0,0,0,4.72-2.56c22.26-19.07,45.11-37.44,66.95-57,.16-.05.36-.19.46-.13,10.91,6,11.74,2.91,15.94-4.46,26.95,2.77,54.07,3.47,81,6.8,2.8.35,5.61.67,8.4,1.08,4.14.61,7.62,1,10.51,5.62,3.48,5.54,10.14,8.35,16.53,10.5,2,.68,4.27.83,5.77,2.64,1.59,2.83,1,5.23-1.4,7.28-4.33,8.53-11.47,14.92-17,22.51-2.06,2.81-4.13,5.62-4.79,9.16-2.3,2-5.47,2.1-7.91,3.76-3.87-.55-5.5-4-8.12-6.22-15.34-12.84-32.63-18.48-52.31-12.86-14.57,4.17-23.31,15.4-30.41,28-3.35,5.93-6.35,12.05-7.93,18.79C101.37,277,101.26,279.36,98.72,279.83Z"/><path class="cls-4" d="M552.78,537c-1.11-4.79-3.34-8.57-8.67-9.6-1.25,1.25-.28,2.49.12,3.63,4.47,12.71-7,19.48-17.31,16.31-5.7-1.75-10.28-5.25-15-9.16-1.67,3.28-1.9,7-4.57,9.41a1.42,1.42,0,0,0,.21,2.49c4.93,3,6.74,7.71,6.66,13.15-.09,6.38-2.66,11.91-6.6,16.88-1.53,1.93-5,3.2-4.65,5.37.35,1.9,3.43,3.29,5.29,4.93,22.8,20.13,9.19,45.79-10.12,54.69-.73.33-1.45.68-2.73,1.28,5.84,3.95,8.88,9.28,10.45,15.53,3.1,12.27-3.74,19.89-17.28,18.5,4.17,12.78,2.62,23.73-10,30.85-3.2,2-6.76,1-10.17,1.17-6.83-1.25-6.89-1.27-9.08,5.61a55.23,55.23,0,0,1-5.5,11.14c-.91,1.54-1.59,3,.85,3.93,7.63,2.83,9.31,9.4,10,16.4.73,7.75-2,14.7-5.58,21.39-.6,1-1.87.62-2.62,1.31-3,2.63-6,5.3-9.89,6.59-8.2,2.68-15-.49-18.07-8.52-.46-1.2-.89-2.4-1.66-4.48-3.31,7.49-8.14,12.42-15,15.3-7.78,3.27-13.85.32-19.36-5-.72-.92-2-1.11-2.69-2.07-1.48-2.79-3.47-4.65-6.88-5a10.89,10.89,0,0,1-7.27-4,26.75,26.75,0,0,1-2.3,7,7.8,7.8,0,0,1-2.83,3.09,71.67,71.67,0,0,1-5.63,4.85c-10.64,7.44-21.25,5.78-30.36-4.62-1.15-1.32-1.76-3.33-4-3.25a3,3,0,0,1-1.94-2.23,60.87,60.87,0,0,1-2-9.26c-.87-5.09-.5-10,2.76-14.26,2.19-2.9,2.4-4.74-1.62-6.73-6-3-8.77-8.59-8.88-15.18-.08-5.38,2.1-10,7.45-11.86,3.91-1.38,3.56-3.21,3-6.73-1.08-6.37-4.17-12.34-3.87-18.93.12-2.4-1-2.85-3-2.65-8.19.81-12.76-3.78-15.45-10.74-2.83-7.33-4.36-14.78.68-21.92,1.35-1.92.82-3.19-.91-4.61a17.2,17.2,0,0,1-6.33-16.45c.54-3.9.61-7.56-1.08-11.2-.69-1.48-1.23-3.2.6-4.46,1.21,0,1.74.92,2.16,1.78,1.17,2.33,2.65,2.07,4.37.7,2.24-1.78,4.92-2.66,7.84-3.61-1.91-1.92-3.94-1.66-6.08-1.19-2.32.51-4.64.78-5.9-2,2.68-2.58,6.13-3.19,9.57-3.13,2.14,0,3.06,0,2.81-2.51-.78-7.53,1-14.19,7.1-19.24,1.82-1.51,1.27-3.1.37-4.89-2.87-5.73-3.27-11.14,2.25-15.71,1.42-1.18,1.33-2.82,1.39-4.56.2-6,.15-11.55-8.27-11-.77,0-1.51-.64-2.08-1.28-.25-.93.26-1.45,1-1.87a13.36,13.36,0,0,1,5.92-.53c7.2.44,8.27,1.69,7.69,8.77-.78,9.63,4.93,19.86,13.6,24.35,6.47,3.34,11.79,1.34,14.44-5.47,2-5.16.91-10.14-.89-15.09-3.82-10.49-3.81-10.49,6.8-9.71,5.54.4,10.64-.54,14.49-5a10.73,10.73,0,0,0,2.13-3.35c3.42-9.44-.58-22.91-8.56-29-2.46-1.89-5.34-2.62-8.22-3.48-4.33-1.28-5.28-2.83-3.44-6.95,2.15-4.83,2.18-9.76,1.51-14.7-1.12-8.25-6.31-11.12-13.89-7.85-4.12,1.77-8.05,3.95-12.15,5.81-4.53,2-7.59,10.51-6.65,16.71.41,2.69,2.83,5.9.32,8-2.9,2.43-5.44-1.16-8-2.31s-5.95.12-7.23-3.33c2.14-2,4.65-1.41,7-.78s3.83.46,3.54-2.6c-.41-4.4.8-8.53,2.61-12.47,1-2.28.79-4-1.24-5.64-4.4-3.62-4.95-8.26-3.09-13.39,2.94-.42,2.35,2.06,2.73,3.53,1.69,6.42,4.44,8.19,11,6.51,6.15-1.57,10.49-5.59,13.84-10.81.81-1.26,1.56-2.56,2.35-3.84,2.56-4.14,4.13-4.11,6.69.05,3.55,5.79,6.9,7.21,11.65,4.94a11.94,11.94,0,0,0,6.05-14.55c-2-5.65-2.24-11.2,2.66-15.66,2.08-1.89,1.46-3.15-.11-4.94-5.62-6.41-3.38-13.79-2.27-21,.12-.78.66-1.65,1.72-1.39a3.43,3.43,0,0,1,2.47,2.28c.7,2.06-.34,3.92-.9,5.82-2.5,8.58,2.81,14.74,11.64,13.31a23.19,23.19,0,0,0,13.64-7.77c5.61-6.21,5.58-6.25,11.39.1,3,3.24,6.21,6,10.58,7.24a7.42,7.42,0,0,0,7.78-2c2.22-2.15,2.32-4.64,1.46-7.37-.5-1.6-1.22-3.1-1.82-4.66-.52-1.37-1.4-2.95.09-4.13,1.26-1,2.48.07,3.65.68a18.05,18.05,0,0,0,20.81-2.77c1.86-1.76,2.16-4.55,4.33-6,3,1,1.84,3.12,1.32,5-2,3.77-5.31,6.19-9.06,8.07-1.56.79-3.7,1.25-2.36,3.84a15.64,15.64,0,0,1,1.33,2.57c3.17,12-.51,20.5-11.52,25.94a5.34,5.34,0,0,0-3.42,5.44c.05,2.49.08,5-.09,7.47-.66,9.95-10.93,21.15-20.67,18a2.23,2.23,0,0,0-2.91,1.23c-3.11,2.45-5.72,5.57-9.54,7.1-9,3.61-17.24.91-22.92-7.6-3.09-4.64-4.95-4.74-8.26-.09a23.8,23.8,0,0,0-4.3,18,11.76,11.76,0,0,0,4.5,7.48c9.77,8.11,12.83,26,6.5,37-2.63,4.57-2.29,7.47,1.29,11.13a13.25,13.25,0,0,0,20.17-1.37,6.71,6.71,0,0,0,1.06-6.93c-5.88-16.87,5-33.61,22.9-35.37,2-.19,4.35,0,4.47-2.8s1.19-6.22-1.44-8.49c-1.94-1.68-4.11-.37-6,.68-2.54,1.39-4.26,3.69-6.25,5.69-.69.7-1.52,1.5-2.59,1.05a2.16,2.16,0,0,1-1.08-2.57c1.33-5.53,1.43-11.19,2-16.81a1.92,1.92,0,0,1,1.59-1.7c4.51,3.65,1.7,8.26,1.66,12.69,1.75-1.72,3.22-3.68,5.62-4.4a9.3,9.3,0,0,1,3-.25c2.85.63,4.43-.46,4.86-3.39.75-5,3.12-9.46,5.46-13.88a19.75,19.75,0,0,1,6.68-7.29c7-4.62,13.67-2.59,17.25,5,.66,1.4.12,4.87,3.52,3.12,2.95-1.5,3.59-3.72,1.28-6.45a22.54,22.54,0,0,1-5.21-12.24c-1.07-9.4,5-16.94,14.55-17.86a27.1,27.1,0,0,1,10.42.55c3.23,1,4.31.4,4.18-3.39a21.78,21.78,0,0,1,16.75-21.48c1.73-.37,3.6-1.18,5,.72,11.42,4.18,15.94,10.51,16.32,22.66,0,1.2-.73,2.83.9,3.48.52.21,1.52-.42,2.11-.89,1.3-1.05.86-2.29.23-3.57a36.09,36.09,0,0,1-3.28-16.91c1-1-.34-3.26,1.85-3.72,6.27-6.76,7.09-6.8,18.7-.87-.76-4.21-2-8.18-1.77-12.34.41-7.83,6.24-11.54,13.07-7.73,9.68,5.39,13.58,14.75,14.87,25.13.51,4,1.31,5.29,5.32,3.82a9.11,9.11,0,0,1,7.68,1.08c12.3,7,23.62,37.07,14.09,50.65-2.66-.77-1.36-2.7-1-4,4.18-14.93-1.23-27.5-9.78-39.16-4.09-5.58-8.49-6.52-14.21-3.5-3,1.59-4.35.51-5-2.37a32.43,32.43,0,0,1-.25-5.49c-.33-8.25-3.92-15-9.55-20.85-2.43-2.51-5.52-4.12-9-2.54-3.29,1.48-3.25,4.89-3.11,7.85a27.71,27.71,0,0,0,5.8,16.19c1.43,1.83,4.25,4.73,2,6.37-2.44,1.75-3.89-2-5.24-3.89-3-4.15-6.62-7.51-11.48-9.28-4.27-1.57-7.07-.2-8.69,4.05-1.83,4.83-.46,9.57.71,14.21.65,2.59,3,2.79,5.33,2.1a20.49,20.49,0,0,1,12.3-.12c11.39,3.69,17.33,15.33,13.79,27.26-1.28,4.32-3,8.63-6.79,11.4-3,2.16-3,3.7-.22,6.12,5.77,5.1,10.87,10.78,14.11,17.93,1.3,2.88,2.77,5.66,2.7,9,1.58-.34,1.5-1.54,2-2.28,2.22-3.22,3.84-3.25,5.8.2,2.15,3.76,3.88,7.81,7.22,10.71,3.93,3.42,8.44,4.61,13.44,2.56,4.62-1.9,8-6.62,7.75-11.26-.37-6.27-2.06-12.12-6.58-16.85a56.39,56.39,0,0,0-8.61-7.57c-1.33-.92-2-2.22-.76-3.81s2.51-1.51,4.54.07c-1.13,2.54,1.25,3.05,2.48,4.15,6.22,5.6,10.71,12.17,12,20.64,1.36,8.86-2,14.86-10.56,17.57-3.27,1-3.63,2.32-2.71,5.28,1.31,4.23,1.17,8.5-1.34,12.41-2.17-.1-1.58-1.73-1.48-2.89a63.67,63.67,0,0,0,.22-6.48c-.08-3.35-1.47-5.68-4.84-6.7-5-1.51-8.62-4.88-11.6-9-2.6-3.62-3.12-3.64-5.8,0a9.51,9.51,0,0,0-1.3,2.68c-2.61,7-7.29,11.47-14.85,12.58-.66,0,.19.1-.48,0C557.76,533,554.22,532.52,552.78,537Z"/><path class="cls-5" d="M120.43,439.16c5.69-.5,11.51,1.31,17.12-.87a22.06,22.06,0,0,0,4.2,7.11c3.4,4.2,6.85,8.49,7.92,14.06,2.78,10.3-.47,18.65-8.24,25.54-11-2.9-22-.62-33,.08-9.59-.41-19.13,1.78-28.71.93-14.63-1.29-29.11-3.58-42-11.17-9.19-5.41-16.7-12.59-20.43-23-5.23-14.63,1.56-24.6,17-24.73,10.83-.09,21.46,1.76,32.1,3.48,18.14,2.93,36,7.24,54.25,9.84,3,.42,6,.06,8.53.17C126.64,439.54,123.08,442.27,120.43,439.16Z"/><path class="cls-6" d="M601.53,483.08c-2.06-1.6-3.74-.2-4.34,1.31s1.61,1.7,2.63,2.4c8.54,5.85,14,13.59,14.56,24.2.31,5.69-3.79,11.19-9.6,13.12-6.17,2-12.86-.36-16.88-6.31a69.36,69.36,0,0,1-4.34-7.83c-.51-1-.54-2.49-2-2.43s-1.54,1.54-2,2.56-.67,1.88-1.1,2.77-.89,2-2.14,1.59c-1-.29-.81-1.34-.83-2.12-.12-8.22-4.91-14.29-9.67-20.24a45.5,45.5,0,0,0-9-8.63c-2.87-2.05-1.6-3.2.15-4.37,7.26-4.85,9.55-11.9,9.46-20.2a19,19,0,0,0-24.4-18.15c-6.22,1.81-8,.39-8.68-6.42-.35-3.76-1.38-7.4,0-11.26,1.69-4.89,4.91-6.76,9.9-5.2s8.94,4.94,12.13,9.12c1.39,1.82,2.17,4.13,4.68,5.75-.15-3.18-2.12-5.05-3.57-7-4-5.29-5.38-11.2-5.26-17.68.07-3.37.57-6.63,4.12-7.73a9.15,9.15,0,0,1,9.22,2.43c6.66,6.49,10.9,14.15,10.87,23.74,0,1.5-.09,3,0,4.5.17,2.11.72,3.16,3.06,1.45,5.13-3.77,10-3.55,14.38,1.75,10.26,12.37,16.28,26.15,11.44,42.69-.31,1-1.33,2.08-.06,3.16A5.27,5.27,0,0,1,601.53,483.08Z"/><path class="cls-7" d="M98.72,279.83c4-12.18,8.59-24.08,16.65-34.33,15.57-19.79,35.21-25.14,59.06-16.48,10.39,3.76,18.44,10.43,25.87,18.19,1.84,1.12,2.5,2.93,2.88,4.9,5,5.24,6.75,12.43,10.94,18.16a6.59,6.59,0,0,1,2.1,2.29c1.27,4.13,2.47,8.29,3.5,12.5,1.07,11.47,1.9,22.94.84,34.46-.42,1.56-.63,3.18-1.09,4.73s-1.39,3.14-3.43,1.4c-.81-4.31,0-8.61.26-12.88,1-17.08-.86-33.66-9.11-48.9-5.84-10.76-13.35-20.13-24-27-12-7.74-25.22-4.27-37.13,4.25a36.13,36.13,0,0,0-8.22,8.68C121,273.69,115.3,300.2,118.42,329c1.61,14.76,3.44,29.44,7,43.86.43,1.75.89,3.59.07,5.4-1.75,1.34-3.75,1.16-5.69.73-4.66-1-9.28-2.22-13.86-3.61-5.71-1.73-9.48-4.88-9.67-11.24a.73.73,0,0,1-.18-.66,7.36,7.36,0,0,0-.58-5.63c-2.15-2.54-1.55-5.7-1.82-8.62-1-10.92-2.58-21.78-1.2-32.86.56-4.55-.1-9.28,1.1-13.85.42-1.62.63-3.28,1.88-4.54Z"/><path class="cls-8" d="M148.49,459a38,38,0,0,0-10-15.18c-1.81-1.76-2.45-3.36-1-5.52l.19-.3.36.08a13.78,13.78,0,0,1,5.35,4.24c13.76,16.38,31.12,25,52.79,24.49,15.18-.33,30.31.26,45.06,4.51a11.9,11.9,0,0,1,10,5.49,41.06,41.06,0,0,1,7,26.14c-5.38,11.71-11.94,15-24.38,12.49a44.41,44.41,0,0,1-11.67-4.32c-17.87-9.34-36.38-17.28-54.73-25.57-4.27-1.93-8.9-2.8-13.26-4.42-2.58-.95-5.61-1.7-5.7-5.4C150.35,470.14,150.69,464.56,148.49,459Z"/><path class="cls-9" d="M733.26,361a93.28,93.28,0,0,1-.77,24.36c-1.5,9.39-8.31,15-15.73,19.57-12.91,8-27.35,11.71-42.12,14.56-15.27,3-29.43.51-42.47-7.8-9.17-5.84-15.94-14-20.86-23.63a.87.87,0,0,1,.25-1.31c2-.6,2.75.85,3.42,2.15,7.42,14.24,20.1,19.33,35.17,21.05,12.19,1.39,22.27-2,30.74-10.74,5.28-5.43,7.06-12.3,8.19-19.46.42-2.62.15-5.33.94-7.91,1.09-1.67,2.86-2.17,4.63-2.65a302.66,302.66,0,0,0,33.53-10.73C730.82,357.44,733,357.25,733.26,361Z"/><path class="cls-10" d="M247.71,275.35c3.35.44,4.94-1,5.85-4.33,2.9-10.64,4.95-21.54,10.38-31.42,2.48-4.51,5.41-7.15,10.56-7.92,5.9-.89,11.86-4,17.52-3.4,10.55,1.09,20.37-2.28,30.57-3,9.94-.68,19.82-2.26,29.73-3.45,2.11-.5,3.42,0,2.95,2.51a251,251,0,0,1-28.48,4.08c-7.14.57-14.17,1.87-21.28,2.59-3.18.33-4.3,1.62-2.91,5,2.58,6.22,3,6.7,9.55,5.64,14.61-2.4,29.4-3.15,44.07-4.93,2.15-.26,4.27-.66,6.4-1,2.16,1,1.9,2.6,1.16,4.35-4.63,2.53-10.12.73-14.82,3a13,13,0,0,1-3.3.13c-12.56.75-25.25,1.13-37.49,3.94-7.31,1.69-14.35,4.93-21.77,6.67a4.63,4.63,0,0,0-3.37,2.75c-2.94,8.14-9.23,14.59-11.52,23-.35.95-.74,1.89-1.07,2.86a36.12,36.12,0,0,0-2.92,9.27c-3.93,9.45-6,19.49-9.41,29.13-.91,2.6-1.31,5.83-5.45,4.63-1.43-1.77-.36-3.53.17-5.18,4.88-15,9.49-30.15,15.35-44.84,2.69-6.75,1.39-9.07-5.51-10.77-2.42-.6-3.85,0-4.66,2.32-.88,2.51-2,4.92-2.79,7.48-5.13,17.52-12.13,34.41-17.06,52-3.06.8-3.74-.9-3.45-3.41a28.27,28.27,0,0,1,1.48-5.07c3.17-10.07,6.67-20,9.3-30.28A30.15,30.15,0,0,0,249,277.36c.22-.43.66-.58,1.05-.81-.36-.23-.67.12-1,.09C248.2,276.58,247.44,276.5,247.71,275.35Z"/><path class="cls-6" d="M552.78,537a2.66,2.66,0,0,0,.22-2.76c-1-2.46-.3-3.34,2.42-2.7a54.37,54.37,0,0,0,6.25.74c2.62,2.47,5.49,4.17,9.32,3.31,6.76-1.54,8.5-7.29,4.56-15.24.08-3.87,4.24-4.81,5.36-7.9,2.19.59,2.22,2.53,3.06,3.83,2.95,4.55,6.54,8.44,12,9.69,4.06.93,5.28,3.57,5.44,7.12.14,3.35,0,6.71,0,10.06-3.18,6.31-7.44,8.2-14.77,6.16-3-.83-4.34-1.33-3.73,3,1.74,12.41-7,20.12-19.26,17.31-2.36-.54-3.61-.54-3.06,2.32-.11.64-.23,1.29-.35,1.93C558.32,561.42,554,549.52,552.78,537Z"/><path class="cls-5" d="M95.51,298c-3.32,20-1.35,39.91,0,59.87-.39-.23-.78-.46-1.16-.7-4.12-2.79-8.85-4.38-13.22-6.68-17.08-9-16.47-33.22-5.27-42.94,1.21-1.05,2.67-2,3.14-3.75C83.72,299.58,89.55,298.59,95.51,298Z"/><path class="cls-11" d="M568.46,16c18.65,5.36,37.3,10.71,54.33,20.69A94.14,94.14,0,0,0,608.7,21.07c-5.1-4.64-10.52-8.94-15.27-14.09,22.2,7.93,39.49,22.74,55.64,39.71,0-2-1.21-3.28-2.11-4.65C641,33,636.74,23,632.67,13a39,39,0,0,1-1.85-6.22c-.5-2.22-1.59-5.61.22-6.48,2.78-1.32,3.21,2.51,4.5,4.15,9.61,12.13,18.92,24.49,28.68,36.49a185.82,185.82,0,0,1,13.49,19.77c.85,1.38,1.34,3.09,3.32,4.06-2.35-12.57-7.48-24-11.94-36.1,3.17-.29,4.41,1.62,5.74,3.1,7.69,8.49,12.68,18.69,17.9,28.72a152.16,152.16,0,0,1,15,43.73c.27,1.55.26,3.29,2.12,5.06.65-7.17,2.33-13.63,3.75-20.15.92-.07,1.32.54,1.63,1.26-.06,8-2.33,15.73-3.06,23.65a2.36,2.36,0,0,1-1.94,2.06c-1.38.26-2.13-.74-2.71-1.78a19.73,19.73,0,0,1-1.8-5.7,196.05,196.05,0,0,0-20.31-55.07c-3.29-6.05-8.21-11.1-10.13-16.65,3.31,6.62,5.76,14.76,8,22.93,1.8,6.59,3.32,13.23,5.92,19.57.6,1.45,1.72,3.64-.09,4.49-2,.94-3.15-1.31-4-2.85-2.31-4.05-4.35-8.24-6.63-12.31-10.4-18.55-23.79-34.91-37.13-51.31a106.12,106.12,0,0,1-7.74-10.95c6.81,19.94,17,37,28.13,53.67,1.37,2.07,4.82,4.68,2.4,6.68-2.75,2.28-4.36-1.84-5.81-3.68-14.23-18-30.42-33.9-49.87-46.3-1.4-.89-2.44-2.24-3.71-3.12a293.62,293.62,0,0,1,21.26,21,49.07,49.07,0,0,0,7.28,6.77,15.87,15.87,0,0,1,3.4,2.93c.82,1,1.74,2.23.73,3.57-.86,1.13-2.12.64-3.23.29A7.64,7.64,0,0,1,632,47.11C614.27,33.66,593.86,26.19,572.85,20c-1.85-.54-4-.93-4.64-3.29C568.29,16.47,568.37,16.24,568.46,16Z"/><path class="cls-12" d="M562.54,28c6.4,2.79,8.78,8.43,9.76,14.66C574.23,55,574,67.17,566.24,78c-2.86,1.33-2.17-1.13-2.19-2.26,0-3.33,0-6.65,0-10a25.55,25.55,0,0,0-1.16-7.86c-3.48-11.37-10.76-15.47-22.14-12.2-7.24,2.08-13.66,6-20.24,9.55-2.18,1.18-4.16,2.83-6.87,2.57-.8-.28-1.45-.66-1.23-1.69,8.07-6,15.37-12.92,23.73-18.53C544.2,32.18,552.13,26.72,562.54,28Z"/><path class="cls-13" d="M733.26,361c-.87-1.26-1.29-2.91-3.61-2-12.78,5.2-26,9-39.22,13-7.33,3.8-15.55,4.41-23.38,6.34a422.89,422.89,0,0,1-48.38,8.68c-2.44.31-4.79-1-7.13.11a1.59,1.59,0,0,1-.23.88,4.46,4.46,0,0,0-3.14-1.18c-19.84.95-39.74,1.34-59.43,4.13-13.86,2-21.36,15.82-16.41,29.31-.62,1.24-1.24,2.48-1.85,3.72-1.45-7.09-1.67-14.07.37-21.18,2.38-8.31,8-12.64,16-13.59,12-1.43,24.11-2.27,36.18-3.22,18.35-1.43,36.66-3.11,54.87-5.95,29.11-4.54,57.43-12.14,85.45-21A69.75,69.75,0,0,0,738,352.7c8.66-5.12,10.33-9.58,9.33-19.46a356.24,356.24,0,0,0-14.07-68.08c-5-16.48-11.67-32.49-18.82-48.23-.39-.87-1.15-1.68-.56-3.19,3.39,2.38,3.09,7.23,6.47,9.33,1.68,3.12,3.64,6.11,4.68,9.55.47,1.12.26,2.51,1.31,3.42,1.38,11,6.85,20.8,9.59,31.42,6,23.19,12.21,46.3,13.35,70.43.36,7.5-2.76,12.18-8.82,15.93C737.59,355.57,733,356.06,733.26,361Z"/><path class="cls-14" d="M148.49,459c3.49,5.53,2.33,11.29.84,17.07-1.62,6.91-1.56,6.75,5.39,9.38,9.19,3.47,18.14,7.53,27,11.81,19.62,9.5,38.72,20.07,58.91,28.39,2.29,1,4.81,2,3.26,5.46-.54,1.22.58,2.18,1.29,3.07,10,12.61,15.57,27.38,21,42.28a591.74,591.74,0,0,1,25.93,98.85c3.19,18.05,4.84,36.24,6.91,54.4,1.59,14,4,28,10.11,40.71,0-.32.1.74.1.56,0-6,2-7.25,6.42-2.75,1,1.06,1.83,2.36,2.92,3.4,2,1.87,3.94,2.34,6.13.3,1.32-1.23,2.64-2.65,4.78-1.89.33.68.67,1.36,1,2.05-7.69,6.68-10,6.46-16.44-1.5a17.43,17.43,0,0,0-1.63-1.51c-1.37,2-.2,3.61-.08,5.27s1.23,3.18-.3,5.67a43.16,43.16,0,0,1-8.42-15C300,753.27,298,741.19,296,729c-3.93-24.28-5.55-48.87-10.72-73-7.2-33.58-16.26-66.54-29.78-98.14-5-11.81-10.85-23.6-22.15-30.75-8.11-5.13-17.15-8.79-25.71-13.24-21.42-11.13-42.94-22-66.22-28.88.1-1.13,0-2.36,1-3.2,6.86-5.75,8.17-13.05,6.06-21.34A5.2,5.2,0,0,1,148.49,459Z"/><path class="cls-15" d="M512.45,56.09c.31.34.61.68.92,1,.45,2.06-1.63,2.57-2.37,3.91-6.91,4-13,9.3-20.1,13a32.84,32.84,0,0,0-8.25,5c-7.39,5.28-15.92,8.26-24,12.07-3.9.2-7,2.46-10.29,4.11-1-1.63-2.29-1.61-4.18-1.33-8.52,1.25-17.11,3-25.65,2.93-9.62-.1-19.26-.68-28.9-.7-1.84,0-3.67-.06-5.5.06-7.2.48-12.07,4-14.6,10.89-6.63,18-8.53,36.81-7.93,55.82.42,13.1,4.79,25.32,9.74,37.37,2.1,5.13,5.34,5.6,9.83,4.5,1.85-.46,3.53-1.82,6.6-1-6.12,4-12.3,4.42-18.42,4.09a130.05,130.05,0,0,1-25.42-4.38c-1.52-.39-3.15-.55-4,1-1.13,2,.67,2.84,1.94,3.92,7.22,6.12,14.74,11.94,19.66,20.32,2.82,4.8,4.93,9.77,5.16,15.41.81,1.36.79,2.79-.8,3.24-1.79.52-2.06-1.16-2.32-2.46a12.84,12.84,0,0,1-.18-4.94c-.12-1.36.44-2.85-.81-4-2.73-3.73-6.4-6.89-7.19-11.8-.41-1.54-1.57-2.09-3-2.27-2.19-5.32-6.83-8.35-11-11.83-1.84-1.54-4.87-2.79-3.68-5.77s4.52-2.47,7.06-2.11c7.24,1,14.44,2.41,21.66,3.56,3.56.56,5.54,0,3.54-4.4-8.67-19-11.86-39.08-10.49-59.89A112.53,112.53,0,0,1,367.36,107c3.6-9.07,10.09-12.91,19.7-13,12.66-.15,25.26.9,38,.28,21.1-1,40-7.74,57.5-19.2C492.4,68.62,502.47,62.42,512.45,56.09Z"/><path class="cls-16" d="M120.43,439.16c3.77,2.16,8.07.13,12.61,1.56-11.9,1.56-22.71-1.42-33.61-3.21-21.22-3.49-42.15-8.85-63.8-9.45a28.48,28.48,0,0,0-10.25,1.65c-6.93,2.45-10.37,9.47-8.56,17C20.67,462.81,32,472.3,46.49,477.79a109.64,109.64,0,0,0,54.79,6.43c2.31-.33,5-1.09,7.15.86-14,1.94-28.06,3.24-42.08.48-12.92-2.55-25.74-5.49-36.13-14.5C22.9,464.71,17,457.57,15.08,447.7c-2.32-11.92,3.83-20.5,15.9-21.38,11.2-.82,22.25,1,33.23,2.92,14.43,2.48,28.84,5.1,43.11,8.51A58.86,58.86,0,0,0,120.43,439.16Z"/><path class="cls-17" d="M483.61,754.06c1.46-2.08,3.67-2.09,5.82-2,10.29.6,20.06-1.79,29.79-4.81a108.29,108.29,0,0,1,51.14-3.63c4.79.82,9.91-.31,14.87-.56,1.75-.09,2.12-1,1.87-2.71-2.83-19.33-5.91-38.63-8.25-58-1.2-9.88-3-19.63-4.4-29.47a3,3,0,0,1,.73-2.78c3.3,18.47,7.54,36.84,9.57,55.46,1.21,11.14,2.61,22.3,3.6,33.49a13.09,13.09,0,0,0,1.31,4.77,2.62,2.62,0,0,1-2.26,2.31,7.93,7.93,0,0,0-2.33-.79c-23.81-.17-47.82-3.57-71,5.39-9.46,3.67-19.61,3-29.56,3.38A.53.53,0,0,1,483.61,754.06Z"/><path class="cls-11" d="M714.42,90l-.78-.89c1.42-3.45,1.23-7.48,4.33-10.6-1.74,33,2.67,65.59,5.77,98.44,6.85-11.76,12.65-24,22.86-35.08-.59,5.15-1.75,8.46-4,11.38h-.74c-6.48,9.79-13.17,19.47-16.08,31.1-.35,1.39-.13,3.47-2,3.54-2.06.07-2.37-2-2.63-3.63-2.48-15.42-3.12-31-5.19-46.49-1.39-10.39-.32-20.9-1.8-31.28-.56-4,.13-7.94.65-11.89C715,93.06,716.15,91.37,714.42,90Z"/><path class="cls-18" d="M109.5,178.25c.09,4-1.57,7.41-5.32,8.61-4.36,1.4-8.38.07-11.08-4,.71-2.48-.69-4.47-1.58-6.56-2-4.66.83-6.71,4.49-8.2,5.09-2.07,8.4-1.2,10.1,2.6C107.23,173.21,107.34,176.19,109.5,178.25Z"/><path class="cls-19" d="M726.31,236c-2-.09-1.85-1.62-1.93-3-3-10.29-.83-20.49.64-30.66,2.28-15.74,6.42-31,13.63-45.22.84-1.65,1.21-3.94,3.75-4.14l.2.19c-.45,5.39-2.88,10.21-4.82,15.08a157.54,157.54,0,0,0-11.33,65.24C726.48,234.38,726.36,235.21,726.31,236Z"/><path class="cls-20" d="M203.18,252.11a7,7,0,0,1-2.88-4.9c1.67-3.67,5.12-3,8.17-3.37,2.76,3,6.6,4.38,9.88,6.62,2.08,1.42,3.08,3,1.56,5.38s-3.27,3.31-5.8,1.65c-2.78-1.81-5.5-3.71-8.28-5.52C205,251.42,204,250.1,203.18,252.11Z"/><path class="cls-21" d="M61.16,288.18c2.74-2.92,5.53-2.55,8.35-.1-.79,3.37-1.45,6.79-2.41,10.11-.9,3.07-1.42,7.32-6.17,5.79-4.16-1.34-2.2-4.89-1.53-7.61S61.24,291.06,61.16,288.18Z"/><path class="cls-22" d="M79,303.8c1.71,2.18-.7,2.89-1.62,3.63C68.9,314.23,66,328,71.33,339.12c2.78,5.81,8,9,13.3,12.13,3.27,1.93,7.59,2.2,9.76,5.92-11.78-3.75-22.83-8.36-26.48-22C64.65,323.08,69.32,309.78,79,303.8Z"/><path class="cls-23" d="M230.28,212.17c.66-2.39,1.51-4.74,1.4-7.28,4.06.73,8.14,1.39,12.18,2.23,1.77.36,4.21.12,3.71,3.35-.44,2.78-1.68,4.29-4.59,3.83C238.73,213.65,234.51,212.89,230.28,212.17Z"/><path class="cls-24" d="M12.3,273.19a6.27,6.27,0,0,0,1.28,5.93c-2.13,2.74-4.28,5.47-6.39,8.22-1.59,2.06-3.34,2.46-5.55.89-2.51-1.79-1.77-3.64-.24-5.47C4.53,279,6.83,274.28,12.3,273.19Z"/><path class="cls-25" d="M575.41,28.16l-2.09-2.11c.89-.32,2,0,2.85-1.47-9-4.58-17.84-9.42-25.11-16.52l.73-1.31L568.46,16l-.05.09c-.7,2.26,1.27,2.3,2.47,2.81,3.49,1.47,7,3,10.46,4.48,1.2.51,2.54,1.19,2.37,2.8s-1.72,1.86-3,2C579,28.48,577.16,29.23,575.41,28.16Z"/><path class="cls-26" d="M483.61,754.06l.91.05-8.89,4.08a1.94,1.94,0,0,1-.72-1.52c1.63-3.74,1.53-7.56,1.24-11.6-.59-8.24-.32-16.54-.14-24.81.09-4.25-.61-7.18-5.74-7-1.22.05-2.72-.29-2.87-2.09l11.17,0c1.86,12.84.56,25.75.83,38.62C479.47,753,480.29,754.57,483.61,754.06Z"/><path class="cls-27" d="M21.43,242.41c-.11,2.36-.21,4.71-.31,7.07-2.81,1.3-4.41,4-6.72,5.85-1.26,1-2.6,2.45-4.25.6-1.41-1.58-1.61-3.42-.06-4.91C13.53,247.72,16.76,244.11,21.43,242.41Z"/><path class="cls-28" d="M587.4,746.13a4,4,0,0,1,2.26-2.31l12.5,1.56c-2.59,2.24-5.3,1.73-7.84,1.13-3.71-.87-4.77.24-4.25,4,1,7.2,1.66,14.44,2,21.73C588.71,763.84,589.94,754.65,587.4,746.13Z"/><path class="cls-29" d="M247.71,275.35c.68,1.17,2.45-.11,2.95,1.34a6.52,6.52,0,0,1-1.08.59c-3.26,2.11-6.76,1.37-10.07.5-6.39-1.68-12.67-3.78-19.43-3.4a7.17,7.17,0,0,1-4.92-2.07l-1-2a7,7,0,0,0,2.38.56C227.33,269.49,237.19,274.73,247.71,275.35Z"/><path class="cls-30" d="M475.44,756.92c.06.42.13.85.19,1.27-1.92,3.1-3.93,6.14-5.73,9.29-3.44,6-6.39,7.1-13.47,4.71.27-1.11,1.21-1.22,2.09-1.42,5.59-.47,8.6-3.94,10.89-8.72C470.54,759.68,471.93,756.84,475.44,756.92Z"/><path class="cls-31" d="M390.38,774c1.37,0,2.15.61,2.05,2.08-7.37.79-14.62-1.32-22-1,.69-1,1.38-2.08,2.06-3.13A49.49,49.49,0,0,1,390.38,774Z"/><path class="cls-12" d="M480.92,120.06c22.36,11.92,37,30.81,46.28,53.71,5.48,13.53,7,27.95,1.93,42.45-2.47,7-6.68,11.86-13.6,14.2-32.56,11-79.75,4.41-104.82-29.19-10.61-14.21-12.63-30.84-10.88-48a89.29,89.29,0,0,1,4.24-17.92c4.73-14.78,15.06-22.16,30-23.88,8.47-1,16.92-1.33,25.29.77C467.84,111.33,474.4,115.65,480.92,120.06Z"/><path class="cls-32" d="M575.41,28.16,584,26.21c-6-3-11.05-5.44-16.08-8-.69-.35-2.21-.46-1.36-1.86.21-.34,1.23-.19,1.88-.26,3.76,3.6,8.86,4.5,13.49,5.7a146.72,146.72,0,0,1,49.57,23.57c1.53,1.11,3.19,2.33,5.72,1.83-13-10.85-23-24.65-35.89-35.61,25,13.47,44.62,33.14,62.38,55.11-12.21-20-25.32-39.44-31.27-62.44,19.9,25.67,42.12,49.64,56.15,79.49-5.79-16.52-8-34-14.75-50.26,4.12,6.11,8.61,12,12.25,18.4,3.76,6.61,6.8,13.65,10,20.59a133.36,133.36,0,0,1,7.42,21.6c1.89,7.26,3.12,14.72,5.83,21.73l1.42-.12L714.42,90c.63.17,2.45-2.62,1.81.38-2.13,10-.06,19.89.26,29.79A540.9,540.9,0,0,0,722.23,180c.36,2.44-.76,5.3,1.62,7.66,1.69-13.88,10.41-24.06,16.59-35.43.31-.58.51-1.88,1.62-1.05.37.27.24,1.23.34,1.88-5.11,6.94-7.25,15.2-9.9,23.17a167.45,167.45,0,0,0-7.67,38.39c-.54,6.12-.33,12.3-.45,18.46-.9-3.52-4.94-5.76-4.06-10-4.65-22.91-9.75-45.73-17-68-7.18-21.94-15.24-43.53-29.85-62-12.62-16-28.06-26.46-48.9-28.23-12-1-23.86-1.5-35.77.14-3.32.46-4.55-1.07-4.39-4.27.4-7.58-1.16-14.83-3.59-22A40.62,40.62,0,0,0,575.41,28.16Z"/><path class="cls-33" d="M674.57,179.91c1.68,6.84.28,13.87,1.48,20.82,1.78,10.32,3.91,20.56,6,30.81.54,2.63.48,4.35-2.77,5.05-38,8.1-72.95,3.56-101.78-25.09C563.94,198,557.66,181,555.87,162.23a14,14,0,0,1,3-10.22c9-11.52,17.69-23.28,26.5-34.95,4.5-3.14,8.57-6.83,12.8-10.31,7.54-6.2,16.34-8.66,25.87-9a21.07,21.07,0,0,1,15.74,6.32c11.7,11.24,18.65,25.26,23.84,40.36,4.29,12.47,5.43,25.67,9.15,38.94C673.49,182,673.41,180.52,674.57,179.91Z"/><path class="cls-12" d="M674.57,179.91c-1.09,2.14,1.28,6.13-1.5,6.46-2.5.3-1.71-3.8-2.29-5.86-3.28-11.6-4.43-23.7-8.26-35.22-4.92-14.84-11.85-28.4-22.92-39.68-5.48-5.59-12.08-7.32-19.54-6.46-9.88,1.14-18.22,5.45-25.56,12.18-2.58,2.37-4.69,6.06-9.11,5.73,7.18-12.41,14.75-24.53,26.31-33.48,11-8.56,19.82-8.11,31.4-.42,14.54,9.65,19.85,24.49,24.24,40C672.61,141.64,673.64,160.79,674.57,179.91Z"/><path class="cls-34" d="M480.92,120.06c-3.1.43-5.05-2.1-7.54-3.16-4.57-1.94-9-4.11-14-4.75l2.34-.32c-5.91-4.61-11.13-9.51-13.42-16.67,2.16-4.1,6.05-4.77,10.11-5.08,5,8,11.12,14.91,19.26,19.88,1,.61,2.19,1.65,1.58,2.8-.81,1.51-2.32.71-3.52.15-5-2.35-10.15-4.33-13.24-8,8.14,7.08,22.39,12.57,37.2,13.76,4.48.35,8.94.91,13.42,1.32,7.73.72,13.65-2.37,18.55-7.83a85.54,85.54,0,0,0,17-29.7,33.69,33.69,0,0,0,1.1-16.79,12.68,12.68,0,0,0-9.29-10.2,28.4,28.4,0,0,0-21.34,2.07c-2.68,1.31-5.11,4-8.67,2.6.28-1.66,2.11-1.85,2.88-3,6.51-3.25,13-6.52,19.55-9.75,1.78-.88,3.61-1.68,5.46-2.4,17.64-6.87,25.54,5.45,26.93,18.37.46,4.27.08,8.63-.09,12.94,0,1-.06,1.56,1,1.7-8.06,14.3-18.8,26.34-31.1,37.08-4.56,4-9.63,7-15.66,8.11-3.64,1.11-7.46-.32-11.09.82h-4.94c-4.27-1.54-8.86,1.62-13.06-.87C487.14,122.38,484.45,119.91,480.92,120.06Z"/><path class="cls-35" d="M490.39,123.1c4.34.39,8.81-1,13.06.87l-6,.3c13.59,8,24.53,17.51,32.83,30,8.15,12.29,14.52,25.14,15.73,40-2.42-1.43-2.18-3.8-2.73-5.95-6-23.51-18.39-42.87-38.26-57C500.51,128.19,495.09,126.18,490.39,123.1Z"/><path class="cls-35" d="M508.39,124c3.58-1.76,7.39-.51,11.09-.82C515.9,125,512.1,123.84,508.39,124Z"/><path class="cls-8" d="M515.49,415.51c-3.65-20.83-8.07-41.52-14.47-61.68-3.3-10.4-7.85-20.39-15.78-28.48-22.2-22.67-44.94-44.7-71-63.05-12-8.44-24.21-16.31-38.4-20.49-3.36-1-7.14-2.55-9.21,2.24-.42.91.33,2.46-1.78,2.69-.39-2.3.58-5-1.52-6.85-5,.45-10.15-.42-14.81,2.17a8.1,8.1,0,0,0-2.82,4.15l-.12.42c0,.15-.09.29-.13.44a1.42,1.42,0,0,1-.05.22c0,.08,0,.15,0,.23s0,.17,0,.25c-1.49,9.45,1.61,16.61,6.53,21.68a32.31,32.31,0,0,0,12.34,7.44,8.1,8.1,0,0,0,7.58-1.12,10.4,10.4,0,0,0,1.05-1c3.35-3.87,7.68-6.11,12.52-7.74a9,9,0,0,1,4.61-.43,27.89,27.89,0,0,1,7.82,1,1.48,1.48,0,0,0-1.54,1,2.14,2.14,0,0,0-.05,1.89c7.89,7.61,13.9,16.71,20.16,25.59,10,14.13,19.11,28.79,27.74,43.77a175.23,175.23,0,0,1,17.49,42.75c.3,1.13.85,2.32.62,3.35a214.71,214.71,0,0,1,4.51,26.22c1.16,10.44,2.37,21.33-4.7,30.79-4.28,5.74-7.55,12.15-11.88,17.87a236.18,236.18,0,0,0-20.05,31.58c-.74,1.4-2,2.82-.52,4.52,4.14,2.22,5.42.23,6.07-3.71,1.2-7.37,3.92-14.17,9.51-19.36,7.37-6.85,16.18-4,18.35,5.85.24,1.07-.21,2.37.91,3.14.23,0,.45.11.54,0,2.59-2,6.45-3.36,7.28-6.38.72-2.6-3.22-4.25-4.56-6.71-3.17-5.76-5.17-11.83-1.82-18,3.26-6,9.11-7.85,15.68-7.82a37,37,0,0,1,10.3,1.77c2.35.69,2.89-.07,2.56-2.44-1.89-13.7,6.08-23.27,19.84-24C517,418.84,515.76,417,515.49,415.51ZM398.85,267.9c.79.23,1.6.49,2.42.78-.53-.13-1-.27-1.56-.44C399.44,268.15,399.15,268,398.85,267.9Z"/><path class="cls-5" d="M96.31,364.16c5.5,13.33,17.93,11.8,28.87,13.48,2.37-2.2,3.41-5.92,7.29-6.4,9,3.33,18.12,6.11,26.06,11.82,11.65,8.38,15.61,20.22,10.84,33.66-3,8.52-9.77,13.43-18.93,13.31-19-.25-36.71-4.6-52.26-16.09-12.81-9.47-17.4-21.2-13.81-35.6,1.33-5.33,4.63-9.07,9.27-11.77C94.69,366,96.44,366.1,96.31,364.16Z"/><path class="cls-5" d="M357.42,311.09a5.68,5.68,0,0,1,3.94,2c5.29,4.49,10.52,9,14.14,15.11a33.15,33.15,0,0,1,4.92,17c.06,6.24-2.89,10.58-8.55,12.76-8,3.1-16.41,5.26-24.5,8.23-7.43,2.71-14.3,6.31-20,11.85-.6.58-1.3,1.05-1.08,2-1.64,2.47-3.3,4.93-4.92,7.41-4.18,6.41-4.79,13.31-2.74,20.57,1,3-.53,5.13-2.73,6.76-4.9,3.62-10.29,5.59-16.5,4.2,4.88-22.26,17.11-41,29.45-60.21-5.46.44-5.46.44-11.57,5.31,2.2-5,4.32-9.06,5.71-13.35.77-2.38,5.17-5.19,0-7.92-.48-.25.18-3.12.69-4.66a42.24,42.24,0,0,0,1.84-13.73c0-4.49,6.77-10.47,13.57-12.28a31.17,31.17,0,0,1,15.73-.37C355.8,312,356.74,312.1,357.42,311.09Z"/><path class="cls-36" d="M132.47,371.24c-2.59,1.95-3.93,5.32-7.29,6.4a261.21,261.21,0,0,1-8.71-69.49c.36-22.36,8.17-42.22,21.06-60.21,6.74-9.41,16.45-14.34,27.48-16.75,6-1.3,11.62.26,16.74,3.38,19.54,11.89,30.39,29.68,34.58,51.79a99.09,99.09,0,0,1,0,38.56c-2.25,3.69-5,1.94-7.69.69-1.6-3.34.34-6.51.81-9.65a62.29,62.29,0,0,0-.24-17.36c-.43-3.39-1.76-3.68-4.07-1.68-3.91,3.36-8.17,6.34-11.53,10.28-3.77,4.43-7.8,8.63-11.62,13a14.69,14.69,0,0,1-.89,1.83c-1.12,1.77-3.06,2.94-3.71,5.06-3.66-.75-5.41,2.2-7.36,4.2-9.39,9.65-18.61,19.47-27.85,29.26C138.88,364.06,135.7,367.68,132.47,371.24Z"/><path class="cls-8" d="M247.64,471.29a23.42,23.42,0,0,0,9.45-3c12.21-7.45,24.35-15,34.77-25,2-1.9,4.11-3.86,4.56-6.83-1.79-1.44-3.57.28-5.94-.15,4.06-5.22,5.46-11.33,8.76-16.5,3.42-1,7-1.09,10.46-1.7,2.11.1,3.34,1.49,4.14,3.18,2.6,5.58,5.32,11.12,6.49,17.26a11.79,11.79,0,0,1-3.17,11,35.75,35.75,0,0,1-9.05,7c-13.82,7.34-24.4,17.71-31.19,32a26.17,26.17,0,0,1-10.62,11.68c-1.88,1.07-3.74,2.33-6,1.07-1.8-1.95-2.16-4.57-2.58-6.92-1.41-7.82-3.79-15.09-9.58-20.86A2,2,0,0,1,247.64,471.29Z"/><path class="cls-37" d="M177.4,327.1c-1.28-3.06,1.47-3.69,3-5,2-1.7,4.23-.62,6.19,0a121.87,121.87,0,0,0,39.8,5.24c20.66-.92,41.58-1.75,60.89-10.83,3.47-1.63,7-3,9.86-5.77,2-1.95,2.14-3.58-.29-5.24a45,45,0,0,0-10.49-5.74c-5.82-2-11.21-5.17-17.29-6.49a3.34,3.34,0,0,1-2.56-2.16,19.25,19.25,0,0,1,2.9-8.79,74,74,0,0,1,17.22,3.57c1.17.43,2.59,1.92,3.45.21,1.93-3.85,3.44-1.34,5.28,0a17.92,17.92,0,0,1,6.13,7c1.76,3.73,5.29,5.91,8,8.83,2.41,1.9,4.32-.19,6.36-.91,4.71,8.32,4.15,11.91-5,14.72-20,6.18-39.1,15.17-60.69,17-14.26,1.19-28.33,3-42.62,1.6-2.66-.26-4.88-.62-1.07-4C195.89,334.4,186.79,329.58,177.4,327.1Z"/><path class="cls-15" d="M310.38,419c-3.72.2-7.36,1.42-11.14.88a2.14,2.14,0,0,1,.12-.87c3.34-.65,6.83-.89,10-2,4.25-1.55,8.62-3.42,9.25-8.92,2.64,8.62,7.31,16.33,11,24.46,5.12,11.15,4.25,14.29-5.52,21.43-7.39,5.4-14.84,10.71-22.1,16.26-16.3,12.47-23,29.91-25.63,49.53a88.35,88.35,0,0,0,6,45.43c1.53,3.81,3.08,7.73,3.2,12-2.7.13-3.26-2.12-3.75-3.86-3.14-11.17-8.86-21.64-9.15-33.59-.75-30.43,4.7-58.15,32.57-76.46,6.25-4.11,12.44-8.36,18.58-12.65,5.47-3.82,6.61-7.73,3.92-13.79-2.29-5.17-4.55-10.36-7.08-15.44-1.69-3.38-3.29-5.93-7.37-2.92C312.46,419,311.33,418.63,310.38,419Z"/><path class="cls-38" d="M309.5,301.86a14.37,14.37,0,0,1-8.27-7.47c-2.08-4.42-5.88-6.9-9.6-10.7.24,5.39-2.09,4.81-5.18,3.25-5.33-2.69-11.71-1.75-17-4.69.21-.72.42-1.45.62-2.17,5.83,3.25,13,1.91,18.62,5.79,2-5.94,1.47-5.19,6.49-1.61,6.42,4.57,8.32,13.06,15.59,16.58Z"/><path class="cls-39" d="M247.64,471.29c8.06,8.28,10.57,19,12.93,29.72,2,3,1.45,6.33,1.07,9.6-.16,1.28-.61,2.78-2.3,2.7s-1.87-1.61-2.19-2.88c-.63-2.49.13-4.92.32-7.37.11-7-1.65-13.7-4.21-20.17-2.23-5.65-6-9.72-12-11.58Z"/><path class="cls-1" d="M257.47,503.06c2.08,2.85-.16,6.44,1.53,9.36l1.57.11V501c7.78-1.19,12.21-6.82,15.23-13.06,7-14.52,17.73-25.09,31.83-32.51a36.62,36.62,0,0,0,3.79-2.4c8.08-5.6,9.64-9.34,6.51-18.6-1.83-5.42-3.32-11.17-7.55-15.48,8-5.09,8-5.1,12.28,3.6,2.33,4.79,4.56,9.62,6.73,14.48,2.55,5.73,1.29,10.28-3.91,13.95-8.16,5.74-16.49,11.22-24.54,17.1-15.45,11.28-22.85,27.16-25.52,45.65-1.73,12-3.51,24.24.11,36,2.83,9.23,4.61,19,10,27.32l-.07-.07a10.23,10.23,0,0,1,2.25,6.84c-.08,7.14,1.82,13.67,6.54,19.18,2,2.37,3.23,5.25,5,7.8,1.42,1.21,2.55,2.49,1,4.38-.12.11-.37.28-.34.33,2.91,6.92,1.12,14.23,1.89,21.3.58,5.31,4.07,9.38,9.8,11.59-9.11,9.34-6.71,19-1.71,28.43,3.08,5.79,7.53,7.43,13.92,5.78,3-.78,3.64-.22,3.05,2.67-.78,3.89.27,7.46,1.65,11.14,1.65,4.44,1,9.5,3.35,13.88.8,1.53-.85,2.06-1.89,2.27-6.43,1.31-10,5.22-10.13,11.72-.16,7,4.39,13,11.11,15.53,1.08.39,2.32.46,3.14,1.88-8,7.81-8.11,17-4.25,26.91.13.35-.28.92-.43,1.39a15.75,15.75,0,0,0-3,1.7c-5,4.46-6.68,4.31-10.73-1.19-.1-.13-.16-.29-.25-.43-1-1.55-2.17-3.83-3.87-3.44-2.27.53-.82,3.12-1.11,4.8a23.08,23.08,0,0,0,0,3.25c-3.27-4-4.62-8.26-6-12.36-4.52-13.6-6.73-27.71-7.81-41.92-1.54-20.39-5.12-40.41-8.85-60.47a509.16,509.16,0,0,0-18.57-70.68c-5.91-17.41-11.12-35.27-22.25-50.44-1.38-1.88-2.83-3.72-4-5.71-.58-1-4.14-2.47.29-3.34,1-.19.39-1.85-2.09-2.64-5.26-1.67-10.1-4.23-15-6.63-18.57-9-37.1-18.09-55.72-27-7.19-3.44-14.45-6.78-22.25-8.7-3-.73-4.73-1.76-1.54-4.68,1.18-1.08,1.86-2.72,2.76-4.1.94,3.12,3.85,3.48,6.28,4.14,14.33,3.87,27.33,11,40.78,16.94,10.57,4.69,20.87,10,31.29,15,3.48,1.69,7.28,2.18,11,2.82,7.67,1.33,12.46-3.13,16.6-8.69C256.06,505.26,256.75,504.14,257.47,503.06Z"/><path class="cls-6" d="M498.86,450.24c-1.2-5.79-4.59-10.1-2.54-15.73,3.53-9.7,11.58-13.5,17.53-13,7,.6,14.2,9.67,14.53,17.61.17,4.1.71,8.31-2.41,12.38,3.07.34,3.81-1.64,5.11-2.61,6.1-4.55,12.17-8.17,20.56-6,11.71,3,16.37,17.78,9.65,28.9a18.08,18.08,0,0,1-6.7,6.53c-3,1.72-4.08,3-.3,5.43,7.72,5,13.1,12.22,17,20.38,3.09,6.4,3.38,13.13-.06,19.64-2.33,4.39-6.1,6.33-11,6.36-8.11,0-15.06-2.2-19.75-9.35a17.06,17.06,0,0,0-2.64-2.26c1.24,5.45,3.92,9.23,4.77,13.77,2.4,12.82-7.43,16.37-16.15,13.26-5.23-1.88-9.54-5.33-13.41-9.31a6,6,0,0,1-1.66-3.5c-1.21-8.43-6.67-14.23-15.1-15.53-3.62-.56-3.65-1.1-1.67-4.11,4.79-7.28,10.07-14.39,9.85-23.92-.31-13.69-11.68-21.43-24.19-16-3.81,1.66-6.19,1.4-8.84-2.21-2.32-3.17-4.42-6.33-4.94-10.11-1.42-10.53,7.1-17.06,18.6-14.37C489.56,447.53,493.93,448.88,498.86,450.24Z"/><path class="cls-6" d="M438,586.43c-4.26-1.13-7.35.94-10.67,1.79-5.64,1.46-11.21,1.62-16.15-2s-4.72-8.87-3.31-13.63c1.67-5.63,4.67-11,11.63-11.47,6.41-.38,13,.75,18.27-4.53,1.77-1.76,2.72.83,3.51,2.16,4.22,7.12,9.84,12.46,18,14.72,11.36,3.12,20.4-3.77,20.05-15.45a73.58,73.58,0,0,0-.94-7.3c4,.07,7.16,2.72,11.06,2.44,4.48-.32,8.87-.23,13.15-2.14,3.92-1.75,9.46,3.19,9.72,8.58.45,9.36-3.75,16.7-10.68,22.54-2.69,2.26-3.59,3.24,0,5.93,6.87,5.21,13.14,11.24,15.74,19.94,2,6.8.23,13.41-2.82,19.18-4.8,9.08-12,16.09-22.72,17.72-12.76,1.95-22.06-4.32-29.62-13.8a9.71,9.71,0,0,1-1.83-6.1c0-1.15.22-2.57-1-3.16-1.65-.82-2.3.92-3.12,1.77-7.66,7.94-16.8,10.19-27.34,7.34-9.58-2.59-15.62-13.53-13-23.13,2.89-10.73,9.29-17.76,20.3-20.27C436.7,587.51,437.06,587.09,438,586.43Z"/><path class="cls-6" d="M367.48,649.09c-2.59,4.17-5.47,7.6-11,8.3-3.29.41-1.66,3.1-.49,4.57,4.63,5.82,5.88,12.47,5.44,19.68-.39,6.27-3.84,9.8-10,9.19-2.38-.23-2.87.86-3.59,2.4-3.18,6.77-5.82,8.72-10.41,7.68-5.45-1.23-8.93-5.74-9-12.24,0-3.58.53-7.16.84-10.93-10.78,6.59-20.75.44-21.9-13.15-.47-5.59.39-10.83,5.45-14.11,3.9-2.52,1.65-3-.8-4.15-10.44-4.79-12.36-19.3-3.61-26.82a10.36,10.36,0,0,1,14.32.43c6.24,6,11,6.72,18.65,2.78a6.07,6.07,0,0,1,1.87-.53c.69-.1,1.71.86,2-.54.2-1.12-.63-1.82-1.35-2.52s-1.39-.35-2.17.11c-9.95,5.9-15.1,5.11-20.73-4.41-3.82-6.45-4.9-13.71-1.52-21,1.39-3,3.23-5.41,6.67-6.2s4.1-2.31,1.4-5c-2.54-2.52-4.37-5.51-4.1-9.29.16-2.22.72-4.41,3.18-5.14s2.79,1.62,3.92,3c3.63,4.32,7.15,8.81,12.53,11.18,10.16,4.49,18.47-1,19.4-12.36.51-6.22-2.12-11.66-3.52-17.36,5-2,9,1.71,13.56,1.38a2.67,2.67,0,0,1,3.17,1.06,3.24,3.24,0,0,1,.07,1.42c-.44,3.08,1.48,5.74,1.59,8.7.07,2.11,1.05,2.54,2.89,2,.62-.19-.18,0,.48-.12,5.92-.82,11.39-.24,14.84,5.44,2.64,4.34,1.19,13.68-2.68,18.24-2.72,3.19-5.77,6-9.94,7.15-1.88.52-3.71,1-2.73,3.49.17.44-1.48,2.08.74,1.49,1.4.71,1.36,2,1.28,3.27-.52,3.61-1,7.24-1.61,10.83a21.88,21.88,0,0,1-6.82,13c-5.5,5-12.5,5.47-20,1,1.67,2,3.8,2,5.65,2.45,7.45,1.92,9.9,5.41,9.14,13.18a5.52,5.52,0,0,1-.58,1.9Z"/><path class="cls-6" d="M323.72,468.12c1.72-9,6.77-15.78,14-21.09,2.68-2,4.33-3,.81-6.46-5.51-5.45-6.1-12.77-3.76-20.05,2-6.19,6.69-9.26,13-10.15,3.67-.52,6.79,1.16,10.42,2.54.79-4.53.45-9,2.15-13.16s3.31-8,6.36-11.22c4.61-4.84,10.12-3.84,12.55,2.43,2.15,5.57,1.77,11.45,1.5,17.28-.05,1.1-.74,2.21.23,3.73,3.21-2.87,5.92-6.18,9.59-8.43,2.39-1.46-.07-2.72-1-3.89-3.68-4.78-5.44-9.84-2.27-15.62,8.92-6.92,17.29-7.27,27.88-1.16,5.18,3,5.18,3,7.83-2.55,3.43-7.19,10.45-11.63,17.77-11.23,7.68.42,12.8,6.82,11.07,14.31-.84,3.64.05,4.45,3.62,3.86,3-.51,6,.26,7.77,3.21,1.07,5.14,3.52,10.18,1.18,15.58-3.38,11.75-16.3,15.63-28.42,8.21-.39,3.35,2.06,5.55,2.78,8.26.88,3.36.92,6.1-1.85,8.61s-5.3,3.4-9,2.3a23.63,23.63,0,0,1-13.19-10.1c-2.65-4-4.18-2.56-6,.22-3.35,5.16-8.25,8.11-14,9.82-4.89,1.47-9.6,1.17-13.34-2.82-3.49-3.71-3.31-8-1.58-12.47.79-2.08,2.72-4.65-1.4-6.07.58,5.66-2.3,11-.14,16.76,1.22,3.23,5.28,4.57,5.45,7.19.19,2.83-4.87,3.6-5.67,6.91-.93,3.89-1.5,7.7.83,11.48,2.7,4.39-.81,12.23-6.56,15.24s-10.3,1.46-13.24-4c-.8-1.5-.84-4.12-3.06-4.05-1.94.06-1.68,2.6-2.53,4-4.45,7.09-9.61,13.33-18.54,14.48-7.13.92-9.87-1.64-10.6-9A20,20,0,0,0,323.72,468.12Z"/><path class="cls-6" d="M472,541.68c-.85,3.2.58,4.53,1.52,6,2,3.28,3.69,6.68,3.87,10.64.45,10.16-8.19,16.52-17.94,13.24a29.51,29.51,0,0,1-17.19-15c-1.79-3.45-3-4-6.05-1.09-4.65,4.52-10.79,5.06-16.25,2.52-6.37-2.95-11.75-7.45-12.62-15.44-1.62-15,7.36-23.31,15.49-25.86a20.17,20.17,0,0,1,10.83-.3c3.18.77,4.23-.13,3.58-3-2.31-10.3,0-20.07,3.12-29.77.94-2.87,2.18-5.61,4.57-7.59,3.23-2.69,6.56-5.48,11.16-3.12s5.94,6.43,5.69,11.22c-.06,1.14-.86,2.6.2,3.24,1.49.9,2.37-.77,3.18-1.68A44,44,0,0,1,480.6,475c5.14-2.29,10.21-3.1,15,.77,5.45,4.45,8.14,10.07,6.41,17.17-2.19,9-5.61,17.33-13,23.42-.51.41-1.16.78-.8,1.58a1.25,1.25,0,0,0,1.6.83c2.05-1,4,.12,5.83.45,9.33,1.67,14.73,9.42,13.83,19.39-.68,7.36-7.48,12.41-16.58,12.52C484.67,551.2,477.66,548.74,472,541.68Z"/><path class="cls-6" d="M303.35,537c.65-3-.87-5.52-1.53-8.23-2.78-11.28,1.94-22.2,11.08-25.46a5.92,5.92,0,0,1,1.47-.13c4.39,1.28,9,2.05,12.73,5,.43.34,1.5.56,1.73.31.92-1,.63-2.19.1-3.25-2.75-5.43-1.29-10.74.6-15.93,1.34-3.7,3.59-6.36,7.88-7.51,3.76-1,7.07-3.62,10.77-5,8.62-3.29,14.72.75,15.17,10.09.24,5.09.83,10.3-2.22,15-1.46,2.26-.94,3.79,2.2,4.46,18.8,4,20.49,20.38,18.79,33.79-.62,4.91-7.71,9.68-13.65,9.94-3.14.13-6.29.33-9.36-.88s-4,0-2.82,3c1.32,3.58,2.46,7.21,3.61,10.84a15.74,15.74,0,0,1,.2,8.39c-1.1,4.72-3.41,9.25-8.27,10.39-6.49,1.52-11.61-2.42-15.72-6.86-6.12-6.61-9.42-14.36-6.92-23.66.55-2-.34-2.8-2.38-3.42-3.46-1-6.92-.65-10.39-.81-6-.57-9.6-4.35-11.17-9.66C304.48,534.79,303.6,538.22,303.35,537Z"/><path class="cls-6" d="M391.43,739.08c-7.85-9-7.08-18.33-3.05-25.79,5.13-9.48,16.74-9.73,22.75-.72.81,1.21,1.45,2.54,2.64,4.63a47.57,47.57,0,0,0,1.69-10.2c.11-3.47,1.23-6.5,5.13-7.59a19.73,19.73,0,0,0,3.17-1.47c4-2,7.61-7,11.75.84,2.09,3.94,7.72,2.78,12,1.4,6.85-2.24,9.55,0,10,7.58C458,716,454,722.42,450,729a26.94,26.94,0,0,1-2,2.84c-2.42,3-1.09,4,2.1,4.26,7.25.65,9.14,3.37,10.48,10.48,1.77,9.45-1.14,17.27-6.29,24.71-3.69,5.34-12,8.44-17.58,5.55a13,13,0,0,1-7.32-11c-.11-2,.55-4.23-.81-6.59-4.79,4.93-4.72,14.24-14.55,14.08,1.49,1,5,1.37,1.73,3.57-5,3.33-10.28,4.5-16.07,2.21a7.48,7.48,0,0,1-2.69-2.08c-5-5.25-9.36-10.75-8.43-18.65a32.41,32.41,0,0,1,5.26-14.84c2.51-3.62.77-4.27-2.45-4.4Z"/><path class="cls-6" d="M438.68,634.08c8.48,0,12.27,2.82,13.62,10.31,1.55,8.55-1,14.55-7.58,16.94-3.84,1.4-7.83,1-11.75,0-1.3-.33-2.86-.84-3.81.18-1.14,1.23.25,2.49.85,3.54a43.69,43.69,0,0,1,3.72,9.15c3.46,11.36-5,22-16,23.64-7.75,1.16-15.23.28-20.79-6.65-2.2-2.75-3.88-5.32-3.49-8.93.28-2.53-.6-3.07-3.16-2.38-6.33,1.71-11.15-.44-13.93-6.24-5.93-12.35-1.65-27,10.82-32.47a13.69,13.69,0,0,1,3.78-1.12c5.39-.68,5.55-.92,3-6.1-3.84-7.7-6.28-15.6-4.44-24.36,1.27-6.11,4.67-10.39,10.72-11.81a14,14,0,0,1,13.21,3.71c1.07,1,2.27,2,1.45,3.82C408.14,620.56,423.77,636.35,438.68,634.08Z"/><path class="cls-6" d="M391.39,739.05a4.29,4.29,0,0,1,0,5.11c-3.36,5.42-4.29,11.37-4.07,17.66.15,4.12-1.62,5.22-5.54,3.88-.47-.16-.9-.44-1.36-.63-2.91-1.18-4.05-5.93-7.19-5.06-1.3.36-1.2,5.34-2,8.14-1.58,5.63-6.32,4.48-9.88,3.59A171.54,171.54,0,0,0,334.22,767c-2.61-.22-5.1-5.09-4.51-9.22.77-5.36,1.41-10.57,6.4-14.44,3.3-2.56-.18-3.63-2.38-4.26-7.06-2.05-11.45-7.79-11.34-14.9.1-5.76,2.76-9.09,9-10,4.06-.59,4.58-1.79,2.21-5-.77-1-.95-2.46-1.46-3.68-1.41-3.37-.74-4.37,3.15-3.63,6.19,1.16,11.58-.13,14.17-6.86.53-1.37,1.69-2.38,3.13-1.74,4.72,2.08,6.69-1.36,8.81-4.28,3.47-4.77,6.13-5.31,11.19-2.3,5.71,3.39,8.69,8.48,9.72,14.86.73,4.45-.71,8.92,2.67,13.43,1.7,2.27-.89,7.56-.56,11.56.43,5.24,1,10.38,7,12.45Z"/><path class="cls-6" d="M387.09,466.85c-1.2,6.61-7.32,8.15-11.47,11.76-6.58,5.71-7.37,13.76-6.83,21.92.09,1.44,1.27,3-.24,4.12a3.42,3.42,0,0,1-3.81-.11c-1.92-1.21-1.08-2.83-.48-4.41,2-5.33,1.45-10.9,1-16.31-.56-6.42-6.08-10.43-14.13-11,1-2.88,2.91-5,4.55-7.28,1.76.5,1.9,2.08,2.74,3.06a12.12,12.12,0,0,0,20.12-1.81c.5-.86.92-1.77,1.36-2.67,2.92-5.94,4.35-6.67,10.78-4.55,1.2.4,1.93,1.12,2.82-.13.27-.39.64-1,.51-1.33-.58-1.45-1.95-.91-3-1a27.62,27.62,0,0,1-4-.14,10,10,0,0,1-7.51-6.57c-1.42-3.91-.22-7.11,2.88-9.74a15,15,0,0,1,7.52-3.64,30,30,0,0,0,19.64-11.66c1.72-2.2,2.5-2.39,4.22.09a24,24,0,0,0,15.46,10.09c7.34,1.52,13.63-3.95,12-11.29-1.2-5.24,1.23-4.53,4.34-3.63,6.19,1.8,11,10,8.48,15.91-2.67,6.34-6.57,12.14-14.58,12.51-3,.14-3.45,1.81-2.75,4,1.28,3.94.8,7.93.77,11.89-.09,10.15-9,16.45-18.41,12.9-2.74-1-3.39.28-4.56,2.1-3.51,5.47-7.94,8.85-15.17,8.37-9.88-.66-15.89-8.31-13.1-17.79C386.5,469.25,386.78,468,387.09,466.85Z"/><path class="cls-6" d="M504.43,666.35c0,10-7.9,15-16.59,10.43-.93-.49-1.74-2.17-2.91-1s.11,2.51.7,3.59c4.32,7.89,4.73,15.91-.23,23.46-3.23,4.89-8.25,8-14.44,7-6.61-1-12.65-3.42-14.65-10.84-.86-3.17-2-4.49-5.33-2.34a15.71,15.71,0,0,1-10,2.36c-6-.52-8.78-5.51-6.28-10.92,3.14-6.82,2.27-13.63-.87-20.16-1.47-3.06-1.1-4.17,2.45-4a28.1,28.1,0,0,0,7.45-.28c11.12-2.42,15.24-18.89,6.83-27.89-2.56-2.75-3.38-4.32.78-5.76,2.54-.88,3.65-5,6.17-4.25,1.52.46,1.65,4.47,3.1,6.34,3.66,4.72,7.68,9.18,13.22,11.86a.88.88,0,0,0,.48.12c3.49-.7,2.93,5.69,6.23,4s5.9-.91,8.89-.3C499.51,649.92,504.47,656,504.43,666.35Z"/><path class="cls-6" d="M419.22,488.05c-1.39,6.67-.49,13.59-2.54,20.27,3.34-3.26,6-6.91,10.35-8.55,4.54-1.69,7.15-.11,7.35,4.64a33.11,33.11,0,0,0,.06,4c.77,4.71-1.28,5.78-5.78,5.79-16.4,0-28.47,19.24-21.66,34,1.61,3.49-.54,8.52-4.9,11.45-7.67,5.15-19.92.69-22.4-8.19a5.54,5.54,0,0,1,.61-4.76c8.22-13,5.7-28.78-6.16-38.47a9.39,9.39,0,0,1-3.16-6c-1.7-8.78.22-16.55,6.65-22.85,3.57-3.5,5.11-3,7.21,1.34,5.21,10.67,18.54,13.94,27.3,4.95a14.27,14.27,0,0,1,4.42-2.75C419.16,483.78,420,485.49,419.22,488.05Z"/><path class="cls-6" d="M315.45,548c3.76,1.57,9.46-.8,11.35,2.6,1.7,3-1,7.89.53,12,.48,1.29-.46,2.4-1.59,3.35-5.24,4.43-6,9-2.34,14.57,1.69,2.56,2.35,4-.87,6.32-6.13,4.33-7.45,11-6.66,18.1.32,2.88,2.32,6.61-3.77,3.8-3-1.39-6.4,1.58-9.72,2.12-1.64,1.09-2.84-.16-4.17-.76,0-2.18-1.49-3.55-2.78-5.09-5.27-6.3-8.53-13.35-8-21.82.3-5.1,2.67-8.88,7.69-10.36,4-1.18,4.19-2.84,2.68-6.44-3.23-7.74-4.07-15.71.49-23.37,3.25-5.46,6-5.7,9.82-.78C310.08,544.8,313.23,545.78,315.45,548Z"/><path class="cls-8" d="M475.44,756.92c-3.36,2-5.12,5.29-6.57,8.56-2.14,4.79-5.41,6.42-10.35,5.29.67-4.77,3.83-8.67,4.44-13.54.71-5.58.68-11-1.58-16.15-1.54-3.52-3.88-6.42-7.91-6.82-3.58-.36-3.3-1.79-1.81-4.12,4.22-6.6,8.07-13.35,7.9-21.83l7.84,2.88a4.26,4.26,0,0,0,3.77.78c5.58-1,6.45,1.89,6.41,6.7-.08,10.59-.82,21.21.69,31.76C478.68,753.29,477.18,755.11,475.44,756.92Z"/><path class="cls-8" d="M381.21,606.15a3.31,3.31,0,0,0-.76-3.08c-1.65-3.34.63-4.19,3.08-5.36,7.88-3.76,12.7-9.36,13.09-18.82a11.83,11.83,0,0,0-13.5-12.23c-2.22.33-4.87,1.32-5.3-2.41.93-2,.87-5.14,4.54-4.18,11.28,6.12,17.69,5,26.37-4.31,3-3.22,4.55.69,6.43,1.75,2.51,1.43.54,2.66-.81,3.6-5.85,4-9.38,9.28-8.88,16.74s3.58,11.14,11,12.6c2.11.42,4.27.53,7,.85-2.29,3.1-4.35,6-6.48,8.76-1.16,1.53-2,.2-2.78-.51-5.06-4.41-10.71-6.18-17-2.9-6.56,3.45-9.88,9.11-10.17,16.55a36,36,0,0,0,4.45,19.67c1.64,2.85,1.9,4.91-2.27,5.33-2.54.25-4.59,1.87-6.8,3-2.26,0-1.39-1.78-1.52-2.88-.34-2.73.54-5.55-.56-8.24h0c-2.06-2.42-1.29-5.23-1.1-8C380.7,616.9,380.76,611.5,381.21,606.15Z"/><path class="cls-40" d="M464.44,406.05a41.11,41.11,0,0,0-2-15.84c-.14-1.33-2.33-1.36-1.91-3,1.8-1.63.65-3.4.13-5.05-5.17-16.18-11.24-31.88-20.2-46.52C428,315.27,415.56,295,400.56,276.44c-9.25-11.45-15.66-11.83-26.5-1.81-5.68,5.24-8.24,5.52-15,1.78-11-6.1-18.94-18.93-13.55-34.43l3,.08c-6.6,15.11.41,26.18,12.92,32.54,4.53,2.3,8.21,2.08,12-2,10.47-11.28,28-8,37.43,1.43-5.27-2.51-9.15-5.41-15-5.37,2.73,3,5.11,5.25,7.09,7.82,19.37,25.08,37.07,51.29,50.74,79.93,6.81,14.27,10.24,29.8,12.76,45.45a200.61,200.61,0,0,1,2.06,22.31c.37,8-2.47,14.41-6.46,20.94-8,13.07-17.95,24.83-25.43,38.21-2.49,4.45-5.76,8.52-7.11,13.57l-3.19.11c-.71-2.61,1.12-4.37,2.18-6.38,8.33-15.61,19.41-29.45,28.64-44.47a69.5,69.5,0,0,0,6.94-13.81c.86-2.52,2-5.38.2-7.66-2-2.56-4.58-.25-6.89.26-1,.21-1.9.63-2.9.17l-1.07-1.95c1.35-2.38,3.85-2.87,6.14-3.61,6-1.93,6-1.89,4.92-8.58C465,409.33,466.27,407.67,464.44,406.05Z"/><path class="cls-41" d="M454.52,425.12c3.53-1.57,7.61-5.12,10.85-1.9,2.89,2.88.86,7.56-.73,11.23-4.48,10.39-10.58,19.83-17.36,28.84-8,10.61-14.22,22.32-20.93,33.72l-6.67,6c-.56-5.5,1.81-10.36-.46-15a11.14,11.14,0,0,0-2.65-5.06c-.3-1.47-1.73-3.52,1.71-2.84,11.27,2.22,19.51-3.8,21.1-15.36a5.5,5.5,0,0,0,.07-1c-.41-7-.43-12.48,8.28-16.34C456.24,443.69,457.15,434.12,454.52,425.12Z"/><path class="cls-42" d="M380.26,622q.06,4,.14,8.12c.11,8.74-4.11,16-7.09,23.94-3.06,8.09-2.45,17.18,4.61,24.09,1.43,1.4,1.22,3.39,2.41,4.77a6.08,6.08,0,0,1,0,8.21c-2.81-5.53-8.08-7.08-13.53-7.87-2.47-.35-3.61-.88-3.44-3.52a27.42,27.42,0,0,0-4.45-16.59c-1.32-2.1-1.42-3.17,1.4-4.28,4.19-1.66,7.31-4.65,7.17-9.75l-.05,0c.85-3.78,1-7.5-.65-11.14-.81-1.81-1.11-3.72,1.18-4.61,5.43-2.11,9-6.06,11.39-11.18C379.46,622,379.9,622,380.26,622Z"/><path class="cls-8" d="M380.33,691.1v-8.21c3.2-2.13,6.62,1.05,10-.43,1-.45,1.16,1.27,1.37,2.2,2.23,9.91,9.43,14.31,18.59,15.24,5.05.51,5.29,2.22,4,6.05-.57,1.68-.83,3.46-1.26,5.32a4.22,4.22,0,0,1-1.28-.61c-9.13-8.79-14-8.93-23.32-.57-.88.79-1.68,1.77-3,1.23s-1.14-2-1.06-3.05A30.51,30.51,0,0,0,380.33,691.1Z"/><path class="cls-6" d="M366,775.5c-7.81,9.32-18.38,9.88-27,1.51-2-1.89-6.2-3.6-4.64-6.65s5.38-.72,8.19-.26c3.9.63,7.8,1.26,11.64,2.15S361.8,774.33,366,775.5Z"/><path class="cls-43" d="M315.45,548a13.15,13.15,0,0,1-8.58-6.34c-2.29-3.83-4.4-2.12-6.25-.12-5.32,5.75-4.88,12.75-3.54,19.72a36.62,36.62,0,0,0,2.68,7.49c1.05,2.43.31,3.54-2.1,4.46-8.93,3.4-11.43,8.8-8.57,18.21A33.68,33.68,0,0,0,298,606.18c1.13,1.08,2.9,2.13.54,3.74.28.22.38.44.31.67s-.17.36-.26.36c-10-11.79-11.43-15.28-12.34-29.06-.11-1.64-.5-3.25-.76-4.88,1.81,1.3,2.67-.17,3.59-1.29,1.27-1.55,2.47-3.38,4.51-3.76,4.32-.79,4.39-2.49,2.79-6.34-2.88-6.91-3.33-14.19-.15-21.35a13.67,13.67,0,0,1,7.12-7.32c1.15,1.34.65-4.35,2.26-.56,2.15,5.08,6,8.38,10.81,10.67Z"/><path class="cls-44" d="M575.55,520.33c3.69,2.42,4.79,5.79,3.35,9.88-1.61,4.55-5,6.86-9.8,6.94-3.48.05-6.61-.74-7.42-4.89C568.55,530.9,573.08,526.82,575.55,520.33Z"/><path class="cls-45" d="M390.38,774c-6.13.89-12-.35-17.86-2,.75-2.69,1.49-5.38,2.37-8.55,3.45,2.87,6.92,4.91,11.57,4.87C389.25,768.27,389.6,771.69,390.38,774Z"/><path class="cls-46" d="M298.59,611c0-.34,0-.68,0-1l3.84.91c1.67.8,3.49,1.75,5.21.72,4.1-2.43,6.66.49,10.78,2.74-5.79.94-10.26,2.39-13.64,6-1.17,1.24-2,.83-2.49-.66s-2.05-2.61-2-4.41A5.8,5.8,0,0,0,298.59,611Z"/><path class="cls-47" d="M464.51,411c3.14,2.11,1.7,5.27,1.46,7.89-.2,2.21-2.72,1-4.15,1.45-2.81.91-5.59,1.9-8.37,2.85-1.94-1.4-3.17-2.62.11-4C457.81,417.29,462.09,415.36,464.51,411Z"/><path class="cls-48" d="M382.36,560.07c-2.45.23-2.31,3-3.88,4-3.06-1.94-3.13-5-3.17-8.14l0-.89c-.45-1.68,0-2.8,1.88-3.07C380,554,379.61,558.05,382.36,560.07Z"/><path class="cls-49" d="M377.22,552l-1.88,3.07c-1.18.28-1.92-.59-2.81-1.06-1.89-3.82,2-3.29,3.42-4C377.89,549.12,377.13,551.1,377.22,552Z"/><path class="cls-42" d="M380.4,630.08c2.67,3.34-.69,7.8,2.08,11.12-2.15,1.3-2.15-.42-2.17-1.68C380.26,636.38,380.36,633.23,380.4,630.08Z"/><path class="cls-50" d="M574.12,460.69c.1-4.08-.54-8.67,4.22-10.71,3.2-1.37,7.11,2.06,9.52,7.85a32.6,32.6,0,0,1,2.75,14.58c-.17,2.74-.52,5.61-3.52,6.56-3.16,1-6-.31-7.93-2.9A24.1,24.1,0,0,1,574.12,460.69Z"/><path class="cls-51" d="M266.55,291c10.53,3,20.83,6.66,30.13,12.6,5.88,3.75,5.94,4,.91,8.68-4.36,4.07-10.15,5.6-15.54,7.7-12.34,4.8-25.25,6.78-38.45,7.16a32.83,32.83,0,0,0-5.41.61c-9.06,1.75-18.06.37-27.12-.15-10.48-.6-20.5-3.29-30.63-5.57.06-.75.12-1.5.19-2.24,5.87-.78,11.33,1.53,16.94,2.49,3.63.62,7.57.54,10.88,2.68,2.63-.12,5.28,2.15,7.89-.08.84,1.07,1.59,1.22,1.88-.34s-.17-3.35,1.1-4.71c5.19,4.36,9.88,4.11,14.82-.81.92-.91,1.74-2.1,3.26-1-.5,1.69-.93,3.41-1.53,5.07-1,2.68.29,3.18,2.57,2.85,4.49-2.43,9.1-3.46,14-1.12,2.37.33,3.46-.61,4.11-3,2-7.44,4.48-14.75,6.49-22.19C263.85,296.58,265.59,294,266.55,291Z"/><path class="cls-51" d="M237.4,318.07c-.58.26-1.54.38-1.68.79-2.43,7-8.28,5.07-13.29,5.14-2.68,0-3-2-3.11-4.13.77-12-.5-24-.88-35.94.38-.31.73-.79,1.22-.78,9.18.08,18.31.55,27,4.05C244.52,297.78,240.89,307.9,237.4,318.07Z"/><path class="cls-52" d="M246.63,287.2l-28.19-3.27a35.13,35.13,0,0,1-3.27-11.62c11.76-.43,22.71,4.85,34.4,5C250.47,281.15,249,284.31,246.63,287.2Z"/><path class="cls-33" d="M611.54,387.21c5.32-2.41,11.15-2.34,16.75-3,14.3-1.7,28.25-5.06,42.3-8,6.6-1.4,13-3.6,19.84-4.08,1.42,17.95-7.38,35-27.34,38.63-18.42,3.38-40.64-2.37-49.69-22.24A1.79,1.79,0,0,0,611.54,387.21Z"/><path class="cls-53" d="M252.42,324.87l-14,1.12c-1.33-1.69-.73-3.36-.11-5.15,6.25-18.29,12.54-36.57,18.56-54.93,1.16-3.54,2.82-4,5.77-2.66.76.34,1.57.56,2.35.84,6.86,2.46,7.75,3.84,4.95,10.6-6.41,15.5-11,31.59-16.43,47.42C253.21,323.05,252.79,324,252.42,324.87Z"/><path class="cls-54" d="M355.33,224.12c2.72,3.74,5.84,7.23,7.19,11.8-.24,1.63-1.29,2-2.82,2.15-17.28,1.58-34.62,2.59-51.71,5.86-2.11.41-4,.06-4.64-2.54a29.27,29.27,0,0,0-1.56-3.67c-2.87-6.91-2.92-7.47,4.26-8.24C322.48,227.75,338.79,224.78,355.33,224.12Z"/><path class="cls-55" d="M482.36,78a17.69,17.69,0,0,1,8.07-4.87c.32,1.49,1.07.69,1.74.32,3.64-2,7.05-4.4,10.51-6.71,8.49-5.66,17.39-10.58,27.57-12.38,7.21-1.27,13.67.51,18,6.84,3.57,5.22,3,11.49,1.72,16.95a70.59,70.59,0,0,1-22.19,37.6c-3,2.65-6.2,3.93-10,3.48-18.32-2.19-35.63-6.93-49.51-20.09-.85-.8-1.7-1.6-2.5-2.44-4.22-4.43-3.86-6.12,1.51-8.86A160.25,160.25,0,0,0,482,79.5C482.5,79.16,483.23,78.78,482.36,78Z"/><path class="cls-56" d="M482.36,78l4.5-.85c-6.91,5.12-13,9.12-19.77,12-3.62,1.57-4.11,2.86-1.2,6,12.47,13.2,28.32,19.12,45.72,21.9,1.31.21,2.58.63,3.89.81,4.81.65,8.85-.16,12.69-3.89,10-9.74,17.54-20.9,20.45-34.63,1.39-6.54,2.73-13.58-2.75-19.31-6.24-6.52-13.64-5.6-21.22-3.1-10.19,3.38-19,9.26-27.87,15.14-2.3,1.54-4.88,2.66-7.42,4-.48-1.62.9-2,1.05-2.94,6.76-4.23,12.92-9.39,20.06-13,2.72-1.23,5.51-2.32,8.13-3.73A28.65,28.65,0,0,1,539.8,54a15.43,15.43,0,0,1,11.66,14.25c.73,16.31-7,29.2-16.23,41.63-4.77,6.44-10.62,11.41-18.73,11.69-6.55.23-13.17-1.06-19.73-1.9-10-1.28-19.25-5-28.22-9.22-4.14-2-8.14-4.77-9.44-9.9,5.19,6.25,11.9,9.94,19.57,12.16A80.24,80.24,0,0,1,463.8,99.89c-2.55-2.81-5-5.79-5.37-9.81C466.35,86,474.75,82.79,482.36,78Z"/><path class="cls-33" d="M519.54,192.23c.6,3.84-.48,7.92-5.81,9.61-4.61,1.45-8-.32-11.72-5.37-4.34-5.83-7-12.47-9.6-19.1a177.83,177.83,0,0,0-15.53-30.07c-8-12.64-18.78-22.3-33.19-27.37-.94-.33-2.1-.68-1.73-2,.29-1,1.32-.65,2.13-.54,22.78,3.11,41.19,14.07,56.12,31.28,9,10.36,14.78,22.36,18.48,35.5A33.77,33.77,0,0,1,519.54,192.23Z"/><path class="cls-57" d="M639.44,195.06c-.33,6.86-2.2,13.39-4.45,19.81-1.57,4.46-4.85,5-9.21,4.33-18.86-2.83-35.84-9.56-49.7-23-3.7-3.59-6-8.21-9.15-12.3,2.47,8.4,6.28,16.05,12.82,22.06s14.12,10,22.27,13.21c-8.48-.68-15-5.24-21.32-10.29-14.93-12-18.36-29.42-22.22-46.65-.83-3.65.56-6.52,3.4-9.24,9.49-9.11,18.46-18.78,28.07-27.75,7.76-7.23,16-13.8,27.16-15.64a14.56,14.56,0,0,1,12.8,3.47c9.55,8,11.79,19.39,13.29,30.71a85.74,85.74,0,0,1,1.16,15.32c-1.28,4.95.36,10.08-.91,15-.72,7.12-1.68,14.2-4,21-1.93-2.19-1.15-4.7-.8-7.14,1.51-10.87,2.88-21.79,2.43-32.77s-1.55-21.95-7.38-31.75c-.68-1.14-1.25-2.35-2-3.43-5.8-8-10.73-9.37-19.76-5.19-8.71,4-16.2,9.9-23.13,16.38-8,7.5-15.52,15.55-23.4,23.19-2.82,2.74-3.28,5.2-1.5,8.8,11.35,23.11,29.65,38.43,53.16,48a4.23,4.23,0,0,0,.47.17c15.68,4,13.57,3.61,17.63-8.71C636,200,635.67,196.26,639.44,195.06Z"/><path class="cls-55" d="M643.45,174.09c.43-5-1.13-10.13.91-15C644,164.06,645.52,169.18,643.45,174.09Z"/><path class="cls-58" d="M326.25,380c-.16-4.57,3.72-6.06,6.56-8,9.82-6.86,21.51-9.18,32.61-12.91,1.41-.48,2.89-.74,4.28-1.27,8.43-3.18,11.25-8.75,9.29-17.65-2.46-11.12-8.89-19.37-18-25.79-.26-.18-.51-.38-.76-.57l1.14-.71c12.24,7,19.55,17.3,20.06,31.62.29,7.84-2.8,11.95-10.29,14.61-10.62,3.78-21.57,6.67-31.52,12.23C335,374.13,330.34,376.63,326.25,380Z"/><path class="cls-59" d="M460.51,387.17c.65,1,2.23,1.42,1.91,3-2.9-1.95-5.91-2.83-9.42-1.52-1.91.71-3.45.91-2.89-2.41,1.7-10,.18-13.14-6.66-15.63-6.15-2.24-15,1.72-19.08,8.49-1.51,2.48-1.75,6.68-4.31,7.24-2.09.45-4.78-2.52-7.37-3.58-5.49-2.23-10.92-4.73-17.22-2.83a12.72,12.72,0,0,0-6.84,4.63c-1.16,1.55-1,0-1.31-.57,3.2-7.11,12.84-6.94,20.53-5.51,4.31.8,8.16,5.41,11.71,4.7s4.05-7,7.43-9.92c4.24-3.65,8.88-5.8,14.55-5.24,7.61.75,12.21,5.84,11.65,13.44-.25,3.36-.74,5.9,4.05,4.66C458.18,385.92,459.41,386.81,460.51,387.17Z"/><path class="cls-60" d="M128.4,317.09c-4-1.25-5.07-4.21-5.25-8.08-.48-10.37,1.93-20.15,5.67-29.67,2.61-6.63,3.66-6.82,8.74-1.94.6.58,1.24,1.11,1.86,1.67,3.75,1.42,4.89,5.31,7.28,8,6.86,7.65,13.64,15.39,19.85,23.59-6.13-8.24-13.05-15.82-19.71-23.61a37.46,37.46,0,0,1-6.5-9.81c-7.37-10.52-7.22-11.44,1-21.85a54.27,54.27,0,0,1,18.56-15.45c5.81-2.88,8.76-1.55,9.92,4.83.91,5,1.13,10.19,1.66,15.29a6.26,6.26,0,0,1,1.31,4.17c.16,6.11,0,12.21.88,18.33.69,5,.13,10.21,1,15.32a26.58,26.58,0,0,1-1.18,12.23c-3,3.18-4.86,6.71-3.42,11.24.53,1.68-.26,2.81-1.45,3.91-11.74,10.78-23.53,21.51-35.11,32.45-2.9,2.75-4.3,2.4-5.41-1.19-3.32-10.78-3.6-21.89-3.41-33a4.59,4.59,0,0,1,2.69-4.46c1.8-1.15,3.82-.93,5.8-.93,9.26,0,18.52,0,27.78,0-9.11,0-18.22,0-27.34,0C131.85,318,130,318.45,128.4,317.09Z"/><path class="cls-60" d="M173.34,260c.29-4.81,0-9.64.86-14.43.82-4.35,2.09-5.17,6-2.95,5.72,3.27,10.18,8.07,14.19,13.17a74.09,74.09,0,0,1,13.76,28.56c.43,1.74.47,3.19-.87,4.6-8.54,9-17,18.12-26.48,28.17.32-5.41-4.38-6.44-5.53-10-1.82-7.91-1.51-16-2.29-24a147.39,147.39,0,0,1-.53-17.83C172.47,263.51,172.14,261.63,173.34,260Z"/><path class="cls-60" d="M208.45,325c-9.53-.33-18.74-2.45-27.82-5.17,7.89-9.18,16-18.09,25.71-25.47,2.07-1.57,3.51-1.3,3.82,1.25C211.37,305.49,212.32,315.4,208.45,325Z"/><path class="cls-61" d="M173.34,260q0,17.42,1.15,34.8c.27,4.11,1.6,8.17.76,12.35l-1.75,2.91c.19-15.73-2.41-31.34-2.08-47.08l.06-3Z"/><path class="cls-62" d="M128.4,317.09h38.08V319h-39.1Z"/><path class="cls-63" d="M140.34,277.22c8.78,12.58,20.2,23.07,28.9,35.73l-1,.81-28.86-34.69A1.78,1.78,0,0,0,140.34,277.22Z"/><path class="cls-50" d="M534.64,487.57c-.09,6.25-4.63,11.21-10.26,11.2a10.13,10.13,0,0,1-9.82-10.4,10.74,10.74,0,0,1,11.34-10.56C531.49,478,534.72,481.58,534.64,487.57Z"/><path class="cls-50" d="M491.45,591c-.17,7.45-3.5,12.65-8.1,13-5.29.36-9.87-4.46-10.81-11.53A18.49,18.49,0,0,1,475,580c3.3-5.39,9.62-5.68,13-.37C490.13,583.12,491.76,587,491.45,591Z"/><path class="cls-64" d="M338.49,655.63c-.35,4,.16,8.72-5.06,10.13-2.93.79-7.28-3.65-8.71-8.37a33.52,33.52,0,0,1-1.39-11.78c.21-3.35,1.4-6.43,4.82-7.29s5.61,1.82,7,4.47C337.22,646.75,338.77,651,338.49,655.63Z"/><path class="cls-65" d="M361.64,595.82c0,4.95-1.54,8.57-4.77,11.25-1.84,1.53-4.15,2.23-6.51,1s-2.9-3.56-2.62-6a19.54,19.54,0,0,1,3.18-8.84c1.6-2.34,3.31-4.89,6.77-3.89S361.77,593.34,361.64,595.82Z"/><path class="cls-66" d="M375.31,556c1.3,2.62,1.23,5.77,3.17,8.14,0,3.06,2,1.81,3.46,1.57,9-1.45,15.19,3.59,15.57,12.69a20.39,20.39,0,0,1-13.64,20.36c-2.35.86-3.89,1.6-3.42,4.33,0,.17,0,.37-.12.48a5.62,5.62,0,0,1-.64.55c-2.26-4.63-1.75-5.82,3.2-7.37,8.77-2.74,14.86-13.7,12.43-22.35-1.4-5-9.32-7.93-15.75-5.8-1.08.36-2.11.88-3.7,1.55a18.74,18.74,0,0,0-1.78-11.71C373.36,557,373.78,556.23,375.31,556Z"/><path class="cls-67" d="M380.26,622c-1.4,5.91-5.46,9.57-10.75,11.73-2.67,1.09-2.5,2.39-1.91,4.51,1,3.63,1.79,7.31-.17,10.92,0-2,.15-4,0-6-.38-4.41-1.8-8-7-8.66a14.25,14.25,0,0,1-9.1-4.38c4.57,1.29,8.13,3,12.08,2.92,7.89-.27,14.8-7.32,16-16.3.5-3.54,1.19-7.06,1.8-10.59C382.36,611.51,381.38,616.74,380.26,622Z"/><path class="cls-68" d="M350.46,443.69c.66-6.59,4-13.08,9.38-18.63,1.36-1.4,2.92-2.41,4.86-1.72,2.22.78,3.33,2.63,3.72,4.91,1,5.8-4.81,18.76-9.84,22a5.59,5.59,0,0,1-6.11.33C350.21,449.32,350.31,447.05,350.46,443.69Z"/><path class="cls-68" d="M420.78,408.44c-2.37.08-4.89.21-6.12-2.27-1.32-2.65.29-4.79,2-6.71,5.26-6,13.39-8.44,19.68-5.81,2,.82,4.07,1.67,4.28,4.32.19,2.38-1.38,3.61-3.08,4.72A34.24,34.24,0,0,1,420.78,408.44Z"/><path class="cls-50" d="M461.16,521.1a5.61,5.61,0,0,1-5.4-7c2.19-7.76,7.33-13.27,14.47-16.8,2.41-1.19,5-.42,7,1.32s1.45,4.21.53,6.42c-2.33,5.63-5.68,10.47-10.85,13.92A12.35,12.35,0,0,1,461.16,521.1Z"/><path class="cls-68" d="M350.47,536.5a13.08,13.08,0,0,1-2.72,9c-3.16,3.84-7.54,3.61-10.25-.53-3.52-5.36-2.79-19.22,1.27-24.28,2.93-3.63,7.73-2.6,9.72,2.31C350.06,526.89,350.37,531.05,350.47,536.5Z"/><path class="cls-68" d="M433.58,738.49c-.13,6.92-5,12.71-10.75,12.67-4.92,0-8.46-4.4-8.35-10.33.12-6.58,4.41-11.63,9.81-11.57C430.26,729.33,433.68,732.74,433.58,738.49Z"/><path class="cls-68" d="M400.22,653.13c0-6.08,6.09-14.82,11.73-16.72,3.8-1.29,7.27.88,7.08,5.09-.28,6.36-1.8,12.46-6.76,17.08-2.18,2-4.7,3.51-7.64,2.26C401.39,659.47,400.33,656.47,400.22,653.13Z"/><path class="cls-68" d="M371.52,729.32c0,6.34-4.72,11.89-9.88,11.67a8.8,8.8,0,0,1-8-8.59c0-6.83,4.32-12.52,9.48-12.57S371.55,723.38,371.52,729.32Z"/><path class="cls-65" d="M425.44,451.65a22.17,22.17,0,0,1-7.34,12.75c-1.67,1.45-3.74,2.2-6,1a6.38,6.38,0,0,1-3.49-5.65c-.28-5.05,5.62-13.7,10.47-15.4C422.87,443,425.57,445.7,425.44,451.65Z"/><path class="cls-68" d="M474.53,667.74c.27,2.18-.49,4.41-1.08,6.64-1.48,5.64-5.15,8.62-9.26,7.71s-7.58-7.26-6.25-12.09a23.3,23.3,0,0,1,3-6.74c2.26-3.39,5.47-5.54,9.73-4C474.61,660.61,474.63,664.14,474.53,667.74Z"/><path class="cls-65" d="M391.44,516.67a16.65,16.65,0,0,1,2.76-9.81c1.35-2.07,2.88-3.88,6.06-3.24s4.57,2.39,5.23,5.21a18.82,18.82,0,0,1-.08,8.38c-1,4.79-4.38,7.93-7.9,7.44C393.44,524.08,391.38,521.07,391.44,516.67Z"/><path class="cls-64" d="M302.35,576.85c-.06-3.37.26-6.7,2.08-9.62,2.05-3.29,6.15-3.23,7.39.33,2.14,6.14,3.37,12.55,1.62,19.06-1.11,4.13-3.73,4.8-7,2C303.39,586.05,302.36,583.07,302.35,576.85Z"/><path class="cls-55" d="M639.44,195.06c-3.09,4.81-3.83,10.52-5.63,15.79-1.64,4.79-4.4,4.48-8.08,3.85-13.28-2.29-24.53-8.78-35-16.86-12.55-9.7-22.63-21.41-29-36.09-.9-2.07-1.85-3.8.27-5.79,14-13.2,26.12-28.44,42.75-38.71a61.76,61.76,0,0,1,8.35-4.43c9.09-3.82,15.49-1.23,20.68,7.93,8.75,15.42,9.34,32,8,49.17-.64,8.42-2.38,16.72-2.39,25.18Z"/></g></g></svg>