<svg xmlns="http://www.w3.org/2000/svg" viewBox="0 0 1106.46 1082.49"><defs><style>.cls-1{fill:#060506;}.cls-2{fill:#da1f26;}.cls-3{fill:#f5a78b;}.cls-4{fill:#db1f26;}.cls-5{fill:#ec1e24;}.cls-6{fill:#a81e22;}.cls-7{fill:#f16c79;}.cls-8{fill:#f7e9c8;}.cls-9{fill:#fefefe;}.cls-10{fill:#f7e0b0;}.cls-11{fill:#f7e0b1;}.cls-12{fill:#fbfbfb;}.cls-13{fill:#d8d7d8;}.cls-14{fill:#060607;}.cls-15{fill:#050405;}.cls-16{fill:#070607;}.cls-17{fill:#f0f0f0;}.cls-18{fill:#e3e3e3;}</style></defs><title>Asset 4</title><g id="Layer_2" data-name="Layer 2"><g id="Layer_1-2" data-name="Layer 1"><path class="cls-1" d="M688.69,1082.49c-1.59-1.06-3.44-1.08-5.24-1.24-10.77-1-21.63-.67-32.35-2.18a91.89,91.89,0,0,1-19-4.85c-5-1.85-7.14-5.94-8.6-10.53-1.55-4.9-4.33-7.52-9.73-8.68-4.2-.89-7.53-4.57-8.66-9.3a95.22,95.22,0,0,1-2.48-14.59,29.71,29.71,0,0,0-5.32-15.46c-2.95-4.12-6.75-6.83-10.15-10.2-2.34-2.32-4.43-5.55-4.13-9.16,1.19-13.87-2.39-27-6.37-40-3-9.77-8.64-18.52-12.88-27.83A118.63,118.63,0,0,0,544,898.36c-1.5-1.68-2.88-2.41-5-1.71a28.84,28.84,0,0,1-3.37.74c-6.17,1.27-6.92,1.27-6.92,7.6s-3,11.75-4.26,17.64c-3.36,15.09-6.06,30.2-3.82,45.79.8,5.57.77,11.22-1.21,16.72a100.54,100.54,0,0,0-3.11,11,43.1,43.1,0,0,1-9.81,18.4,59.58,59.58,0,0,1-16.78,13.92,2.37,2.37,0,0,1-3.56-1.56c-.12-2.15-1.37-3.81-1.61-6.12-2.16,1.43-4.26,2.64-6.14,4.11-2.62,2-5.59,1.8-8.58,1.79-1.15,0-1.56-.69-2-1.56a44.59,44.59,0,0,1-4.28-16.21c-1.26-15.77,4.47-29.53,12.24-42.7.46-.78,1.26-1.34,1.79-2.08,1.43-2,2.34-3.85,1.23-6.51-2-4.68-2.76-9.56.36-14.16,1.94-2.87,5.13-4.4,7.59-6.74.72-.68,1.74-1,2.27-2,2.46-4.55,4.88-9.12,7.48-13.58,1.09-1.88,1-4,1.31-5.94.29-1.66-1.88-1.58-3.42-1-5.71,2.11-11.45,4.14-17.17,6.23-20.53,7.47-40.91,15.36-61.63,22.28-12.17,4.07-24.75,7.56-37.83,6.89-14.76-.75-20-7.32-21-20.81-.46-6.56-.18-6.14-6.73-6.67-12.81-1-25.81.14-38.41-3.19-1.67-.44-2,.08-2,1.59.76,18.95,4.8,36.64,20.44,49.3A32.73,32.73,0,0,0,350,976.62c7.65.21,13.74,3.06,19.68,7.72,8.72,6.86,15.06,15.39,20.13,25a21.6,21.6,0,0,1,1.3,3.53c.8,2.51-.32,4-2.76,3.66-3.73-.51-4.55,1.09-4.12,4.35.27,2-.4,3.37-2.9,3-15.87-2.63-32.05-3.46-47.61-7.9q-8.31-2.37-16.49-5.11c-3-1-4.55-3.43-6-6.17-3.29-6.12-4.2-13.12-7.44-19.23a38.12,38.12,0,0,0-14.07-15.35A9.11,9.11,0,0,1,285.6,960a12.42,12.42,0,0,0-1-8.43c-2.83-5.81-3.48-12.31-6.65-18-4.29-7.73-9.15-15.13-13.11-23.07-2.16-4.32-6.47-7.22-11-9.06-23.87-9.67-44-25-62.16-42.71-13.41-13.08-24.56-28.27-35.59-43.48-9.64-13.28-16.87-27.94-25.27-41.94-2.23-3.71-2.68-3.77-5.8-.82A235.81,235.81,0,0,0,88.08,817c-15.54,24.35-28.5,50.1-33.87,79.1-2.22,12-4.47,24-5.4,36.12-.42,5.45,1.36,10.89,2.77,16.23a51.94,51.94,0,0,0,10.93,20.87c2.85,3.31,6.05,6.09,10.16,7.46a12.15,12.15,0,0,1,5.87,4.45c6.86,8.76,14.6,16.93,18.07,27.9,2.3,7.26,4.44,14.52,4.24,22.24a4.94,4.94,0,0,1-7.27,4.43,20.28,20.28,0,0,0-6.79-2.25c-2.2-.19-3,2.22-3.27,4-.34,2.52-1.63,2.94-3.74,2.89-9-.18-17.2-3.39-24.53-8.22a97.74,97.74,0,0,1-15.38-12.77c-5.64-5.68-9.1-12.7-12.29-19.82-1.21-2.69-.8-6-.19-8.85.48-2.23.61-4.54,1.21-6.69,2.94-10.43-.35-19.7-5-28.76A22.39,22.39,0,0,0,21,950.82c-6-7-4.48-14.81-2.58-22.63,1.22-5,3.33-9.88,4.07-15,1.3-9,3.31-17.82,3.49-26.93.4-19.58-.09-39.07-3.25-58.48C21.22,818.52,21,809,20,799.64a15.14,15.14,0,0,1,6.91-14.7c14.39-9,20.39-22.15,23-38.14a177,177,0,0,0,1.31-44.69c-.73-8.13-.7-16.32-1.16-24.48-.87-15.17-3.59-30.19-4-45.4-.59-23-1.75-46.27,6.07-68.4,5.29-15,11.71-29.55,21.7-42.44a256.84,256.84,0,0,1,26.38-29c8.1-7.68,16.86-14.61,25.65-21.47,4.08-3.18,8.64-5.76,12.58-9.08,6.13-5.17,13.43-8.39,20.11-12.61,3.06-1.93,4.89-4.6,5.12-7.73.56-7.49,3.55-14.23,5.75-21.2,6.67-21.08,11.53-42.62,16.36-64.16,3.48-15.49,8.11-30.7,11.31-46.24,6.43-31.19,15.11-61.92,19.74-93.48a275.71,275.71,0,0,0,2.91-31.28c.4-12.87.82-25.81-.9-38.65-.72-5.36-1.39-10.74-2.53-16-.89-4.12-5.31-8.46-10.42-7.09-9.36,2.51-18.53,5.52-26.89,10.48-16.28,9.64-32,20-45,34a90.62,90.62,0,0,0-17.88,28.06,71.65,71.65,0,0,0-5.71,28c.23,17.62,1.25,35.2,1.55,52.81,0,1.7.4,4.15-1.3,4.57s-2.61-1.83-3.32-3.38c-1.72-3.74-3.35-7.51-5.34-12-1.72,6.75-3.27,12.76-4.77,18.79-2.65,10.63-7,20.68-10.42,31.05-5.15,15.74-9.52,31.71-11.89,48.14-.65,4.54.09,9.22-1,13.74-.13.52,0,1.18-.67,1.42-5.92-9.06-6.89-19.91-10.91-30.74-.84,15.57,3.51,29.86,2.2,44.5-2.58-2.4-3.27-5.17-3.76-9.44a175.48,175.48,0,0,1-1.25-23c0-1.09-.55-2.18-1-3.73-3.63,19.82-3.29,39.1-.18,58.4,1,6.25,1.61,12.57,2.31,18.86.12,1.06.82,2.68-.25,3.15-1.48.66-1.93-1.23-2.71-2.09-4.42-4.83-6.48-11.07-9.7-16.63A382.59,382.59,0,0,1,30.3,382.91a148,148,0,0,1-10.87-38c-.46-3-1.2-6-1.81-9-1.4.23-1.34,1.12-1.36,1.88,0,1.38,0,2.77,0,4.15a3.27,3.27,0,0,1-2.16,2.88c-1.33.58-1.56-1.09-2-1.8a38.09,38.09,0,0,1-5.92-19.19,135.24,135.24,0,0,1,4.5-42.74c2.88-10.62,6.31-21.17,12.37-30.57.47-.74.8-1.57,1.4-2.78a11,11,0,0,0-5.84,3.34c-5.11,6-10.94,11.51-14.36,18.84-.84,1.82-1.9,3.55-4.2,1.5V270c2.26-2.62,1.51-6.11,2.44-9.14,2.19-7.08,6-13.15,9.86-19.26,11.56-18.45,28.63-31,46.53-42.48S93.2,174.46,110.29,162c5.6-4.08,10.26-9.26,14.8-14.47A234.64,234.64,0,0,1,161.67,114a179.79,179.79,0,0,1,26.5-16.38c10.63-5.37,21.65-7.41,33-9.14,9-1.38,18.63,3.28,23.56,11.9,7,12.29,7.29,25.68,9.07,39,1.71,12.85,1.19,25.75,1.22,38.64,0,11.67-2.36,23.11-3.69,34.65-2.24,19.33-4.83,38.61-7.24,57.92-3.1,24.79-5.93,49.61-9.36,74.34-2.52,18.09-1.77,36,1,53.92,1.42,9.07,5.38,17.29,10,25.18a4.49,4.49,0,0,0,3.49,2.4c28,4.28,55.64,10.34,83.45,15.56a3.6,3.6,0,0,0,2.61-.26c17.2-9.3,34.29-18.8,51-29a8.31,8.31,0,0,0,.94-.89,245.37,245.37,0,0,1-35.71,7.78c-13.92,2.13-27.91,3-41.82-.49-2.3-.59-4.72-.53-7-1.55a5.93,5.93,0,0,1-3-2.84c9.18.62,17.56-1,25.83-3.53,28-8.73,53.65-22.15,77.63-38.9,2.92-2,5.91-4,8.85-6,.17-.12.24-.37.36-.56-29.53,3.91-44.63,3.58-55.76-1.57,28.38-1.72,54.31-12.7,81.4-21.33-11.51-3.72-22.6-7.79-32.88-13.45s-19.57-12.6-26.09-22.53l.73-.94c2.3,1.51,4.64,3,6.9,4.56,8.63,6.07,17.74,11.28,28.32,12.87,7.46,1.12,15,2.33,22.6,1.48s15.12-1.53,22.51-3.48c4.56-1.21,8.31-4.36,13-5.16,1.8-.3,1.31-1.74,1-3-1.68-7-3.29-14.12-5-21.16-1.89-8,2.41-17.17,9-22,9.54-7,20.06-6,30.64-5,5.24.49,10.39,1.88,15.6,2.84a4.58,4.58,0,0,0,2,.09c10.33-3.1,20.63-6.26,31.12-9.46-.94-2.18-2.4-2.42-4.21-2.55-19.63-1.45-39.21-3.26-58-9.87a49.55,49.55,0,0,1-5.9-2.79c-.7-.36-2.09-.23-1.76-1.55.21-.85,1.25-.76,2-1,5.49-1.7,10.89,0,16.23.62a70,70,0,0,0,22.27-.56c-7.54-2.86-14.64-6.31-20.46-12.17,9.77,1.88,19.33,5.22,29.88,3-2.83-3-3.76-7.2-6-10.62-7.83-12.08-10.31-25.79-12.24-39.55-3.19-22.59,2.14-43.62,12.44-63.78,12.25-24,24.82-47.74,37.1-71.68,5.52-10.75,10-22,14.61-33.13C585.31,8.6,587,4.29,590.28.92c1.22-1.25,2-1.23,3,.08,4,5.24,8.41,10.34,9,17.34.53,6.24,3.85,11.83,4.08,18.13.62,16.68,1.06,33.29-1.5,49.94-2.6,17-6.82,33.59-9.81,50.44-2.45,13.76-6.18,27.45-5.76,41.64.07,2.08-2.27,4.68-.18,5.92,1.5.88,4.24-.2,6.39-.59,3-.55,5.95.5,8.92.53,12.27.13,24.27,2.43,35.94,5.78,9.32,2.68,18.65,5.85,26.82,11.48,3.75,2.59,8.15,4.07,12,6.66-12.58-22.21-31.36-37.89-53.56-50.4,6.14-2.44,11.67-.8,17.17.71,9.89,2.71,19.62,5.83,28,12.15a1.75,1.75,0,0,0,.29.18c13.42,5.12,21.93,16.38,31.91,25.74,3.37,3.16,4.71,8.11,8.82,11.8-1-5.11-1.28-9.7-2.79-14.12-3.84-11.25-10.05-21.14-17.24-30.48-.81-1.06-2-1.64-.17-3.44s2.47-.57,3.44.24A91.4,91.4,0,0,1,719.77,192c6.59,14,10.32,28.71,12.87,43.82.29,1.7.3,3.44.49,5.78,1.45-3.34,1.26-6.39,1.7-9.29a78.82,78.82,0,0,0,.94-8.93c.68-18.29-1.49-36.3-5.46-54.12a8.08,8.08,0,0,0-.38-1.68c-.53-1.14.56-1.5,1-1.85.78-.57,1,.55,1.33.94,5.83,6.29,8.64,14.27,12.17,21.85,4.26,9.18,6,19,7.75,28.89a89,89,0,0,1,.12,30.15c-.71,4.3-.91,8.68-1.44,14,7.75-11.22,11-23.28,14.58-35.78,3.58,11.41,0,21.74-2.34,32.11a69.06,69.06,0,0,1-8.28,20.36,56.38,56.38,0,0,0-4.35,9.75c9.06-6.43,14.67-16,22.54-24.45-2.31,10.92-4.12,21.25-11.9,29.41-10.56,11.06-20.78,22.44-31.32,33.52-1.69,1.78-.05,2.63.26,3.79.48,1.82,1.78.76,2.75.39,2.37-.9,4.74-1.77,7-2.78a26.61,26.61,0,0,1,14.31-2.41c-.65,2.47-2.73,4.14-3.9,6.85,4-.5,7.59-1.4,10.56-3.59a27.22,27.22,0,0,1,13.6-5.47,12.85,12.85,0,0,1,11.14,4.83c4.53,5.52,6.91,12.11,8.83,19.38,2.58-1.91,4.9-3.68,7.25-5.4,17.13-12.49,33.78-25.55,49.32-40,3.49-3.25,8.43-4.15,12.79-5.51a220.68,220.68,0,0,1,50.36-9.72c1.73-.12,3.46-.16,5.18-.14a378.3,378.3,0,0,0,58.93-3.38,32,32,0,0,1,4.49-.18c.61,0,1.49-.34,1.75.57s-.59,1.17-1.12,1.53c-5,3.4-10.32,6.53-15.17,10.21-19.51,14.78-40.64,26.89-62.25,38.23-31.45,16.5-64.32,29.56-98,40.59-.65.22-1.31.44-1.95.68-8.72,3.23-8.72,3.23-7.92,12.59a6.2,6.2,0,0,0,3,4.76c8.19,5.72,17.6,8.95,26.5,13.21,7.08,3.38,14.8,5,22.26,7.33a88.14,88.14,0,0,1,12.65,4.52,10,10,0,0,0,6,.87c6.74-.89,13.52-1.34,20.27-2.13,7.41-.87,14.31,1.74,21.4,3a14.15,14.15,0,0,0,7.43-.5c9.33-3.28,18.36-7.27,27.44-11.19s18.86-5.94,28-9.55c11.12-4.38,22.79-5.41,34.42-6.34,3.41-.27,7.43.83,11.1,2.58,8.54,4.08,13,11.24,17.63,19,8.47,14.13,10.53,30,14.14,45.54a165.7,165.7,0,0,1,4,25.45c3.47-1.71,5.87-3.63,7-7.16,3.12-10.19,6.54-20.16,7.91-30.95,1-7.61.59-15.1,1.15-22.62.54-7.21,1-14.44,2.08-21.59.22-1.39.55-3,2.27-3,1.93,0,4-.82,5.65,1.38,6.1,8.12,12.07,16.16,13.86,26.63.74,4.33,3,8.41,4.72,12.55,4.36,10.59,5.35,21.8,6.33,33,.72,8.14,1.76,16.26,1.16,24.43-.77,10.56-1.47,21.29-5.33,31.17-5,12.89-12.18,24.71-24.28,32.25a57.54,57.54,0,0,1-22.09,8.44c-2.25.33-3.27,1.15-3.42,3.32a9.94,9.94,0,0,1-2.75,6.18,16.24,16.24,0,0,0-2.94,5.42c-.35,1-.56,2.19-1.26,2.81-8.29,7.29-15.45,15.79-26.29,20.07a270.57,270.57,0,0,1-43.38,13.44A192.64,192.64,0,0,1,927,623.71c-11.22-.42-22.36-2.81-33.56-4.18-21.52-2.64-41.86-9.62-62.11-16.9-2.86-1-3.7-.69-3.77,2.46-.08,3.66-.95,7.3-1.21,11-1,14.1.93,27.85,4.4,41.54,2.55,10.08,6.35,19.72,10,29.32,3.26,8.48,8.56,16.23,12.43,24.57a359.5,359.5,0,0,0,27.56,49.31c3.12,4.64,5.18,10,7.76,15a6.62,6.62,0,0,1,.48,3c.12,9.43-3.82,17.28-9.49,24.46a3.13,3.13,0,0,1-1,.9c-8.41,3.92-17.09,6.55-26.51,4.76-9.72-1.84-19.53-.89-29.3-1.1a9.64,9.64,0,0,0-5.22,1.63c-37.05,22.53-76.56,40.1-116.37,56.95a201,201,0,0,1-61.66,15.5c-7.57.64-15.15-.13-22.71-.67-2.28-.17-3.74.16-3.71,3,.19,16.7-1.77,33.34-1.32,50.07.24,9.11,1.3,18.14,1.74,27.22a253.53,253.53,0,0,0,4.67,37.64c1.36,6.81,5.16,12.48,8.32,18.37,4.18,7.79,11,13.27,19,16.73,3.71,1.59,7.8,2.79,12,1.76,5.47-1.35,10.9-.39,16.4-.24,6.56.17,11.67,3.73,17.57,5.27a3.78,3.78,0,0,1,1.51.79c8.77,7.8,18.54,14.37,27.27,22.23,2.71,2.44,2.5,5.18,2,7.81s-3.53,2.84-5.62,3c-2.87.18-4.79.55-4.34,4,.18,1.4-1.09,1.11-1.91,1.38-2.36.78-5,.73-7.13,2.17Z"/><path class="cls-2" d="M812.82,806.45c-12.22,6-23.76,11.42-35.1,17.25-19.46,10-38.53,20.79-58.89,28.87-21.81,8.65-43.52,17.77-66.94,21.36-7.26,1.11-14.55,2.44-21.94,2.36-12.47-.14-24.7-2.64-37-4.36-19.67-2.76-37.88-10.18-55.89-18.22a157.21,157.21,0,0,1-43.38-28.5,113.42,113.42,0,0,1-15.45-18.51,5.66,5.66,0,0,1-1-3.9c1.81-19.72-6.78-35.66-18.12-50.73-10.95-14.54-24.64-26.43-37.17-39.44a11.46,11.46,0,0,1-1.84-2c-7.78-13.37-15.68-26.68-21.26-41.2-5.13-13.33-10.35-26.69-14.34-40.32-5.29-18-11.06-36.12-12.4-55.08-.39-5.47-3.42-10.57-2.83-16,1-9.52,1.35-19,4.36-28.46,5.25-16.45,12.68-32.09,17.27-48.74,1.72-6.2,3.28-12.44,3.24-19.13a5.12,5.12,0,0,0-1.75,3.46c-3.08,14.17-9.44,27.09-14.93,40.38a188,188,0,0,0-12.92,48.89c-1.25,10.25.55,20.36,2.79,30.44,4.9,22,10.23,43.95,17.93,65.16a347.48,347.48,0,0,0,18.25,42.1,10.3,10.3,0,0,1,1.08,2.95c-4.3-2.79-8.55-5.62-12-9.43-8.93-9.93-17.77-19.94-26.65-29.92-.38-.43-.75-.88-1.16-1.29-.72-.74-1.68-1.84-2.59-1.2-1.19.83.25,1.7.54,2.59,1.23,3.72,2,7.88,5.46,10.11,3.76,2.46,6.47,5.8,9.25,9.09,11,13,23.69,24.16,35.55,36.22,12.58,12.78,24.48,26.26,36.49,39.61A81.62,81.62,0,0,1,469.79,793a28.25,28.25,0,0,1,0,9.62C468.5,809.8,468,817,466,824.19c-3.11,11.64-7.77,22.62-12.17,33.73S444.9,880.15,443,892c-.67,4.06-2.34,4.32-5.57,4.69-9.83,1.13-19.62,2.65-29.42,4-1.29.18-3.35-.14-3.21,1.68.12,1.46,2.07,1,3.27,1,19,.7,37.68-1.6,56.29-5,15.95-3,31.93-5.73,47.9-8.56,4.33-.77,9.61,4.08,9.86,8.84a73.93,73.93,0,0,1-3.94,28.54A66.65,66.65,0,0,0,514.6,953c.08,1.45.54,3-1.81,3.54s-4.75,1.42-6.41-.5c-4.47-5.17-15.76-5.7-20.61-1-2.3,2.25-2.79,1.19-3.3-1.15-1.23-5.54-.34-7.16,3.85-10.69a40.63,40.63,0,0,0,12.2-16.82,91.16,91.16,0,0,0,3.31-10.89,11.81,11.81,0,0,0-4.57-12.46c0,1.26,0,2.37,0,3.49s1.1,1.78.7,3.15c-15.39-.79-28.09,7.48-41.66,12.88-21.53,8.55-43.35,16.15-66.16,20.49a84.52,84.52,0,0,1-16.82,1.56,9.07,9.07,0,0,1-9.14-7.42c-3.31-13.82.56-27.21,1.77-40.76,1.15-13,.34-26,.36-39,0-10.22-2.89-19.7-5.75-29.29-1.62-5.46-5.25-9.53-8.42-14.7-.37,3.11-.18,5.21,1.3,7.43,3.81,5.69,3.38,12.54,4.56,18.94.29,1.62-.93,1.74-2.14,2-8.3,1.82-16.54.45-24.68-.86-22.84-3.66-44.68-10.8-66-19.61a5.51,5.51,0,0,0-1.28,0L274,830.61c-3,0-5.17-1.29-7.41-2-21-7-41.22-15.84-60.05-27.67-4.28-2.68-6.75-7-10.66-10.16-10.36-8.26-19.54-17.88-26.17-29.4-5-8.76-10.72-17.19-14.84-26.48-1.44-3.25-3.41-6.26-5.17-9.36-.87-1.52-2-3.18-3.64-3.52-3.2-.66-3.61-3-4.19-5.5-3.24-13.9-6.64-27.75-9.79-41.66-1.14-5-1.73-10.2-2.61-15.3-.65-3.71-2.09-6.88-5.86-8.46-1.18-.49-1-1.7-1.17-2.69-2.59-13-6.06-25.77-13.55-37a2.91,2.91,0,0,1-.19-2.88,27.78,27.78,0,0,1,7.18-11.24,540.8,540.8,0,0,0,47.4-52.05,142.19,142.19,0,0,0,18.68-30.5q-6.71,8.61-13.41,17.22c-17.85,22.78-37.45,44-57.35,65-8.65,9.12-12.66,19.92-12.9,32.38C98.11,637.14,98,645,98,652.93c.11,18.59,2.38,36.56,8.34,54.27,6.2,18.43,11.09,37.29,19.63,54.87.82,1.7.39,2.65-.93,3.8-14.67,12.74-27.11,27.59-38.79,43-9,11.82-14.8,25.66-21.42,39C57.2,863.21,52.71,879.69,49,896.18c-3.06,13.52-5.68,27.58-4,41.74,1.61,13.94,6.63,26.47,16.46,36.8,1,1.06,2.67,1.73,1.6,4-1.25,2.64-2.24,3.61-5,1.49a22.09,22.09,0,0,0-6.45-3.14c-3.41-1.16-6.41.86-9,2.46A16.57,16.57,0,0,0,34.83,993a41.67,41.67,0,0,1-1.21,7c-2-2-1.43-4.26-1-6.23,3.85-16.57,1-32.22-6.88-47-2.73-5.11-3.11-9.68-1.67-15.27,4.72-18.23,6.46-36.87,7-55.69.74-23.59-2.18-46.88-4.7-70.22-.41-3.73-.95-7.46.55-11.21A11,11,0,0,1,29,791c3.78-4.23,8.41-7.5,12.55-11.33,2.12-2,4.05-4,4.59-7.08a12.47,12.47,0,0,1,2.24-4.64c5.5-7.94,7-17.46,8.33-26.41a166.92,166.92,0,0,0,1.09-39.61c-1.21-13.38-3.47-26.62-3.42-40.19.06-14.17-.46-28.39-1.09-42.57-.31-7-1.55-13.95-1.28-21,.61-16.46,2.58-32.7,11.17-47.11,4.93-8.27,9.78-16.67,15.84-24.25,9.9-12.37,19.58-24.88,32.08-34.93,8-6.4,14.94-14,23-20.39A371.36,371.36,0,0,1,182,439.38c2.1-1.19,4.22-2.36,6.3-3.6,1-.62,2.42-1.14,1.53-3.16-6.7,3.45-13.59,6.44-20.8,11,1.52-5.7,2.75-10.45,4-15.17,8.56-30.94,17.32-61.83,25.6-92.84,2.75-10.31,4.07-21,6.41-31.43q4.41-19.69,9.43-39.26c4.12-16,6-32.33,8.16-48.63,1.76-13.35,3.81-26.66,4.53-40.13a31,31,0,0,0-.36-7.89c-1.08-5.48-.43-11-.86-16.54-.6-7.66-3.16-14.84-5-22.19-1.09-4.33-3.83-7.63-7.24-10.28-3.1-2.41-6.73-1.61-10.24-.82-10.41,2.36-19,8.69-28.3,13.32a158.84,158.84,0,0,0-39.75,28.38c-6.53,6.32-13.63,12.05-19.84,18.71a3.76,3.76,0,0,1-4.1,1c-1.52-.47-.89-2-.79-3a28.85,28.85,0,0,1,7.22-16.77c9.14-10.08,19-19.74,29.69-27.8,12.14-9.12,23-20.31,37.36-26.44,2.6-1.11,4.65-3.46,7.23-4.66,11.54-5.37,23.43-9.69,36.46-8.25,4,.44,6.69,3.9,9.16,6.8a49.65,49.65,0,0,1,7,11.44c2.11,4.52,2,9.54,2.33,14.16.58,8.83,1.85,17.69,1.54,26.53-.88,25.64-1.39,51.29-5.16,76.76-3.72,25.15-7,50.38-10.34,75.58-3.26,24.3-6.48,48.61-5.68,73.23A126.17,126.17,0,0,0,233.37,412a47.83,47.83,0,0,0,6.35,12.29c-2.21,1.18-4.52-.05-6.46.88-1.07.51-2.84.8-2.67,2.26.14,1.22,1.81,1.28,2.91,1.41,25.37,3.15,50.34,8.67,75.38,13.6,15.4,3,31,4,46.35,6.85.18,0,.34.23,1,.72l-11.39,4.74c4.42-.07,8.46-1.62,12.56-2.89,19.95-6.14,37-17.23,52.72-30.69a557.09,557.09,0,0,0,65.31-65.48c2.34-2.79,4.37-5.85,6.87-9.23,4.82,12.88,3.48,26.45,7.51,39.15,1.67-1.23,1.08-2.61,1.09-3.78a191.51,191.51,0,0,0-4.67-41.46c-3.1-14.42-7.35-28.5-10.79-42.79-1.55-6.44-1.61-13.36,2.21-19.31,3.08-4.8,8-7.24,13.64-7.6a86.85,86.85,0,0,0,9.25-1,27.8,27.8,0,0,1,12,.59c11,2.91,22.11,5.51,33,8.73a113.29,113.29,0,0,1,20.9,9,127.24,127.24,0,0,0,12.65,6.29c.72.29,1.65,1.39,2.34.08.43-.82-.25-1.47-.85-2.07-3.37-3.32-3.36-3.33.92-5.82,11.93-6.93,23.71-14.14,36.2-20,5.85-2.76,12.39-3.38,18.51-5.37,2.95-1,6.07-1.38,9-2.35,8.07-2.68,18.49,3.42,22.09,10.06,4.82,8.85,7.33,18.61,11,27.9,3,7.46,4.82,15.38,8.89,22.41.68,1.19,1.15,2.65,3,1.28s.72-2.29-.24-3.35c-.59-.66-1.64-1.23-1.13-2.29s1.64-.49,2.5-.58a24.69,24.69,0,0,1,11.8,2.11c8.35,3.39,17.12,6.24,22.63,14.34,1.42,2.08,1,2.64-1,3.65-12.68,6.54-26,11.74-38.17,19.35-6.16,3.86-11.57,8.71-17.35,13.06-9.56,7.19-19.07,14.57-27.41,23.16a187,187,0,0,0-31.16,42.4c-1.25,2.36-2.26,2.63-4.43,1.29-8-4.91-13.88-11.38-16.47-20.65a126,126,0,0,1-4.31-36.19c.17-11.31-1.58-22.42-3.7-33.47-.63-3.3,1-7.08-2.25-10,12.11,1.68,19.9,11,29.94,16-7.57-13-45.1-32.43-79.4-24.81.35,1,1.24.86,2,.92,9.16.71,18.34,1.24,27.47,2.19,4.2.44,8.31,1.76,12.47,2.58,1.21.24,1.67,1.11,2.25,1.95,2.35,3.43,3.26,7.36,3.73,11.37,5.6,47.29,3.2,94.8,3.73,142.22.16,14.06,2.48,28,3.49,42,2.5,34.59,13.7,67.06,24.36,99.63A277.68,277.68,0,0,0,639,688.81c5.66,9,13.2,16.56,19.48,25.07,8.18,11.08,18.63,19.66,29.74,27.57,18.94,13.48,40,21.77,62.57,27.14a291.4,291.4,0,0,0,67.35,8q19.71,0,39.41,0c1.06,0,2.67.52,2.93-.93.21-1.15-1.42-1.22-2.25-1.75-1.68-1.08-3.58-.79-5.39-.71-2,.09-3-.43-2.89-2.67.52-9.31-4.2-16.74-9.29-23.77a164.1,164.1,0,0,1-15-25.92c-2.43-5.09-5.19-10.06-7.1-15.34-5.33-14.77-10.31-29.53-13.47-45.1-3.33-16.4-3.48-32.66-3.47-49.09,0-6,1.14-11.89,2.22-17.77.16-.85,0-2.46,1.76-1.73,5.45,2.32,11.52,3.42,15.9,7.94,1,1,1.61,1.91,1.19,3.34-4,13.81-1.86,27.7-.14,41.49a145.66,145.66,0,0,0,9.88,38.21c4.06,9.77,8.33,19.44,12.5,29.16,2.06,4.81,5,9.08,7.78,13.42,10.4,16.18,18.19,33.87,29,49.85,3,4.46,1.8,9.89.48,14.9a22.13,22.13,0,0,1-5.46,9.41c-2.05,2.18-5.13,3.1-8,3.55a127.23,127.23,0,0,1-33.76.3,235.59,235.59,0,0,0-57.16,0A121.6,121.6,0,0,0,763.53,806c-.93.24-2.8-.14-2.44,1.6.29,1.4,1.83,1.11,3,.85a124.62,124.62,0,0,1,19.78-3A139.6,139.6,0,0,1,812.82,806.45Z"/><path class="cls-3" d="M790.58,548.41c0-3.68-.38-7.41.07-11,1.4-11.26,7.12-19.84,16.71-26,47.17-30.24,93.43-61.86,140.79-91.8,13.6-8.6,27.28-17.15,43.24-21.07a55.87,55.87,0,0,1,13.9-1.9q11.73.19,20,9.93c7.73,9.06,9.87,20.14,13,30.81,4.53,15.43,8.22,31.11,9.1,47.3.27,5,1.64,10.11,1.39,15.11-.77,15.29,1.63,30.57-.44,45.87-.82,6.13-.67,12.35-2.09,18.46-2.22,9.48-6,18.21-12.73,25.23a43.2,43.2,0,0,1-11.79,8.27c-9.93,5-20.08,10-30.81,12.79-19.08,5-38.68,8.06-58.4,7.07-18.18-.92-36.39-1.88-54.29-6.81-11.49-3.17-23.29-5.51-34.52-9.53-13.73-4.92-27.26-10.44-39.4-18.83-9.85-6.8-14.17-16.24-14-28,0-1.95,0-3.91,0-5.87Z"/><path class="cls-4" d="M792.82,387.69a147.57,147.57,0,0,1-31.66-19.44c2.57-.82,11.83,1,14.54,3.2,3.78,3.09,8,5.72,10.49,10.21.87-.6.82-1.42.6-1.68-2.94-3.38-1.7-7.21-1.34-11a14.49,14.49,0,0,0-2.68-10.69c-2.2-2.95-3-6.87-6.59-8.88,1.2-1.14,3.73.44,3.68-1.77,0-1.63-2.07-1.82-3.48-2.28-7-2.28-12.88-.56-18,4.73-2.06,2.15-4.63,3.79-6.83,5.8-3,2.71-2.51,5,.17,8,3.9,4.22,7.6,8.52,12.15,12.16,10.15,8.11,21.77,13.76,32.84,20.33,17.83,10.58,37.35,17.16,56.85,23.76l3,1-35.39,11.48c7.09,1.87,13.69.08,19.87-2.49,11.26-4.68,23.05-6.18,35-7.24,2-.17,3.91-.28,5.83-.62,7.74-1.39,15.45-1,23.49.4-4.56,2.66-9.05,4.94-14.12,6.08-7.54,1.69-14.6,4.8-21.74,7.71-7.83,3.18-15.78,6.08-23.9,8.47A104.55,104.55,0,0,0,823,454.27c7.43,1.26,13.64-1.32,19.84-3.44,34.4-11.78,68.79-23.61,102.27-37.87a2.39,2.39,0,0,1,2.27-.14c-8.89,5.95-17.62,11.7-26.28,17.56-32.13,21.75-65.32,41.87-97.55,63.46-9.26,6.2-18.55,12.39-27,19.71-3.83,3.3-5.75,7.85-7.36,12.22-3.26,8.84-5.48,17.9-3.72,27.68,1,5.32,0,11,2.39,16.28-8-4.41-14.58-10.19-20.75-16.71-13.17-13.94-17.13-31.56-21-49.42-2.74-12.67-4-25.77-9-37.84a32.26,32.26,0,0,0-17.5-18.13c-6.56-2.79-13.13-4.85-20.34-4.05-1.7.18-2.17-.63-2.15-2.22a26.64,26.64,0,0,1,2.15-9.7c4.5-11.21,8.77-22.5,13.07-33.78,4.42-11.58,10.83-22.35,17.95-32.58,4.22-6.06,7.81-12.49,11.51-18.85a18.46,18.46,0,0,1,8.1-7.71c6.53-3.15,13-6.51,19.44-9.76,4.36-2.19,6.56-1.65,10.33,1.36,5.41,4.3,7.18,10.5,8.72,16.59,3.22,12.77,3.26,26,4.66,39A10.06,10.06,0,0,1,792.82,387.69Z"/><path class="cls-5" d="M757,750.92c1-5.72-.36-12.75-1.57-19.56-.9-5.05-2.88-10.45-9.15-12.71-7-2.51-7.37-3.17-4.5-10.14,6.65-16.14,7-33,6.37-49.93A64.56,64.56,0,0,0,733,619c-3.29-4-6.71-7.88-10.09-11.8-6.22-7.21-14.62-10.71-23.49-12.72-4.72-1.07-9.86-.45-14.81-.31-2.49.07-4-.6-5.13-2.93a90.14,90.14,0,0,0-22.36-28.66c-1.83-1.6-2.23-2.9-.51-4.79,3.81-4.17,5.89-9.26,7.12-14.66.51-2.26,1.84-1.18,2.88-1.09,15.51,1.33,31,2.18,46.41-1,8.2-1.71,16.21-4.38,24.29-6.66,2.61-.73,4.52-2.7,6.75-4.1,1.26-.79,1.87-.91,2.48.67,6.58,16.89,18.24,29.89,31.84,41.38,6.15,5.2,12,10.86,19.34,14.35,1.7.8,1.62,2,1.31,3.43-3.54,15.75-3.7,31.73-3.36,47.75A96.45,96.45,0,0,0,800,664.3c2.89,9.44,4.49,19.24,7.91,28.57,5.69,15.5,12.49,30.41,21.57,44.27A248.21,248.21,0,0,1,843,760.44c1.59,3.12,2.22,6.52,3.26,9.8.67,2.1-.47,2.76-2.36,2.53-11.8-1.46-23.71-.69-35.52-1.77-12.6-1.14-25.19-2.52-37.77-4-3.87-.44-7.67-1.48-11.52-2.18-1.7-.31-2.18-1.27-2.12-2.91C757,758.73,757,755.5,757,750.92Z"/><path class="cls-6" d="M290.9,838.58c-1.35-1.88-3.53-2.37-5.69-4.61,6.41,1.65,11.87,3,17.3,4.48,8.33,2.24,16.67,4.44,24.95,6.85,5.65,1.64,11.5,0,17.13,1.38,4.24,1,8.47.45,12.67-.18,1.63-.24,2.22,0,2.39,1.76a206.22,206.22,0,0,1,.09,38.25c-.49,5.74.15,11.52-.79,17.24-.39,2.37-.4,4.81-.63,7.21-.48,4.9-.49,5-5.5,4.89-17.87-.26-35.83-1.3-53-6-18.77-5.17-37.48-10.84-54.92-20.19-10.63-5.69-20.18-12.83-30.25-19.25-4.86-3.1-8.47-8.09-13-11.84-8.95-7.46-15.7-16.8-22.82-25.81C171.17,823,163.7,813,156,803.25a105.17,105.17,0,0,1-11.81-19c-5.44-11.2-12.86-21.33-17.65-32.82-6.21-14.85-11.92-29.88-15.92-45.54a309.4,309.4,0,0,1-7.81-42c-1.63-14.2-2.29-28.44,1.12-42.53a68.85,68.85,0,0,1,2.57-7.08c4.29,5.94,6,12.43,8.07,18.8,3,9.11,4.58,18.46,6,27.91.86,5.68,3.24,11.13,5.36,16.62.43-6.81-1.17-13.46-1.57-20.76a11.35,11.35,0,0,1,2.84,5.65c3.91,19.61,7.94,39.2,11.72,58.84,2.46,12.83,9,23.77,15.49,34.76.08.13.4.12,1.14.33-.56-9.48-6.94-17-7.67-26.33,3.25,5.43,7.1,10.37,9.7,16.1,6.52,14.36,16.39,26.63,24.93,39.72,2.11,3.23,5.36,5.65,8.4,8.15a173.44,173.44,0,0,0,50.63,28.8c14.33,5.33,28.49,11.07,43.16,15.44A9.86,9.86,0,0,0,290.9,838.58Z"/><path class="cls-7" d="M700.32,655.5a158.78,158.78,0,0,1-5.47-16.32c-.78-3.12-1.9-6.21-2.26-9.38-1.15-10-5.43-19-8.29-28.4-.7-2.3-.17-2.56,2-2.77,13.25-1.28,23.81,5,33.9,12.19,2.79,2,4.29,5.67,6.77,8.2,6,6.13,8.47,13.93,11.56,21.62,5.23,13,5,26.6,4.6,40.07-.23,7.34-2.51,14.68-3.52,22.1-.49,3.62-2.81,7-4.26,10.48-.75,1.79-1.81.84-2.76.33-4.2-2.28-8.88-3-13.45-3.89-6.23-1.2-9.73,3.86-13.85,7.08-6,4.7-9.55,11.45-13.64,17.68-1.28,1.94-2,2.47-4.07.74-16.24-13.85-29.69-30-41.32-47.9-14.08-21.65-24.91-44.79-34-68.87a256,256,0,0,1-8.89-29.7c-3-12.28-6-24.54-8.32-37-1.05-5.77-.84-6.13,5.08-6.46s11.41,1.24,16.8,3.27c4,1.49,8.19,2.52,12,4.18,13.38,5.82,26.45,12.16,36.12,23.89,11.36,13.8,16.49,30.39,22.06,46.82,3.21,9.46,5,19.38,9.15,28.56C697.22,654.09,697.15,654.13,700.32,655.5Z"/><path class="cls-8" d="M744.85,331.26c-8.54,13.88-17.61,26.41-24.37,40.3s-14.91,27.2-20.65,41.68A220.25,220.25,0,0,0,688.9,452a61.06,61.06,0,0,0,2.06,30.2c1.28,4.06,4.53,6.83,6.94,10.14a1.86,1.86,0,0,0,2.74.55c1-.92-.34-1.53-.86-2.19s-1.49-1.13-1.17-2c.41-1.07,1.61-.51,2.47-.66,3.33-.57,6.31,1.68,9.84.78,9-2.3,17-6,22.42-14.13,3.77,5,3.73,10.94,5,16.47,2.15,9.42,3.87,18.93,5.92,28.37a3,3,0,0,1-1.41,3.7c-6.31,4.36-13.32,6.81-20.59,9.22-13.08,4.33-26.35,4.54-39.73,4.22-11.33-.28-22.41-2.49-32.63-7.58-7.38-3.67-15-6.8-21.67-12-6.84-5.31-12-11.85-17.15-18.69-6.06-8.06-7.36-17.13-6.63-26.34.57-7.26,1.36-14.58,4.43-21.74,3.26-7.59,5.61-15.66,10.64-22.26C630.76,413.43,640,397,655.37,385.67c3.49-2.57,6.08-6.36,9.56-9,11.11-8.3,22-17,34.52-23.18a11.54,11.54,0,0,0,3.28-2.49,7,7,0,0,1,2.31-2c9.94-3.4,18.46-9.75,28.28-13.38C736.87,334.33,740.39,333,744.85,331.26Z"/><path class="cls-4" d="M592.78,13.19c2.87,2.81,3.73,6.13,4.86,9.53,2.59,7.78,2.6,15.81,3.61,23.73,1.28,10,.34,20-1.36,29.92-3.81,22.09-8.07,44.1-12.06,66.16-2.57,14.26-4.69,28.55-4.94,43.12-.14,7.9-1.15,15.81-1.22,23.76s1.67,15.56,2,23.36c.58,12.72,4.85,24.23,10.64,35.32.88,1.69,1.4,3.15-.54,4.41a4.44,4.44,0,0,1-5.42-.1c-1.75-1.26-2.4-3.34-3.63-5A222.74,222.74,0,0,1,556.56,217a299.13,299.13,0,0,1-11.89-36.39,37.19,37.19,0,0,1-.11-15.79,104,104,0,0,1,9.27-27.31c6.42-13,14-25.43,19.62-38.69,8.06-19,15-38.65,17.93-59.23,1.08-7.43,2-15.06,1.41-22.69C592.7,15.64,592.78,14.41,592.78,13.19Z"/><path class="cls-4" d="M651.25,1040.3c-1.45,1-2.29,1.91-3.32,2.25-7.44,2.49-10.51,8.81-13.45,15.21-1.24,2.71-3.39,4.93-4.15,8.81a82.85,82.85,0,0,0-6.75-11.13c-2-2.88-4.26-4.87-7.65-5.19-1.68-.16-2.31-1-3.11-2.22-4.67-7-6.34-14.92-7.08-23.11a14.68,14.68,0,0,0-2.07-6.52c-3.45-5.58-5.78-12-12.41-15.15-2.23-1.07-3-4-3.4-6.49a5.79,5.79,0,0,1,0-1.38c1.78-22.56-5.83-42.8-15.74-62.36-5.39-10.66-10.63-21.44-17.49-31.28-1.68-2.42-3.94-4.44-6.38-7.12,5.15-1.34,9.89-2.89,14.76-3.78,11.79-2.18,23.09-6.17,34.69-9.08.66-.17,1.32-.41,2-.53,7.52-1.29,8.47-.61,7.53,6.73-3.19,24.82-.84,49.62-.16,74.45.45,16.32,2.9,32.2,9.21,47.09,4.81,11.36,12,21.64,23.46,27.6C643,1038.79,646.9,1039.14,651.25,1040.3Z"/><path class="cls-6" d="M476.05,813.74a85.94,85.94,0,0,0,9.39,10.62c9,8.42,17.69,17.32,28.31,23.53,17.38,10.17,35.5,19,54.78,25.17,5.61,1.8,11.19,3.75,17,5.92-5.28,1.35-10.55,2.71-15.83,4-8.36,2.1-16.69,4.35-25.11,6.22-5.7,1.27-11.53,2-17.3,3a2.64,2.64,0,0,1-2.71-1.11c-6.34-8-15.1-7-23.51-5.83-8.62,1.22-16.77,4.84-25.49,5.89s-17.32,2.19-26,3.43c-1.85.26-2.27-.2-2-1.91,2.43-13.2,6.14-26,13-37.62,6.17-10.45,9.65-21.82,13.05-33.29C474.36,819.37,475.08,817,476.05,813.74Z"/><path class="cls-3" d="M587.62,15.63c1.52,14.78-1.47,27.86-4.81,41.13-8.32,33-23.1,63.21-39.19,92.89a21.25,21.25,0,0,0-2.8,10.88c.09,3.79-1.59,7.33-1.11,11.27,1.11,9.28,3.57,18.21,6.17,27.14,5.8,19.83,15.64,37.76,25.78,55.57,3.88,6.83,8.17,13.34,14,18.73.55.52,1.5,1.06,1,2s-1.44.53-2.21.42a7.79,7.79,0,0,1-4.07-2.43c-13.93-12.89-26.48-27.17-36.46-43.15-7.2-11.52-13.93-23.64-17.14-37.38a143.11,143.11,0,0,1-3.06-23.86,52.31,52.31,0,0,1,3.43-22c13.13-34.21,29.77-66.77,46.67-99.21a212.35,212.35,0,0,0,12-27.51C586.19,18.86,586.77,17.67,587.62,15.63Z"/><path class="cls-8" d="M1083.32,411.6c1.6,4.75,3.09,9.55,4.83,14.25a317.54,317.54,0,0,1,10.37,35.33c1.35,5.53,1.13,11.43,1.42,17.13.66,12.62,1,25.35-1.93,37.82s-7.14,24.11-16.58,33.1c-6.92,6.59-14.15,12.82-24.53,13.33-2.44.12-3.55-.23-3-2.71,2.44-10.81,1-21.77,1.38-32.66a2.88,2.88,0,0,1,1.28-2.59,67.71,67.71,0,0,0,15.27-14.84c4.93-6.76,9.25-14.24,11-22.78a176.68,176.68,0,0,0,3.59-42.18c-.22-6.59-1.8-13-2.44-19.49-.44-4.52-.83-9.06-1.24-13.59Z"/><path class="cls-4" d="M941.83,290.88c-50.26,21.58-97.17,49.21-143.54,78.14-1.46-4.28-1.58-8.36-2.57-12.25-.36-1.45.37-2.14,1.37-2.8,11.67-7.67,21.11-18.15,32.69-26,3.1-2.09,5.51-5.21,8.2-7.89,7.75-7.7,17.65-12.46,26.23-19,1.45-1.11,3.3-.87,5-1.2q23.69-4.74,47.68-7.41A244.71,244.71,0,0,1,941.83,290.88Z"/><path class="cls-9" d="M752.14,741.85c.19,4-.58,8.4,1.17,12.62a5.37,5.37,0,0,1,.05,3.41c-.66,2.11-1.17,4.23-4.57,3.5-15.58-3.35-30.43-8.53-44.11-16.82-.78-.48-1.61-.89-2.37-1.41-2.29-1.56-6.71-1.77-6.75-4.24,0-2.25,1.87-5.31,3.47-7.61,4.61-6.65,10.6-12,16.81-17.19.95-.78,1.92-.69,3.18-.44,10,2,18.94,7,28.36,10.6,3.5,1.34,4.47,5.32,4.72,9C752.3,736,752.14,738.76,752.14,741.85Z"/><path class="cls-4" d="M315.34,1002.06c-3.65-11.14-7-21.74-15.43-29.9-2.78-2.7-4.7-6.25-8.19-8.28-1.17-.68-1.12-1.92-1.09-3.08.41-12.35-4.88-23-10.14-33.62-3.1-6.25-7.08-12.07-11.14-18.88l10.47,2.6c7.36,1.82,14.71,3.71,22.09,5.42,2,.46,3.08,1.1,2.87,3.38-1,10.94,2.38,21.18,5.54,31.37,1.68,5.42,5.73,9.61,8.95,14.22,3.7,5.33,8.91,8.77,14.41,12C320.87,980.69,317.85,991.16,315.34,1002.06Z"/><path class="cls-3" d="M805.89,370.91a193.33,193.33,0,0,1,32.59-20.75c21.41-10.73,41-24.64,62.51-35.14s43.23-19.82,66.53-25.3c.42-.1.86-.15,2.21-.38-2.65,2.11-4.5,3.83-6.58,5.21C952.23,301.78,941.3,309,929.9,315.5c-18.38,10.54-37.27,20-56.51,28.76-12.75,5.79-26,10.49-39,15.62C824.87,363.6,815.38,367.23,805.89,370.91Z"/><path class="cls-10" d="M1076.77,406.76a125,125,0,0,1,3.08,20.89c.65,9.41,1.42,18.79,1.75,28.22.53,15-2.71,28.91-8.47,42.57-3,7.16-8,12.82-12.46,18.91-1,1.4-3.22,1.35-4.72,1.36s-.7-2.08-.77-3.17c-.44-7.58-.72-15.16-1.07-22.74,0-1.16-.12-2.16,1.06-3,12.18-8.7,16.08-21.72,18.75-35.52,1.31-6.75,1.26-13.48,1.28-20.25,0-7.94-.28-15.89.73-23.8C1076.06,409.18,1075.72,408,1076.77,406.76Z"/><path class="cls-11" d="M693.72,466.27c-1.15-4.87,1.3-9.83,1.12-15,0-1.26.56-1.52,1.67-1.55,6.44-.16,13.22-.91,19.1,1.45,7.06,2.83,13.8,7,15.33,15.79a6.27,6.27,0,0,1-2.66,6.36c-5.16,3.54-9.89,7.85-16.37,9.27-3.92.85-7.78.66-11.67.58-1.83,0-3.19-1.1-4.19-3C693.8,475.84,693.25,471.36,693.72,466.27Z"/><path class="cls-9" d="M639.21,230.56c-10.13-2-19.48-3.82-28.84-5.63-5.93-1.15-11.71.12-17.39,1.5-3.16.78-4.15-.16-4.52-3.12-.74-6-.22-12-.37-17.95-.05-2.32,1.56-1.14,2.38-.86,9.42,3.25,19,5.87,27.42,11.77,6.16,4.34,13.53,6.87,19.1,12.22Z"/><path class="cls-12" d="M782.65,372c-7.4-5.35-15.11-8.62-24-7.94-3.36.26-4.79-1-3.92-4.84,3.25,3.89,6.68,3.79,11.4,2.54,5.86-1.56,4.78-6.65,7.1-9.74C780.74,356.34,782.44,363.6,782.65,372Z"/><path class="cls-13" d="M769.63,352.72c.12,1-.31,1.67-1.71,1.58-1.14-.07-2.36.18-2.35-1.61,0-1.6.91-2.94,2.17-3C768.69,349.6,769.57,351.08,769.63,352.72Z"/><path class="cls-1" d="M662.27,288.82c-1.48.17-2.24-1.53-4.32-1.41a53.29,53.29,0,0,1,5.39,9.52c3.69,7.79,5.22,15.89,3.29,24.45a5.33,5.33,0,0,1-.29,1.34c-1,2-1.4,5.14-3.47,5.67-1.88.49-2.83-2.51-4.11-4-11.57-13.7-26.17-21.78-44-23.89-3.41-.4-6.8-1-10.31-1.52a2.66,2.66,0,0,1,2.6-2c3.46.23,5.4-1.75,7.27-4.18a32.58,32.58,0,0,1,21.64-12.89c9.4-1.38,18.37-.63,25.44,6.86a8.91,8.91,0,0,1,1,1.34C662.49,288.25,662.33,288.53,662.27,288.82Z"/><path class="cls-14" d="M604.43,307.41c3.55-.5,6.81-1.83,10.69-.92,10.37,2.43,19.38,7.54,28.33,12.91.54.33,1.52.44,1.28,1.34s-1.13.95-2,1c-1.58.09-2.41-1.21-3.61-1.82a150.91,150.91,0,0,0-26-10.92C610.32,308.14,607.36,308.14,604.43,307.41Z"/><path class="cls-15" d="M952.75,475.82a16.64,16.64,0,0,0-15.24-3.27,71.47,71.47,0,0,1,7.18,11.13c.5.89,1.32,1.63,1.36,2.74.2,6.53,2,13,1.25,19.55-1.11,9.37-2.82,18.63-7.22,27.07q-4.71,9-10.28,17.57a34.25,34.25,0,0,1-9.63,9.71,99.78,99.78,0,0,1-13.35,7.18A18.93,18.93,0,0,1,895,568.64c-7.77-1.43-14.84-4.69-21.86-8.1a2.33,2.33,0,0,1-1-.86c-2.38-4.61-6.76-8.08-7.4-13.74a32.1,32.1,0,0,1,1.39-14.75c6.39-17.35,19.38-29.88,32.81-41.55a96.29,96.29,0,0,1,37-19.57c3.77-1.08,7.8-.62,11.67-.23C950.44,470.14,951.29,473.18,952.75,475.82Z"/><path class="cls-15" d="M1034.34,528.8c-.23,9.62.16,19.47-3.36,28.55-5.12,13.22-12.27,19.71-28.72,19-3.53-.16-7.51-1.39-9.27-4.45a14.1,14.1,0,0,1-1.93-9.52c3.08-14.72,5.29-29.69,10.44-43.85,4.07-11.19,8.15-22.5,14.75-32.6,2.3-3.51,1.1-5.9-3.22-6.33-1-.1-2.09.1-3.1,0s-2.72.81-2.86-.8c-.1-1.2,1.54-1.52,2.68-1.69,6-.92,10.55,1,14.25,6.06,5.41,7.46,7.35,15.95,8.65,24.74C1033.67,514.79,1035,521.71,1034.34,528.8Z"/><path class="cls-16" d="M762.35,459.85c-13.72-20.29-31.2-33-57.48-28.11l.3-1.19c1.68-.59,3.34-1.63,5-1.69,9.14-.32,18.23-1.37,27.23,2.15,6.25,2.45,10.82,6.88,15.51,11.07,2.81,2.52,4.19,6.71,6,10.24C760.22,454.69,762.44,456.6,762.35,459.85Z"/><path class="cls-16" d="M719.17,425.12c8.12-.94,15.24-3.74,22.83-2.86,1.36.16,2.73.24,4.09.42,4.77.63,8.86,2.1,11.84,6.48,2.35,3.46,5.47,6.37,6.77,10.56a98.9,98.9,0,0,0-9.61-8.25,19.38,19.38,0,0,0-6.75-3.1,68.48,68.48,0,0,0-20.8-2.16A21.94,21.94,0,0,1,719.17,425.12Z"/><path class="cls-9" d="M631.39,299.2h6.42c3.49,0,5.88-1.44,6.87-4.93.48-1.65,1.19-3.24,1.64-4.9.69-2.56,2-2.48,4-1.28a21.49,21.49,0,0,1,9.9,12.26c2.44,7.51,5.42,14.88,2.19,23.47C654.44,312.44,643.55,305.22,631.39,299.2Z"/><path class="cls-17" d="M622.78,289.51c.07,3.07,1.57,5.55,3.46,8.27l-9.41-2.12C619.9,290.63,619.9,290.63,622.78,289.51Z"/><path class="cls-18" d="M642.84,288.73a3.26,3.26,0,0,1-2.55,3.84c-1.16.17-1.34-1.74-1.43-3-.15-1.79.57-2.82,2.45-2.9C642.84,286.62,642.88,287.64,642.84,288.73Z"/><path class="cls-2" d="M926,499.46c1,6.85-1.19,13-5.15,18.67-2,2.83-1.9,6.51-4.06,9.42a64.14,64.14,0,0,1-8.08,9.39,23.4,23.4,0,0,1-15,6.1c-4.25.23-8.33,1.5-12.79-.35-4.29-1.78-6.74-5-9.3-8.29-.84-1.09-.64-2.88.12-4.29A101.34,101.34,0,0,1,897.44,499c6-4.91,11.16-10.94,18.12-14.81,2.56-1.43,4.19-1.27,6.31.8C926,489,926.57,494,926,499.46Z"/><path class="cls-7" d="M942.36,501.12c-.08,18.41-5.77,34.84-17.33,48.8a39.62,39.62,0,0,1-21.69,13.24c-9.34,2.21-17.3-.7-24.92-5.59-3.2-2.07-6.41-4.18-7.58-8.11-.74-2.51-1.28-5.08-1.79-7.65a1.91,1.91,0,0,1,1-2.06c.69-.3,1.2.48,1.69,1,2.16,2.08,4.91,3.37,7,5.53a5.49,5.49,0,0,0,3.47,1.33c5.71.18,11.31.3,17.08-1,11-2.49,17.57-10,23.16-18.58,3.63-5.57,4.65-12.43,6.74-18.74a55.41,55.41,0,0,0,2.4-10.06c.93-7.08.29-13.54-5.76-18.52-2.9-2.39-2.7-2.63.74-4a10.68,10.68,0,0,1,14.45,9.6c0,2.53-.08,5.06.8,7.49S942.17,498.78,942.36,501.12Z"/><path class="cls-7" d="M1020.64,487.06c1.55,3.42,3.41,6.64,4.49,10.09,6.85,21.86,8.53,43.76-.7,65.43-2.16,5.07-6.47,7.65-11.83,9.23s-10.33,1.3-15.08-1.76c-1.95-1.25-3.19-2.74-2.73-5.25.41-2.21.86-3.38,3.77-2.49,5.56,1.69,13.36-2,15.73-7.59,1.44-3.38,3.52-6.4,4.86-9.86a25.65,25.65,0,0,0,1.45-8.71,104.42,104.42,0,0,0-4.2-34.43c-.44-1.41-2.23-2-1.58-4.14C1016.58,491.79,1017.44,489.81,1020.64,487.06Z"/><path class="cls-2" d="M1012.29,507c4.8,7.17,4.1,15.6,4.15,23.19.06,7.83-.77,16.6-6.49,23.38a11.87,11.87,0,0,1-9.75,4.67c-3.33,0-3.55-1.37-3-3.94,1.39-6.28,2.65-12.58,4.65-18.72,2.71-8.29,5.24-16.65,7.79-25A5.61,5.61,0,0,1,1012.29,507Z"/></g></g></svg>