<svg xmlns="http://www.w3.org/2000/svg" viewBox="0 0 149.32 205.99"><defs><style>.cls-1{fill:#0c120f;}.cls-2{fill:#dbdcdc;}.cls-3{fill:#09100d;}.cls-4{fill:#cf1523;}.cls-5{fill:#10100d;}.cls-6{fill:#10150f;}.cls-7{fill:#101d1c;}.cls-8{fill:#292918;}.cls-9{fill:#c04435;}.cls-10{fill:#2a281c;}.cls-11{fill:#525756;}.cls-12{fill:#656968;}.cls-13{fill:#333837;}.cls-14{fill:#626665;}.cls-15{fill:#4a4836;}.cls-16{fill:#4e5352;}.cls-17{fill:#0b1210;}.cls-18{fill:#141b19;}.cls-19{fill:#292e2c;}.cls-20{fill:#436962;}.cls-21{fill:#e2d7d5;}.cls-22{fill:#f4ae04;}.cls-23{fill:#fbd15b;}.cls-24{fill:#f1aa09;}.cls-25{fill:#fefefe;}.cls-26{fill:#f6f5f4;}.cls-27{fill:#c44636;}.cls-28{fill:#f3ae04;}.cls-29{fill:#f4f3f2;}.cls-30{fill:#fad15a;}.cls-31{fill:#f3ad04;}.cls-32{fill:#c24535;}.cls-33{fill:#e0d5d3;}.cls-34{fill:#dc9d09;}.cls-35{fill:#f1ac04;}.cls-36{fill:#d49709;}.cls-37{fill:#eda904;}.cls-38{fill:#f7ce59;}.cls-39{fill:#eca709;}.cls-40{fill:#44380d;}.cls-41{fill:#5c4711;}.cls-42{fill:#f5cc59;}.cls-43{fill:#ecc656;}.cls-44{fill:#efc857;}.cls-45{fill:#bd880b;}.cls-46{fill:#ebc556;}.cls-47{fill:#f0c957;}.cls-48{fill:#3a300b;}.cls-49{fill:#9d873d;}.cls-50{fill:#dab750;}.cls-51{fill:#edc656;}.cls-52{fill:#e4bf53;}.cls-53{fill:#3d351a;}.cls-54{fill:#de9e09;}.cls-55{fill:#d7b44f;}.cls-56{fill:#bcb8b5;}.cls-57{fill:#e88914;}.cls-58{fill:#fad589;}.cls-59{fill:#436861;}.cls-60{fill:#cba896;}.cls-61{fill:#a29f9b;}.cls-62{fill:#df0321;}.cls-63{fill:#f0a909;}.cls-64{fill:#003a8c;}.cls-65{fill:#2d2715;}.cls-66{fill:#fcfcfc;}.cls-67{fill:#ca561c;}.cls-68{fill:#373b39;}.cls-69{fill:#3b3f3d;}.cls-70{fill:#c8a694;}.cls-71{fill:#2b302e;}.cls-72{fill:#1d2220;}.cls-73{fill:#71c3d0;}.cls-74{fill:#1d1e14;}.cls-75{fill:#f1ce85;}.cls-76{fill:#e18514;}.cls-77{fill:#e8a409;}.cls-78{fill:#70c2ce;}.cls-79{fill:#414442;}.cls-80{fill:#2b302d;}.cls-81{fill:#c9561c;}.cls-82{fill:#353937;}.cls-83{fill:#2e2816;}.cls-84{fill:#c7a594;}.cls-85{fill:#272c2a;}.cls-86{fill:#152a2f;}.cls-87{fill:#1c3233;}.cls-88{fill:#212725;}.cls-89{fill:#efd436;}.cls-90{fill:#dcbc7a;}.cls-91{fill:#505350;}.cls-92{fill:#545654;}.cls-93{fill:#e4a405;}.cls-94{fill:#464947;}.cls-95{fill:#4c4f4d;}.cls-96{fill:#462b10;}.cls-97{fill:#2d3230;}.cls-98{fill:#4c4f4c;}.cls-99{fill:#5a5c5a;}.cls-100{fill:#5f615e;}.cls-101{fill:#cf9309;}.cls-102{fill:#013376;}.cls-103{fill:#5fa5af;}.cls-104{fill:#383c39;}.cls-105{fill:#b9bab9;}.cls-106{fill:#414644;}.cls-107{fill:#868987;}.cls-108{fill:#3f1012;}.cls-109{fill:#591115;}.cls-110{fill:#561115;}.cls-111{fill:#f0aa09;}.cls-112{fill:#262110;}.cls-113{fill:#eaa609;}.cls-114{fill:#f5cd59;}.cls-115{fill:#cc1522;}.cls-116{fill:#eba609;}.cls-117{fill:#cc5d19;}.cls-118{fill:#c51522;}.cls-119{fill:#c81522;}.cls-120{fill:#ca1522;}.cls-121{fill:#e5a209;}.cls-122{fill:#d89d09;}.cls-123{fill:#44370b;}.cls-124{fill:#da9d05;}.cls-125{fill:#bcab24;}.cls-126{fill:#a37807;}.cls-127{fill:#81600a;}.cls-128{fill:#eda809;}.cls-129{fill:#503f0a;}.cls-130{fill:#df9e09;}.cls-131{fill:#d79909;}.cls-132{fill:#e4a109;}.cls-133{fill:#dcc628;}.cls-134{fill:#e5c054;}.cls-135{fill:#5d480a;}.cls-136{fill:#f9d05a;}.cls-137{fill:#594c1c;}.cls-138{fill:#654d09;}.cls-139{fill:#f1ca58;}.cls-140{fill:#2e2a0f;}.cls-141{fill:#d9b64f;}.cls-142{fill:#57440a;}.cls-143{fill:#4a3c0a;}.cls-144{fill:#4f3f0a;}.cls-145{fill:#262b29;}.cls-146{fill:#131917;}.cls-147{fill:#282d2b;}.cls-148{fill:#171d1b;}.cls-149{fill:#232826;}.cls-150{fill:#383c3a;}.cls-151{fill:#2c312f;}.cls-152{fill:#1b211f;}.cls-153{fill:#3d413f;}.cls-154{fill:#1c211f;}.cls-155{fill:#202624;}.cls-156{fill:#535553;}.cls-157{fill:#1e2321;}.cls-158{fill:#414543;}.cls-159{fill:#333735;}.cls-160{fill:#222725;}.cls-161{fill:#2f3432;}.cls-162{fill:#484b49;}.cls-163{fill:#575957;}.cls-164{fill:#313533;}.cls-165{fill:#525452;}.cls-166{fill:#949390;}.cls-167{fill:#636562;}.cls-168{fill:#505351;}.cls-169{fill:#787976;}.cls-170{fill:#5a5d5a;}.cls-171{fill:#747472;}.cls-172{fill:#0f1a1a;}.cls-173{fill:#f1c307;}.cls-174{fill:#c7ba9f;}.cls-175{fill:#2f270d;}.cls-176{fill:#514618;}.cls-177{fill:#1c1c0b;}.cls-178{fill:#372e0a;}.cls-179{fill:#d76119;}.cls-180{fill:#e0ac95;}.cls-181{fill:#f3da2c;}.cls-182{fill:#a19e9c;}.cls-183{fill:#aba8a5;}.cls-184{fill:#bab7b4;}.cls-185{fill:#94928f;}.cls-186{fill:#bab6b3;}.cls-187{fill:#bbb7b4;}.cls-188{fill:#f9dd38;}.cls-189{fill:#eea809;}.cls-190{fill:#ecd42b;}.cls-191{fill:#e7c254;}</style></defs><title>Asset 11</title><g id="Layer_2" data-name="Layer 2"><g id="Layer_1-2" data-name="Layer 1"><path class="cls-1" d="M25.73,65.26a9.11,9.11,0,0,0-2.38-4.2c-.43-.47-.71-.58-1,.29a3.87,3.87,0,0,1-.27-1c0-.95-.46-.78-1-.53a5.21,5.21,0,0,0-3.28,5.06,4.27,4.27,0,0,1-1-2.35,5.72,5.72,0,0,1,1.8-5c.33-.34,1-.67.83-1.1S18.48,56.1,18,56a6.65,6.65,0,0,0-3.27.18,7.64,7.64,0,0,1,1.78-2.46,9.75,9.75,0,0,0-3.91,3,.63.63,0,0,1-.19-.66c.48-2,.25-4,.68-6a37.9,37.9,0,0,0,.43-7.6A46.69,46.69,0,0,0,13,34.33c-.05-.31.15-.9-.32-.88a1.38,1.38,0,0,0-1.31.7c-.15.33-.25.67-.41,1-.7,1.39-1.8,1.65-3,.65-.32-.27-.41-.07-.57.1A17.94,17.94,0,0,0,5.1,39.15c-.07.12-.15.23-.27.41a2.47,2.47,0,0,1-.39-1.68A11.09,11.09,0,0,1,6,33.47c.67-1.27.42-2-.89-2.69a.9.9,0,0,1-.5-.71c-.15-.69-.59-.65-1.06-.37a2.94,2.94,0,0,0-.59.58c-1,1.11-2.1.91-2.65-.47-.1-.24-.08-.55-.33-.72V26.93a38.07,38.07,0,0,1,1.18-3.66A13.28,13.28,0,0,1,4,18.86a3.92,3.92,0,0,1,2.43-1.3,2,2,0,0,0,.49,0c.36-.11.55.65,1,.13s.95-1.21.68-1.89a4.35,4.35,0,0,1-.1-2.47A1,1,0,0,0,8.52,13c.21-.15.4-.05.58.08,0,0,0,0,0,.06.16.49-.37.9-.16,1.36A2.33,2.33,0,0,1,9.23,16a15.7,15.7,0,0,1,2.59-.86c.37-.09.49-.41.47-.78s0-.74-.55-.76a.31.31,0,0,1-.17-.15c0-.42.64-.87,0-1.27-.25.16-.09.43-.2.61s-.27.27-.31.2c-.41-.76-1,.08-1.41-.13,0-.87.91-1.06,1.41-1.69a2.11,2.11,0,0,0-1.37.42c-.26.15-.58.36-.82.06s.14-.42.25-.63.44-.56.62-.88a.43.43,0,0,0-.09-.59c-.19-.14-.36,0-.53.07-.91.57-1,1.08-.47,2.06a1,1,0,0,1-.16,1.2,9,9,0,0,1-.82-1.93c-.16-.84.7-1.22,1.17-1.93a5.14,5.14,0,0,0-2.18.07c-.41.13-.5.56-.48,1s.07.88.06,1.32a1.43,1.43,0,0,1-.69,1.47c-.15.08-.21,0-.26-.12,0-.28.17-.52.16-.8s.1-.58-.33-.6a1,1,0,0,1-.34-.06A.34.34,0,0,1,4.56,11a.31.31,0,0,1,.11-.21A1.32,1.32,0,0,0,5.8,9.37a3.12,3.12,0,0,1,.57-1.7c.13-.17.29-.4.53-.31s.13.37.07.57-.12.33.15.36a6.66,6.66,0,0,0,2-.13,1.3,1.3,0,0,1,.29-1,.35.35,0,0,1,.45,0c.19.22.46.41.39.77a2.33,2.33,0,0,0,.68,2c.43.54.94,1,1.36,1.54a1.37,1.37,0,0,1,.35.62,1.53,1.53,0,0,0,2.62.83c.35-.31.58-.82,1.15-.82.29.3-.11.51-.11.78a2.65,2.65,0,0,1,1-.1.4.4,0,0,1,.34.32c0,.36.27.52.52.69.41.28.83.54,1.25.82.21.15.59.3.44.6s-.54.13-.81,0a2.9,2.9,0,0,1-1.22-.69,2.07,2.07,0,0,0-2.61-.47,2.45,2.45,0,0,1-1.56.17,8.39,8.39,0,0,0,1.55.27,3.14,3.14,0,0,1,1.71.53,4.07,4.07,0,0,0,1.59.67c.22,0,.48.11.43.4s-.29.29-.52.31a2.81,2.81,0,0,1-.65-.06c-1.39-.25-2.79-.43-4.17-.67-.26,0-.65-.17-.74.15s.29.5.57.58a8.8,8.8,0,0,0,2.05.27c1.25,0,1.74.45,1.79,1.67a10.89,10.89,0,0,1-.68,4.37c-.6-.17-.37-.72-.51-1.11a11.92,11.92,0,0,0,.44-2.85c0-.95-.16-1.07-1.08-1.17-1.32-.13-2.66-.23-3.59-1.4-.22-.28-.56-.16-.85-.08a3.58,3.58,0,0,0-2.85,3.47,9.57,9.57,0,0,1-.59,2.58,1,1,0,0,0,.07,1.08,2.06,2.06,0,0,1-.46,3.05c-.69.55-1.48,1-2.14,1.56a5.6,5.6,0,0,0-.9,1c.57.08.75-.21,1-.55A3.19,3.19,0,0,1,8.49,26.5c.44.07.53-.18.6-.5a7.49,7.49,0,0,1,.77-1.82,4,4,0,0,1,1.19-1.36c1.38-1,2.49-.86,3.56.53.11.28.26.56-.09.8-.32,0-.43-.32-.62-.51a1.54,1.54,0,0,0-2.34-.17,5.35,5.35,0,0,0-1.79,3.18c-.09.36.14.63.33.9s.58.68.48,1.18a.46.46,0,0,1-.2.27,3.78,3.78,0,0,0,.17,1.83,21.94,21.94,0,0,1,.12,2.68,2.7,2.7,0,0,1-.15.81c-.07.21,0,.61-.36.53s-.27-.42-.2-.66a10.36,10.36,0,0,0-.06-2.55c0-.57-.19-.59-.62-.28a3,3,0,0,1-1.7.58c-.58,0-.56.29-.35.69.36.68.67,1.39,1,2.1.19.44.35,1,1,1a1.53,1.53,0,0,0,1.26-1c.31-.65.47-1.36.81-2s.38-.59.74-.06c.2.29.34.06.47,0a6.51,6.51,0,0,0,2.75-3.52,3.47,3.47,0,0,1,.16-.55,5.49,5.49,0,0,0,.55-3.82,2,2,0,0,1,.35-1.81c.23,0,.28.16.34.32a8,8,0,0,0,.26,2.18,2.74,2.74,0,0,0,1,1.38,5.28,5.28,0,0,1,.77,2c.48,1.59.92,3.19,1.35,4.79.1.38.19.73.67.85.33.08.45.47.58.77a2.3,2.3,0,0,0,.78,1,13,13,0,0,1,.41,1.85.4.4,0,0,1-.17.44c-.22.1-.36-.08-.46-.25-.33-.61-.53-1.28-.91-2a2.24,2.24,0,0,1,0,1.81c-.16.27,0,.6,0,.9a67.45,67.45,0,0,1,.89,12c0,.25,0,.5,0,.7.37-.73.4-1.62.82-2.44.42.29.37.66.38,1a19.23,19.23,0,0,1-.41,3.7,24.05,24.05,0,0,0-.34,2.48,8.08,8.08,0,0,1,3.4-1.9c.24-.08.57-.31.73,0s-.16.49-.39.63A7.24,7.24,0,0,0,22.8,59a5.05,5.05,0,0,1,.37-.63,2.45,2.45,0,0,1,.57-.59c.14-.09.3-.22.45-.11s.08.35,0,.52-.39.54-.57.9A14.48,14.48,0,0,1,29,57.29l.16,0c.3,0,.75-.08.82.22s-.4.38-.66.46a14.76,14.76,0,0,1-2.57.58,7.52,7.52,0,0,1,3,0c.27.07.63.16.59.48s-.42.27-.68.23a16.29,16.29,0,0,0-2.6.19c-.23,0-.11.16-.15.05s0,0,.08,0c3.12-.29,5.41,1.19,7.32,3.45,2.12,2.49,2.67,5.45,2.58,8.61a1.13,1.13,0,0,1-.08.48c-.14.31-.3.28-.47,0a1.08,1.08,0,0,1-.19-.62,12.87,12.87,0,0,0-.76-4.78,18.76,18.76,0,0,1-.19,2.72.41.41,0,0,1-.3.44.63.63,0,0,1-.35-.4,3.91,3.91,0,0,1,.14-1.63,7.23,7.23,0,0,0,0-2.32c-.13-.49-.43-.38-.77-.24-.94.39-.94.39-1.21-.57a.6.6,0,0,1,0-.23c.62-.73.92-.76,1.26-.12.21-.32,0-.52-.19-.73a7.27,7.27,0,0,0-4.77-2.85,1,1,0,0,0-1,.29c-.57.67-1.46,1.12-1.18,2.34.13.56-.39,1.23-.74,1.79C26,65.23,25.92,65.34,25.73,65.26Z"/><path class="cls-2" d="M85.46,206v-.17c.45-.39,1-.26,1.51-.26h35c2.16,0,4.31,0,6.47,0a1.7,1.7,0,0,1,1.18.25V206Z"/><path class="cls-3" d="M129.6,205.8l-14.65,0-.5,0-29,0c-1.72-2.3-3.61-4.47-5.22-6.85-.52-.78-.63-1.73-1.11-2.48a5.19,5.19,0,0,1-.91-3.9,1,1,0,0,0-.49-1.07c-2.35-1.32-4.14-3.29-6.09-5.09-1-.88-1.94-1.72-3-2.53a12.49,12.49,0,0,0-4.17-2,11.24,11.24,0,0,1-4.07-2,.33.33,0,0,0-.14-.1c-1.67-.18-2.16-1.51-2.72-2.78a3.71,3.71,0,0,0-1.84-2c-.62-.29-.83-1-1-1.64a26.73,26.73,0,0,1-.59-3.09,4,4,0,0,0-1.69-2.54c-2.56-1.79-5.4-3.15-7.91-5A22.25,22.25,0,0,1,41,159.59a25.17,25.17,0,0,0-2-1.85,2.19,2.19,0,0,1-.75-1.43,11.63,11.63,0,0,0-1-3A2.62,2.62,0,0,0,35.83,152a7,7,0,0,1-3-2,13.72,13.72,0,0,0-3.48-2.51,7.88,7.88,0,0,1-2.82-2.74,13,13,0,0,0-2.48-2.54,3.94,3.94,0,0,1-1.23-2.06c-.54-2.49-.6-5-1.09-7.54a7.27,7.27,0,0,0-2.25-4.24,7.76,7.76,0,0,1-1.76-2.68c-.53-1.12-1-2.25-1.57-3.38A2.56,2.56,0,0,0,15,121.13c-1.71-1-3.34-2.07-5.11-2.92a1,1,0,0,1-.41-.27c-1.06-1.69-2.41-3.23-2.63-5.37a7.76,7.76,0,0,0-1.24-2.87,5.25,5.25,0,0,1-.6-4.14c.14-.49-.14-.79-.4-1.1-.51-.62-1.08-1.19-1.57-1.82a1.87,1.87,0,0,1,0-2.51c.64-.87,1.28-1.74,2-2.57a4.61,4.61,0,0,1,2.45-1.62,2.09,2.09,0,0,0,.9-.55,6.11,6.11,0,0,1,5.41-1.92,3.26,3.26,0,0,0,1.72-.1,1.27,1.27,0,0,1,.88.14,53.57,53.57,0,0,1,10.06,4.85c.26.16.52.41.8.43,2.12.22,3.71,1.63,5.55,2.47.19.09.38.28.61.14s.36-.26.12-.34c-.66-.21-.15-.38,0-.52a26.93,26.93,0,0,1,3.11-2.05,6.1,6.1,0,0,0,3-4.15.28.28,0,0,1,.14-.43c.26,0,.4.16.53.34A14.55,14.55,0,0,1,43,99.07c.15.56.39.77,1,.73a7.5,7.5,0,0,1,3.93.82c.15.08.33.27.52.1s0-.32,0-.48a4,4,0,0,0-.38-1.17,19.18,19.18,0,0,0-3.39-4.79,41.77,41.77,0,0,1-8-10.5,22.44,22.44,0,0,1-2.61-11c0-.86.21-1.7.21-2.56a.93.93,0,0,1,.36-.8l.16.36a2.94,2.94,0,0,1,.17,2A18.23,18.23,0,0,0,36.74,82a30.5,30.5,0,0,0,6,9,49.92,49.92,0,0,1,3.85,4.23,13,13,0,0,1,2.74,5.78,1.09,1.09,0,0,0,.32.66,10.4,10.4,0,0,1,2.51,4.33,3.16,3.16,0,0,0,1.52,1.77c1.63.86,3.23,1.8,5,2.58-.27-1-.75-1.73-1.06-2.58a29.43,29.43,0,0,1-1.42-6.21c-.16-1.12-.44-2.22-.61-3.34A7.24,7.24,0,0,0,52.3,93.2a34.14,34.14,0,0,0-3.47-2.11c-3.73-2-5.74-5.25-6.74-9.21a23.82,23.82,0,0,1,.42-12.2,16,16,0,0,0,.93-5,3.12,3.12,0,0,0-.93-2.22A29.56,29.56,0,0,0,39.33,60,63.44,63.44,0,0,1,33,55a36.33,36.33,0,0,1-6.39-8.53c-1.6-2.88-2.89-5.9-4.23-8.91-.21-.48-.27-1-.51-1.48a1.19,1.19,0,0,1-.49-.75C21,33.18,20.13,31.17,19.72,29a13.87,13.87,0,0,1,.66-7.17c.61-1.8,1.36-3.56,1.92-5.38A2.92,2.92,0,0,0,22.47,15a.62.62,0,0,1,.69-.57c.27.23.13.51.1.78-.93,2.77-1.88,5.54-2.78,8.32a9.78,9.78,0,0,0-.24,1.9,5.49,5.49,0,0,0,0,2,28.74,28.74,0,0,0,2,7.76,77.67,77.67,0,0,0,5,10.75c.2.35.34.49.74.24a3.11,3.11,0,0,1,1-.31c.77-.16,1.46-.31,1.78-1.23.24-.66.88-.52,1.41-.2s.77.62,1.33.57c0-.44-.43-.59-.55-1a1.33,1.33,0,0,1,.91.32c-.11.18.1.2.15.3.15.35,1.08,0,.72.83a1,1,0,0,0,.6.06c1.17-.64,2.3-.24,3.43.08a.26.26,0,0,0,.26,0c-1-.47-1.82-1.27-3-1.39.12.23.49.37.36.64s-.47.22-.74.23a2,2,0,0,1-1.74-.72l1.13.23a.71.71,0,0,0,.23-.06c0-.24-.17-.34-.31-.46s-.24-.2-.49-.4a5.12,5.12,0,0,1,4,.91,3.68,3.68,0,0,0,.37.32c.29.17.6.41.91.22s.28-.52.28-.83c0-1.85.12-1.93,2-1.93A1.8,1.8,0,0,1,44,43.72a2.46,2.46,0,0,0,2.31,1.79,2,2,0,0,1,2.08,1.85,1,1,0,0,0,.55.76,8.72,8.72,0,0,1,1.16,1,3.48,3.48,0,0,0,1.29.89c.17.06.15.06.22.4s.28.26.45.34a2.39,2.39,0,0,1,1.21.88c-.23.3-.67-.14-.78.32.05.15,0,.22-.16.27a1.36,1.36,0,0,1-.94-.23c-.14-.09-.34-.25-.21-.39.53-.57-.06-.64-.35-.82s-.86-.49-1.26-.78c-.24-.17-.62-.28-.36-.76.14-.25-.18-.37-.49-.48a12.39,12.39,0,0,0,0,1.93,6.18,6.18,0,0,1-.12,3,.43.43,0,0,0,.29.59c1.06.47,2.14.89,3.16,1.43.06,0,.15.2.25,0,.25-.48.57-.16.82,0A8.89,8.89,0,0,1,54.93,57l.32.3A3.44,3.44,0,0,0,55,57a11.25,11.25,0,0,0-1.8-1.42c-.26-.17-.59-.32-.62-.71.4-.47.81,0,1.2,0a1.83,1.83,0,0,1,.84.24,9.34,9.34,0,0,0-1.88-.48,3.17,3.17,0,0,0-1.94.21c-.2.12-.51.2-.65-.09s.11-.42.29-.54a2.83,2.83,0,0,1,1.42-.61,3.2,3.2,0,0,1-1.07,0c-.22-.06-.44-.14-.49-.39s.13-.41.32-.53a1.41,1.41,0,0,1,1.18-.22c.13.07.22.15.17.32.38.58,1.24.21,1.66.87l-1,.36a6.66,6.66,0,0,1,2.57.59,4.72,4.72,0,0,1,2,1.83l-3-1c.79,1,2.06,1.6,2.13,3.1l-2.62-1.65c2,3,2,3,2,4.08-.58-.5-.93-1.2-1.76-1.61a11.28,11.28,0,0,1-.47,5.43,9.71,9.71,0,0,1-3.17,4.37,21.32,21.32,0,0,0,.78-5.39,5,5,0,0,0-.64,1.91,4.6,4.6,0,0,1-2,3c-1.26.8-2.42,1.74-3.7,2.52a4.28,4.28,0,0,0-1.45,1.88,10.09,10.09,0,0,0-.81,5.31,18.24,18.24,0,0,0,.38,3.3C43.7,85.07,45.2,88,48.26,90a2.24,2.24,0,0,0,2.45.21,14.63,14.63,0,0,0,2.57-1.5,30.6,30.6,0,0,0,7-7.34c.41-.64.87-1.25,1.35-1.94.18.49-.13.8-.12,1.23.8-.27,1.43-.93,2.3-1,0,.35-.35.44-.41.79a7.07,7.07,0,0,1,3.24.78,10.43,10.43,0,0,1,3.16,3,15.19,15.19,0,0,1,2.44,4.31,2.54,2.54,0,0,1,.07,1.78c-.25.62-.62.7-1.15.32a2.82,2.82,0,0,1-.69-.92,18.06,18.06,0,0,0-5.12-5.67c-1.75-1.23-2.54-1.19-4.24.09a35.82,35.82,0,0,0-5.35,5.52,9.52,9.52,0,0,1-2.93,2.63,9.32,9.32,0,0,1,3.23,4.48,23.39,23.39,0,0,1,.65,4.16,30.05,30.05,0,0,0,3,9.61,1.8,1.8,0,0,0,.88.82c3.16,1.51,6.33,3,9.46,4.59a1.14,1.14,0,0,0,1.62-.37,15.76,15.76,0,0,0,3-5.84,10.3,10.3,0,0,1,2.52-5c.3-.29.11-.57,0-.84a23.28,23.28,0,0,1-1-4.36,7,7,0,0,1,1.36-5,15,15,0,0,0,2.6-5.6.85.85,0,0,0,0-.7l-1,.77a19.75,19.75,0,0,1,1.17-2c.33-.64.57-1.32.84-2a8.13,8.13,0,0,0,.5-2.18,1.73,1.73,0,0,1,.13,2.5c-.19.19-.36.44-.27.66.24.57-.06,1-.28,1.48a9.66,9.66,0,0,0-.82,5.66,13.19,13.19,0,0,1,0,2.81,2,2,0,0,1-.36,1.09,9.72,9.72,0,0,0-1.68,4.15c.18-.18.21-.55.52-.43s.21.36.22.59c0,1.31-.15,2.66.46,3.82a2.58,2.58,0,0,1,.27-1.76c.11-.2.24-.42.5-.35s.24.29.25.48a9.51,9.51,0,0,0,.15,1.4c.11-.22.13-.58.43-.55s.36.33.39.58a9,9,0,0,0,.68,3,11.48,11.48,0,0,1,.53-2.32,9.47,9.47,0,0,1,.37-.93c.11-.22.24-.54.5-.45s.15.43.1.66l-.35,1.37A10.31,10.31,0,0,1,84.9,104c.12-.16.3-.39.55-.23s.1.35,0,.53c-.17.49-.32,1-.51,1.42a11,11,0,0,1,5.43-4.08,3.79,3.79,0,0,0,1.72-1.25,10.42,10.42,0,0,1,5-3.46,15.54,15.54,0,0,0,2.08-.83c.83-.42,1-.79.69-1.66a12.67,12.67,0,0,0-.58-2.15c-.25-.48.07-1,.42-1.35A6.87,6.87,0,0,1,102,89.43c.47-.21.89-.42.94-1,0-.32.33-.49.58-.68a14.26,14.26,0,0,1,5.08-2.53c.59-.14.76-.4.69-1a19.62,19.62,0,0,0-.83-3.38c-.07-.21-.15-.45,0-.62s.4,0,.64.12a8.59,8.59,0,0,1-.83-5.35,15.61,15.61,0,0,0,0-3.55,1.41,1.41,0,0,1,0-.41c0-.17,0-.37.22-.42s.34.16.4.33a8.55,8.55,0,0,1,.43,2.61A1.91,1.91,0,0,0,110,75a4.5,4.5,0,0,1,.73,1c.7,1.15.72,1.69-.23,2.66a1.71,1.71,0,0,0-.43,2.13,3.61,3.61,0,0,1,.15,2,3.3,3.3,0,0,0,0,.83c.13,1.2.13,1.21,1.35,1.16.41,0,.89.32,1.19,0s.05-.8.09-1.21a3.4,3.4,0,0,1,.16-.89,13.53,13.53,0,0,0,.45-5.66c0-.11,0-.22,0-.33s0-.43.17-.51.36.18.47.35a4.54,4.54,0,0,1,.3.68,1.83,1.83,0,0,0,.35.43,1.39,1.39,0,0,1,0,.73c-.23,0-.22-.27-.44-.27a11.3,11.3,0,0,1-.44,3.84,7.55,7.55,0,0,0-.22,2.72,1,1,0,0,0,.78.92c.84.26,1.66.59,2.49.9a5,5,0,0,0,2.53.23,18.79,18.79,0,0,0,2.12-.37,1.57,1.57,0,0,1,1.83.78,4.12,4.12,0,0,1-1.56,6.11c-.2.11-.33.16-.2.41,1.07,2.12,1.15,4.48,1.6,6.75a3.34,3.34,0,0,0,1.06,2,11.68,11.68,0,0,1,1.35,1.46,8.14,8.14,0,0,1,2.14,6.73,5.75,5.75,0,0,0,2,5.29c2,2,4.13,3.91,6,6.08,1.72,2,3.18,4.18,3.45,6.86.4,4.11.48,8.22-.95,12.2-.2.55-.08.66.46.66a3.33,3.33,0,0,0,3.39-2.38A11.63,11.63,0,0,0,142,133c-.34-1.7-1-3.34-1.34-5a11.78,11.78,0,0,1,.93-8.46,5.45,5.45,0,0,1,1.48-1.86c.18,0,.24.06.27.21a2.08,2.08,0,0,1-.54,1,9.35,9.35,0,0,0-1.72,7.22,59.73,59.73,0,0,0,1.39,6.06,14.8,14.8,0,0,1,.06,7.62,2.84,2.84,0,0,1-1.26,1.58,4,4,0,0,1-2.42.75,1.45,1.45,0,0,0-1.48,1,12.32,12.32,0,0,0-.59,1.28c-.16.46,0,.65.47.59,4.13-.56,7.85-2.93,7.63-7.85a21.42,21.42,0,0,0-1.52-6.42,22.44,22.44,0,0,1-1.41-5,9,9,0,0,1,.06-3c.06-.29.1-.61.44-.74.34.12.22.35.16.57-.44,2.49.25,4.83,1,7.14.58,1.72,1.23,3.43,1.66,5.2,1.3,5.36-1.59,9.73-7,10.59a6.66,6.66,0,0,1-1.4.15,1.55,1.55,0,0,0-1.64.91,5.56,5.56,0,0,0,2.33.54c3.07.12,5.38,2,7.93,3.31.31.17.33.5.43.78,1.11,3.36,2.21,6.71,3.33,10.07a1.76,1.76,0,0,1,0,1c-1.19,5.11-2.26,10.26-3.59,15.33-1.13,4.3-2.55,8.52-3.84,12.77-1.49,4.86-3,9.72-4.45,14.58-.18.6-.42.82-1.07.81C134.07,205.73,131.84,205.78,129.6,205.8Z"/><path class="cls-4" d="M114.18,77.33c-.23-.37-.27-.84-.71-1.26a12.65,12.65,0,0,1-.13,5.91,7,7,0,0,0-.26,3.15,5.76,5.76,0,0,0-2.43-.13c-.46.08-.54-.11-.64-.55-.28-1.17.36-2.38-.15-3.49a1.9,1.9,0,0,1,.59-2.6,1.44,1.44,0,0,0,.19-2.09c-.12-.18-.2-.43-.36-.55-1.22-.88-1.17-2.19-1.23-3.48a2.32,2.32,0,0,0-.5-1.52c.52,2.5-.31,5,.09,7.51.15.94.7,1.73.89,2.7-.47-.11-.49-.67-1-.7a29.9,29.9,0,0,1,.89,3.17c.28,1.67.31,1.66-1.23,2.14a15.24,15.24,0,0,0-4.73,2.54c-.12.09-.34.27-.32.34.28.93-.5,1-1,1.19a6.49,6.49,0,0,0-2.48,1.75c-.24.31-.45.69-.18,1,.73.8.25,2,.88,2.77.17.22-.07.4-.21.57a4,4,0,0,1-2,1.12,11.81,11.81,0,0,0-6.11,4,4.05,4.05,0,0,1-2,1.18,10.54,10.54,0,0,0-5,4c-.09.13-.17.27-.38.58a3.38,3.38,0,0,1,.29-1.48c.15-.43.32-.86.43-1.31a14.17,14.17,0,0,0-2.07,3.08,8.29,8.29,0,0,1,.45-2.75,11.18,11.18,0,0,0-1.33,4.43c-.91-1.29-.86-2.73-1.13-4.12-.36.38-.28.79-.39,1.3a5.12,5.12,0,0,1-.48-2.7c-.85,1-.55,2-.55,2.92-1.14-1.51-.89-3.3-1-5-.4.27-.15.75-.42,1.09a1.93,1.93,0,0,1-.11-1.68A9,9,0,0,1,80,97a2.16,2.16,0,0,0,.32-1.34,27.17,27.17,0,0,0-.16-3.72,9.88,9.88,0,0,1,1-4.57c.13-.27.75-.64.05-1,.26-.35,0-1,.69-1.11.22,0,.22-.31.22-.48a3.36,3.36,0,0,0-.38-1.84l0-.84a11.68,11.68,0,0,1,1.79-6,1,1,0,0,1,.69-.53,9,9,0,0,1,2.07,0c.34,0,.68.19.66.61a.69.69,0,0,1-.77.69,4.65,4.65,0,0,0-2,.32,3.3,3.3,0,0,1,1-.27c.58,0,1.3-.3,1.72.28a3.72,3.72,0,0,1,.73,2.33c0,.49-.51.77-.84,1.1a3.07,3.07,0,0,0-1,2.91,1.84,1.84,0,0,0,1.28,1.54c.71.26,1.35.64,2,.92a5.27,5.27,0,0,0,1.53.31c.87.06,1.06.34.83,1.19A3.53,3.53,0,0,1,90,89.41c-.39.28-.85.52-.66,1.18.08.27-.22.48-.43.67a12.43,12.43,0,0,0-4.25,6.44,10.54,10.54,0,0,1,3-5.14A12.34,12.34,0,0,1,92,89.86a14.31,14.31,0,0,0,4-1.92c.16-.2.43-.08.62-.19.38,0,.32.29.3.63A3.22,3.22,0,0,0,97.87,87c0-.14,0-.33.16-.37,1-.32.28-.82.11-1.21a2.46,2.46,0,0,0-.74-.77.36.36,0,0,1-.15-.36c.06-.19.24-.2.41-.22a.89.89,0,0,1,.48.1,3.67,3.67,0,0,1,1.92,2.65,2.4,2.4,0,0,1-1.23,2.51c-.54.34-1,.81-1.48,1.18a3.33,3.33,0,0,0-1.2.82c.12-.1.31-.23.39-.11.31.45-.22.73-.26,1.1.22-.43.42-.88.68-1.3A20.37,20.37,0,0,1,100,88.33,3.41,3.41,0,0,0,101.11,87a5,5,0,0,1,.93-1.55,4.85,4.85,0,0,0,.95-2c.07-.21.11-.48.39-.47s.34.32.37.56a11.37,11.37,0,0,1,0,1.31,8.57,8.57,0,0,0,.7-4.32c0-.29-.17-.6.14-.84.49.08.88.5,1.41.45-.49.05-.86-.33-1.31-.44a.93.93,0,0,1-.52-.39c-.17-.26-.33-.54-.1-.84s.48-.18.75-.07.69.31,1,.4a12.58,12.58,0,0,0-1.17-.49,1.36,1.36,0,0,1-.56-2,.68.68,0,0,1,.75-.19,9,9,0,0,0,1.39.28,9.24,9.24,0,0,1-1.27-.26c-.87-.19-.86-.21-.56-1.15-.1.21-.16.42-.36.39s-.23-.28-.19-.46a11.3,11.3,0,0,0,.19-2.72,6.39,6.39,0,0,0-.42-2.31s0,0,0,.08c.07.46.6,1.08.1,1.35s-.87-.47-1-.82c-.49-1-1.36-1.09-2.25-1.28-.16,0-.33,0-.49-.09s-.51,0-.48-.32.29-.2.47-.21.27,0,.35-.06a4.39,4.39,0,0,0-1.29.25c-.16.08-.41.15-.52-.06s.1-.4.27-.52a10.38,10.38,0,0,1,1.23-.67s0,0-.1,0c-.25.07-.52.45-.72.16s.16-.54.38-.72a7,7,0,0,1,4.4-1.82c.12,0,0-.14,0,0s0,0-.08,0a5,5,0,0,0-2.76.72,15.43,15.43,0,0,0-3.92,3.28c-.2.21-.38.59-.73.41s-.27-.58-.23-.9a8,8,0,0,1,.86-2.55,9.12,9.12,0,0,0-.53,1.2c0,.2-.14.4-.36.4s-.3-.28-.32-.49a4.66,4.66,0,0,1,1.34-3.79,7.31,7.31,0,0,1,3.18-1.88c.26-.08.62-.23.76.05s-.25.42-.46.56a3.65,3.65,0,0,0-.54.32c1.14-.62,2.37-1.27,3.86-.73a4.6,4.6,0,0,1,1.87,1.34,14.42,14.42,0,0,1,3,6.38c0-.16-.16-.42-.19-.71s0-.42.18-.51.36.08.48.22a6.72,6.72,0,0,1,1,2.08c.38,1.18.62,2.4,1.07,3.56a6.68,6.68,0,0,0,.42.85,8.58,8.58,0,0,1-.6-1.3.36.36,0,0,1,0-.39.24.24,0,0,1,.37,0A7.83,7.83,0,0,1,114.44,77a.31.31,0,0,1-.13.37.06.06,0,0,1-.06,0S114.2,77.34,114.18,77.33Z"/><path class="cls-5" d="M104.71,79.7c-.29.26-.09.56,0,.84a7.91,7.91,0,0,1-1.07,5,11.71,11.71,0,0,0-.22-2.43c-.22,1.77-1.75,2.83-2.29,4.42a2,2,0,0,1-.87,1,12.75,12.75,0,0,0-3.13,2.68c-.36-.28-.33-.38.17-.81s1.26-1,1.85-1.52a2.24,2.24,0,0,0,.58-2.7,4.69,4.69,0,0,0-1.53-1.81.73.73,0,0,0-.75-.1c.28.31.56.61.82.92a1.87,1.87,0,0,1,.53,1.26c0,.19.06.42-.15.53s-.25-.26-.45-.26a2.57,2.57,0,0,1-1.43,2c-.44-.22.72-.71-.15-.85a.59.59,0,0,1,.38-.74c1.11-.19.49-1.09.66-1.63.12-.39-.66-.8-1.12-.66a.79.79,0,0,0-.42.26c-.79,1.24-2.17,1.22-3.37,1.56a1.07,1.07,0,0,0-.9.8,4.46,4.46,0,0,1-1.25,1.91l-.1,0c.22-.11.54-.32.62,0s-.3.61-.55.75c1.68-.67,3.47-1.3,5.17-2.16a.67.67,0,0,1,.63-.08,4.11,4.11,0,0,1-1.91,1.23C93,89.76,91.5,90.22,90.15,91a10.83,10.83,0,0,0-5.22,6.2c-.1.31-.21.62-.32.94,0,0,0,0-.14.11a7.54,7.54,0,0,1,1.16-3.51A15.31,15.31,0,0,1,88.81,91c.23-.2.7-.37.09-.75-.29-.19.07-.37.22-.48a10.78,10.78,0,0,0,1.48-1.2,2.56,2.56,0,0,0,.62-1c.31-.89.22-1-.73-1.09a6.12,6.12,0,0,1-2.36-.72,9.12,9.12,0,0,0-2-.85c-.1,0-.19-.18-.25-.29a3.33,3.33,0,0,1,.59-4.06c.33-.35.91-.58.94-1.1a5.82,5.82,0,0,0-.6-2.13c-.11-.35-.44-.28-.71-.31a9.33,9.33,0,0,0-2.66.41,3.44,3.44,0,0,1,2-.74c.27,0,.55,0,.82,0a.5.5,0,0,0,.47-.5c0-.31-.27-.43-.51-.44-.69,0-1.38,0-2.07,0a.42.42,0,0,0-.42.22,10.88,10.88,0,0,0-1.23,2.57c-.22,1.19-.62,2.34-.84,3.53,0-1.57-.39-3.2.73-4.6a4,4,0,0,0,.91-1.63c-.43.37-.68.88-1.18.28-.12-.15-.67,0-1.12.1.47-.61,1.41-.18,1.67-.93.21-.59.78-1,1-1.55,0-.35.73-.32.49-.84l1.37-.81c0-.57.55-.31.78-.54.27-.41,1-.39,1-1.1,0-.18,0-.23.2-.2.52-.32.51-.89.6-1.37a6,6,0,0,1,1.25-3.16l-.94.48c.2-1,.6-1.33,3.17-2.48-.36-.39-.89-.65-1-1.35a4.7,4.7,0,0,0,2.85.43,3.07,3.07,0,0,1,1.69.31c.24.14.41.13.52-.14.43.06.08.49.3.65.27.44.48.44.84,0A8.51,8.51,0,0,1,99.3,61.7a5.78,5.78,0,0,1,7.17,1.73c1.28,2,2.18,4.16,3.73,5.95a.12.12,0,0,1,0,.08,10.51,10.51,0,0,0,3.09,5.13,4.26,4.26,0,0,1,1.32,3c-.19,0-.39,0-.47-.21.23-.6-.16-1-.43-1.48a14.47,14.47,0,0,0-2.33-2.62c0,1.06.81,1.67,1.08,2.65a3.83,3.83,0,0,1-1.18-1.62c-.54-1.25-.78-2.6-1.22-3.87a6,6,0,0,0-1.17-2.1c-.17.68.26,1.25,0,1.92a30.57,30.57,0,0,0-1.37-4.15,9.33,9.33,0,0,0-2.71-3.6,3,3,0,0,0-2.81-.53,8.16,8.16,0,0,0-2.51,1.15,3.85,3.85,0,0,1,1.68-1.39c-3,.45-5.58,2.82-5,6.16a6.22,6.22,0,0,1,1.35-2.35,7.61,7.61,0,0,0-1,4.1c2.3-2.22,4.25-4.86,7.87-4.44a8.41,8.41,0,0,0-5.28,2.53c.55,0,.88-.45,1.46-.37a11.37,11.37,0,0,0-2.16,1.38,4.39,4.39,0,0,1,2.48-.18l-1.36.31.22.07c1.29.19,2.65.22,3.28,1.71.11.27.38.46.71.86a5,5,0,0,0-.49-2.13c1,.93,1.25,2.72.73,6,.36-.09.29-.5.51-.68a.79.79,0,0,1,.13.08c-.38,1.19-.38,1.18.86,1.36a3.53,3.53,0,0,1,1.65.53,6.13,6.13,0,0,1-2.08-.25c-.39-.1-.87-.26-.9.3s-.43,1.21.38,1.5a5.79,5.79,0,0,1,1.9.94,5.31,5.31,0,0,1-1.45-.52c-.24-.09-.55-.33-.76,0s0,.57.2.81l.31.38Z"/><path class="cls-6" d="M9.81,7.38a.32.32,0,0,0-.29-.2c-.22-.15-.06-.42-.17-.6-.24-.42-.09-.64.34-.8s.92-.26.75-.79a1,1,0,0,0-1.2-.63C7,4.72,4.79,5.19,3.2,7a.48.48,0,0,1-.42.22c-.19-.09-.27-.2-.12-.39a4.33,4.33,0,0,1,2.2-2A11,11,0,0,1,9.45,3.57c.78,0,.66-.84.69-1.18s.26-.48.51-.52c.87-.13,1.75-.21,2.63-.32a2.67,2.67,0,0,0,1.22-.46c.08-.05.73-.16.1-.46-.13-.06.11-.19.21-.22A4.82,4.82,0,0,1,16.18,0c.76.28,1.51,0,2.28.16,1.06.24,1.86,1,2.91,1.21a3.27,3.27,0,0,1,2.18,1.89A1.18,1.18,0,0,0,24.69,4a1.74,1.74,0,0,1,1.88,1.66,2.58,2.58,0,0,0,1.17,2.14,2.46,2.46,0,0,1,1,1.67c.09.2.14.39-.07.55-.35,0-.43-.3-.56-.53a7.67,7.67,0,0,0-.53-.82c-.7-.93-.7-.93-1.39,0a1.85,1.85,0,0,1-1.42.85c-.51,0-1,0-1.18.58a.53.53,0,0,1-.21.11c-.23,0-.32-.22-.4-.41a.59.59,0,0,1,0-.45c.29-.12.24-.57.6-.62a2.07,2.07,0,0,0,2.58-2.28,2,2,0,0,0-1.84-1.89c-.69-.05-1.25-.09-1.36-1-.07-.62-.76-1-1.3-1.32a5,5,0,0,1-.92-.48,3.88,3.88,0,0,0-1.12-.2,1.13,1.13,0,0,1-.32-.13,4.3,4.3,0,0,0-2.38,1.24,3.43,3.43,0,0,1-.87.87c-.37.21-.7,0-.56-.35.27-.72.05-1.62.72-2.09a.71.71,0,0,1-.41.23c-.4-.17-.68.12-1,.28a4.89,4.89,0,0,0-1.07.6c-.75.53-.76.56-.3,1.37a.39.39,0,0,1,0,.46c-.78,0-.78,0-1.16.47.43-.21,1.06.31,1.19-.49.68.43.6,1.13.53,1.76s-.12.91.51,1.08c.2,0,.45.19.38.45s-.35.26-.55.2A2,2,0,0,0,12.56,8a.5.5,0,0,1-.24,0c-.34-.24-.29-.5-.05-.78.05-.46-.5-.61-.48-.92a.69.69,0,0,1-.07.35c-.46,0-.46,0-.72-.72C10.39,6.27,10.44,7.12,9.81,7.38Z"/><path class="cls-7" d="M23.12,9.84l.25.32c.19.6-.32.92-.55,1.34a3.23,3.23,0,0,1-.5.55c-.14.15-.23.32-.07.51s.2.23.34.19.12-.28.14-.43a3.89,3.89,0,0,1,.69-1.69c.38.2.29.5.25.79-.2,1.55-.12,1.73,1.29,2.43.26.13.36.27.22.5-.42.68,0,1.13.41,1.58.05.32-.24.36-.41.5a2.37,2.37,0,0,0-.81.91c-.09.17-.21.3-.3.47A2.12,2.12,0,0,1,24,18c-.65.93-.61,1.07.39,1.64.29.16.75,0,.92.42-.1.41-.52.3-.79.46.42.69,1.14.45,1.72.6a.42.42,0,0,1,.25.22c0,.28.16.25.37.24a2.13,2.13,0,0,0,1.11-.5c.19-.1.42,0,.59-.17a3.09,3.09,0,0,0,.9-1.07,2.75,2.75,0,0,0,.31-.52,4.89,4.89,0,0,0,.1-2.76A28,28,0,0,1,29,12.21c0-.18.07-.38.33-.38.33,2.07,1.22,4,1.22,6.15a4.13,4.13,0,0,1-2.38,3.76c-1.46.87-2.62.22-3.83-.39a1.22,1.22,0,0,1-.68-1,.88.88,0,0,0-.19-.52,1.51,1.51,0,0,1-.07-2.26A3.29,3.29,0,0,1,23.9,17c.88-.71.73-1.57.37-2.47-.1-.26-.25-.56-.55-.54s-.21.38-.29.6-.11.41-.17.62c-.07-.24,0-.52-.16-.74A3.54,3.54,0,0,0,21.33,13c-.26-.1-.6-.22-.78,0s.12.48.27.69.61.5.33.81-.65,0-.91-.13a8.74,8.74,0,0,0-2.65-1.22L17.24,13c0-.36.33-.33.55-.37.93-.14,1.81-.64,2.7-.68a2.15,2.15,0,0,0,2-1.67C22.65,10,23.07,10.17,23.12,9.84Z"/><path class="cls-8" d="M2.66,6.86c0,.14,0,.26.18.33.22.4-.08.68-.25,1a4.94,4.94,0,0,0-.71,2.93c0,.27,0,.6.31.71s.53-.09.75-.25a1.54,1.54,0,0,0,.51-1.26c0-.24,0-.55.29-.62s.38.2.48.39.48.4.43.76V11A2.42,2.42,0,0,1,4,13c.78-.4.43-1.24.77-1.79h.33c.42.48.06,1,.18,1.55l.2.13a3.5,3.5,0,0,1-2.92.93c-.26,0-.54-.08-.63-.33A4.72,4.72,0,0,1,1.25,11,8.5,8.5,0,0,1,2.66,6.86Z"/><path class="cls-9" d="M9.13,13.15,8.52,13l-.07,0v-.08c.09-.59.2-1.17-.41-1.61a.54.54,0,0,1,0-.82c.32-.37.67-.73,1-1.08.2-.19.5-.38.72-.11a.76.76,0,0,1,.17,1c-.33.47-.71.9-1.1,1.39.7.1,1.06-.53,1.63-.69.42-.12.67-.05.82.24.25.47-.29.32-.46.44a4.52,4.52,0,0,0-1.25,1.29C9.59,13.25,9.37,13.22,9.13,13.15Z"/><path class="cls-10" d="M143.23,117.89l-.2-.2a5.27,5.27,0,0,1,2.61-2c.41-.13.53,0,.54.39a2,2,0,0,1-.8,2,8,8,0,0,0-2.81,4.54c-.06-.17,0-.4-.18-.52-.27-.29-.07-.57,0-.85a8,8,0,0,1,2.68-3.67c.17-.14.38-.24.48-.45s.17-.46,0-.62-.38,0-.55.14a5.38,5.38,0,0,0-1.07.9C143.77,117.67,143.59,117.94,143.23,117.89Z"/><path class="cls-11" d="M84.13,72.89l.48.36c-.21.43-.76.11-1,.48H81.26a2.26,2.26,0,0,1,1.57-.37C83.33,73.36,83.81,73.37,84.13,72.89Z"/><path class="cls-12" d="M95.91,63.61c-.32-.12-.07-.5-.3-.65a4.27,4.27,0,0,1,1.57-3.08A6,6,0,0,0,95.91,63.61Z"/><path class="cls-13" d="M52.25,52.17l.19-.18c.45.22,1,.17,1.47.58a4.21,4.21,0,0,1-2,.27l-.2-.2C51.73,52.29,52.14,52.39,52.25,52.17Z"/><path class="cls-14" d="M86.28,71.54c-.14.35-.7.1-.78.54-.28-.65-1-.67-1.48-.92a8.69,8.69,0,0,1-.91-.37,4.74,4.74,0,0,1,2.24.56C85.65,71.48,85.92,71.69,86.28,71.54Z"/><path class="cls-15" d="M29.35,11.83l-.17.33A2.46,2.46,0,0,1,28.56,10c.2-.13.1-.35.16-.52A10.51,10.51,0,0,1,29.35,11.83Z"/><path class="cls-16" d="M87.46,70.24l-.2.2a13.1,13.1,0,0,1-1.21-1.56C86.89,69.13,87,69.83,87.46,70.24Z"/><path class="cls-7" d="M20.23,27.42a2.71,2.71,0,0,1,0-2Z"/><path class="cls-17" d="M36.16,89.83a25.55,25.55,0,0,1-8-8.68A16.88,16.88,0,0,1,26.4,70.08c.45.1.35.48.37.78A20,20,0,0,0,26.85,73c.35,1.39.57,2.81.87,4.21a15.35,15.35,0,0,0,4.33,7.94q2,1.95,4,3.85a.87.87,0,0,1,.39.61C36.39,89.78,36.33,89.89,36.16,89.83Z"/><path class="cls-18" d="M32.86,64.45l0,.22a6.88,6.88,0,0,1-1.44,2.66A6.3,6.3,0,0,0,29.56,71c0,.13-.06.27-.1.4-.23.71-.47.78-1,.26s-1-1.38-1.63-2l-.07-.09c-.34-.28-.13-.6-.08-.91.09-.64-.06-.74-.64-.85s-.48-.61-.4-1a7.37,7.37,0,0,0,.12-1.62l.3-.16c.21.53-.07,1.05,0,1.57,0,0,0,0,0-.11.08-.32-.19-.87.26-.92s.4.51.49.84a12.7,12.7,0,0,0,1.82,4.21c0-.54-.17-1-.11-1.4,0-.2,0-.42.22-.52s.33.18.46.27a12.48,12.48,0,0,1,1.7-3.38A2.91,2.91,0,0,1,32.86,64.45Z"/><path class="cls-19" d="M36.16,89.83l.18-.16c.26-.13.42.06.57.2a18.22,18.22,0,0,1,2.87,3.62.48.48,0,0,1,.06.48c-.16.07-.15.24-.2.37A30.29,30.29,0,0,0,36.16,89.83Z"/><path class="cls-18" d="M26.72,73.23c-.36-.58-.09-1.21-.17-1.82-.07-.44.14-.91-.15-1.33,0-.22-.15-.57.33-.49l0,0A5.35,5.35,0,0,1,26.72,73.23Z"/><path class="cls-20" d="M22.06,36.08a77.78,77.78,0,0,0,6,12.35,32.58,32.58,0,0,0,8.88,9.5c1.6,1.13,3.1,2.4,4.72,3.5a4.4,4.4,0,0,1,1.87,5.06c-.41,1.83-.92,3.63-1.31,5.47a20.8,20.8,0,0,0,1,12.5,13.32,13.32,0,0,0,6.73,7,22.53,22.53,0,0,1,3,1.9c2.06,1.45,2.81,3.6,3.17,5.95.23,1.5.47,3,.72,4.49a23,23,0,0,0,2,6c.11.23.32.45.2.83a70.92,70.92,0,0,1-6.27-3.35,1.25,1.25,0,0,1-.46-.66c-.29-.75-.59-1.49-.9-2.23a3.59,3.59,0,0,0-.57-1.1c-1.32-1.34-1.75-3.08-2.39-4.76-.89-2.38-2.66-4.17-4.36-6a43.16,43.16,0,0,1-4.58-5.34,26,26,0,0,1-4.74-11.78,14.84,14.84,0,0,1,0-3c.09-.92.1-1.82.12-2.73a22.92,22.92,0,0,0,.35-3.84c1.21,2,1,4.13,1.34,6.15C37.4,64.76,32.32,59,26.39,59.54A8,8,0,0,1,30.22,59c-1.35-.61-2.76-.4-4.2-.4l3.87-1.06c-1.47-.21-4.17.61-6.78,2.08a7.87,7.87,0,0,1,1.18-2c-1,.54-1.26,1.46-1.82,2.13.3-2.45,1.89-4,3.84-5.22-1.56.53-3.18.91-4.29,2.31.05-2.51.88-4.9.65-7.39a8.53,8.53,0,0,1-1.05,2.79c.45-5.59-1-11.07-1-16.84.64,1.07,1,2.07,1.47,3,.1-.77-.32-1.47-.23-2.23C21.87,36.08,21.9,36,22.06,36.08Z"/><path class="cls-21" d="M26.72,73.23V69.57c.4-.25.45.17.59.34a10.15,10.15,0,0,0,1.76,2,6,6,0,0,0,.42-1.49,13.36,13.36,0,0,1,1-2.63c.09-.16,0-1,.65-.38.1.1.24-.24.33-.39.49-.79,1-1.59,1.45-2.39.18.73.51.75,1.08.31.31-.24.83-.52.9.29a10.29,10.29,0,0,1,0,2.48l-.17,1.66A22.24,22.24,0,0,0,37.63,85a50.9,50.9,0,0,0,7.82,9.84,15.25,15.25,0,0,1,3.06,4.7,2.65,2.65,0,0,1,.24,1.73A9.92,9.92,0,0,0,44.54,100c-.51,0-1.12.4-1.49,0s-.28-.93-.44-1.41A17.56,17.56,0,0,0,39.84,94a16.52,16.52,0,0,0-3.5-4.3c-1.37-1.32-2.69-2.68-4.1-4-3.15-2.83-4.49-6.52-5.19-10.54Z"/><path class="cls-20" d="M21.07,54.35c.52-.33.47-.76.72-1A2.14,2.14,0,0,1,20.28,56a.68.68,0,0,1-.56,0,7.32,7.32,0,0,0-3.14-.59,3.51,3.51,0,0,1,2.24-.62c-.93-.55-1.75-.08-2.6.16.6-1,1.39-1.43,3.91-2a4.1,4.1,0,0,0-2.6-.1,6.92,6.92,0,0,0-2.35,1c-.7.48-1.39,1-2.3,1.63.34-2.45,1.49-4.45,1.91-6.65a30.57,30.57,0,0,0-1.5,3.08A67.09,67.09,0,0,0,14,44.27a59.51,59.51,0,0,0-.34-7.66c.86,1.19,1,2.48,1.73,3.47-.06-1.18-.1-2.35-.07-3.6a1.83,1.83,0,0,1,.48,1,59.09,59.09,0,0,0,3.58,8.9,6.71,6.71,0,0,0,.93,1.46,3.46,3.46,0,0,1,.82,2.75C21,51.79,21.07,53,21.07,54.35Z"/><path class="cls-22" d="M23.12,9.84c-.44.42-.54,1.06-.92,1.5s-.5,1-1.18.52c-.06,0-.24.1-.36.16a20.45,20.45,0,0,1-3.42,1,7.53,7.53,0,0,0-1.41.29c0-.49.54-.69.61-1.11a.49.49,0,0,1,0-.12,2.62,2.62,0,0,0-.24-1.35,2.75,2.75,0,0,1-.26-1.28c-1.09-.43-2.39.22-3.42-.72-.28-.26-.45-.41-.09-.69a2,2,0,0,1,2.39-.66c0-.11,0-.18-.07-.19a1.59,1.59,0,0,1-.87-1.6A2,2,0,0,0,13.43,4h0A.58.58,0,0,0,13,3.37c-.62-.12-.35-.44-.14-.68A5.58,5.58,0,0,1,14.73,1.4c.43.36.69-.15,1-.18C16.11,1,16.35.57,17,.83c-1.4.3-.82,1.57-1.37,2.28a.22.22,0,0,0,.11.34.34.34,0,0,0,.28-.09,1.33,1.33,0,0,0,.4-.42c.51-1.17,1.82-1.18,2.67-1.86a.2.2,0,0,1,.28.1,1.94,1.94,0,0,0,0,1.57c.76-.39,1.43-1.08,2.39-.75a3.57,3.57,0,0,1,1.49,1.39c.07.14.37.3,0,.51s.05.23.15.28a3.53,3.53,0,0,0,1.13.2A2,2,0,0,1,26.21,5.6a2.37,2.37,0,0,1-.41,2.7,1.86,1.86,0,0,1-2.24.54c-.57-.92-.2-2.07.68-2.16a1.66,1.66,0,0,1-1.09-.27,4,4,0,0,1-.09,2.93Z"/><path class="cls-23" d="M14.44,23.45C13.17,22,12.28,22,10.86,23.24a5.64,5.64,0,0,0-1.6,3c-.11.46-.14.82-.83.46-.89-.45-2.79.6-3.12,1.61-.06.18,0,.39-.21.53s-.66.55-1,.23.09-.57.25-.8a7.41,7.41,0,0,1,1.94-1.53,6.1,6.1,0,0,0,1.16-.92,1.64,1.64,0,0,0-.06-2.45.58.58,0,0,1-.18-.67A12.48,12.48,0,0,0,8,18.62,2.58,2.58,0,0,1,9.21,16.9a4.83,4.83,0,0,1,2.22-1c.25,0,.52-.12.65.18.41.93,1.28,1.07,2.11,1.23a12.4,12.4,0,0,0,1.81.21.63.63,0,0,1,.7.64,7.29,7.29,0,0,1-.44,3.49c-.23.84-1,1.29-1.52,1.87C14.66,23.58,14.53,23.52,14.44,23.45Z"/><path class="cls-24" d="M16.29,23a5.52,5.52,0,0,0,.11,3.17.42.42,0,0,1,0,.33c-.75,1.52-.92,3.3-2,4.67a6.25,6.25,0,0,1-2.63,2.06c-.26-.31.14-.57,0-.93a3,3,0,0,0-.66,1.31,5.37,5.37,0,0,1-1,2,1,1,0,0,1-1.81-.22c-.5-1-1-2.11-1.49-3.14-.27-.53,0-.46.35-.45a3,3,0,0,0,2.49-1c.22-.25.36-.2.42.23a15.37,15.37,0,0,1,.17,2.88,3.85,3.85,0,0,0,0,.83l.24-1.1a.87.87,0,0,0,.28-.62,5.84,5.84,0,0,0-.1-3,4.52,4.52,0,0,1-.16-1.21,1.16,1.16,0,0,0-.42-.87,1.53,1.53,0,0,1-.32-1.93,6.39,6.39,0,0,1,1.32-2.27c1.3-1.29,2.46-1.15,3.39.45,1,1.27.64,2.69.57,4a8.1,8.1,0,0,0-.1-3.17c-.37-1.29,0-2.14,1.35-2.85A1.37,1.37,0,0,1,16.29,23Z"/><path class="cls-25" d="M15.81,29.14c.23.23.15.55.54.75.24-1,0-2,.3-3.06a3.44,3.44,0,0,1,1.08,1.69,51.12,51.12,0,0,1,1.81,7.19A67.14,67.14,0,0,1,21,47.19c0,.13,0,.26,0,.56a21.47,21.47,0,0,1-2.2-3.83,39.74,39.74,0,0,1-3.58-12A6.09,6.09,0,0,1,15.81,29.14Z"/><path class="cls-26" d="M32.86,64.45C31,65.61,31,65.61,29.14,69.62c-.24-.2,0-.59-.41-.81l.12,2.5a13.25,13.25,0,0,1-2.5-5.79c-.23.57-.06,1-.33,1.43-.22-.65-.22-.65,0-1.85L26.91,63c-.24-.1-.27.2-.43.23a4.55,4.55,0,0,1,1.85-2.79.81.81,0,0,1,.41,0A7.62,7.62,0,0,1,34,63.32c.65.88.64.88-.36,1.4-.14-.31.31-.44.19-.8A1.45,1.45,0,0,0,32.86,64.45Z"/><path class="cls-7" d="M22.06,36.08l-.16.14c-.34,0-.5-.14-.69-.44s-.06-1.48-1.15-1.14c-.14,0-.11-.21-.15-.34-.67-2.4-1.35-4.81-2-7.21,0-.07-.1-.12-.16-.18-.42-.87,0-1.74,0-2.6.12-1.7.3-3.4.42-5.1a2.58,2.58,0,0,1,1-2c.82-.65,1.64-1.3,2.48-1.92.27-.19.52-.43.9-.34.48.4.19.85.05,1.26C22,18,21.37,19.86,20.7,21.67a13.08,13.08,0,0,0-.54,8.24c.44,1.56.92,3.11,1.32,4.68A3.17,3.17,0,0,0,22.06,36.08Z"/><path class="cls-27" d="M22.56,15q-1.78,1.23-3.43,2.61a1.88,1.88,0,0,0-.69,1.35c-.22,2.67-.48,5.33-.72,8a2.88,2.88,0,0,1-1.27-2.41,6.22,6.22,0,0,1,0-1.22c.13-.16,0-.37.11-.53L17,20a7.61,7.61,0,0,0,.09-.82c.06-1.9-.2-2.17-2.07-2.22a13.29,13.29,0,0,1-1.56-.17,1.32,1.32,0,0,1-.84-.5c-.13-.18-.27-.37-.17-.6s.37-.22.57-.19c1.34.19,2.67.41,4,.59a3.19,3.19,0,0,0,1.84.06c-1.19,0-1.93-1-3-1.26s-2.13,0-2.93-.91a4,4,0,0,0,3.12-.32,1,1,0,0,1,1.12.19A5.34,5.34,0,0,0,20,15.32l-2.31-1.55c-.26-.18-.58-.35-.1-.64a2.51,2.51,0,0,1,2,.56,2.89,2.89,0,0,0,1.66.76c-.37-.46-.82-.73-1-1.19-.14-.28-.2-.51.2-.63a2.65,2.65,0,0,1,2.68,1.85Z"/><path class="cls-22" d="M4.65,10.83c-.46-.23-.66-.69-1-1.1,0,.31,0,.62,0,.92a1.55,1.55,0,0,1-1.31,1.47c-.53.09-.6-.29-.66-.64a5.15,5.15,0,0,1,.66-3.26c.18-.34.34-.69.52-1,1.56-2.06,3.83-2.66,6.21-3,.4-.06.87-.37,1.18.2.17.33.84.51.66.83a1.72,1.72,0,0,1-1.17.82l-.48.08c.66.29.47.67.28,1a1.59,1.59,0,0,0-.16,1.15c-.78.25-1.6-.05-2.39.16-.25.07-.45.09-.36-.29s.34-.43.29-.81A2.83,2.83,0,0,0,6,9.51C5.82,10.63,5.71,10.79,4.65,10.83Z"/><path class="cls-28" d="M.85,25.62a3.89,3.89,0,0,1,.51-1.82,14.34,14.34,0,0,1,3.12-4.72,3.11,3.11,0,0,1,2-.9c.65,0,1,.25,1,1a14.51,14.51,0,0,1-.46,3c-.07.29-.16.46-.5.34-.18-.06-.38-.06-.57-.12A3.15,3.15,0,0,0,1.82,24C1.5,24.46,1.21,25,.85,25.62Z"/><path class="cls-29" d="M21.52,55.82a6,6,0,0,0,0,1.89l.17.65a4.48,4.48,0,0,1,1.66-2,12.17,12.17,0,0,0-1,2.32c-.08.33-.38.37-.63.47a8.72,8.72,0,0,0-2.81,1.67c-.08-.44.27-.69.3-1.21-1.07,1-1.28,2.34-1.8,3.55C16.19,60.44,19.46,56.66,21.52,55.82Z"/><path class="cls-30" d="M16.44,12.16a6.41,6.41,0,0,0-1.08,1A2,2,0,0,1,12.63,13a.9.9,0,0,1-.18-.84c.09-.88.72-.68,1.05-.67a1.32,1.32,0,0,1-1.65-1.08,2.25,2.25,0,0,1-.08-.24,1.88,1.88,0,0,1,0-.58c.06-.46.36-.63.66-.28.82.93,1.73.76,2.7.36.59-.24,1-.08,1,.58s.58,1.21.26,1.91Z"/><path class="cls-31" d="M3.45,24.81c-.55,1.42-.37,1.73,1.27,2.13l.32.11c-1.1,1-1.73,2.32-2.8,3.26-.6.54-1.05.11-1.43-.39a8.27,8.27,0,0,1,1.37-4.26C2.45,25.23,2.7,24.59,3.45,24.81Z"/><path class="cls-32" d="M9.13,13.15c.11-.16.42,0,.46-.26.14-.08.33-.12.42-.24.5-.62.85-.61,1,.22.21,0,.2-.17.2-.28,0-.28-.31-.74.26-.76s.54.44.61.83-.37.52-.46.83a13.17,13.17,0,0,1-1.54,1,9.72,9.72,0,0,0,1.54-1c.27,0,.61-.45.82.1.3.8.09,1.61-.52,1.74a11.51,11.51,0,0,0-3,1c.09-.75.24-1.35-.23-1.95C8.5,14.14,8.92,13.57,9.13,13.15Z"/><path class="cls-33" d="M25.8,64.12a10.79,10.79,0,0,0-2.37-3.62c-.28-.25,0-.39.16-.52a3.06,3.06,0,0,1,1.75-.66c.11.15,0,.18-.1.24s-.46.22-.37.48.4.21.65.21h2.26A6.6,6.6,0,0,0,25.8,64.12Z"/><path class="cls-34" d="M12.45,7.4c-.34.11-.12.41-.21.61A4,4,0,0,0,12,10.34v0c.13.37.31.7.46,1.06s0,.43-.29.28c-.37-.62-1-1-1.4-1.6s-1-1.25-.65-2.08c.12-.34-.22-.39-.26-.6.37-.57.54-1.31,1.23-1.63.35.28.07.92.66,1A1.1,1.1,0,0,1,12.45,7.4Z"/><path class="cls-35" d="M7.53,34.87a3.26,3.26,0,0,1-1.62,1.84c-.49,0-.85-.13-.66-.71a11.12,11.12,0,0,1,1.13-2.48c.19-.3.36-.41.57,0A5.7,5.7,0,0,1,7.53,34.87Z"/><path class="cls-36" d="M7.69,31.55c-.9,0-1.42-.5-1.25-1a4.23,4.23,0,0,1,1.6-1c.39.12.8.2,1.17.34a.5.5,0,0,1,.09.88A3.08,3.08,0,0,1,7.69,31.55Z"/><path class="cls-37" d="M.53,29c-.2-2.2,1-3.85,2.14-5.56.52.4.68,1,.27,1.4a7.68,7.68,0,0,0-2,3.79C.91,28.85.84,29.1.53,29Z"/><path class="cls-38" d="M8.83,27.39c.55,0,1,.34.95.95s-.25,1.1-.93,1.19c-.41,0-1-.66-1-1.16A1,1,0,0,1,8.83,27.39Z"/><path class="cls-39" d="M4.25,25.28a2.46,2.46,0,0,1,1.48.41c.18.13.38.25.31.52a.61.61,0,0,1-.46.43,2.89,2.89,0,0,1-2.07-.56.44.44,0,0,1-.06-.53C3.66,25.19,4,25.3,4.25,25.28Z"/><path class="cls-40" d="M.53,29A11.35,11.35,0,0,0,1.31,27a4.86,4.86,0,0,1,1.16-1.78,1.19,1.19,0,0,0,.2-1.72L3.2,23c.18.62.27,1.33,1.11,1.45-.2.33-.67,0-.86.38-.45-.07-.66.29-.83.56A7.73,7.73,0,0,0,1.16,29c0,.36-.26.6-.35.91A.91.91,0,0,1,.53,29Z"/><path class="cls-41" d="M16.56,22.75a.48.48,0,0,1-.11.53c-.05-.1-.1-.21-.16-.31l-.06-.82a9.28,9.28,0,0,0-1.35,1.48c-.26.29,0,.57.06.85A5.61,5.61,0,0,1,15,28.25a9.9,9.9,0,0,0-.55-4.15c.28-.23.07-.44,0-.65a10.87,10.87,0,0,0,1.82-1.83Z"/><path class="cls-42" d="M4.31,24.43C3.17,24.5,3.05,24.34,3.2,23c.43-.12.93-.57,1.28-.13A1.23,1.23,0,0,1,4.31,24.43Z"/><path class="cls-43" d="M5.87,23.63a7,7,0,0,1-.27.9c-.13.27-.41.25-.65.19s-.24-.3-.14-.52A3.81,3.81,0,0,0,5,23c0-.19-.13-.49.22-.52a.49.49,0,0,1,.47.39A6.1,6.1,0,0,1,5.87,23.63Z"/><path class="cls-44" d="M8.12,27.14c-.45.53-.87,1-.49,1.67,0,.09.12.21,0,.3A.33.33,0,0,1,7.19,29c-.37-.41-.75-.9-.48-1.46A1,1,0,0,1,8.12,27.14Z"/><path class="cls-45" d="M10.92,33.18c0,.28-.21.37-.46.39A16.2,16.2,0,0,0,10,29.08c0-.14-.14-.35.07-.42s.2.14.28.24a6.6,6.6,0,0,1,.6,3.55A1.79,1.79,0,0,0,10.92,33.18Z"/><path class="cls-46" d="M7,23.9a1.55,1.55,0,0,1-.36,1c-.18.21-.41.42-.7.24s.05-.39.11-.57a6.48,6.48,0,0,0,.18-1c0-.21-.14-.57.24-.59s.41.31.49.58A2.5,2.5,0,0,1,7,23.9Z"/><path class="cls-47" d="M6.21,27.86a5.94,5.94,0,0,0,.58,1.33c.11.12.49.22.18.48a.62.62,0,0,1-.77.08A1.13,1.13,0,0,1,6.21,27.86Z"/><path class="cls-48" d="M10.92,33.18c-.34-.62-.09-1.29-.17-1.93a12.47,12.47,0,0,0-.43-2.35l.16-.18A6.92,6.92,0,0,1,10.92,33.18Z"/><path class="cls-49" d="M16.67,15.6l-3.36-.38c-.23,0-.59,0-.49-.37s.36-.08.53,0a11.66,11.66,0,0,0,2.12.31A1.93,1.93,0,0,1,16.67,15.6Z"/><path class="cls-50" d="M7.34,23.91a1.5,1.5,0,0,1-.49,2c-.14.05-.26.08-.37,0a.33.33,0,0,1,0-.51,1.2,1.2,0,0,0,.5-.63A7.32,7.32,0,0,1,7.34,23.91Z"/><path class="cls-51" d="M6.22,30c-.12.46-.36.57-.61.55a.76.76,0,0,1-.68-.79c0-.23.14-.62.37-.51A4.11,4.11,0,0,1,6.22,30Z"/><path class="cls-52" d="M4.81,11.17C5,12.6,4.75,13,3.6,13.34a5.53,5.53,0,0,0,1-2.34Z"/><path class="cls-53" d="M12.12,11.66c.42,0,.19-.3.11-.44-.14-.29-.35-.54-.28-.9.25.16.3.45.41.69s.38.45.66.31c.61-.29.92.25,1.38.38-.64.26-1.51-.58-2,.47C12.46,11.92,12.2,11.85,12.12,11.66Z"/><path class="cls-54" d="M5,36.79c.94.44.92.54-.12,1.54Z"/><path class="cls-55" d="M5.32,12.71c-.16,0-.44.22-.3-.18a3.17,3.17,0,0,0,.12-1.37c.47-.22.48.15.51.42A1.61,1.61,0,0,1,5.32,12.71Z"/><path class="cls-34" d="M7,8.49c.78-.34,1.6-.06,2.39-.16.14.32-.13.2-.24.2Z"/><path class="cls-20" d="M34.87,67.75c0-.83,0-1.65,0-2.48A4,4,0,0,1,34.87,67.75Z"/><path class="cls-56" d="M135.74,205.15l-22.47,0c-8.82,0-17.63,0-26.45,0a1.93,1.93,0,0,1-1.64-.7,56.56,56.56,0,0,1-4.79-6.25c-.7-1.05-.81-2.49-1.71-3.55a.65.65,0,0,1,.31-1c.19-.21.54-.23.68-.45,1-1.53,2.67-1.69,4.24-2a8.65,8.65,0,0,0,2.49-.86,7.5,7.5,0,0,1,2.24-.8c.32-.06.7-.09.24-.52s-.1-.58.14-.76c-.29.17-.52.39-.17.78s.08.4-.19.47c-2.29.64-4.38,2-6.83,2.1a1.46,1.46,0,0,0-1.07.54,8.21,8.21,0,0,1-.59.59c-.39.37-.79,1-1.38.63s-.17-.89-.15-1.36c.22-.18.54-.19.71-.45a.45.45,0,0,1,.28-.29,10.38,10.38,0,0,0,3.22-1.66,3.2,3.2,0,0,1,1.22-.49c1.68-.18,3-1.23,4.45-1.86a4,4,0,0,0,1.41-1,3.11,3.11,0,0,1,2.08-.91c.38,0,.77-.13,1.15-.13a.64.64,0,0,0,.72-.66c-.06.47-.33.66-.72.46a13.56,13.56,0,0,1-3-1.63,7.57,7.57,0,0,0-4.52-.63c-.21,0-.43.15-.64,0a10.85,10.85,0,0,1-2.68-2.31,6.16,6.16,0,0,0-2.36-2c-.74-.38-1.47-.75-2.18-1.18s-1.42.07-1.94.47a1.6,1.6,0,0,1-1.57.35,11.26,11.26,0,0,0-6.11.45,7.64,7.64,0,0,0-1.24.45c-2.17,1.15-4.39.77-6.61.22a2.65,2.65,0,0,1-2-1.69,7,7,0,0,0-2.47-3.16,1.81,1.81,0,0,1-.75-1.21,22.28,22.28,0,0,0-.78-3.8c.34-.35.5,0,.63.21a2.16,2.16,0,0,0,3,.59,12.32,12.32,0,0,1,4.29-1.41,20.8,20.8,0,0,1,4.6-.15c.95.11,1.89.29,2.84.42.6.08,1.25-.18,1.8.28,1.67,1.27,3.32,2.57,5,3.79a13.28,13.28,0,0,1,1.79,1.55,12.08,12.08,0,0,0-1.75-1.52c-1.68-1.25-3.36-2.48-5-3.79a1.72,1.72,0,0,0-1.7-.32c-.21.09-.48-.06-.72-.11-3.69-.65-7.32-.62-10.78,1.07a2.08,2.08,0,0,1-.3.13c-1.77.68-2.43.46-3.56-1.16a25,25,0,0,0-5.1-3.77,46.24,46.24,0,0,1-8.47-6.3,6.62,6.62,0,0,0-1.72-1.53.6.6,0,0,1-.3-.78,27,27,0,0,1,1-3.66c.46-1.23.77-1.37,2-.93a2,2,0,0,0,1.9-.12,3.12,3.12,0,0,1,2.76-.34,25.85,25.85,0,0,1,5.18,1.87,9.86,9.86,0,0,1,3.43,2.52,3.54,3.54,0,0,0,1.38,1.28,2.77,2.77,0,0,1-1.08-.93,10.42,10.42,0,0,0-4-3,27.66,27.66,0,0,0-5-1.77,3,3,0,0,0-2.68.32,2,2,0,0,1-2,.14c-1.17-.44-1.48-.29-2,.88a14.93,14.93,0,0,0-.7,2.54c0,.14,0,.38-.27.3s-.11-.23-.16-.36c-.28-.91-.93-1.72-.85-2.75a3.09,3.09,0,0,1,2-2c.22-.09.5,0,.7-.19a.6.6,0,0,0,.16-.05c2.32-1.12,4.46-.16,6.6.6a51.82,51.82,0,0,1,5.47,2.36A7,7,0,0,1,55.1,155a5.45,5.45,0,0,0-2-1.55,50.6,50.6,0,0,0-8.35-3.36,4.75,4.75,0,0,0-3.46.09c-.25.12-.53.13-.78.23-1.31.06-1.95,1.12-2.8,1.86-.2.25-.44.38-.7.12s0-.41.13-.58.31-.45.51-.74c-.59.17-.9,1-1.65.53-.51-.32-1.19-.34-1.64-.77a46.37,46.37,0,0,0-6-4.79,10.09,10.09,0,0,1-2-2,20.91,20.91,0,0,0-2.3-2.5,2.22,2.22,0,0,1-.76-1.42c-.31-2-.63-4-.91-6a2.16,2.16,0,0,1,2-2.39l2.64-.26a5.51,5.51,0,0,1,3.24.19,22.54,22.54,0,0,1,8.17,3.2c.61.4,1.18.85,1.82,1.21a18.45,18.45,0,0,1-1.74-1.19,21.51,21.51,0,0,0-7.7-3.09,10,10,0,0,0-4.09-.46c-.8,0-1.6,0-2.39.07a2.1,2.1,0,0,0-1.59.77c-.28-.33-.29-.34,0-.73a6.77,6.77,0,0,1,2.39-1.82,1.73,1.73,0,0,0,.36-.18,13.13,13.13,0,0,1,2.41-.29,12.71,12.71,0,0,0-2.43.3A7.8,7.8,0,0,0,22.23,132a4,4,0,0,1-.82-2.17,5.44,5.44,0,0,1,0-1.14c.35-1.59.8-1.84,2.35-1.58a21.47,21.47,0,0,0,3.41.42,4.52,4.52,0,0,0,1.35-.24,3.82,3.82,0,0,1,2.73.08,27.38,27.38,0,0,0,3.92,1.23c.9.42,1.83.79,2.75,1.19.12,0,0-.17,0-.06s0,.08-.06.06c-.87-.39-1.76-.76-2.63-1.16-1.36-.42-2.74-.73-4.08-1.29a3.73,3.73,0,0,0-2.88,0,3.59,3.59,0,0,1-2.1.1c-1-.15-2-.3-3-.41s-1.23,0-1.66,1.06a3.28,3.28,0,0,1-.28.6c-.19.44-.35.61-.72.09s-.95-1.07-1.42-1.61c-.19-.23-.43-.45-.36-.8.49-1.9,1.38-2.37,3-2.12,1.05.16,2.1.34,3.17.45-1.08-.13-2.14-.3-3.21-.47a2.19,2.19,0,0,0-2.67,1.25c-.1.22-.22.45-.5.5-.11,0-.22,0-.28-.11-.55-1.48-1.38-2.82-2.06-4.23-.78-1.6-.66-1.84,1-2a11.62,11.62,0,0,1,4.55.17c.12,0,0-.22,0-.11s0,.07-.05.06c-1.23-.23-2.49-.17-3.72-.42l-1.56,0a.93.93,0,0,0-1.07.8c-.09.46-.29.43-.63.25a41,41,0,0,1-4.55-2.66,6.12,6.12,0,0,1-2.15-3.2,2.79,2.79,0,0,1,2.22-1c-.58-.1-1.13-.2-1.6.42-.17.22-.52.56-.93.25a10.76,10.76,0,0,0-1.2-3.57,8.75,8.75,0,0,1-1.13-2.88,6.58,6.58,0,0,1,3.41.22,18.25,18.25,0,0,1,2.57.86,18.22,18.22,0,0,0-4.05-1.17,2,2,0,0,1-1-.23,4.87,4.87,0,0,0-.65-.05c-.44,0-.61-.2-.54-.61.12-.73.25-1.45.38-2.18a1.45,1.45,0,0,1,.74-.5c1.12-.45,2.28-.79,3.43-1.17s2.4.06,3.6,0h.8c1.56.12,3.14.15,4.69.39a8.62,8.62,0,0,1,3.87,1.31,26.52,26.52,0,0,0,3.12,1.53c.49.27,1.11.53.71,1.31-.09.17,0,.27.14.34a37.77,37.77,0,0,0,5.88,3.83,25.54,25.54,0,0,0,3.59.46c1.2.21,2.41.23,3.61.37a24.8,24.8,0,0,1,6.82,2.23c2.9,1.24,5.74,2.57,8.57,3.95.74.36,1.45.78,2.19,1.13-3.4-1.68-6.6-3.77-10.16-5.16l-.23-.09a33.28,33.28,0,0,0-6.38-2.29,20.74,20.74,0,0,1-6.27-2.91c-1.91-1.2-3.72-2.56-5.54-3.91-.76-.69-1.79-.73-2.67-1.14a5.25,5.25,0,0,0-2.38-.66c-.49-.19-.95-.46-1.43-.67a2.65,2.65,0,0,0-1.82-.29,25.35,25.35,0,0,1-4.6-.2,3.21,3.21,0,0,0-.81,0,5,5,0,0,1-3-.44,8.6,8.6,0,0,0-6.12-.06,1.64,1.64,0,0,1-1.05.06A1,1,0,0,0,4,102c-.3.16-.65.32-.91,0s0-.54.09-.78c1.24-3,3.15-5.27,6.72-5.42A1.67,1.67,0,0,0,11.34,95a2.53,2.53,0,0,1-2.06.36,4,4,0,0,1,3.56-1.54c4.79-.11,8.7,2.08,12.52,4.58a10.82,10.82,0,0,0,2.14.88,21.85,21.85,0,0,1,5.79,2.81,7.45,7.45,0,0,0,4.32,1.28c3.88.1,7.34,1.48,10.89,2.9,7,2.79,13.35,6.77,20.27,9.63,2.17.89,4.24,2,6.47,2.78a4.44,4.44,0,0,0,2.27.33,4.26,4.26,0,0,1,3,.68,7,7,0,0,0,2.85,1,10.24,10.24,0,0,1,3.22,1.3,6.58,6.58,0,0,0,2.43.77,1.75,1.75,0,0,1,.83.34c2,1.28,3.91,2.8,5.91,4.14,2.78,1.86,5.14,4.3,8,6,2.2,1.31,4.23,2.91,6.55,4a8.47,8.47,0,0,1,2.84,1.48c.23.22.55.21.82.33a4.75,4.75,0,0,1,1.21.5,37.1,37.1,0,0,0,4.76,2,21.81,21.81,0,0,1,6.08,3.45,21.57,21.57,0,0,0-6-3.42,14.55,14.55,0,0,1-3-1.47,5.48,5.48,0,0,0-1.53-.6c-.49-.13-1-.19-1.32-.72,0-.07-.14-.29.06-.22,3.4,1.35,7.07,1.67,10.52,2.86a3.3,3.3,0,0,1,.73.36,106.52,106.52,0,0,0,10.55,5.87,24.13,24.13,0,0,1,3.53,1.92c.45.25.89.53,1.33.81-1.3-.79-2.59-1.6-3.92-2.33-.28-.15-.62-.26-.73-.62s.06-.22.23-.22c2.4,0,4.31,1.35,6.42,2.2a5,5,0,0,1,3.19,3.67c.74,2.74,1.77,5.41,2.69,8.1a1.78,1.78,0,0,1,.08,1.05c-1.25,4.81-2.47,9.63-3.72,14.44-1.69,6.46-4,12.74-6,19.11-.85,2.77-1.76,5.53-2.65,8.29-.08.22,0,.6-.43.61a3.08,3.08,0,0,1-1.23-1.06c-1.67-1.84-3.32-3.69-5.07-5.46a4.64,4.64,0,0,0-3.29-1.82,2.16,2.16,0,0,1-1.12-.49,38.62,38.62,0,0,1-7.33-5.65,25.92,25.92,0,0,0-2.84-2.27c-1.15-.76-2.11-1.77-3.24-2.55a4.2,4.2,0,0,0-1.32-.66,5.66,5.66,0,0,1-2.48-1.44,17.47,17.47,0,0,0-2.83-2.53,3.14,3.14,0,0,1-1.13-1.6c-.4-1-.65-2-1-3.06a4.48,4.48,0,0,0-1.5-2.13c-2-1.61-3.89-3.21-5.71-4.79,1.74,1.6,3.73,3.1,5.57,4.77a5.27,5.27,0,0,1,1.82,2.77,15.07,15.07,0,0,0,1.42,3.77c0,.37-.24.5-.48.66a29,29,0,0,1-4.37,1.15,9.5,9.5,0,0,1-2.38.27c-.4,0-.82,0-1.06-.37A7.66,7.66,0,0,0,93.47,180,39.13,39.13,0,0,0,89,177.6a4,4,0,0,0-1.93-.36.91.91,0,0,1-.85-.41c-1.78-2-3.88-3.61-5.77-5.47-1.65-1.63-3.27-3.29-5.06-4.77a41.34,41.34,0,0,1-4-3.82c2.25,2.59,5.16,4.48,7.47,7,1.78,1.94,3.9,3.5,5.74,5.37.19.19.41.37.59.58a3.73,3.73,0,0,0,2.91,1.66c1.43,0,2.63,1.05,3.86,1.78.81.47,1.62,1,2.46,1.38a5.29,5.29,0,0,1,1.93,1.52c.46.64.4.92-.33,1.24-.28.12-.58.13-.83.23a3.88,3.88,0,0,0,1.49-.56,2.24,2.24,0,0,1,1.19-.29,15.61,15.61,0,0,0,4.29-.78c.78-.24,1.66-.16,2.35-.7a1.53,1.53,0,0,1,1-.12,4.77,4.77,0,0,1,1.52,1.11,14.25,14.25,0,0,0,2.25,2.07,3.77,3.77,0,0,0,1.58.67,3.6,3.6,0,0,1,1.56.89c.52.37,1,.78,1.49,1.18.18.13.41.3.29.53s-.38.11-.59,0a1.58,1.58,0,0,0-.66-.2,10.77,10.77,0,0,1,3.32,1.57c1.76,1.26,3.27,2.81,5,4.16a21.54,21.54,0,0,0,4.14,2.87,3.58,3.58,0,0,0,1.68.6,4.11,4.11,0,0,1,2.46,1.4c1.85,1.81,3.53,3.77,5.27,5.67.26.29.55.55.81.83S136,204.84,135.74,205.15Z"/><path class="cls-57" d="M109.38,97.75l-.47-2.66a.49.49,0,0,1,0-.8c.32,0,.21.2.19.39.07-.51-.12-1.23.77-1.21-.21-.37-.65-.5-1-.7a1.84,1.84,0,0,1-1.06-1.2,6.52,6.52,0,0,0-.74-1.74c-.13-.39-.23-.65-.69-.2a5.15,5.15,0,0,1-1.6,1.33,3.41,3.41,0,0,0-2.86.59,2.54,2.54,0,0,1-1.22.44c-.3,0-.68.13-.77-.34,1.36-1.47,3.3-2,5.15-3-.42-.27-.82-.15-1-.55a14.58,14.58,0,0,1,6.28-2.6c-.27.4-.75.4-.94.76-.32.7-.78,1.32-1,2-.18.54-.06.84.47,1a5.63,5.63,0,0,0,4.84-1,.38.38,0,0,0,.08-.63,2.08,2.08,0,0,1-.36-.73,3.61,3.61,0,0,0-1.67-1.48,4.44,4.44,0,0,1,1.82.2c.82.24,1.63.51,2.44.8a8.19,8.19,0,0,0,5,.26,1.74,1.74,0,0,1,2.42,1.54,4.09,4.09,0,0,1-.92,3.94c-.47.48-.94.75-1.61.38a2.8,2.8,0,0,0-.72-.16c-.17,0-.45,0-.42-.26s.28-.26.47-.2a2,2,0,0,0,2.15-.88,2.64,2.64,0,0,0,.32-3.08c-.17-.3-.4-.24-.64-.19a4.08,4.08,0,0,0-2.1,1.1c-.37.37-.7,1-1.34.09,1.45,2.26.68,4.08-1.08,5.87a3.91,3.91,0,0,0,1.76-1.57.82.82,0,0,1,1.47-.1,3.82,3.82,0,0,1,.72,1.49,21.42,21.42,0,0,1,1,4.53,5.83,5.83,0,0,0,1.58,3.54c.3.33.56.69.87,1a8.57,8.57,0,0,1,2.36,7.46,8.18,8.18,0,0,0,.17,3.51c.37-.2,0-.55.3-.8,2.14,3.12,5.12,5.46,7.56,8.31a14.11,14.11,0,0,1,3.52,8.56,23.39,23.39,0,0,1-1.34,10.5,21.94,21.94,0,0,1-2.22,4.17c-.57.85-.86.92-1.78.46-1.53-.77-3-1.7-4.46-2.57a27.66,27.66,0,0,0-4.56-2.51c-.68-.24-.67-1-.75-1.55a12.56,12.56,0,0,1,.47-5.41,14.33,14.33,0,0,1,5.17-7.43,4.7,4.7,0,0,1,1.31-.69,2.5,2.5,0,0,1,2.92.72,11,11,0,0,1,2.39,5,22.31,22.31,0,0,1,.39,6,1.19,1.19,0,0,0,.42-.94,15.74,15.74,0,0,0-1.66-8.84,7.18,7.18,0,0,0-1.7-2,3.1,3.1,0,0,0-3.7-.14,12,12,0,0,0-2.91,2.44c-.29.3-.57.61-.85.91s-.32.31-.51,0a9.55,9.55,0,0,0-2.33-2.33,9,9,0,0,1-1.49-1.76c-1-1.51-.69-2.87.27-4.21.62-.87,1.28-1.71,2-2.66a8,8,0,0,0-3.33,4.76,9.12,9.12,0,0,1-3.76,5.07c-1.43,1-2.89,2-4.33,3.07s-3,2.4-4.49,3.68c-.22.2-.41.47-.76.16a12.83,12.83,0,0,0-2.94-1.69,6.65,6.65,0,0,1-2-1.35c-.26-.29-.38-.52,0-.82,2.65-2.1,4.44-4.9,6.32-7.63A11.06,11.06,0,0,1,109.7,122c.88-.91,1-.88,1.68.22,0-.49-.09-1-.13-1.47s-.06-1-.12-1.57a22,22,0,0,1-.12-3.81,6.35,6.35,0,0,1,2-4.32,29.4,29.4,0,0,0,4.84-5.66,2.86,2.86,0,0,0,.35-.75c-1.63,1.83-3.1,3.8-5,5.63l.85-3.64c.13-1.78.52-3.55.1-5.33A6.07,6.07,0,0,0,112.06,98a1.77,1.77,0,0,0-1.94-.28C109.89,97.78,109.65,98,109.38,97.75Z"/><path class="cls-22" d="M90,111.53l.93,2.12.13-.05c-.17-.87-.34-1.74-.53-2.6a23.9,23.9,0,0,1-.49-4.61,6.51,6.51,0,0,1,1.12-3.26,11.22,11.22,0,0,1,6.09-5.58,9.54,9.54,0,0,0,3.13-1.66.54.54,0,0,1,.68-.09c.3.16.07.38,0,.57-.58,2.32.6,4,3.05,4.26a6.4,6.4,0,0,0,3.63-.59c.51-.26.75-.17.84.4a4.25,4.25,0,0,1-.75,3.58A74.3,74.3,0,0,0,103,111.3a13,13,0,0,0-1.69,6.35,1.56,1.56,0,0,1-.34,1,25,25,0,0,0-4.31,7.8c-.24.67-.42.71-1,.28a42.51,42.51,0,0,0-6.24-4.23,4.21,4.21,0,0,0-.75-.34c-1-.31-1-.3-.66-1.4A31.38,31.38,0,0,0,89.13,115,13.83,13.83,0,0,1,90,111.53Z"/><path class="cls-56" d="M79.13,191.37c-.37.24-.68,0-1-.16a20.12,20.12,0,0,1-4.64-3.73c-1.1-1-2.17-2.12-3.32-3.12a14.53,14.53,0,0,0-5.7-3.12,7.7,7.7,0,0,1-2.55-1.05c.37-.12.63.07.91.13a2.48,2.48,0,0,0,2.28-.32,3.14,3.14,0,0,1,1.35-.61c1.74-.34,3.38-1,5.26-.92a19.6,19.6,0,0,1,3.15.07.81.81,0,0,0,.75-.25,1.72,1.72,0,0,1,2.26-.45,11,11,0,0,1,4.6,3.39,6.49,6.49,0,0,0,1.18,1.16,2.73,2.73,0,0,0,2.68.85,6.92,6.92,0,0,1,3.42.35,8.34,8.34,0,0,1,2.5,1c.17.09.37.19.35.41s-.21.36-.45.41-.65.15-1,.22a2,2,0,0,0-1.14.62c-.75.91-1.87,1.13-2.78,1.7-1.7,1.06-3.8,1.14-5.42,2.33A6.49,6.49,0,0,1,79.13,191.37Z"/><path class="cls-26" d="M47,67.41l-3.16,4a13.06,13.06,0,0,0-1.24,2.2,3.72,3.72,0,0,1,.17-1.5c.48-2.3,1.19-4.54,1.5-6.88a3.39,3.39,0,0,0-.35-2.16A.89.89,0,0,1,44,62a4.27,4.27,0,0,0,.89-2.36c.44.36.54.88.88,1.31A3.88,3.88,0,0,0,46,59.39c.08-.48.19-.81.83-.73a3.61,3.61,0,0,0,2.73-1.14c.26-.21.07-.38,0-.57a3.08,3.08,0,0,0-2.08-1.33c-.28-.08-.36.2-.49.36a6,6,0,0,0-1.39,3.67c-.48-.52-.47-1.16-.78-1.66a9.12,9.12,0,0,1-1,3.77c-.26.48-.44.58-.86.13a27.89,27.89,0,0,0-4.73-3.63,25.93,25.93,0,0,1-2.34-1.84c-.38-.33-.5-.51.07-.78,5-2.44,10-2.52,14.9.32A9.59,9.59,0,0,1,54.2,58.4c.1.15.31.25.18.58-.73-.45-1.26-1.22-2.3-1.36a7.45,7.45,0,0,1,1.65,4.22l-.43-.37c.46,2.55-.66,4.5-2.14,6.33.38-2.44,1-4.89-.73-7.35.82,2.84,0,5.12-1.39,7.28a8.77,8.77,0,0,0,.39-2,8.26,8.26,0,0,1-4.06,4.56,25.21,25.21,0,0,0,1.8-2.69c.2-.93.85-1.7,1-2.67,0-.06,0-.1,0-.11A4.58,4.58,0,0,1,47,67.41Z"/><path class="cls-58" d="M123.43,140.56l-5.84-1.38a.77.77,0,0,1-.54-.58,11.73,11.73,0,0,1-.42-1.43,41.23,41.23,0,0,0-1.82-6.36.84.84,0,0,1,.39-1.22,14.13,14.13,0,0,0,4-3.58c.2.36-.13.63,0,1,.87-.7,1-1.73,1.43-2.8.81,1.78,2.29,2.77,3.6,3.93.25.22.46.47.7.7a1.13,1.13,0,0,1,.18,1.59,12.29,12.29,0,0,0-1.69,10.16Z"/><path class="cls-23" d="M91.1,102A14.12,14.12,0,0,0,89,107.39l.54-1.13a43.78,43.78,0,0,0,.44,4.42.73.73,0,0,1-.08.48c-1.19,1.8-1.33,3.89-1.63,5.94a12.36,12.36,0,0,1-1.15,4.17c-1-2-2.27-3.63-2.78-5.73.33-.1.43.33.72.27,0-.4-.28-.53-.48-.73a40.59,40.59,0,0,1-3.93-4.15,8.8,8.8,0,0,1-1.89-4.61,4.13,4.13,0,0,0-.14-.63c-.2-.06-.26.07-.32.19l-.25.41v-3.78c.74,1.61.71,3.55,2.38,4.72.11-.66-.21-1.19-.2-1.81,1.25,1.28,1.38,3.21,2.8,4.57-.35-1.65.68-2.69,1-3.95l.24,0v1.48l.2.08a14.12,14.12,0,0,1,2.72-3.33A9.93,9.93,0,0,1,91.1,102Z"/><path class="cls-58" d="M113.8,106.06c-.32,1.39-.66,2.77-1,4.17a2,2,0,0,1-.61,1.12c-1.69,1.51-1.89,3.54-1.78,5.63a31.45,31.45,0,0,0,.33,3.21c.12.76-.49.79-.87,1-.53.28-.47-.31-.58-.54a20.73,20.73,0,0,1-2.27-7.73c-.1-2.4.73-4.62,1.24-6.91.28-1.21.59-2.41.87-3.62a3.88,3.88,0,0,0-.1-2.29,1.87,1.87,0,0,1,.46-2A1.71,1.71,0,0,1,112,97.9a5.78,5.78,0,0,1,2.29,4.31,10.31,10.31,0,0,1-.17,3.13A1.08,1.08,0,0,1,113.8,106.06Z"/><path class="cls-22" d="M77.46,105.2a18.57,18.57,0,0,0,.46,2.25c.12.36,0,1.1.83.91,0,0,.16.2.21.33a16,16,0,0,0,4.22,5.56,4.47,4.47,0,0,1,1,2.2c.11.33-.13.56-.4.75a7,7,0,0,0-2.21,2.2c-.19.33-.4.19-.62.07a7.19,7.19,0,0,0-4.36-1,6.55,6.55,0,0,1-2.9-.9c-.72-.28-1.81-.48-2-1s.76-1.2,1.17-1.83a30.64,30.64,0,0,0,3.17-7.09A5.88,5.88,0,0,1,77.46,105.2Z"/><path class="cls-24" d="M104.43,118.79l.18,1c.27-.27.18-.57.16-.85l-.42-4.87a10.92,10.92,0,0,1,2.06-7.18,22.75,22.75,0,0,1,1.89-2.77c-.27,1.82-.8,3.42-1.2,5a11.71,11.71,0,0,0-.36,6,35.85,35.85,0,0,0,2.26,6,1,1,0,0,1-.14,1.25c-1.93,2.34-3.53,5-5.66,7.14-.38.4-.8.76-1.19,1.15a.47.47,0,0,1-.72,0c-.24-.2-.51-.34-.37-.73,1.23-3.64,2-7.41,3.31-11A2.24,2.24,0,0,1,104.43,118.79Z"/><path class="cls-57" d="M143.23,117.89a10.7,10.7,0,0,1,2.51-2c.27,1,.2,1.15-.55,1.76a7.26,7.26,0,0,0-2.8,4.35,10.41,10.41,0,0,0,.41,6.5,47.56,47.56,0,0,1,2.17,7.12c.43,2.81,0,5.38-2.27,7.32a9.51,9.51,0,0,1-5.69,2.23c-.59,0-.93-.11-.54-.78a6.46,6.46,0,0,0,.33-.76c.46-1.13,1-2,2.51-1.82a3,3,0,0,0,2.79-1.65,8.36,8.36,0,0,0,.61-2.76,16.76,16.76,0,0,0-.72-6c-.32-1.32-.66-2.63-1-4A10.25,10.25,0,0,1,143.23,117.89Z"/><path class="cls-23" d="M103.85,110.64c-.41,2.15.1,4.24.29,6.34a2.83,2.83,0,0,1-.17,1.39c-1.2,2.76-1.69,5.72-2.5,8.59-.25.85-.5,1.69-.83,2.52-.16.4-.31.51-.71.26-1-.58-1.86-1.29-2.79-1.94-.39-.27-.21-.57-.11-.88a28.43,28.43,0,0,1,3.59-7.08,7.93,7.93,0,0,0,1.49-4.19A8.39,8.39,0,0,1,103.85,110.64Z"/><path class="cls-59" d="M62.83,80.54c.1.14-.5.56.08.45,2.42-.44,4.11.77,5.57,2.42a13.22,13.22,0,0,1,3.26,5.5c.13.52.38,1.37,0,1.52s-.68-.63-1-1c-1.51-2.22-3.06-4.41-5.44-5.82-.42-.25-.88-.44-1.33-.65-1-.48-1-.49-2.19.21a20.69,20.69,0,0,0-4.92,4.51,29.69,29.69,0,0,1-3.82,4c-.56.47-1,.56-1.58.08-.32-.29-1-.32-1-.77s.64-.42,1-.61A22.45,22.45,0,0,0,59,83.83,8.58,8.58,0,0,1,62.83,80.54Z"/><path class="cls-25" d="M51.79,106.89a15.17,15.17,0,0,1-3.89-1.36,22.68,22.68,0,0,0-8-2.52c1.59-1.46,3.24-2.77,5.56-2.47C48.56,100.94,50.83,103.22,51.79,106.89Z"/><path class="cls-20" d="M35.23,100.51c-.41-.16-.69.32-1.16.21a4,4,0,0,1,1.39-1,17.94,17.94,0,0,0,3.25-2.42,5.18,5.18,0,0,0,1.11-1.73c.09-.23.17-.59.45-.19a11.24,11.24,0,0,1,2.19,4,1,1,0,0,1-.6,1.34,11.67,11.67,0,0,0-2.5,1.89c-.18.16-.33.42-.61.38a14.59,14.59,0,0,1-3.88-.7c-.37-.17-.91-.26-.94-.71s.53-.5.83-.72S35.19,100.79,35.23,100.51Z"/><path class="cls-58" d="M109,94.36a1,1,0,0,0-.06.73c0,.88-.06,1.76,0,2.64a1.65,1.65,0,0,1-.82,1.59,6.09,6.09,0,0,1-5.91.06,2.58,2.58,0,0,1-.27-3.72c.32-.49.78-.39,1.26-.31a5.31,5.31,0,0,0,5.14-1.71c.22-.25.4-.74.82-.51s0,.64,0,1A.27.27,0,0,1,109,94.36Z"/><path class="cls-60" d="M30.72,46c-.07.47-.39.59-.58.81s-.33.28-.24.49.32.2.51.2a6.06,6.06,0,0,1,2.6.43,9.16,9.16,0,0,1,1,.56c.5.32.6.68.06,1.1-.15.12-.41.25-.27.52s.31.2.51.2a1.49,1.49,0,0,1,1.32.72,6.24,6.24,0,0,0,2.44,1.52c.66.31,1.34.58,2.21.94-.55.16-.92.24-1.26.38-.74.28-1.36.35-1.76-.54-.17-.36-.25-.31-.77,0a.58.58,0,0,1-.32,0,30.17,30.17,0,0,1-3.4-.71,4.62,4.62,0,0,1-2.67-2.1c-.61-1-1.27-2-2-3-.38-.54-.19-.78.28-1A6,6,0,0,1,30.72,46Z"/><path class="cls-24" d="M115.13,138.45c-1.53-.53-2.81-1.26-4.14-1.86-.76-.34-1.54-.59-2.33-.86-.49-.17-.84-.4-.18-.91,1.74-1.32,3.44-2.69,5.14-4.06.41-.33.6-.23.78.2a1.8,1.8,0,0,1,.06,1.76,4.31,4.31,0,0,0,0,3.16C114.62,136.7,114.87,137.51,115.13,138.45Z"/><path class="cls-61" d="M44.13,45l-.55,0a1.14,1.14,0,0,0,.16.22,5.3,5.3,0,0,0,2.31.82c1.59.36,1.86.65,1.93,2.24.06,1.41.09,2.82.15,4.22a3.52,3.52,0,0,1-.16,1c-.19.86-.75.5-1.22.39-.68-.16-.19-.57-.11-.82a4.28,4.28,0,0,0-2.88-5.53A1.7,1.7,0,0,1,42.47,46a2.47,2.47,0,0,0-.56-1.28c-.22-.25-.47-.54-.83-.46a.8.8,0,0,0-.56.75c0,.16,0,.37-.25.34s-.1-.27-.06-.37c.16-.42,0-.82,0-1.23a.87.87,0,0,1,.85-1c1.53-.22,1.86-.07,2.57,1.25C43.78,44.3,43.94,44.61,44.13,45Z"/><path class="cls-58" d="M101.9,93.64A7.22,7.22,0,0,0,105,91.41a13,13,0,0,0,1-1.09.76.76,0,0,1,1-.28c.55.22.62.75.74,1.21a2.07,2.07,0,0,0,.74,1.34c.34.25.23.51.06.79a5.62,5.62,0,0,1-6.09,1.83A1.16,1.16,0,0,1,101.9,93.64Z"/><path class="cls-62" d="M34.35,50C35,48.83,35,48.71,33.9,48a5.49,5.49,0,0,0-3.56-.9c.34-.82,1.21-1.15,1.27-2-.27-.25-.39.24-.63.14,0,0,0-.11,0-.14.31-.52.7-.51,1.2-.26,1.32.63,2.64,1.26,4,1.85a9.85,9.85,0,0,0,4,.93A2.6,2.6,0,0,0,42,47.1c.32-.28.5-.21.73.1s0,.49-.21.66a1.89,1.89,0,0,1-1.18.3c-1,0-2,0-3,0a3.24,3.24,0,0,0-2.66,1.26A1.11,1.11,0,0,1,34.35,50Z"/><path class="cls-29" d="M52.25,52.17c.37.73-.47.16-.5.47a1.66,1.66,0,0,0-1.47.62c.62.32,1.24.11,1.93.25-.72.45-1.55.58-2.05,1.27a3.62,3.62,0,0,1,2.6-.29c.17.23-.36.24-.15.48a11.13,11.13,0,0,1,2.5,2c0,.17,0,.24-.2.2a14.52,14.52,0,0,0-2.54-1.53c-.14.34.34.36.25.72a36.43,36.43,0,0,0-4.11-1.92c-.26-.11-.32-.25-.22-.51A5.76,5.76,0,0,0,48.5,51a6.56,6.56,0,0,1,0-2.61,4.11,4.11,0,0,1,1.31,1c-.17.33-.45-.12-.67.18l2.74,1.68c-.16.22-.55.14-.74.53Z"/><path class="cls-63" d="M77.65,103c-1.92-4.06-.61-7.33,1.91-10.39a6.52,6.52,0,0,1-.23,4.58c-.59,1.18-1,2.44-1.5,3.67A3.14,3.14,0,0,0,77.65,103Z"/><path class="cls-56" d="M5.45,104.41c-.5-.51-1-1-1.5-1.52-.12-.13-.37-.23-.27-.45s.33-.13.51-.16l.63-.17c2.63-.89,5.26-1.32,7.91,0a3.24,3.24,0,0,0,2.08.31,7.09,7.09,0,0,1,1.72.07c.16,0,.37,0,.37.23s-.2.24-.36.28a2.08,2.08,0,0,1-.66,0c-1.15-.11-2.31,0-3.46-.06-2-.5-3.77.38-5.57,1A4.37,4.37,0,0,1,5.45,104.41Z"/><path class="cls-64" d="M40.32,49.33c-.07-.41.21-.5.52-.58a8.76,8.76,0,0,0,1.63-.57c1.72-.81,2.57-.31,3.58,1.34a4.2,4.2,0,0,1,.34,3.06c-.2,1.05-.36,1.11-1.38.78-.18-.06-.35-.15-.53-.23-1-.66-2.18-1.16-3.17-1.9C40.74,50.8,40.08,50.26,40.32,49.33Z"/><path class="cls-65" d="M113.33,87c1.11,1.2,1.11,1.24-.3,2a5.89,5.89,0,0,1-4,.7c-1.06-.23-1.23-.51-.87-1.52a3.47,3.47,0,0,1,1.16-1.84l.22.21c-.15.75-.86,1.22-1,2,.28-.17.31-.46.4-.73a2.19,2.19,0,0,1,2.66-1c.19.11.43.25.32.5s-.36.11-.64,0c.38.18.68.29,1,.42.81.35.92.27.88-.59Z"/><path class="cls-66" d="M86.42,121.37A24.87,24.87,0,0,0,82.54,120c-.44-.16-.58-.29-.25-.71a9.9,9.9,0,0,1,1.62-1.74c.17-.14.36-.34.54,0q1,1.76,2,3.51C86.5,121.1,86.44,121.23,86.42,121.37Z"/><path class="cls-67" d="M122.65,89.53a2.42,2.42,0,0,1-2.4,2.24.45.45,0,0,1-.44-.16,2.07,2.07,0,0,1,.15-2.19,3.22,3.22,0,0,1,1.13-.81c.33-.13.62-.57,1-.25A1.28,1.28,0,0,1,122.65,89.53Z"/><path class="cls-68" d="M38.7,155.32c.1,0,.21.52.31,0a11.72,11.72,0,0,1,.77-2.78c.42-1,.82-1.17,1.82-.79a2.07,2.07,0,0,0,2.22-.19,3.18,3.18,0,0,1,2.57-.29,32.25,32.25,0,0,1,5.91,2.25,8.91,8.91,0,0,1,2,1.4c.93.8,1.4,2.15,2.86,2.31a1.15,1.15,0,0,1-1.57-.45c-1.65-2.31-4.15-3.33-6.6-4.39a18.79,18.79,0,0,0-3.51-.88,1.43,1.43,0,0,0-1.27.22,2.48,2.48,0,0,1-2.72.31c-.75-.28-1.11,0-1.42.62-.53,1.14-.66,2.39-1.07,3.56a2.42,2.42,0,0,1-.18.36Z"/><path class="cls-69" d="M12.28,102.78h4.38c.15-.07.13-.12.05-.11a12.13,12.13,0,0,1-5.62-1c-1.29-.53-2.72-.18-4.09.07a13.51,13.51,0,0,1-2.18.41c-.23-.28-.53-.12-.8-.16,2.85-.59,5.69-1.53,8.57-.09a4.38,4.38,0,0,0,2.25.33,27.41,27.41,0,0,1,3.38.16,9.53,9.53,0,0,0,2.72,0,2.08,2.08,0,0,1,1.61.48.15.15,0,0,1-.07.23c-1.22.07-2.44-.16-3.66,0a8.77,8.77,0,0,0-1.14.1c-1.13.11-2.27-.17-3.4,0h-.84C13.09,102.82,12.55,103.31,12.28,102.78Z"/><path class="cls-70" d="M32,52.68c1.79.6,3.65.84,5.48,1.48-.7.69-1.62.85-2.3,1.39-.2.16-.36-.06-.5-.17A14.9,14.9,0,0,1,32,52.68Z"/><path class="cls-71" d="M79.13,191.37c2.05-.69,3.74-2.22,6-2.52a1.26,1.26,0,0,0,.74-.34,3.49,3.49,0,0,1,1.51-.82,4.89,4.89,0,0,0,2.52-1.48,2.76,2.76,0,0,1,1.62-.76,3.46,3.46,0,0,0,1.14-.42,15.8,15.8,0,0,0-2.84-1.44l.34-.17a14,14,0,0,1,2.82,1.34c.52.28.88.41.91-.49.21.82.09,1.2-.79,1.22a3.92,3.92,0,0,0-3.39,1.38,1.74,1.74,0,0,1-.76.48c-1.54.6-2.83,1.75-4.57,2a4.18,4.18,0,0,0-2,.92,7.15,7.15,0,0,1-3,1.37Z"/><path class="cls-72" d="M54.45,169a2.3,2.3,0,0,1,.45.36c.83,1.21,1.85,1.22,3.07.61,3.67-1.84,7.54-1.83,11.47-1.1.13,0,.3.08.39,0,.81-.54,1.33,0,1.86.47,0,.17,0,.25-.22.2a43.63,43.63,0,0,0-5.45-.79,15.52,15.52,0,0,0-7.87,1.53c-.17.09-.36.13-.54.22a1.71,1.71,0,0,1-2.35-.43c-.24-.29-.49-.69-1-.67Z"/><path class="cls-73" d="M37,48.84a1.6,1.6,0,0,1,1.28-.15c.38.33.31.84.56,1.25a8,8,0,0,0,3.39,2.63c.33.17.83.18.86.72L42,53.13a8.1,8.1,0,0,1-4.91-3.06A1.05,1.05,0,0,1,37,48.84Z"/><path class="cls-74" d="M101.9,93.64c0,.92.27,1.44,1.08,1.55a5.63,5.63,0,0,0,5.27-1.7c.28-.31.51-.55,0-.88s-.44-.75-.54-1.18A3.06,3.06,0,0,0,107,90v-.21a1.63,1.63,0,0,1,.83,1.27,1.92,1.92,0,0,0,1.34,1.63c.46.19.94.4.81,1.07-.56-.36-.59-.34-.93,1.08,0-.22-.08-.37-.11-.52l.25-1.21c-.44,0-.54.37-.73.58a5.39,5.39,0,0,1-5.37,1.83,2.25,2.25,0,0,0-1.21.1l-.22-.22c.21-.56-.4-1.06-.14-1.63Z"/><path class="cls-75" d="M113.21,87.16c.07.12.15.23.21.35s.32.29.17.5a.59.59,0,0,1-.6.2,3.4,3.4,0,0,1-1.48-.68l-.5-.29c.33-.24.63.17.95,0a1.72,1.72,0,0,0-2.79.87c-.11.49-.17.54-.89.73a4.8,4.8,0,0,1,1.28-2.35C111,85.77,111.79,85.91,113.21,87.16Z"/><path class="cls-76" d="M115,132.6c1,2,.7,4.2,1.63,6.12-.74.12-1.16-.08-1.29-.85-.17-1.06-.56-2.07-.64-3.15A4.38,4.38,0,0,1,115,132.6Z"/><path class="cls-77" d="M33.85,44.33a3,3,0,0,0,2.43.42l-1-.8c1.83-.17,2.9,1.15,4.45,1.7a2.25,2.25,0,0,1-2-.07,2.08,2.08,0,0,0-2,.08,1,1,0,0,1-1.1-.07s-.28,0-.15-.18.19,0,.32-.07c-.28-.42-1-.35-.94-1Z"/><path class="cls-78" d="M40.49,53.34a16.13,16.13,0,0,0-2.37-1.14,8.09,8.09,0,0,1-1.79-1c-1.08-.81-1-1.43.32-2a7.62,7.62,0,0,0,4.23,3.64c.2.08.42.17.45.47A1.11,1.11,0,0,1,40.49,53.34Z"/><path class="cls-79" d="M21.27,128.67a4.1,4.1,0,0,1,.1-.48c.46-1.38.65-1.5,2.07-1.33,1,.11,1.91.29,2.86.38a6.21,6.21,0,0,0,2.34-.14,3.71,3.71,0,0,1,3.11.27,14.7,14.7,0,0,0,2.82.9c.27.1.6.08.77.39h0a12.44,12.44,0,0,1-3.65-1,4.09,4.09,0,0,0-3.61-.1,3.49,3.49,0,0,1-1.87,0c-1-.11-2-.22-2.94-.4a1.27,1.27,0,0,0-1.65,1c-.05.16,0,.34-.21.44h-.15Z"/><path class="cls-80" d="M125.45,195.89a3.23,3.23,0,0,0,1.55.47,2.66,2.66,0,0,1,1.88.87c2.51,2.43,4.89,5,7.22,7.58l-.36.34a16.6,16.6,0,0,0-2-2.29,59.51,59.51,0,0,0-4.38-4.75,4.34,4.34,0,0,0-2.47-1.38,3.54,3.54,0,0,1-1.68-.66C125.25,195.94,125.36,195.93,125.45,195.89Z"/><path class="cls-81" d="M104.56,91.14c.06.32-.1.4-.36.31-.61-.22-1,.12-1.21.58-.87,1.54-2,1.61-3.22.16a16.84,16.84,0,0,0,3.3-1.32A1.12,1.12,0,0,1,104.56,91.14Z"/><path class="cls-78" d="M43.65,53.35a.18.18,0,0,0-.13-.06c-1.08-.74-2.37-1.12-3.42-1.94a5.43,5.43,0,0,1-1.44-1.77c-.36-.7-.16-1,.64-1,.28,0,.6-.17.84.13a.44.44,0,0,0,0,.63,4.6,4.6,0,0,0,2.73,2.76,7.2,7.2,0,0,1,1.11.71c.15.12.31.3.16.49S43.81,53.4,43.65,53.35Z"/><path class="cls-82" d="M78.64,192a2.1,2.1,0,0,0,0,.5c0,.28-.17.66.16.83s.62-.1.9-.29c0,0,.1-.06.12-.1.92-1.45,2.42-1.68,3.94-1.91a8.46,8.46,0,0,0,3.32-1.2,5.56,5.56,0,0,1,1.74-.52c-.51-.78-.51-.78.94-1.7,0,.66-.82.63-1,1.14.15.34.8.13.73.54s-.57.36-.9.41c-1.54.22-2.79,1.19-4.27,1.55a9.92,9.92,0,0,1-1,.29c-1.35.19-2.64.44-3.47,1.71a1.07,1.07,0,0,1-.87.41C78.16,193.3,78.44,192.66,78.64,192Z"/><path class="cls-83" d="M113.8,106.06a12,12,0,0,0,.22-4.59,6.41,6.41,0,0,0-1.21-2.68c-.92-1.2-1.78-1.37-3.29-.7l-.14-.34c2.17-.83,3.54-.1,4.67,2.55a9.11,9.11,0,0,1,.24,5.37c-.06.32-.18.62-.27.94C114,106.41,114,106.18,113.8,106.06Z"/><path class="cls-84" d="M47.77,57.12c0-.51-.92-.35-.6-.85s.75,0,1.14.09a.88.88,0,0,1,.8.73c.06.48-.32.69-.66.84a3.9,3.9,0,0,1-1,.24c-.4.06-.93.23-1.14-.14s.07-.75.31-1.05C47.07,56.49,47.38,57.06,47.77,57.12Z"/><path class="cls-85" d="M120,141.79a21.5,21.5,0,0,1-6-2.67l.2-.21a3.45,3.45,0,0,0,1.45.54,4.1,4.1,0,0,1,1.8.75,19.85,19.85,0,0,0,2.7,1.42C120.17,141.77,120.14,141.85,120,141.79Z"/><path class="cls-86" d="M40.14,48.73c-.49-.12-1.18-.3-1.4,0s.17,1,.47,1.4a6.56,6.56,0,0,0,3.07,2.24,2.41,2.41,0,0,1,1.24.9H43.1c-.72-.39-1.44-.77-2.16-1.18a6.27,6.27,0,0,1-2.32-2.17,2.57,2.57,0,0,1-.33-1.25A1.81,1.81,0,0,1,40.14,48.73Z"/><path class="cls-87" d="M40.49,53.34c.23-.05.48.07.76-.12-2-.85-3.85-1.82-4.6-4l.36-.35a1.68,1.68,0,0,0,.57,1.54,9.45,9.45,0,0,0,3.84,2.47l.59.28C41.53,53.35,41.06,53.75,40.49,53.34Z"/><path class="cls-88" d="M12.28,102.78c.32.34.84,0,1.16.31a1.86,1.86,0,0,1-.65.06c-2.25-.6-4.21.42-6.22,1.11l-.93.33-.19-.18c1.3-.52,2.6-1,3.91-1.54A5,5,0,0,1,12.28,102.78Z"/><path class="cls-89" d="M40.9,45.67a1,1,0,0,1,.41,1.21c-.17.41-.61.41-1,.43a4.5,4.5,0,0,1-.82,0c-.38-.06-.4-.36-.3-.63s.11-.57.55-.36S40.72,46.34,40.9,45.67Z"/><path class="cls-90" d="M101.55,93.81c.12.33.21.68.36,1s.1.51-.22.63c-1,0-1.41-.69-1.27-2.1Z"/><path class="cls-91" d="M18.56,126c.17-.28.36-.55.51-.84A1.92,1.92,0,0,1,21,124c1.6.1,3.16.58,4.79.58a1.32,1.32,0,0,1-1.15.16c-1-.13-2.08-.23-3.12-.41A2.17,2.17,0,0,0,19,125.84l-.26.51C18.73,126.2,18.73,126,18.56,126Z"/><path class="cls-86" d="M43.65,53.35c.13,0,.33,0,.38-.06s-.1-.28-.22-.35c-.76-.49-1.55-1-2.31-1.45a2.65,2.65,0,0,1-1.39-2.13l.21,0a3.68,3.68,0,0,0,2.31,2.48,4.6,4.6,0,0,1,1.85,1.32C44.25,53.36,44,53.71,43.65,53.35Z"/><path class="cls-92" d="M6.45,107.43a15.52,15.52,0,0,1,5.9,1.73c-2.26-.63-4.44-1.65-6.87-1.41C5.73,107.42,6.19,107.74,6.45,107.43Z"/><path class="cls-93" d="M109.82,78.45a2,2,0,0,0-.52-2.34.84.84,0,0,1-.26-1C110.51,75.86,110.93,77.35,109.82,78.45Z"/><path class="cls-94" d="M113.17,138.79a14.11,14.11,0,0,1-2.83-1.48,3,3,0,0,1,2.91,1.26C113.27,138.63,113.2,138.72,113.17,138.79Z"/><path class="cls-95" d="M136.26,147.56a37.91,37.91,0,0,1,5,3.32l-5.23-3.1Z"/><path class="cls-96" d="M104.56,91.14a1.86,1.86,0,0,0-1.94.08,5.92,5.92,0,0,1-2.85,1c0-.19-.1-.4.12-.54.51.4,1,.08,1.45-.1s1-.53,1.47-.74a1.67,1.67,0,0,1,1.93.15Z"/><path class="cls-97" d="M18.08,119.37a8.41,8.41,0,0,1,4,.57c-1.61-.21-3.23-.22-4.85-.27C17.46,119.38,17.88,119.67,18.08,119.37Z"/><path class="cls-98" d="M7.81,114.2c.47,0,.87-.13,1-.67,0-.2.19-.15.3-.19a2.55,2.55,0,0,1,2,.26,5,5,0,0,0-2.94.94C8.05,114.4,7.79,114.42,7.81,114.2Z"/><path class="cls-99" d="M25.38,129.48a12.63,12.63,0,0,0-2.49,2c-.13.18-.51.36-.15.67-.26.31-.26.31-.51-.18a4.54,4.54,0,0,1,3.16-2.48Z"/><path class="cls-100" d="M30.37,131.8a9.69,9.69,0,0,0-3.35-.35l-.3-.14a3.5,3.5,0,0,1,2.51,0,11.55,11.55,0,0,1,1.65.36C30.77,131.84,30.53,131.7,30.37,131.8Z"/><path class="cls-101" d="M109,76.3a1.57,1.57,0,0,1,.59,1.86c-.06.16-.11.36-.29.36s-.2-.22-.21-.37C109,77.53,109,76.92,109,76.3Z"/><path class="cls-102" d="M41.72,46.86c.1-.77,0-1.39-.71-1.69a.24.24,0,0,1-.1-.4c.12-.15.29-.11.45-.05A1.4,1.4,0,0,1,41.72,46.86Z"/><path class="cls-103" d="M37.32,45.72c.17.09.58,0,.47.38s-.24.69-.69.51c-.23-.09-.61,0-.65-.38S36.92,45.67,37.32,45.72Z"/><path class="cls-104" d="M40.48,150.38a4.44,4.44,0,0,0-2.63,2.19l-.14-.33c.74-.89,1.35-2,2.78-1.85Z"/><path class="cls-105" d="M52.61,55c-.4-.3.14-.31.15-.48a5.92,5.92,0,0,1,2.5.8C54.2,55.31,53.45,54.74,52.61,55Z"/><path class="cls-106" d="M47,67.41a17.43,17.43,0,0,0,1.23-2.67,5.28,5.28,0,0,1-1,2.89Z"/><path class="cls-103" d="M38.48,46.47c-.11.19,0,.55-.37.53-.19,0-.41-.06-.4-.31s.23-.41.48-.48S38.48,46.27,38.48,46.47Z"/><path class="cls-107" d="M54.91,57.15l.2-.2a1.62,1.62,0,0,1,.65.78A1.81,1.81,0,0,1,54.91,57.15Z"/><path class="cls-4" d="M96.32,87.9C94.26,89,92,89.7,89.77,90.69c.37-.61,1-.77,1.25-1.28-.47-.13-.68.57-1.22.34a4.75,4.75,0,0,0,2-2.89c0-.09.09-.26.14-.26.78-.08,1.55-.62,2.2-.54s.81-.22,1.13-.47.57-.6.9-.85a.87.87,0,0,1,1.21,0c.27.27.73.46.43,1.11-.21.47.08,1.14-.37,1.72l-.23-.5-.61.77C96.5,88,96.4,87.88,96.32,87.9Z"/><path class="cls-108" d="M105.39,67.68a1.81,1.81,0,0,0-1.73-1.07c-.7.06-1.4.22-2.17.35A2.4,2.4,0,0,1,105.39,67.68Z"/><path class="cls-109" d="M97.25,90.34c-.08.27-.47.46-.17.81l-1,1.62c-.15-.64.35-1,.46-1.65l-.84.7A2,2,0,0,1,97.25,90.34Z"/><path class="cls-110" d="M86.35,92.89a10.29,10.29,0,0,0-2.1,3.41A4.35,4.35,0,0,1,86.35,92.89Z"/><path class="cls-5" d="M104.7,79.71a2.84,2.84,0,0,1,1.4.57,2.9,2.9,0,0,1-1.39-.58Z"/><path class="cls-22" d="M93.61,69.78c-.37-1,.06-1.3,1-1.53,1.23-.29,1.2-.39,1.41.92.16,1,.27,1,1.09.55,2.4-1.45,6.42.45,6.72,3.22a10.6,10.6,0,0,1-.45,3.09c-.31.33-.72.25-1.09.23a12.83,12.83,0,0,0-4,.48,1.16,1.16,0,0,1-1.51-.58c-.4-.67-.49-.64-.92,0a12.29,12.29,0,0,1-.72,1.2c-.32.4-.67.44-.91,0a1.56,1.56,0,0,0-1.66-.8,6.5,6.5,0,0,1-2.35-.37,1.94,1.94,0,0,1-1.41-2.32c.8-1.12,2.09-1.44,3.27-1.91a1.71,1.71,0,0,0,1-.86,3.27,3.27,0,0,1,1.79-1.71,1.86,1.86,0,0,0-1.3.34Z"/><path class="cls-23" d="M96.93,82.53a2.66,2.66,0,0,0-.77,1.06c-.76,1.79-2.34,2.23-4,2.41A6.36,6.36,0,0,1,87,84.38c-.11-.11-.28-.07-.35-.13-.42-.33-.88-.66-.44-1.31a1.58,1.58,0,0,0,.36-.81c-.23-.16-.29.21-.52.13a4.15,4.15,0,0,1,1.31-2.05.79.79,0,0,1,.92-.13,2.27,2.27,0,0,0,1.21.1c.31-.19.52,0,.74.2a5.54,5.54,0,0,0,5.41.71l.46-.2a1,1,0,0,1,1.46.3C97.84,81.79,97.46,82.23,96.93,82.53Z"/><path class="cls-111" d="M101.73,79c.62.26,1.38-.06,2,.55a1.72,1.72,0,0,1,.4.49A5,5,0,0,1,104,83.6c-.08-.33-.14-.62-.22-.9s-.17-.58-.31-1.06A16.51,16.51,0,0,1,102,85.4a6.8,6.8,0,0,1,0-1.56L100.88,87c-.36,0-.3-.27-.24-.45a2.36,2.36,0,0,0,.09-.73c-.06.41,0,1-.48,1.36.07-1.43-.84-2.32-2-3.27h1.1c-1-.75-1.87-.09-2.87.13.1-.54.52-.82.65-1.25.37-1,1.17-1.79,1.55-2.8.12-.31.5-.27.81-.26A9.64,9.64,0,0,1,103,80.82a9.82,9.82,0,0,0-3.45-1.14A1.23,1.23,0,0,1,99,79.5c-.22-.13-.46-.29-.39-.57s.34-.26.56-.26A7.08,7.08,0,0,1,101.73,79Z"/><path class="cls-4" d="M89.3,68.76c-.57.29-.57.94-1.11,1.13.26-3,1.24-4,5-6.14-.21-.2-.46-.11-.69-.13a.68.68,0,0,1-.59-.3c.79,0,1.55,0,2.3,0,.93.08,1.21.41,1.19,1.32a14.42,14.42,0,0,0,.24,2.77,4.12,4.12,0,0,0-3.8-.78c.23.42.65.18,1,.35-.5.57-.67,1.37-1.38,1.79-.26.15-.23.47-.26.75a3.59,3.59,0,0,1-2.48,2.62.37.37,0,0,1-.46-.35c0-.43-.74-.8-.17-1.31A4,4,0,0,0,89.3,68.76Z"/><path class="cls-112" d="M101.73,79c-.83-.06-1.65-.13-2.48-.17-.18,0-.49-.2-.52.15s.23.31.47.37a13.86,13.86,0,0,1,3.45,1.09,3.17,3.17,0,0,1,1.11.82L102,80.57c-.31-.13-.61-.27-.92-.38-1.78-.65-2-.63-2.82,1-.31.61-.84,1-1.15,1.57l-.18-.22c.09-.14.18-.27.26-.41.17-.3.51-.6.13-.93A.89.89,0,0,0,96.2,81a5.7,5.7,0,0,1-5.73-.18c-.36-.2-.6-.58-1-.67L89,79.89c.54-.52.23-1.12.17-1.7V78a2.64,2.64,0,0,0-.83-3.26l.51-.85a2.29,2.29,0,0,0,2,2.3,10.55,10.55,0,0,0,1.48.12c1.44,0,1.44,0,2.35,1.36a11.15,11.15,0,0,0,1.19-1.87c.31-.44.6-.76.93,0s.88.93,1.75.67a14.81,14.81,0,0,1,4.84-.43c.71.38.49.9.21,1.43-.12.23-.27.1-.42.06a.64.64,0,0,1-.16-.45c0-.52-.29-.66-.76-.6-1.3.19-2.61.34-4,.64.61.07,1.11,0,1.61,0,.28,0,.64,0,.74.37a22,22,0,0,0-3.25.15c-.34-.3-.67-.09-1,0-.15.06-.34.11-.45-.06s0-.36.15-.5a1.65,1.65,0,0,1,.27-.19c.19-.11.43-.19.32-.49a.28.28,0,0,0-.24-.2c-.28,0-.36.21-.47.39s-.27.55-.42.81a3.13,3.13,0,0,1-3.45,1.69,8.16,8.16,0,0,0-1.4-.08c-.25,0-.53,0-.62.29a.68.68,0,0,0,.26.73,3.8,3.8,0,0,0,2,.85,6,6,0,0,0,2.86-.18c.4-.13.92-.11.91-.76,0-.21.22-.2.39-.15a1.32,1.32,0,0,0,.81,0c.32-.09.49,0,.37.38-.06.18-.21.38.06.49s.29-.11.36-.26.22-.47-.06-.66a1.08,1.08,0,0,0-.32-.09c-.24,0-.56-.1-.55-.39s.41-.26.64-.34c-.67-.37-.67-.37,0-.95l.38-.15a1.94,1.94,0,0,0,1.37.41,11.64,11.64,0,0,1,2,.19c.23,0,.5.05.58.35Z"/><path class="cls-30" d="M97.74,78c.34.54-.37.28-.42.59.3.21.86-.09,1,.49-.37.3-.84-.15-1.22.13.18.37.52.29.8.32s.53-.06.5.34a1.64,1.64,0,0,1-.62,1.22c-.27.19-.38-.23-.54-.39-.39-.4.27-.42.27-.77-.45.12-.91.51-1.37-.1.36.56.14.76-.34.92a5.91,5.91,0,0,1-5.55-.44.92.92,0,0,1-.52-.78c0-.48.09-.82.69-.74s1.11.07,1.66.12a2.92,2.92,0,0,0,3.4-1.87c.12-.23.2-.46.33-.68s.2-.6.54-.53.52.47.64.81-.14.31-.32.38-.65.12-.82.48a1.14,1.14,0,0,0,1-.2c.42-.22.47,0,.52.34-.27,0-.58,0-.88.3C96.94,78.19,97.36,77.91,97.74,78Z"/><path class="cls-113" d="M100.6,77.53a13.48,13.48,0,0,0-2.37-.1c-.23,0-.58.11-.6-.24s.3-.25.51-.3a38.72,38.72,0,0,1,4.14-.65c1-.1,1-.06.92,1l0,.33C102.31,77.73,101.46,77.37,100.6,77.53Z"/><path class="cls-114" d="M89.12,78.19c.62.8.56,1.42-.17,1.7-1.08-.1-1.3-.82-1.36-1.75a4.21,4.21,0,0,1,.3-2.79A8.92,8.92,0,0,0,89.12,78.19Z"/><path class="cls-115" d="M84.42,74.53c-.46,0-.67.32-1,.45a1.36,1.36,0,0,1,1.69-1.13A7.06,7.06,0,0,1,86,74c.29.09.87-.09.74.49s-.23,1-1,.87a8.16,8.16,0,0,0-1,0c-.26,0-.62.14-.76-.12S84.36,74.87,84.42,74.53Z"/><path class="cls-116" d="M102.11,78.84a13.12,13.12,0,0,0-3.18-.33c-.45,0-.74-.15-.81-.62a20.61,20.61,0,0,1,4.37.1c.46.06.89.14.77.7s-.55.08-.83.16A.87.87,0,0,1,102.11,78.84Z"/><path class="cls-117" d="M88.3,74.75A1.79,1.79,0,0,1,89.46,77c-.1.32.21.79-.33,1a2.55,2.55,0,0,0-.68-2.09C88.11,75.62,88.4,75.14,88.3,74.75Z"/><path class="cls-118" d="M93.15,68.21c-.44,0-.59,0-.51-.29a1.69,1.69,0,0,1,2-.78c.14.09.32.16.33.34s-.19.26-.33.31Z"/><path class="cls-119" d="M85.07,73.29c.67-.26,1.05-1,1.88-.58a.5.5,0,0,1,.25.74c-.13.33-.26.51-.66.34A6.24,6.24,0,0,1,85.07,73.29Z"/><path class="cls-120" d="M88,72.73c-.53-.08-1.21.09-1.09-.88a.82.82,0,0,1,.6-.67c.28-.11.37.24.5.43a.87.87,0,0,1,0,1.13Z"/><path class="cls-121" d="M93.59,69.76l-.16.32c-.5.23-.65-.18-.86-.48-.62-.11-.9.19-1,.77a1.08,1.08,0,0,1-.48.95,16.8,16.8,0,0,1,.7-2.11c.25-.5.73-.4,1.13-.11a9.2,9.2,0,0,1,.72.68Z"/><path class="cls-122" d="M88.79,73.08c0-.5,1.18-1.55,1.65-1.45a.52.52,0,0,1,.31.24c.1.15,0,.25-.15.31a5.79,5.79,0,0,1-1.82.88Z"/><path class="cls-123" d="M100.25,87.14a6.58,6.58,0,0,0,.36-2.24c.45.29.28.69.32,1s-.29.67-.05,1c0,.29-.09.49-.39.51S100.22,87.32,100.25,87.14Z"/><path class="cls-124" d="M88,74.64c-.28.35-.44.87-1,.57-.26-.14-.07-.35,0-.49C87.25,74.08,87.65,74.6,88,74.64Z"/><path class="cls-125" d="M92.76,71c0,.49-.25.57-.57.61s-.46.23-.55-.09.23-.24.41-.29S92.49,71.1,92.76,71Z"/><path class="cls-126" d="M88.11,73.55c.06.23.34.52-.08.66-.2.07-.51,0-.53-.22,0-.41.32-.42.62-.43Z"/><path class="cls-126" d="M88.78,73.06c0,.41-.22.64-.67.49h0c.17-.32-.23-.53-.16-.83h0a.87.87,0,0,1,.84.34Z"/><path class="cls-127" d="M92.57,69.6c.37,0,.47.51.86.48-.14.25-.29.49-.62.25S92.34,69.94,92.57,69.6Z"/><path class="cls-22" d="M28.56,10l.62,2.15c.21,1.54.59,3,.92,4.55a4.24,4.24,0,0,1-.24,2.91,2.32,2.32,0,0,1-1.93,0,6.33,6.33,0,0,1-3.7-2.32,1.75,1.75,0,0,1,.82-1c.41-.1.86-.13,1.1-.54-.15.16-.28.42-.6.23-1-.53-1.06-.88-.38-1.94-1.32.11-1.86-.93-1.62-3.33A2.7,2.7,0,0,0,23,13.06a.78.78,0,0,1-.74-.14c-.45-.25-.76-.46-.17-1s1.21-.9,1.25-1.75l0,0c.46-.66.46-.66,1.36-.79S26,8.64,26.37,8c.21-.43.38-.44.7-.13A6.73,6.73,0,0,1,28.56,10Z"/><path class="cls-128" d="M12.79,2c-.4.84-.79,1.56-1.11,2.32-.22.54-.46.45-.83.14A1.44,1.44,0,0,1,10.33,3c.12-.56.55-.77,1.09-.86A4.59,4.59,0,0,1,12.79,2Z"/><path class="cls-53" d="M12,10.34A2.2,2.2,0,0,1,12.24,8h.18l-.09.32c.64.1.95,1,1.77.71a1.59,1.59,0,0,1,1.36.11c.42.29.46-.23.8-.42a3.49,3.49,0,0,0,.29,2.34c.14.38.33.79-.13,1.11a10,10,0,0,0-.57-2.52c-1.36.55-2.72,1.25-3.78-.48A2.37,2.37,0,0,0,12,10.34Z"/><path class="cls-129" d="M23.06,9.34c-.5-.46.21-.73.17-1.17-.07-.83.14-1.71-.85-2.27A4.23,4.23,0,0,0,25,6.52c0,.31-.14.3-.27.33-.39.09-1-.23-1.12.23a2.12,2.12,0,0,0-.05,1.76C23.26,8.88,23.63,9.58,23.06,9.34Z"/><path class="cls-130" d="M18.86.86c-.79.65-2,.61-2.54,1.87C16.54,1,17.58.32,18.86.86Z"/><path class="cls-123" d="M21.74,2a2.72,2.72,0,0,0-1.93.76c-.19.18-.44.4-.73.25s0-.43,0-.64c-.06-.46-.36-1,.34-1.19l.2.2c0,.64.29.78.81.44.16-.11.35-.17.5-.28C21.09,1.87,21.49,1.8,21.74,2Z"/><path class="cls-131" d="M13.43,4l.14,1.06c-.4,0-.38-.54-.73-.59s-.49.32-.77.41c.24-1.34.4-1.44,1.38-.87Z"/><path class="cls-132" d="M20.91,1.54c-.15.54-.72.51-1.08.76s-.19-.16-.3-.25c-.32-.27-.13-.46.07-.67A2,2,0,0,1,20.91,1.54Z"/><path class="cls-133" d="M12.14,6c-.07-.52,0-.85.46-.94.56-.13.62.39.9.68-.32.22-.5-.08-.73-.06A.9.9,0,0,0,12.14,6Z"/><path class="cls-134" d="M12.45,7.4c-.39-.07-.56-.37-.75-.66a1.29,1.29,0,0,1,0-1.09,2.56,2.56,0,0,0,.89,1.43C12.81,7.22,12.64,7.35,12.45,7.4Z"/><path class="cls-135" d="M15.78,1.22a4,4,0,0,1-.52.49c-.37.27-.52.09-.53-.31C15.1,1.47,15.29.49,15.78,1.22Z"/><path class="cls-7" d="M24.76,9.35a2.11,2.11,0,0,0-1.36.79C23.49,9.26,24.1,9.26,24.76,9.35Z"/><path class="cls-136" d="M26.18,21.25A1.78,1.78,0,0,1,24.49,21c-.17-.14-.35-.32-.3-.55s.32-.08.49-.13l.54-.16a2.15,2.15,0,0,1,.34-.56c.59-.81,1.3-.73,1.79.22a.93.93,0,0,1,0,.23C27,20.52,26.85,21.1,26.18,21.25Z"/><path class="cls-136" d="M24.22,19.82c-1.12-.53-1.16-.79-.3-2.14.23-.26.44-.12.63,0s.59.39.85.64.65.28.48.73-.43.83-1,.78A1.77,1.77,0,0,1,24.22,19.82Z"/><path class="cls-137" d="M24.22,19.82a6.26,6.26,0,0,0,.75,0c.44-.06.64-.42.79-.77s-.26-.45-.45-.57c-.45-.28-.75-.84-1.39-.78l.31-.38A8.72,8.72,0,0,0,29,19.6c.3,0,.6,0,.9,0l-.32.34a1.5,1.5,0,0,0-1,1.16c-.16.25-.32,0-.48,0a.3.3,0,0,1-.1-.36c.3-.78-.18-.83-.75-.79.07-.64-.5-.66-.86-.82s-.4.32-.59.5-.25.44-.54.47C25,19.78,24.49,20.14,24.22,19.82Z"/><path class="cls-114" d="M27.21,20c.27-.48.68-.24,1-.12s.06.43,0,.64-.12.42-.17.63a1.76,1.76,0,0,1-1.65.73c-.12,0-.31,0-.26-.18s.16-.14.24-.21A7.92,7.92,0,0,0,27.22,20Z"/><path class="cls-134" d="M28.54,21.12c-.12-.88.14-1.19,1-1.16C29.42,20.53,28.88,20.74,28.54,21.12Z"/><path class="cls-137" d="M27.22,20a1.81,1.81,0,0,1-.83,1.51l-.21-.21C26.68,20.94,26.87,20.38,27.22,20Z"/><path class="cls-138" d="M25.55,16c.48,0,.52-.61,1-.81a1.24,1.24,0,0,1-1.48,1.12Z"/><path class="cls-139" d="M4.07,10.75a2.19,2.19,0,0,1-1.24,2.59c-.3.07-.58,0-.68-.28s.15-.48.4-.63C3.74,11.76,3.75,11.74,4.07,10.75Z"/><path class="cls-140" d="M16.78,8.39a5.35,5.35,0,0,1,.34-2.82,3,3,0,0,1,1.95-1.65c.78-.28,1.13.05,1.51,1.28-.33.1-.49-.17-.71-.32A1.24,1.24,0,0,0,18.15,5a3.54,3.54,0,0,0-1,2.39,8.91,8.91,0,0,1,.39-1.17c.5-1.15,1.38-1.3,2.25-.38a4.88,4.88,0,0,0,.77.92c.3-.55-.32-1.09.06-1.58,1.1,1.86.92,2.37-1,3.25a2.77,2.77,0,0,1-2.76,0,1.54,1.54,0,0,1,.81-.15,3,3,0,0,0,2.18-.47C19.07,8.58,17.86,8.17,16.78,8.39Z"/><path class="cls-141" d="M16.78,8.39A1.12,1.12,0,0,1,18,8.13a1.39,1.39,0,0,0,1.25-.24c.38-.22.73-.6,1.36-.46-1.11,1.19-2.45,1.13-3.8,1Z"/><path class="cls-142" d="M17.54,2.69c.28,0,.48.13.42.39a1.15,1.15,0,0,1-.89,1c-.23,0-.36-.12-.34-.35A1.1,1.1,0,0,1,17.54,2.69Z"/><path class="cls-143" d="M6.28,6.08a.77.77,0,0,1,.06,1.19c-.39.46-.79.94-1.48.91a.6.6,0,0,1-.57-.51,1.17,1.17,0,0,1,.27-1.15c.22.08.2.18.18.29,0,.27-.46.55-.09.8a.94.94,0,0,0,1.08-.1A1.24,1.24,0,0,0,6.28,6.08Z"/><path class="cls-144" d="M5.85,9c-.85-.37-1.54-.44-2.09.3,0-.55,0-.65.45-.8A1.22,1.22,0,0,1,5.85,9Z"/><path class="cls-1" d="M11.62,13.49a2.6,2.6,0,0,1-2,1.09l2-1.09Z"/><path class="cls-145" d="M134.4,151.92a34.17,34.17,0,0,0-3.64-2.16,7.34,7.34,0,0,1-1.95-1.52c-.13-.14-.26-.32-.43-.37-1.93-.59-3.28-2.24-5.22-2.81-.28-.41-.59-.77-1.17-.53a3.93,3.93,0,0,0-2.15-.67,10.62,10.62,0,0,1-5.29-2.4,19,19,0,0,0-5.29-3.05,2.28,2.28,0,0,1-.69-.45,58.32,58.32,0,0,0-10.92-6.73,13.22,13.22,0,0,0-2.9-.59c-.14,0-.89.26-.42-.44-.11-.07-.22-.16-.34-.23l-4.67-2.69c-.16-.09-.36-.25-.52-.23-1.06.13-1.59-.61-2.18-1.26A6.79,6.79,0,0,0,83,123.34a3.41,3.41,0,0,1-1-.45A19.47,19.47,0,0,0,76.14,121a5,5,0,0,1-2.53-1,1.25,1.25,0,0,0-.61-.22,14.4,14.4,0,0,1-5.8-2.33A30.27,30.27,0,0,0,60.06,114c.62.34,1.24.7,1.86,1s1.33.67,2,1c2.09,1.07,4,2.39,6,3.59C73.82,122,77.22,125,81.26,127c.42.21.85.4,1.27.59,0,.13-.13.14-.21.19-2.77-1-5-2.83-7.33-4.46A115.66,115.66,0,0,0,55.7,112.28a1,1,0,0,1-.63-.5c1.42.48,2.73.88,4,1.35a43.82,43.82,0,0,1,8.63,4.19,11.28,11.28,0,0,0,3.54,1.54c.4.09.8.23,1.19.34,1,.29,1.78,1.33,2.75,1.38a19.23,19.23,0,0,1,3,.55c2.42.49,4.49,1.81,6.71,2.78A9.37,9.37,0,0,1,87.22,126a2.23,2.23,0,0,0,1.35.73,3.39,3.39,0,0,1,1.3.52,35.42,35.42,0,0,0,6,3.12c4.81,1.55,8.9,4.35,12.91,7.32a5.85,5.85,0,0,0,1.36.76,16.87,16.87,0,0,1,4.58,2.64,9.85,9.85,0,0,0,6,2.46,5.57,5.57,0,0,1,3,1.1,36.41,36.41,0,0,1,3,2.08c.13.1.26.27.4.28,1.48.18,2.33,1.3,3.32,2.2s2.42,1.07,3.38,2a6.26,6.26,0,0,0,.74.53C134.6,151.89,134.56,152,134.4,151.92Z"/><path class="cls-146" d="M82.32,127.81l.21-.19A3.71,3.71,0,0,1,84.42,129l-.65.08s0,.08.08.09c1.08.41,2.19.77,3.25,1.22a13.48,13.48,0,0,1,4,2.6A7.61,7.61,0,0,0,94,134.78a25.56,25.56,0,0,1,8.25,5,20.88,20.88,0,0,0,6.15,3.35.17.17,0,0,1,0,.22c-.45.28-.85,0-1.26-.15a6.38,6.38,0,0,1-1.69-1,7.68,7.68,0,0,0,2.51,1.25c.69.21,1.48.27,1.92,1a6.49,6.49,0,0,0,3.12,1.35c3.67.9,6.83,2.89,9.94,4.94l1.24.81c0,.16,0,.23-.18.18a2.7,2.7,0,0,1-1.44-.76,32,32,0,0,0-8.53-4.52,28.13,28.13,0,0,1-3-.89c-3.36-1.7-6.85-3.15-9.62-5.85a18.09,18.09,0,0,0-6-3.89,24.91,24.91,0,0,1-6.16-3.7,12,12,0,0,0-3.41-1.83c-1.66-.6-3.39-1-5-1.77a2.61,2.61,0,0,1-1.13-.68c1.31.19,2.46.69,3.77.77C83.12,128.16,82.64,128.09,82.32,127.81Z"/><path class="cls-147" d="M119.7,175.8c-4.26-1.9-8.83-3.25-12.28-6.4.54-.07.55-.08,1.13.43,2.06,1.79,4.58,2.71,7.11,3.68-.45-.45-.88-.92-1.36-1.33a42.16,42.16,0,0,1-4.17-4.49,7.56,7.56,0,0,1-1.14-1.92c-.24-.53,0-.71.42-.8a47.62,47.62,0,0,1,6.11-1.06,37.41,37.41,0,0,1,11.65.77,33.51,33.51,0,0,1,4.61,1.83A3.21,3.21,0,0,1,133,167.8c-3-2.28-6.51-3-10.1-3.46-.76-.11-1.53-.19-2.3-.28a3.13,3.13,0,0,0-1.63.13,3,3,0,0,1-1.63.13,18.65,18.65,0,0,0-5.91.56c-.6.1-1.18.29-1.78.4s-.66.31-.31.76c2.92,3.74,5.89,7.42,10.23,9.64C119.64,175.71,119.66,175.76,119.7,175.8Z"/><path class="cls-148" d="M125.45,195.89l-.22.18a13.36,13.36,0,0,1-3.77-2.49c-1.17-1-2.29-2-3.44-3a15,15,0,0,0-5.48-3.28c.64-.24,1,.26,1.7.23-1.32-1.06-2.28-2.28-3.95-2.51a3.7,3.7,0,0,1-1.79-1.14,35.42,35.42,0,0,0-3-2.65c-.34-.11-.88,0-.79-.65a8.75,8.75,0,0,1-1.37-3.43,5.25,5.25,0,0,0-1.68-2.76c-1.84-1.73-3.91-3.17-5.7-4.95a1.56,1.56,0,0,1-.58-.89l4.18,3.48c.68.56,1.31,1.19,2,1.69a5.09,5.09,0,0,1,2,3.06c.22.77.49,1.53.74,2.29a3.2,3.2,0,0,0,1.24,1.72,18.17,18.17,0,0,1,2.76,2.49,4.84,4.84,0,0,0,2.5,1.37,2.42,2.42,0,0,1,.94.49c3.8,2.72,7.26,5.86,10.87,8.8C123.53,194.68,124.51,195.25,125.45,195.89Z"/><path class="cls-149" d="M108.36,143.26v-.17c.13,0,.31,0,.39.06,1.21,1.09,2.71,1.15,4.2,1.22a5.22,5.22,0,0,1,3.87,1.55,11,11,0,0,0,3.63,2.11,15.86,15.86,0,0,1,4,2.33.87.87,0,0,0,.59.24,9.85,9.85,0,0,1,6.39,2.6,104.3,104.3,0,0,0,9.27,7.23,7.07,7.07,0,0,1,1.92,1.82,1.92,1.92,0,0,0,.94.62,7.11,7.11,0,0,1,2,1.54c-.45.11-.66-.22-.93-.36a32.16,32.16,0,0,1-4.82-3.73c-2.9-2.3-5.93-4.43-8.68-6.92a10,10,0,0,0-6-2.48,1.92,1.92,0,0,1-1-.39,33.46,33.46,0,0,0-5.49-3.06,10.85,10.85,0,0,1-2.32-1.59,4,4,0,0,0-2.72-.95,9.78,9.78,0,0,1-3.54-.69C109.42,144,108.7,144,108.36,143.26Z"/><path class="cls-150" d="M47.12,114.38A22.12,22.12,0,0,1,50.89,116c2.32,1.11,4.47,2.53,6.72,3.75a.65.65,0,0,1,.42.49,36.65,36.65,0,0,0-4-2c-3.57-1.67-7.13-3.36-10.81-4.77a22.65,22.65,0,0,0-5.92-1.09,2.32,2.32,0,0,1-1-.15.42.42,0,0,1,.22-.28,13.85,13.85,0,0,1,2.61.15,17.44,17.44,0,0,1-5.51-2.87c-1.25-.88-2.49-1.74-3.71-2.66a2.6,2.6,0,0,1-1.08-1.21l0-.11a5.35,5.35,0,0,1,1.56,1A58.39,58.39,0,0,0,38,111.13a22.83,22.83,0,0,0,3.56,1.07c1.63.54,3.25,1.09,4.83,1.75.27.12.58.17.77.44-.38.31-.66-.08-1-.15s-.83-.37-1.22-.45a44.73,44.73,0,0,1,4.67,2c-.51-.4-1.3-.52-1.94-.93C47.46,114.75,47.09,114.78,47.12,114.38Z"/><path class="cls-147" d="M104.37,181.25a1.1,1.1,0,0,1-.87.55c-1.75.21-3.39,1-5.2.94a3.4,3.4,0,0,0-1.81.53,3.55,3.55,0,0,1-2.06.33c.53-.17,1.07-.25,1.58-.47s.58-.58.22-1A5,5,0,0,0,94.84,181c-1.72-1-3.42-1.93-5.16-2.83a4,4,0,0,0-2.9-.67c-.27.07-.4-.14-.54-.3-1.88-2.15-4.19-3.86-6.18-5.87-1.56-1.58-3.14-3.12-4.79-4.6-1.34-1.19-2.73-2.33-4-3.62-.19-.2-.46-.32-.6-.57a1.69,1.69,0,0,1,1.36.69,33,33,0,0,0,3.82,3.66c3.52,3.19,7,6.43,10.34,9.8a1.15,1.15,0,0,0,.92.44,6.32,6.32,0,0,1,3.37,1c1.39.79,2.77,1.61,4.16,2.4A5.93,5.93,0,0,1,96.4,182a2.42,2.42,0,0,0,2.52.56c1.84-.35,3.61-1,5.47-1.25Z"/><path class="cls-151" d="M15.77,115.24a6.27,6.27,0,0,1,3,1.27c1.25.81,2.49,1.65,3.74,2.46a4.29,4.29,0,0,0,1.69.61,13.26,13.26,0,0,1,3.58,1.67,7.38,7.38,0,0,0,2.52,1.18,2,2,0,0,0,1.19-.09c.37-.18.83-.43,1.17-.27,1.7.77,3.66.69,5.25,1.74,1.79,1.19,3.48,2.56,5.64,3.08a1.43,1.43,0,0,1,.87.76c-1-.8-2.41-.73-3.51-1.45a21.6,21.6,0,0,0-8.12-2.7,11.64,11.64,0,0,1-4.61-1.66,10.87,10.87,0,0,0-5.14-2.15,1.79,1.79,0,0,1-.8-.43A37.1,37.1,0,0,0,17,116c-.35-.16-.71-.29-1.07-.44C15.81,115.46,15.72,115.39,15.77,115.24Z"/><path class="cls-152" d="M81.16,156.53A22,22,0,0,0,91,160.31a8.45,8.45,0,0,1,4.65,2.32,18.05,18.05,0,0,0,3.25,2.94c1.69,1,3.23,2.21,5.14,2.77a5.88,5.88,0,0,1,1.42.66,1,1,0,0,1-1.2-.16,1.7,1.7,0,0,0-.81-.39,3.58,3.58,0,0,1-2.46-1.36.67.67,0,0,0-.41-.26c-1.77-.37-2.81-1.78-4.08-2.86-.73-.62-1.35-1.4-2.14-1.95a12,12,0,0,0-4.09-1.45c-2.14-.54-4.29-1-6.37-1.8A8.48,8.48,0,0,1,81,156.68C81,156.54,81,156.47,81.16,156.53Z"/><path class="cls-152" d="M124,151.72l.18-.18a2.1,2.1,0,0,0,1.46.56,13,13,0,0,1,7.07,3.37,53.85,53.85,0,0,1,5.17,4.51,40.7,40.7,0,0,0,5.37,4.42q1,.79,2,1.68a8.17,8.17,0,0,1-2.53-1.45,83.83,83.83,0,0,1-7-6.19,26.93,26.93,0,0,0-7.45-5.18,13.72,13.72,0,0,0-3.08-.94A1.9,1.9,0,0,1,124,151.72Z"/><path class="cls-148" d="M51.76,134l-1.14-.75a8.68,8.68,0,0,1,2.88.69,1,1,0,0,0,.79.12,5,5,0,0,1,3.39.25,11,11,0,0,0,3,.81,1.46,1.46,0,0,1,.6.24,43.56,43.56,0,0,1,5,3.63c-.08.05-.14.1-.16.09a40.58,40.58,0,0,0-5.63-2.31.16.16,0,0,1,0-.22c.74-.21,1.38.24,2,.27a5.59,5.59,0,0,0-2.87-1.17,7.8,7.8,0,0,1-2-.72,4.85,4.85,0,0,0-3-.33c-1,.2-1.76-.35-2.62-.58A.83.83,0,0,0,51.76,134Z"/><path class="cls-88" d="M14.28,103.08a8.2,8.2,0,0,1,2.47-.14c.35,0,.71,0,1.06,0a6.91,6.91,0,0,1,4,.76c1.46.79,3,1.52,4.45,2.22.62.29,1.1.65.89,1.46-.09.33.16.49.39.65,1.39,1,2.74,2,4.17,2.86.33.2.71.35.85.76l0,.12a3.73,3.73,0,0,1-1.81-.92c-1.35-.87-2.65-1.81-3.95-2.74-.33-.23-.9-.47-.17-.94.23-.14,0-.28-.09-.37a6.25,6.25,0,0,0-.77-.49c-1.35-.69-2.71-1.34-4-2.07a11.66,11.66,0,0,0-4.6-.91Z"/><path class="cls-82" d="M90.13,187.2c.16-.18.36-.47.67-.48,1.71-.06,3.11-1.07,4.72-1.43a23.65,23.65,0,0,1,9.28-.73,17.88,17.88,0,0,1,6.19,2.28,8.85,8.85,0,0,1-.91-.31,20.42,20.42,0,0,0-14.49-.89C93.76,186.18,92,187.08,90.13,187.2Z"/><path class="cls-153" d="M50,136.26c1.47.68,3.11.72,4.64,1.19a55.57,55.57,0,0,1,6,2c2,.89,3.87,2.1,5.79,3.19,1.63.92,3.25,1.86,4.91,2.81-.3.2-.47,0-.64-.11-2.82-1.52-5.62-3.06-8.38-4.69a32.3,32.3,0,0,0-9.09-3.22,10,10,0,0,1-3.47-1C49.77,136.28,49.81,136.19,50,136.26Z"/><path class="cls-154" d="M89.3,151.73c-.5.22-.68.05-.82-.1-2-2-4.52-3-6.92-4.33a70.41,70.41,0,0,0-8-3.71,1.36,1.36,0,0,1-.83-.66C78.52,145.2,84.21,147.72,89.3,151.73Z"/><path class="cls-155" d="M81.36,158.06a46.74,46.74,0,0,0,13.2,9.85A29.62,29.62,0,0,1,81.36,158.06Z"/><path class="cls-155" d="M79.15,155.05c-.93-.82-2.09-1.29-3-2.11A27.79,27.79,0,0,0,80.64,157a12.69,12.69,0,0,1-4.52-3.46c-.42-.46-.82-1-1.28-1.41-.88-.85-1.66-1.83-3-2a2,2,0,0,1-1.1-.62,9.7,9.7,0,0,1,4.51,2.29,15.66,15.66,0,0,0,3.23,2.3c.33.15.55.53.82.81C79.35,155,79.31,155.11,79.15,155.05Z"/><path class="cls-147" d="M57.22,156.9c2.24.9,4.28,2.24,6.46,3.15a30.11,30.11,0,0,0,6.77,2.19,5.69,5.69,0,0,1-2.77-.48c-.7-.24-1.38-.58-2.08-.81-.35-.11-.71-.68-1.13-.07,0,0-.29-.1-.43-.18a15.52,15.52,0,0,0-2.73-1.08,14.67,14.67,0,0,1-3.53-1.93A7.06,7.06,0,0,1,57.22,156.9Z"/><path class="cls-104" d="M40.49,150.39a5.56,5.56,0,0,1,4.67-.4,76.23,76.23,0,0,1,8.41,3.47,5.77,5.77,0,0,1,2.12,2.1c-3.28-2.78-7.2-4.18-11.23-5.38a8.36,8.36,0,0,0-4,.2Z"/><path class="cls-156" d="M138.74,154.55c-1.45-1.34-2.7-2.87-4.62-3.68-2.21-.93-3.89-2.69-5.84-4.05-.34-.23-.64-.52-1-.84.47-.07.66.23.89.4,1.58,1.16,3.14,2.35,4.73,3.5a4.33,4.33,0,0,0,2.14,1,1.15,1.15,0,0,1,.57.31c1.93,1.87,4.11,3.44,6.12,5.21l.89.75-.13.16-1-.55c-.53,0-.74-.46-1.11-.68a1,1,0,0,1-.32-.32,5.76,5.76,0,0,0-1.27-1.14A.47.47,0,0,1,138.74,154.55Z"/><path class="cls-150" d="M93.66,183.65c-1-.64-2-1.31-3-1.93a11.53,11.53,0,0,0-4.09-1.51,5.75,5.75,0,0,1-3-1.42c-.87-.77-2-1.27-2.93-2l-.44-.39c.3-.16.41.1.57.2,1.5.94,3,1.91,4.49,2.84a6,6,0,0,0,2.47.63,3.36,3.36,0,0,1,1.24.41,29.52,29.52,0,0,1,3.91,2.31C93.18,183,93.53,183.2,93.66,183.65Z"/><path class="cls-72" d="M77.35,126.81c-4.3-.75-8-3-12.21-3.92a10.73,10.73,0,0,1,4,.84c1.32.47,2.63,1,3.94,1.51a15.77,15.77,0,0,0,2.7.79A2.09,2.09,0,0,1,77.35,126.81Z"/><path class="cls-157" d="M27.31,124.79a2.8,2.8,0,0,1,2.4,0,49.66,49.66,0,0,0,6.46,3,2.07,2.07,0,0,1,1,.8,28.94,28.94,0,0,1-5-2.08C30.64,125.76,29.2,124.67,27.31,124.79Z"/><path class="cls-71" d="M134.23,168.85l10.17,8.05C143.31,176.61,135.16,170.2,134.23,168.85Z"/><path class="cls-158" d="M28.37,143.77c.21-.82.8-.73,1.36-.5a1.8,1.8,0,0,0,1.69.17c.46-.22,1.59.58,1.57,1.07a.77.77,0,0,1-1,.69,4.43,4.43,0,0,0-1.74,0c-1.22.23-2-.47-1.85-1.47.33.29.54.71,1,.84a1.08,1.08,0,0,0,1,0,.21.21,0,0,0,.08-.29,1,1,0,0,0-.82-.48C29.19,143.74,28.78,143.92,28.37,143.77Z"/><path class="cls-159" d="M51.76,134l.24-.18a3.72,3.72,0,0,1,1,.47c2,1.32,4.26,1.37,6.48,1.7.44.06,1,0,1.13.61v.17c-1.34-.26-2.7-.45-4-.59A10.43,10.43,0,0,1,51.76,134Z"/><path class="cls-160" d="M30.37,131.8c.11-.23.34-.12.51-.17a19.57,19.57,0,0,1,7.77,3.18c0,.15,0,.23-.19.2a21.11,21.11,0,0,0-7.63-3A1.66,1.66,0,0,1,30.37,131.8Z"/><path class="cls-161" d="M41.74,144.77c-2.68-.43-5.24-1.68-8.12-.85a1.42,1.42,0,0,1,1.11-.63C37.22,143.05,39.47,144,41.74,144.77Z"/><path class="cls-153" d="M71.79,145.78c2.4,1,5.12,1.38,7.08,3.35C76.74,147.52,74,147.33,71.79,145.78Z"/><path class="cls-162" d="M15.77,115.24l.16.27a2.43,2.43,0,0,1-2-.3c-.54-.31-1.22-.62-1.82,0a2.81,2.81,0,0,0-.44,2.5c.08.19.29.33.25.58a2,2,0,0,1-.29-2.93,1.37,1.37,0,0,1,2.11-.57A3.46,3.46,0,0,0,15.77,115.24Z"/><path class="cls-163" d="M39.64,130.62c.77.36,1.54.7,2.3,1.07a24.12,24.12,0,0,1,4.39,2.79q-3.39-1.84-6.77-3.7Z"/><path class="cls-92" d="M56.54,155.16a6.2,6.2,0,0,1-2.45-2.31c-.31-.57-1-.58-1.51-.76A7,7,0,0,1,50.37,151,18.69,18.69,0,0,0,53.54,152a.23.23,0,0,1,.15.07C54.73,153,55.36,154.35,56.54,155.16Z"/><path class="cls-156" d="M120,141.79l.18-.17a16.06,16.06,0,0,1,6,3.61C124.13,144.05,122.23,142.56,120,141.79Z"/><path class="cls-164" d="M140.39,156l1.1.76c.33.65,1,.9,1.53,1.35.81.71,1.59,1.44,2.32,2.22l-.14.16-5-4.33C140.19,156.05,140.25,156,140.39,156Z"/><path class="cls-165" d="M41.62,149.33c1.66-.72,3.26-.2,4.87.15C44.85,149.84,43.26,149,41.62,149.33Z"/><path class="cls-99" d="M29.61,129.23a12.33,12.33,0,0,1,5.61,1.24C33.46,129.68,31.45,130,29.61,129.23Z"/><path class="cls-150" d="M71.47,169.51l.22-.2,4.86,3.77c0,.08,0,.11-.09.1A51.21,51.21,0,0,1,71.47,169.51Z"/><path class="cls-166" d="M108.36,143.26l1.68,1-.2.2c-1.51-.82-3.3-1.07-4.83-2.36C106.32,142.37,107.14,143.39,108.36,143.26Z"/><path class="cls-99" d="M25.39,129.49c1.18-.72,2.43-.46,3.67-.45l0,.27-3.7.17Z"/><path class="cls-164" d="M36.51,112.08l-.2.16a12.41,12.41,0,0,1-3.78-.51h0a.9.9,0,0,1,.76-.24C34.37,111.57,35.53,111.36,36.51,112.08Z"/><path class="cls-165" d="M40.66,149.53c-.92.5-2.24-.23-2.72,1.27.27-1.31.35-1.36,1.49-1.27C39.84,149.56,40.25,149.53,40.66,149.53Z"/><path class="cls-150" d="M26.23,104.07l2,.65c.29.1.58.21.68.54h0a3.88,3.88,0,0,1-2.86-1C26,104.15,26,104,26.23,104.07Z"/><path class="cls-167" d="M140.39,156l-.15.16-2.4-1.88c.44-.15.59.29.9.24h0c.5.35,1,.73,1.45,1.11Z"/><path class="cls-168" d="M60.56,122a3.73,3.73,0,0,1-2-1.3A4.38,4.38,0,0,1,60.56,122Z"/><path class="cls-169" d="M122,144.53a1.62,1.62,0,0,1-.07-.3c.44-.24.73.14,1,.3s.59.19.19.53A2.16,2.16,0,0,1,122,144.53Z"/><path class="cls-170" d="M38.46,135l.19-.2,2.13,1.48A6.93,6.93,0,0,1,38.46,135Z"/><path class="cls-165" d="M48.85,150c-.63-.17-1.33,0-1.94-.32C47.58,149.66,48.28,149.39,48.85,150Z"/><path class="cls-150" d="M76.55,173.08a6.68,6.68,0,0,1,2.14,2.06l-2.23-2Z"/><path class="cls-100" d="M79.15,155.05l.16-.16,1.85,1.64-.15.15Z"/><path class="cls-79" d="M35.34,128.66a7.32,7.32,0,0,1,2.73,1.26,13.74,13.74,0,0,1-2.72-1.27Z"/><path class="cls-171" d="M26.23,104.07l-.19.2a6.52,6.52,0,0,1-2.32-.71v-.12A3.53,3.53,0,0,1,26.23,104.07Z"/><path class="cls-163" d="M50,136.26l-.2.18-1.77-1,.08-.15Z"/><path class="cls-92" d="M58.24,156c-.61.28-1,.08-1.31-.47C57.41,155.74,57.86,155.56,58.24,156Z"/><path class="cls-167" d="M135.62,152.51a3.58,3.58,0,0,1,1.47,1.24l-1.55-1.15C135.52,152.52,135.54,152.49,135.62,152.51Z"/><path class="cls-167" d="M134.4,151.92l.16-.18a3.25,3.25,0,0,1,1.06.77l-.08.09A2.94,2.94,0,0,1,134.4,151.92Z"/><path class="cls-151" d="M45.27,128.12l.95.7-.08.13-1-.66Z"/><path class="cls-147" d="M104.75,180.6c.09.43.51.46.79.65h-1.17l0,0C104.47,181,104.85,181,104.75,180.6Z"/><path class="cls-171" d="M22.57,103a.78.78,0,0,1,0-.16,3.18,3.18,0,0,1,1.18.65h0A.75.75,0,0,1,22.57,103Z"/><path class="cls-172" d="M41.83,49.51c.21-.53,1.54-1.44,2-1.27.89.3,1,1.15,1.21,1.94.46-.47-.16-.92,0-1.52a1.48,1.48,0,0,1,.26,1.78c-.19.31-.38.64-.57,1a.86.86,0,0,1-1.17.43c-1-.36-1.46-1.21-2-2-.12-.18.08-.27.24-.33a10.25,10.25,0,0,1,.87,1.1c.37.45.8.89,1.4.56s.33-.93.27-1.43A1,1,0,0,0,44,49.1a1.74,1.74,0,0,1-1,.7C42.55,49.86,42.27,49.37,41.83,49.51Z"/><path class="cls-173" d="M112.11,88.4a2.71,2.71,0,0,1-2,.48C111.27,87.54,111.27,87.54,112.11,88.4Z"/><path class="cls-174" d="M113.07,88.59a5.34,5.34,0,0,1-4.48.68.6.6,0,0,1,.9-.25,2.72,2.72,0,0,0,2.72-.31A.94.94,0,0,1,113.07,88.59Z"/><path class="cls-56" d="M22.57,103c.35.24.67.58,1.16.48a13.27,13.27,0,0,1,2.31.84,15.89,15.89,0,0,0,2.84,1,5.53,5.53,0,0,0,1.55,1.46,64.83,64.83,0,0,0,5.88,4A16.68,16.68,0,0,0,40,112.21a18.5,18.5,0,0,1-3.49-.13,14.48,14.48,0,0,0-4-.35,11.33,11.33,0,0,0-2.14-1.48c-1.08-.81-2.21-1.55-3.32-2.32-.27-.18-.52-.31-.14-.66s.16-.55-.08-.79a.6.6,0,0,0-.12-.11c-2.94-1.24-5.51-3.42-8.91-3.47a10.82,10.82,0,0,1,4.28,0Z"/><path class="cls-175" d="M97.08,74.73c-.18-.08-.42-.17-.3-.41.55-1.13,1-2.33,2.3-2.89.35.07.78-.23,1,.24-.29.45-.85.13-1.23.48.7.27,1.39.58,1.54,1.44a.49.49,0,0,1-.25.51c-.73-.17-1.4.3-2.13.23a1.7,1.7,0,0,0-.48.16l-.21.2C97.26,74.74,97.18,74.82,97.08,74.73Z"/><path class="cls-176" d="M100.11,74.05c.16-.14.11-.35.15-.52.5.13.21.66.47,1,.28-.52-.08-1.15.34-1.61.48.14.07.63.32.86,0,2-.73,2.54-2.57,1.9a5.44,5.44,0,0,1-1.74-.9l.21-.22c.87.14,1.57.88,2.38.71a4,4,0,0,1-2.26-.85c.15-.19.36-.13.55-.16a1.56,1.56,0,0,1,.7.19A1.11,1.11,0,0,0,100.11,74.05Z"/><path class="cls-177" d="M101.39,73.73c-.29-.21,0-.62-.29-.84a4.93,4.93,0,0,1-1-1.16c-.26-.34-.72,0-1-.3a1.55,1.55,0,0,1,2.33,1.31A6.55,6.55,0,0,1,101.39,73.73Z"/><path class="cls-178" d="M93.31,72a2.45,2.45,0,0,1,2.44,1.54A9.68,9.68,0,0,0,93.31,72Z"/><path class="cls-179" d="M89.77,77.69c0-.12,0-.31,0-.5.06-.61.21-1,1-.7a8.08,8.08,0,0,0,2.46.26,1,1,0,0,1,1,.92.46.46,0,0,1-.4.6c-.26.07-.5.24-.7-.13-.4-.74-1-.54-1.55-.24-.27.14-.47.4-.74.53C90.14,78.8,89.75,78.55,89.77,77.69Z"/><path class="cls-180" d="M12.35,8.66a2.59,2.59,0,0,0,2.76.62C13.56,10.15,12.79,10,12.35,8.66Z"/><path class="cls-128" d="M20.57,5.19l.33,1.36c0,.19.11.39-.14.5a.42.42,0,0,1-.56-.18,7.33,7.33,0,0,0-.67-1c-.73-.79-1.41-.67-1.83.33-.21.47-.37,1-.57,1.45,0,0-.09,0-.2.06a3.24,3.24,0,0,1,1.4-3.15c1-.6,1.58.09,2.25.59Z"/><path class="cls-181" d="M17.72,6.88c.19-.63.43-1,.94-1a1.36,1.36,0,0,1,1.18.93c.1.29-.05.46-.28.61s-.4,0-.51-.21C18.79,6.7,18.35,6.6,17.72,6.88Z"/><path class="cls-182" d="M47.12,114.38c1,.67,2.16.94,3,1.81-1-.43-1.91-.87-2.87-1.29a25.18,25.18,0,0,1-2.83-1.35l2.68.84Z"/><path class="cls-183" d="M31.28,122.72c2.51-.47,4.6.77,6.8,1.61C35.88,123.5,33.51,123.4,31.28,122.72Z"/><path class="cls-184" d="M60.57,136.61a3.19,3.19,0,0,0-1.37-.42c-2.55-.29-5.14-.54-7.2-2.36a2.47,2.47,0,0,1,1.09.33,2.73,2.73,0,0,0,2,.16,3.62,3.62,0,0,1,2.41.32,15.92,15.92,0,0,0,3.47,1,6,6,0,0,1,2.5,1.6Z"/><path class="cls-185" d="M60.4,158.54l1.44.83A1.5,1.5,0,0,1,60.4,158.54Z"/><path class="cls-56" d="M140.18,155.65a4.26,4.26,0,0,1-1.45-1.11A3.76,3.76,0,0,1,140.18,155.65Z"/><path class="cls-186" d="M28.37,143.77a2,2,0,0,1,2.09.18c.18.14.38.27.33.53a.61.61,0,0,1-.53.44,1.63,1.63,0,0,1-1.88-1.17Z"/><path class="cls-187" d="M31.85,144.87c-.52,0-.68-.25-.68-.7,0-.24,0-.46.35-.41s.92.18,1,.69S32.14,144.84,31.85,144.87Z"/><path class="cls-188" d="M41.83,49.51c.19,0,.25-.34.6-.09.66.47,1.26.12,1.39-.69a1.94,1.94,0,0,1,.81,2.19.88.88,0,0,1-1.46.39,3.3,3.3,0,0,1-1.34-1.81Z"/><path class="cls-189" d="M100.07,71.73a1.91,1.91,0,0,1,1,1.16c0,.57,0,1.14-.09,1.71,0,.16-.07.42-.32.4s-.26-.25-.29-.44c-.07-.34.07-.71-.14-1-.56-1-.78-1.1-2-1.18A1.6,1.6,0,0,1,100.07,71.73Z"/><path class="cls-190" d="M100.11,74.05c0,.63-.78.92-1.52.56a4.75,4.75,0,0,1-.63-.4c.56-.29,1.31.09,1.81-.53C99.85,73.58,100,73.9,100.11,74.05Z"/><path class="cls-191" d="M97.41,74.37c.11,0,.25,0,.32,0a4,4,0,0,0,2.54.71c.11,0,.2.06.24.28a4.82,4.82,0,0,1-3.22-.87Z"/></g></g></svg>