<svg xmlns="http://www.w3.org/2000/svg" viewBox="0 0 148.04 294.04"><defs><style>.cls-1{fill:#070e0c;}.cls-2{fill:#080e0c;}.cls-3{fill:#101e1d;}.cls-4{fill:#1c1a0d;}.cls-5{fill:#436962;}.cls-6{fill:#f6f5f4;}.cls-7{fill:#e2d7d5;}.cls-8{fill:#a29f9b;}.cls-9{fill:#cba896;}.cls-10{fill:#fefefe;}.cls-11{fill:#e00321;}.cls-12{fill:#003b8d;}.cls-13{fill:#da0820;}.cls-14{fill:#72c6d3;}.cls-15{fill:#caa896;}.cls-16{fill:#426861;}.cls-17{fill:#71c3d0;}.cls-18{fill:#c8a694;}.cls-19{fill:#bd4434;}.cls-20{fill:#c6091e;}.cls-21{fill:#f5af1f;}.cls-22{fill:#c44636;}.cls-23{fill:#e9641a;}.cls-24{fill:#e88914;}.cls-25{fill:#e9631a;}.cls-26{fill:#c34536;}.cls-27{fill:#0b0f0d;}.cls-28{fill:#bf4435;}.cls-29{fill:#a01721;}.cls-30{fill:#a51722;}.cls-31{fill:#a91822;}.cls-32{fill:#9e1721;}.cls-33{fill:#90161f;}.cls-34{fill:#ab1822;}.cls-35{fill:#a81822;}.cls-36{fill:#b34132;}.cls-37{fill:#a41721;}.cls-38{fill:#9d1720;}.cls-39{fill:#08100e;}.cls-40{fill:#09100e;}.cls-41{fill:#09110f;}.cls-42{fill:#070f0d;}.cls-43{fill:#070f0f;}.cls-44{fill:#071011;}.cls-45{fill:#080f0d;}.cls-46{fill:#071114;}.cls-47{fill:#06141d;}.cls-48{fill:#1a1310;}.cls-49{fill:#171310;}.cls-50{fill:#16180d;}.cls-51{fill:#fcdf39;}.cls-52{fill:#0d130d;}.cls-53{fill:#0e140d;}</style></defs><title>Asset 16</title><g id="Layer_2" data-name="Layer 2"><g id="Layer_1-2" data-name="Layer 1"><path class="cls-1" d="M50.14,268.34c0-.83,0-1.56-1-2.12a2.12,2.12,0,0,1-.74-2.4,3.16,3.16,0,0,1,.25-.95,4.94,4.94,0,0,0,.42-3.94c-1.33-7.16-2.21-14.4-4-21.47a48.77,48.77,0,0,0-7.46-16.83l-.38-.5c-.88,1.77-2.17,3.26-2.13,5.32,0,.8.26,1,1.06,1,.37,0,.79-.28,1.13.11a2,2,0,0,1-1.51.71.86.86,0,0,0-1,.4c-.26.44-.65.35-.81-.15a2.79,2.79,0,0,1,0-1.15,15.73,15.73,0,0,1,1.69-5.61,2.15,2.15,0,0,0-.32-2.83c-.82-.86-1.63-1.72-2.51-2.52a1.33,1.33,0,0,1-.61-1,.87.87,0,0,0-.37-.71,1.27,1.27,0,0,1-.25-1.77c.78-1.59,1.7-3.1,2.46-4.71a24,24,0,0,0,1.5-3.85s0,0,0,.1c-.34.42-.62,1.06-1.3.7s-.41-.95-.22-1.47a47.78,47.78,0,0,0,2.53-11.81A42.94,42.94,0,0,0,37,185c0-.82-.1-.9-.86-.58a15.3,15.3,0,0,0-6,4.64,26.77,26.77,0,0,0-4.52,8.52c-1.53,4.33-3.13,8.63-4.26,13.09a65.82,65.82,0,0,0-1.54,9.14,6.49,6.49,0,0,1-.12,1,14.56,14.56,0,0,1,1-3.14c.15-.37.35-.94.81-.77s.12.69,0,1a29.46,29.46,0,0,0-1.31,8.41c0,2.91.33,6,2.78,8.61a14.65,14.65,0,0,1-1.45-5.26c-.08-.85,0-1.71-.17-2.56a1.77,1.77,0,0,1,.07-.91c.11-.3.28-.31.47-.06a1.65,1.65,0,0,1,.23.78,40.31,40.31,0,0,0,1.07,5.2A6.85,6.85,0,0,0,26,235.81a4.08,4.08,0,0,1,1,.76c0,.11.1.23,0,.32-.5.65-1,1.33-1.52,1.93a.27.27,0,0,1-.38,0c.18-.4.36-.8.55-1.19s.43-.65-.11-.82c-.37-.12-.76-.75-1.14,0-.25.51-.55.24-.86,0a10.75,10.75,0,0,1-3.89-6.72c-.47-2.16-.87-4.33-1.15-6.52a22.81,22.81,0,0,1,.36-5.77c1.31-10.33,5-19.9,9.35-29.26a24.06,24.06,0,0,1,3.23-4.5c.89-1.12.85-.7-.07-1.75a28.92,28.92,0,0,0-10.21-7.73,10.75,10.75,0,0,0-3.56-1,3.81,3.81,0,0,0-3.24,1.25,38.72,38.72,0,0,0-5.2,6.43,47.33,47.33,0,0,0-5.31,13c-.25,1-.45,1.94-.68,2.9-.08.32-.2.63-.31.94a1.19,1.19,0,0,1-1.32.9,1.53,1.53,0,0,1-1.35-1.26c0-.21,0-.46-.16-.62V192c.36-1.4.52-2.84.89-4.25a34.34,34.34,0,0,1,8.18-14.21c.52-.57,1.07-1.12,1.59-1.69.15-.17.48-.28.4-.56s-.4-.27-.64-.32a4.62,4.62,0,0,0-.46-.08,5.51,5.51,0,0,1,2.8-1.61c.7-.26,1.42-.45,2.14-.64.38-.1.47-.23.18-.54-.15-.16-.37-.34-.23-.57s.42-.08.63-.05a18.17,18.17,0,0,1,6.17,2,76.85,76.85,0,0,1,11.77,8.1c.89.72,1.73,1.51,2.66,2.18.25.18.55.47.88.3s.17-.59.14-.89a46,46,0,0,0-1-5.21c-.09-.38-.1-.81-.74-.76-.42,0-.51-.46-.64-.77a8.07,8.07,0,0,1-.55-3.16c0-.44,0-.88,0-1.32,0-.23,0-.48-.27-.52s-.27.24-.36.39a8.74,8.74,0,0,1-.81,1.27c-.81-2.94.36-5.42,2-7.87-1,0-1.45.71-2.13,1.08a3.35,3.35,0,0,0-.5.43c-.36.31-.76.94-1.21.59s0-.92.17-1.38c.39-.9,1.13-1.57,1.59-2.48-.89,0-1.36.7-2,1.07-.18-.22,0-.36.16-.45a3.88,3.88,0,0,0,1.55-2.84,17.9,17.9,0,0,1,3.51-7.76c.15-.2.29-.4.43-.61,0,0,0,0,0-.12a4.65,4.65,0,0,0-1.15.75,44.78,44.78,0,0,0-5.56,5.1l-.4.41a.39.39,0,0,1-.52.11c-.21-.11-.09-.29-.07-.44a11.61,11.61,0,0,1,2.41-5.54c2.68-3.51,6.34-5.68,10.2-7.58l.59-.29s0-.1.08-.18a9.74,9.74,0,0,0-2.83-.41c-.93-.05-1.87-.1-2.81-.17-.2,0-.5.07-.56-.22a.74.74,0,0,1,.24-.59,1.7,1.7,0,0,1,.87-.45,24.71,24.71,0,0,1,9.46-.48,3.94,3.94,0,0,0,1.3.05c-.61-.66-1.56-.78-2.14-1.68l3.16.46a22.05,22.05,0,0,0,4.87.18c.54,0,.67-.27.73-.75.17-1.38.18-2.76.25-4.14a1.66,1.66,0,0,1,.1-.82c.35,0,.3.35.42.53s.19.65.59.57.31-.46.29-.75c0-.77-.13-1.54-.18-2.31,0-.29,0-.59,0-.9.39,0,.42.33.58.5s.53.32.64,0c.19-.61.44-.38.76-.14s.66,1.16,1.32,1,.69-.88,1-1.35c1-1.39,1.78-2.94,3.19-4a5,5,0,0,1,1.46-.75c-.47.89-1.24,1.48-1.39,2.62l1.11-.87a22.53,22.53,0,0,1,11.51-4.84c.74-.09,1.49,0,2.24-.08.18,0,.35,0,.41.2s-.15.26-.28.33a35.88,35.88,0,0,0-3.29,2.12,28.57,28.57,0,0,1,7.77.31,12.69,12.69,0,0,0-2.81.32c3,.93,5.27,3,7.9,4.45.69.38,1.32.12,2.17.13l-1.38,1.12.13.22c3,0,6.07-1,8.91.84-.56.51-1.26.55-1.89.89.22.23.48.15.69.15a111,111,0,0,0,17.28-.92c.43-.06.58-.19.55-.6-.16-2.27-.33-4.54-.48-6.81-.06-1-.07-1.92-.16-2.88-.24-2.62-.36-5.26-.53-7.89a3.65,3.65,0,0,0-.59-1.73,4.64,4.64,0,0,1-.69-3.81c.32-.16.4.08.46.29a1.83,1.83,0,0,1,0,.9,1,1,0,0,0,.65,1.25.82.82,0,0,1,.61,1,12.18,12.18,0,0,0,.2,2.63c.08,1.12.12,2.25.25,3.37s.19,2.08.22,3.12.12,2.14.22,3.21c.16,1.72.31,3.45.43,5.17,0,.85.23,1.69.2,2.55,0,.52,0,.88-.62,1a1.22,1.22,0,0,0-.44.22,17.66,17.66,0,0,1-4.07.73,79.78,79.78,0,0,1-12.07.52,53.38,53.38,0,0,1-5.93-.58,2,2,0,0,1-.87-.26c-.22-.12-.46-.27-.4-.56s.36-.32.61-.29a8.38,8.38,0,0,0,4-.64.22.22,0,0,0,.2-.18,15.38,15.38,0,0,0-4.93.09,27.9,27.9,0,0,0-4.75,1.16c-.36.13-1,.42-1.12,0s.44-.66.8-.87a8.67,8.67,0,0,0,1.68-1,8.65,8.65,0,0,0-3.54,2.22c2.23-.08,4.31.27,6.4.16a4.82,4.82,0,0,1,1.56.16c.2.06.49.05.5.34s-.21.37-.4.48a20.63,20.63,0,0,1-2,.94c.09.3.34.3.53.36a27.88,27.88,0,0,1,9,5.15,14.27,14.27,0,0,1,3.7,5,2,2,0,0,1,.14.39c.07.3.17.64-.14.84s-.54,0-.77-.17c-1.09-.79-2.17-1.62-3-2.25,1.27,1.28,2.83,2.68,4.17,4.29.87,1,.89,1,1.94.23a20,20,0,0,1,5.07-3,3.21,3.21,0,0,1,.86-.28c.17,0,.38,0,.42.17s-.13.28-.21.34c1.13-.34,2.32-.73,3.54-1,.31,0,1,.48.66-.45-.11-.28-.23-.56,0-.83a.49.49,0,0,1,.51,0,4.07,4.07,0,0,1,.52,2.38c.22,2.72.54,5.43.87,8.14s.63,5.26,1,7.88c.4,3.09.82,6.17,1.14,9.27.29,2.84.67,5.67.75,8.55,0,1.75,0,3.52.15,5.26s0,3.3.23,4.94a5.76,5.76,0,0,1-.2,1.3,12.37,12.37,0,0,0,0,2.72c0,.43.15,1-.54,1a1.43,1.43,0,0,1,0-.82v-6.56c-.16-.95,0-1.92-.1-2.88l0-1.81c-.19-.6,0-1.24-.12-1.84-.74-11.83-2.65-23.52-3.88-35.37-3.75,1.06-7.62,1.62-10.76,4.13-.45.36-.56.58-.23,1.11a18,18,0,0,1,2.78,7.46,5.5,5.5,0,0,1,.09,1c0,.28.19.68-.14.82s-.54-.25-.73-.51c-.59-.86-1.18-1.73-1.79-2.59a3.29,3.29,0,0,0-.62-.68c.7,2.19,1.91,4.2,2.28,6.73-1.23-2.35-2-4.7-3.26-6.79.28,1.11.73,2.17,1,3.28a22.52,22.52,0,0,1-1.07,12.94c-.19.49-.32.88.12,1.32a1.27,1.27,0,0,1,.22,1.33,5.7,5.7,0,0,1-1.42,2.5c-1.73,1.52-1.62,2.88-.75,4.51a30.29,30.29,0,0,1,2.69,7.52,21,21,0,0,1,.17,10.57c-.15.52-.18,1.15-.8,1.5-.36-.94-.14-2-1-2.87-1.28,5.64-.28,11.17.1,16.83a6,6,0,0,1-2.08-1.71,15.4,15.4,0,0,1-1.15-1.51c-.53-.74-.53-.74-1,.09a13.43,13.43,0,0,1-2.6-5.66c-.74-2.92-1-5.94-1.83-8.83-.06-.21-.13-.42-.2-.63-.34.09-.19.51-.52.68a6.6,6.6,0,0,1-.59-1.68,15.93,15.93,0,0,0-1.23-2.61c-.33-.58-.51-.63-.89,0a44.27,44.27,0,0,1-5.9,7.66A22.94,22.94,0,0,1,79,206.4l-.16.07c-.45.19-1,.51-1.39.16s.34-.66.38-1.14a17.83,17.83,0,0,0-3.07,1.31c-.49.25,0,.46.12.61,1.65,2,3.33,4,5,6a45.18,45.18,0,0,1,5.71,8,19.65,19.65,0,0,1,1.72,4.67c-.77-.36-1.25-1-2-1.26.22,2,1.16,3.89.54,5.92a17.31,17.31,0,0,0-1-4.7,2.87,2.87,0,0,0,.08,1.65c.48,3.71-1.06,6.66-3.45,9.31a29.35,29.35,0,0,1-4.23,3.71c-.61.46-1.37.53-2,.93-1.69,1.05-2.9,2.63-4.33,4a10.91,10.91,0,0,1-2.22,1.72c-.93.5-1.39,1.48-2.18,2.11a1.22,1.22,0,0,1-.93-1.5,1.13,1.13,0,0,1,.5-.42c3.79-1.95,6.6-5.06,9.46-8.11a45.26,45.26,0,0,0,4.53-5.6c.15-.24.37-.64.68-.4s0,.55-.14.81a39.14,39.14,0,0,1-3.93,5.63,3.33,3.33,0,0,1,.86-.77,23.36,23.36,0,0,0,4-3.95,10.75,10.75,0,0,0,2.25-8.48A23.15,23.15,0,0,0,81,218.56c-.25-.46-.51-.92-.72-1.4-.11-.24-.33-.57,0-.74s.5.17.66.38a10.47,10.47,0,0,1,1,1.61c.47.94.94,1.88,1.4,2.82a7,7,0,0,0,2,2.3,14.59,14.59,0,0,0-1.15-2.43c-2.07-3.72-4.92-6.87-7.63-10.11-.81-1-1.65-1.93-2.45-2.92a1.27,1.27,0,0,0-1.51-.51,76.77,76.77,0,0,1-11.23,2.17,45.85,45.85,0,0,1-5.61.39c-.69,0-1,.24-.9.92.16,1.79.19,3.58.18,5.38a1.86,1.86,0,0,0,.6,1.24,84.23,84.23,0,0,1,7.95,11.43c.34.56.6,1.17,1,1.84a10,10,0,0,1-.27-2,32.43,32.43,0,0,0-1.83-6.27c0-.13-.12-.26-.17-.39s-.29-.56,0-.73.49.19.64.4a17.71,17.71,0,0,1,2.42,6c.41,1.87.62,3.77.87,5.66a7.29,7.29,0,0,1-.6,3.48c-.69,1.92-1.54,3.78-2.2,5.27.77-1.43,2-3.07,3-4.81a2.9,2.9,0,0,1,.71-.81c.14-.12.31-.29.51-.16s.11.36,0,.53a16,16,0,0,1-.77,1.75c-1.91,3.4-4.07,6.64-6.25,9.87-.19.21-.42.44-.7.38-.72-.13-1,.32-1.36.83a6.46,6.46,0,0,1-.81,1.13c-.22.21-.45.54-.8.16a2.3,2.3,0,0,1,.53-1.2,66.13,66.13,0,0,0,5.36-9.9,25.22,25.22,0,0,0,1.33-4.52,3.22,3.22,0,0,0-.19-1.71,36.46,36.46,0,0,0-4.92-9.08c-1.14-1.63-2.32-3.24-3.57-4.78-.13-.17-.22-.39-.47-.44a.57.57,0,0,0-.1.47c.35,5.22,0,10.45.18,15.66.12,3.56.2,7.12.43,10.67a44.45,44.45,0,0,1,.22,4.47,4.87,4.87,0,0,0,.35,2.1.77.77,0,0,1-.12.64c-.14.21-.31.42-.59.36s-.26-.3-.29-.53a18.74,18.74,0,0,0-.83-3.44,8.53,8.53,0,0,1-.14-2.34,32,32,0,0,0-.1-3.79,2.42,2.42,0,0,1-.06-.66c.09-3.51-.19-7-.2-10.52s0-7.19-.19-10.77c-.13-3.21,0-6.42-.13-9.62-.29-7.63-.09-15.25-.16-22.88,0-1.64.26-3.25.41-4.87a12,12,0,0,1,.63-4,.82.82,0,0,0-.11-.72,37.85,37.85,0,0,1-3.46-9.12.15.15,0,0,0-.12-.12,13.84,13.84,0,0,0-.21,3.52,3.26,3.26,0,0,1-.22,1.38c-.31.62-.71.68-1.14.14a10.92,10.92,0,0,1-1.47-2.68,16.54,16.54,0,0,1-.72-7.12c0-.21.13-.43-.05-.64-.39,0-.62.34-1,.42-.52.14-.75-.07-.61-.59a7.31,7.31,0,0,1,.85-1.7c.56-1,1.14-2,1.68-3,.38-.73.29-.9-.53-1a35.75,35.75,0,0,1-8.42-2.36,30.39,30.39,0,0,0,3,1.61c.32.17.89.31.69.75s-.65.09-1,0a11.91,11.91,0,0,0-4.05-.75,7.1,7.1,0,0,0-5.22,2.85c-.12.15-.21.32-.42.57a15.7,15.7,0,0,1,3.6-2.13,3.5,3.5,0,0,1,1.47-.2c.22,0,.47,0,.56.28s-.14.45-.35.58A7.87,7.87,0,0,0,34,164.59c.49-.47.84-.83,1.17-1.21.19-.22.39-.57.73-.38s.2.55.09.83a10.91,10.91,0,0,0-.64,2.65c-.09.6,0,1.21-.09,1.84.25-.41.52-.57.65,0,.81,3.81,2.16,7.49,2.52,11.4a49.53,49.53,0,0,1-.35,10.75,61.54,61.54,0,0,1-2.48,11.23c.43-1.27,1.08-2.46,1.54-3.73s.78-2.59,1.15-3.89a6.58,6.58,0,0,1,.69-1.77c.12-.18.25-.42.52-.3s.17.33.14.52c-.1.77-.27,1.52-.42,2.28a71.11,71.11,0,0,1-2.08,8.28,34.51,34.51,0,0,1-3.83,8.07c-.07.11-.18.2-.15.39a12.4,12.4,0,0,0,4-2.82,67.61,67.61,0,0,0,4.57-5.14,3.32,3.32,0,0,1,.7-.7c.13-.09.29-.21.45-.08s.07.31,0,.46a11.17,11.17,0,0,1-1.26,1.85,29.49,29.49,0,0,1-4.7,5.22,20.3,20.3,0,0,1-3.31,2.21c-.2.11-.56.12-.54.42s.36.32.57.43c1.51.75,3.13,1.25,4.67,1.95a20.4,20.4,0,0,1,5.54,3.74,3.7,3.7,0,0,1,.87,1.2c.08.18.14.4,0,.54s-.32,0-.47,0a1.63,1.63,0,0,1-.35-.23,32.83,32.83,0,0,0-9.55-5.41,1.65,1.65,0,0,1-.21-.11,33.57,33.57,0,0,1,5.42,6.08,46.58,46.58,0,0,1,6.06,13.4c1.13,4,2,8,2.73,12.13a3.68,3.68,0,0,1,0,.58c0-.5-.16-1-.15-1.48a.47.47,0,0,1,.36-.5.4.4,0,0,1,.43.31,10.3,10.3,0,0,1,.8,4c-.11.19-.25.16-.42.08-.73-.32-.94-.15-.87.68.18,2,.53,3.93.84,5.89s.55,3.65.85,5.47c.07.46.12,1-.53,1.13-.29.07-.22.34-.26.54s-.18.53-.2.8c0,.58.08,1.06.81,1.08.34,0,.66.14.63.48a13,13,0,0,1-.18,2.41A.26.26,0,0,1,50.14,268.34Z"/><path class="cls-1" d="M114,0l1.14.56a3,3,0,0,1,1.58,2.86c0,1.07.2,2.13.34,3.19s.39,2.29.45,3.44c.08,1.4.42,2.75.53,4.14s.42,2.48.63,3.71c.28,1.63.49,3.27.84,4.88.67,3,1.39,6,2.29,9A72.17,72.17,0,0,0,124.56,39a10.82,10.82,0,0,1,1.08,5.38,5.2,5.2,0,0,1-.54,1.88c-.15.3-.12.43.22.51a4.65,4.65,0,0,1,2.5,1.36c1.07,1.33,3,1.59,3.79,3.2a11.75,11.75,0,0,1,1.68.08,8.52,8.52,0,0,1,6.39,3.29,12.24,12.24,0,0,1,2.57,6.51,11.78,11.78,0,0,1-3.32,9.88,10.86,10.86,0,0,1-9,3.39,17,17,0,0,1-4-.83c-.39-.13-.53-.09-.73.29a7.8,7.8,0,0,1-2.53,2.88,4.28,4.28,0,0,1-3.15.81c-.91-.14-1.22.33-1.23,1.08a11.71,11.71,0,0,1-.18,2.77c-.09.32.11.47.37.63a13.08,13.08,0,0,0,4.11,1.17,9.53,9.53,0,0,1,2.27.72,1.32,1.32,0,0,1,.77,1.78,2.59,2.59,0,0,0,.52,2.88c1,1.16.72,2.53.19,3.83a10.84,10.84,0,0,1-.78,1.36,2.16,2.16,0,0,0-.38,1.94,2,2,0,0,1-.21,1.62c-1.11,1.93-1.54,4.11-2.37,6.15a1.83,1.83,0,0,1-.49.81c-.38,0-.32-.28-.24-.44a1.64,1.64,0,0,0-.41-2.22,1.35,1.35,0,0,1,.27-.85,17,17,0,0,1,1.71-2.64,2.42,2.42,0,0,0,.55-2,3.86,3.86,0,0,1,.67-2.83,4.7,4.7,0,0,0,.94-1.83,3,3,0,0,0-.44-2.43,3.05,3.05,0,0,1-.54-3.26.69.69,0,0,0-.35-1,3.29,3.29,0,0,0-1.32-.45,19.58,19.58,0,0,1-6.59-2.37c-.28-.15-.64-.25-.65-.67.24-.56.63-.29,1-.15.5.21.67.06.75-.47.53-3.48.79-7,1.44-10.45.4-2.09.83-4.17,1.33-6.24.09-.36.13-.8.68-.78.33.25.21.6.15.91-.13.65-.16,1.31-.23,2a4.24,4.24,0,0,0,1.43,3.55,10.93,10.93,0,0,0,7.05,3.61,7.89,7.89,0,0,0,2.52,0A10.44,10.44,0,0,0,136.32,72a10.11,10.11,0,0,0,4.3-6,12.27,12.27,0,0,0,.07-7.2c-.76-2.65-3.91-6.14-7.55-6.45-.92-.07-1,0-1,.9.07,2.53-1.39,4.23-3.14,5.75a5.1,5.1,0,0,1-2.65,1.3c-.54,0-1.08,0-1.61,0a3.6,3.6,0,0,1-1.61-.38c-.51-.24-.75-.08-.9.43-.2.67-.42,1.32-.65,2-.11.31-.17.65-.51.81a.37.37,0,0,1-.42-.47,22.25,22.25,0,0,1,1.19-4.46c.31-.11.54.08.75.25,1.68,1.41,4.62,1,6.2-.61a8.08,8.08,0,0,0,1.67-2.15c.79-1.72.94-3.4-.54-4.88a5.58,5.58,0,0,1-8.25,5.86c-.15.45.21.78,0,1.14-.67.25-.81-.3-.88-.7a16.48,16.48,0,0,0-.42-2.48c-.16-.44.22-.45.56-.36s.71.68,1.08,1a3.93,3.93,0,0,0,6.63-2.63c.3-3.25-1.69-5.1-5-4.74-.27,0-.55.11-.79-.11,0-.35.27-.49.52-.56,1.3-.41,1.26-1.53,1.4-2.55,0-.08-.06-.18,0-.25.74-1.95-.39-3.52-1.09-5.16a72.51,72.51,0,0,1-3.45-10.44,122.26,122.26,0,0,1-2.55-13.16c-.34-2.25-.66-4.52-.95-6.78-.25-2-.51-4-.7-6.05a2,2,0,0,0-.94-1.57,2.85,2.85,0,0,0-3.33,0,7.87,7.87,0,0,0-2.78,4,14.71,14.71,0,0,0-.63,4.07,16,16,0,0,0,1.49,6.3,124,124,0,0,1,8,22.68,32.59,32.59,0,0,1,1,5.45,1.66,1.66,0,0,0,.36.82,1.25,1.25,0,0,1,.06.81,3.92,3.92,0,0,0,0,2.88,2.84,2.84,0,0,1,0,1.36,1.93,1.93,0,0,0-.19,2.12.74.74,0,0,1,0,.39,2,2,0,0,0-.33.75c-.21,2-.68,4-1,5.93-.08.43-.15,1-.88.61a3.83,3.83,0,0,1,.14-1.78c.09-.56-.08-.76-.64-.74a8.35,8.35,0,0,0-3,.68,2.75,2.75,0,0,1-1,.34.44.44,0,0,1-.34-.32c.06-.39-.05-.61-.5-.57a2.61,2.61,0,0,1-1.11-.08c-.16-.11-.39-.17-.3-.45a2.64,2.64,0,0,1,2.23-.15,2.55,2.55,0,0,0,2,0,5.31,5.31,0,0,1,2.49-.31c.57,0,.88-.07,1-.78.17-1.45.42-2.9.5-4.37s.08-3.2,0-4.8a69.76,69.76,0,0,0-5.08-20.89q-2.25-5.74-4.7-11.41a6,6,0,0,1-.55-2.86,12.7,12.7,0,0,1,0-2.89,12.18,12.18,0,0,1,2.41-6.54A5.39,5.39,0,0,1,112.68,0Z"/><path class="cls-1" d="M113.84,132.25s0-.06,0-.07c1.41-.41.87-1.54.76-2.38-.21-1.61-.26-3.24-.41-4.86-.19-1.87-.32-3.76-.4-5.64-.06-1.54-.21-3.08-.33-4.62a23,23,0,0,1-.22-3.72.5.5,0,0,0-.5-.61c-.82-.09-.89-.67-.85-1.32,0-.46.35-1-.21-1.33a.57.57,0,0,1,.11-.49,1,1,0,0,1,.57-.52c.32-.1.1-.28,0-.43v-.79a2.57,2.57,0,0,1,.76-.94,5.75,5.75,0,0,1,1.83-.38,5.88,5.88,0,0,1,1.39.09,1.91,1.91,0,0,1,.51,2.36.32.32,0,0,1-.39-.14c0-.11,0,0,0-.08-.21-.38.1-1-.54-1.18a3,3,0,0,0-2,.28c-.39.19-.36.6-.33,1,.15,1.68.23,3.36.37,5,.22,2.62.41,5.24.59,7.85s.36,5,.56,7.44c.24,2.92.48,5.84.77,8.75s.65,6,1,9,.6,6.11,1,9.15c.82,6.59,1.61,13.18,2.42,19.76a74.1,74.1,0,0,1,.55,8.68c0,2,.23,4,.2,6-.06,4.31-.3,8.61-.47,12.92-.07,1.74-.17,3.48-.19,5.22,0,2.07-.14,4.14-.22,6.21a107.56,107.56,0,0,0-.26,10.77c.27,4.43-.27,8.83-.4,13.24-.09,3.2-.23,6.4-.32,9.61-.11,3.59-.2,7.18-.33,10.76-.14,3.81-.26,7.62-.5,11.43-.1,1.43-.11,2.87-.28,4.3,0,.39-.22,1.05.33,1.13s.67-.59.7-1c.11-1.48.19-3,.2-4.46,0-2.48-.09-5,.12-7.46.14-1.65.15-3.31.21-5,.13-3.2.32-6.4.42-9.61s.34-6.73.58-10.09c.15-2.17.26-4.36.39-6.53.18-3.09.37-6.18.59-9.27.2-2.75.37-5.51.56-8.26s.39-5.57.61-8.35.48-5.79.71-8.68c.36-4.46.81-8.92,1.23-13.37.47-5,1.36-10,1.28-15a1.8,1.8,0,0,1,.1-.73.44.44,0,0,1,.47-.3,5,5,0,0,1,.36,2.9c-.11,1.28-.07,2.57-.2,3.85s-.24,2.35-.38,3.52c-.32,2.68-.64,5.37-.9,8.06s-.5,5.37-.74,8.06c-.14,1.6-.32,3.21-.45,4.81-.19,2.43-.44,4.86-.62,7.29-.14,1.86-.3,3.72-.45,5.58-.11,1.33-.22,2.67-.26,4-.08,2.27-.31,4.53-.37,6.81,0,1.11-.16,2.24-.21,3.36-.06,1.34-.21,2.67-.24,4,0,1.2-.12,2.42-.24,3.61-.22,2.24-.29,4.49-.51,6.72-.18,1.8-.31,3.62-.36,5.42s-.15,3.74-.19,5.6-.21,3.53-.22,5.27a45.48,45.48,0,0,0-.19,5.35,12.34,12.34,0,0,1-.28,2.95,14.06,14.06,0,0,0,.07,4.53,16.16,16.16,0,0,1-.06,2.09l-.06,2.26c-.14.62,0,1.25-.11,1.86-.41.62-.8,1.27-1.68,1.26-.67,0-1-.37-.91-1.06a.81.81,0,0,0-.07-.57l0-2c.12-1,0-2,.06-2.92a24.57,24.57,0,0,0,.27-4.69,20.33,20.33,0,0,1,.13-2.47,5.33,5.33,0,0,0,.09-1.64,11.5,11.5,0,0,1,.17-3.79,5.87,5.87,0,0,0-.08-1.39,11.22,11.22,0,0,1,.16-2.72,31.14,31.14,0,0,0,.07-4.21,3.6,3.6,0,0,0,0-1.31,1.19,1.19,0,0,1,0-.42,7.63,7.63,0,0,0,.14-3.12c0-.3,0-.6,0-.9v-1.65c.53-.81.11-1.69.16-2.53,0-.41,0-.82,0-1.22.44-1,0-2,.15-3a1,1,0,0,1,.05-.29c0-1.61.22-3.21.23-4.83,0-2.26,0-4.51,0-6.77,0-1.36-.09-2.73.07-4.09l0-1.15a2,2,0,0,0,.08-1.42,7,7,0,0,1,.07-1.58l0-1.64c.17-.72-.06-1.47.13-2.18l0-2c.14-.73,0-1.47.11-2.2l.05-1.95c.17-.83-.07-1.68.13-2.5l0-1.32c.31-.48.08-1,.06-1.49a10.7,10.7,0,0,1,.14-2.65,1.39,1.39,0,0,0,.23-1.09,8.29,8.29,0,0,1,.11-3.4c.23-.82-.14-1.66,0-2.51.21-1.52-.44-3-.17-4.55.32-1.84-.37-3.65-.17-5.53a12,12,0,0,0-.25-2.75q-.37-3.06-.73-6.14c-.19-1.62-.37-3.23-.57-4.85s-.44-3.3-.64-5c-.3-2.42-.61-4.84-.87-7.26-.14-1.37-.33-2.74-.43-4.12a27.16,27.16,0,0,0-.53-4.3,7.59,7.59,0,0,1-.45-2.46c-.08-.31-.14-.56-.44-.7a.51.51,0,0,1,0-.45,2.62,2.62,0,0,0-.31-2.72.57.57,0,0,1,0-.46,1.64,1.64,0,0,0,.22-1.47c-.2-.69.05-1.41-.22-2.09-.1-.25-.11-.54-.4-.68A1.71,1.71,0,0,1,113.84,132.25Z"/><path class="cls-1" d="M112.51,106.25c.07.18.43,0,.37.33a.32.32,0,0,1-.34.28c-.3,0-.46.25-.71.35-.25-.53-.8-.54-1.24-.72-1.66-.69-2.13-1.54-1.76-3.32a3,3,0,0,0-.42-2.88,1.86,1.86,0,0,1-.23-1.45,7.37,7.37,0,0,0-1-3.69c-.11-.26-.27-.33-.57-.33a3.52,3.52,0,0,1-2.78-1.4,1.41,1.41,0,0,1,.07-2.11c1.11-1.12,2.23-2.23,3.34-3.34a1.2,1.2,0,0,0,.46-.83c.21-2.92,2-4.87,4.32-6.26a3.19,3.19,0,0,0,1.75-2.23c.21-1.24.27-2.5.41-3.75,0-.46-.23-.49-.59-.56a7.52,7.52,0,0,1-5.87-8c.16-.62,0-1.26.12-1.88l-.32-2.08a4.38,4.38,0,0,1,0-1.73,3.82,3.82,0,0,1,1.17-2.93c.57.1.21.52.26.8-.13.56-.39,1.07-.53,1.64a6.07,6.07,0,0,0,.45,3.62,3.61,3.61,0,0,1,.28.86,1.35,1.35,0,0,1-.31.94.74.74,0,0,0-.26.58,7.16,7.16,0,0,0,4.56,6.91c.37.12.86.45,1.16-.16a1.22,1.22,0,0,0-.39-1.66c-.29-.19-.67-.27-.84-.64s.09-.56.46-.6a1.59,1.59,0,0,1,.56.14c.23.07.53.39.71,0s.28-.75-.16-1c-.16-.11-.33-.2-.4-.4s.08-.44.39-.42.44.1.51-.2c.45-1.88.61-3.81,1-5.7a3.34,3.34,0,0,1,.49-1.63c.69-.37.7.06.64.55-.15,1.29-.39,2.56-.61,3.84-.79,4.59-1.51,9.19-2.33,13.78a.81.81,0,0,0,.44,1,3.15,3.15,0,0,1,.91.71c.3.4.24.66-.3.71-.11,0,0,0-.08,0-1.28-.71-2.22-.09-3.18.73-1.59,1.34-3,2.76-3.4,4.93a4.05,4.05,0,0,0,.11,2c.14.46.37.51.69.14.47-.54,1-1,1.51-1.54a2.56,2.56,0,0,1,2.92-.77c.89.31,1.82.5,2.73.73a14.34,14.34,0,0,0,4.42.55,5,5,0,0,1,.67,0c.44,0,1,0,1,.61s-.58.42-.94.47a16,16,0,0,1-5.84-.41c-.86-.2-1.73-.35-2.59-.55a1.56,1.56,0,0,0-1.53.39,19.72,19.72,0,0,0-3.34,3.78,2.54,2.54,0,0,0-.11,2.38c.12.37.35.32.53.06a3.1,3.1,0,0,1,2.87-1.11c2.73,0,5.47.14,8.21-.09.3,0,.67,0,.74.35s-.3.42-.55.49a15.91,15.91,0,0,1-4.17.54c-1.58.06-3.16,0-4.73,0-.69,0-.95.26-.91.93s0,1.16.06,1.74c0,.21.08.51-.17.57s-.43-.19-.53-.42c-.2-.46-.1-1-.33-1.51a4.38,4.38,0,0,0-.09,3.2c.13.43.35.39.55.07a2.64,2.64,0,0,1,3-1.1c1.44.19,2.9.32,4.37.39h.08c.35,0,.81,0,.82.5s-.43.5-.76.53a15.61,15.61,0,0,1-3.55,0,7.24,7.24,0,0,0-1.74,0c-.83.1-1.14.39-1.14,1.23a11.69,11.69,0,0,0,.16,3.39c.06.2.12.47-.15.57s-.41-.09-.57-.24a2.1,2.1,0,0,1-.52-1.76c0,.13,0,.44,0,.75a2.05,2.05,0,0,0,1.41,1.86C111.71,105.81,112.22,105.81,112.51,106.25Z"/><path class="cls-2" d="M108.9,58.43c-.26-.17.14-.55-.21-.68A4.69,4.69,0,0,1,110,56.57l.36.42A4.25,4.25,0,0,1,108.9,58.43Z"/><path class="cls-3" d="M118.19,46.14a16.09,16.09,0,0,1,0,4.8Z"/><path class="cls-3" d="M107.85,8.09V11A6.71,6.71,0,0,1,107.85,8.09Z"/><path class="cls-2" d="M107.85,64.49a4.76,4.76,0,0,1-.12,1.88Z"/><path class="cls-2" d="M107.52,60.68v1.73A4.2,4.2,0,0,1,107.52,60.68Z"/><path class="cls-1" d="M54.3,243.78a9.52,9.52,0,0,1,.12,2.87,15.65,15.65,0,0,0,.71,5.17,5.53,5.53,0,0,1,.26,2.08,1.15,1.15,0,0,0,.67-1.06,2.26,2.26,0,0,1,1-1.59c.77-.2.93-.95,1.34-1.47s.64-1.25,1.57-.9c.13.05.37-.18.56-.29.07.36.2.42.57.24a27.86,27.86,0,0,0,3.43-2.21c.25-.17.45-.42.79-.4.39.26.19.52,0,.73a10.29,10.29,0,0,1-1,.82c-.15.1-.37.18-.33.42s.19.25.35.29a.4.4,0,0,0,.53-.24.74.74,0,0,1,.23-.34.66.66,0,0,1,.64.06c-.11.7.49,1,.83,1.46a25.8,25.8,0,0,1-2.6,2.83c-1.63,1.76-3.16,3.59-4.87,5.42a14,14,0,0,0,3-.21c3.24-.4,6.45-1.33,9.75-.88a15.08,15.08,0,0,0,4.23.45c.55-.07,1.11,0,1.65-.12a2.78,2.78,0,0,1,2.29.64,1.16,1.16,0,0,1-.57.43,13.78,13.78,0,0,0-1.81-.23c-.39-.05-.82-.44-1.14.14a4.33,4.33,0,0,1-3.15-.07,4.75,4.75,0,0,0-5,.82,7.09,7.09,0,0,1-4,1.68,3.33,3.33,0,0,0-2.58,1.76,3.22,3.22,0,0,1-3.47,1.84,8.24,8.24,0,0,0-1,.07,1.59,1.59,0,0,1-.51-.16c-.06,0-.16-.09-.19,0s.07.18.13.26c.24.34.67.45.93.77,0,.31-.29.45-.3.73a7.85,7.85,0,0,0,.5,3.39c.09.73.09.73.47.68A3.31,3.31,0,0,0,59,268.2a1.88,1.88,0,0,0-.49-1.88.56.56,0,0,1-.2-.51c.06-.15.2-.27.31-.2.69.4,1.38,0,2.07,0a2,2,0,0,1,.59.09c.34.36.73.22,1.12.1A29,29,0,0,1,68.56,267c.52.34.94,1,1.71.56a8.48,8.48,0,0,1,2,.47c.34.15.54.71,1,.36a1.63,1.63,0,0,1,1.29.49.41.41,0,0,1-.1.49c-2.36-.33-4.6-1.13-6.92-1.63a46.32,46.32,0,0,0-6.53-1.08c-.67,0-.85.19-.9.8a4.26,4.26,0,0,1-1.35,3.25c.66,1.09,1.81,1.6,2.75,2.38a4.41,4.41,0,0,1,1.82,2.48,3.17,3.17,0,0,1-2.06,3.56,20.46,20.46,0,0,1-3.43.93,6.14,6.14,0,0,0-4.61,3.64,4.93,4.93,0,0,1-.58,1,1.5,1.5,0,0,1-2.07.6,3,3,0,0,1-2.3-2.43c-.09-.57-.44-.54-.86-.37a32.46,32.46,0,0,0-11.31,7.17,29.87,29.87,0,0,0-2.42,2.73,4.34,4.34,0,0,1-5.34,1.19,3.06,3.06,0,0,0-2.48-.37,4,4,0,0,1-3.72-.5.33.33,0,0,0-.37-.06c-1.2.56-2.22,0-3.17-.61-.49-.31-.95-.65-1.46-.93-.86-.46-1.06-.94-.7-1.83a35.91,35.91,0,0,0,2.29-8.7A1.67,1.67,0,0,1,20.17,279a6.32,6.32,0,0,0,2.61-1.34,17.86,17.86,0,0,1,6.9-3.09l10.85-2.6a42.11,42.11,0,0,1,6.71-1.1c.35,0,.51-.47.89-.32a3.3,3.3,0,0,0,1.68-.22,4.9,4.9,0,0,1,1.21-.18c-.67-.09-.71-.14-.88-1.45v-.33c.33-.82.06-1.7.27-2.55.12-.48-.38-.27-.64-.28a.61.61,0,0,1-.11-.58,1.83,1.83,0,0,0,.29-1.05c0-.32-.21-.11-.32-.15a.37.37,0,0,0-.49-.16c0-.44-.26-1,.65-1,.28,0,.18-.47.14-.72-.15-1.13-.36-2.27-.53-3.4-.37-2.54-.91-5.06-1.11-7.63,0-.06,0-.12,0-.17a1.12,1.12,0,0,1,.28-1.42c.49-.41.67.35,1.07.31s.35.45.4.72a24.13,24.13,0,0,0,1.47,5c0,.06,0,.19.14.12a1.84,1.84,0,0,0,.15-2,42.76,42.76,0,0,1,.57-6.4c.4-.25.59.35,1,.24a3.21,3.21,0,0,1,.72,1c0-1.22,0-2.35,0-3.48C54.05,244.43,54,244,54.3,243.78Z"/><path class="cls-1" d="M35.83,227a5.36,5.36,0,0,0,1.51-.5c2.39.8,3.24,2.07,3.36,4.76a41,41,0,0,1-.45,5.86,18.35,18.35,0,0,0,0,3.63,9.91,9.91,0,0,1-.21,4,4.69,4.69,0,0,0,.27,2.91,5.19,5.19,0,0,1,.38,1.69,2,2,0,0,1-1.3,1.93,2,2,0,0,1-2.18-.61c-.31-.34-.59-.72-.9-1.11-.85.78-.76,1.84-.93,2.77a63.54,63.54,0,0,0-.53,12.48,22.77,22.77,0,0,1-.06,3,3.06,3.06,0,0,1-3.41,3,2.58,2.58,0,0,0-1.36.27,1.34,1.34,0,0,1-2.14-.74,2,2,0,0,0-1.76-1.58,1.29,1.29,0,0,1-1.09-1.1,1,1,0,0,0-.82-.83,2.45,2.45,0,0,1-1.81-1.6c-.91-2-2-4-3-6a1.51,1.51,0,0,1-.31-1c.4-2.26.05-4.52,0-6.78a8.69,8.69,0,0,1,1.34-4.94c1.49-2.34,2.84-4.77,4.25-7.16.12-.21.25-.41.38-.62.08,0,.2,0,.23-.06.54-.69,1.06-1.39,1.58-2.08.76-.21,1.47.17,2.2.17a1.57,1.57,0,0,0,1.43,0,12.68,12.68,0,0,0,3.35-1.58A5.13,5.13,0,0,0,35,234.16c-.65-.06-1.28.23-1.93.11a.53.53,0,0,1-.26-.23c.07-.48-.11-.95,0-1.44.82-.84,2-1.32,2.68-2.27.17-.21.42-.35.55-.68a5.89,5.89,0,0,1-2.86.61.69.69,0,0,1-.4-.58.49.49,0,0,1,.39-.38,6.58,6.58,0,0,0,2.56-1.7C35.87,227.45,36.36,227.32,35.83,227Z"/><path class="cls-1" d="M116.66,106.54H117c.43.19.36.58.38.93,0,.77,0,1.54,0,2.32a3.27,3.27,0,0,0,.49-1.61c.4-1.17.82-2.34,1.32-3.47.4-.91,1.3-1.48,1.75-2.39.14-.28.25-.63.67-.63.09.1.16.27.26.29.68.18.59.6.51,1.14s-.55.79-.23,1.27a5.47,5.47,0,0,1-.7,1.65,9.73,9.73,0,0,0-1.15,3.51c-.2,1.33.69,2.33,1.64,3.18a34.74,34.74,0,0,0,3.24,2.44,17.72,17.72,0,0,1,3.23,2.82,1.11,1.11,0,0,0,.84.45,6.61,6.61,0,0,1,2.66,1.09.6.6,0,0,1,.38.59c-.33.29-.62,0-.9-.11-.68-.31-1.35-.67-2.05-1-.1,0-.06.15,0,0s0,0,.08,0a.39.39,0,0,1,.26.46c-.47,1-.76,1.12-1.79.77a1.1,1.1,0,0,0-.4,0,8,8,0,0,1-2-1.41,8.82,8.82,0,0,0-1.68-1.16c-.49-.1-.94.35-1.46,0a2,2,0,0,0,.71,1.47c.4.94.86,1.85,1.32,2.76l.07.15c.22.62.64,1.3.09,1.86s-1.17,0-1.74-.21c-.13,0-.24-.15-.4-.14-.11.28,0,.53.1.78a15.94,15.94,0,0,1,.06,7.14,5.11,5.11,0,0,1-.66,1.6c-.12.18-.26.42-.51.31s-.23-.37-.19-.58a26.34,26.34,0,0,0,.52-3.18,3.1,3.1,0,0,0-.15-1.55,14.19,14.19,0,0,0-1.83,2.43c-.34.73,0,1.62.08,2.44q.33,3.63.93,7.22a1.34,1.34,0,0,1,0,.66,1.2,1.2,0,0,0-.15.87,97.85,97.85,0,0,0,2.8,12.79c1,3.36,2.07,6.67,3.21,10,.13.38.36.77,0,1.17l-.33.16a1.23,1.23,0,0,1-.41-.7,148.3,148.3,0,0,1-5.52-19.72c-1-5.12-1.66-10.31-2.3-15.5-.43-3.48-.79-7-1.09-10.47-.19-2.23-.32-4.47-.36-6.7,0-1.69-.14-3.37-.19-5A1.35,1.35,0,0,1,116.66,106.54Z"/><path class="cls-1" d="M123.3,154.5c-.66-2.06-1.14-4.16-1.66-6.26s-1-4.38-1.29-6.6c0-.2-.39-.72.28-.75.54.53.4,1.29.64,1.93s.52.74,1.06.64a27.47,27.47,0,0,1,10.68.63,19.77,19.77,0,0,1,2.41.88c.24.08.55.35.74,0s-.09-.52-.3-.71a25.94,25.94,0,0,0-5.38-4c-.54-.27-1.09-.54-1.65-.78-.29-.12-.8-.23-.66-.59s.62-.17,1-.07a11.72,11.72,0,0,1,2.08.83c1,.54,2,1.14,3,1.69a18.41,18.41,0,0,0-3.09-2.47c-.29-.2-.85-.41-.59-.83s.66,0,1,.18a14.13,14.13,0,0,1,6.79,8c.1.28.05.79.47.75s.35-.53.38-.84a18.54,18.54,0,0,0-.63-7.14c-.11-.37-.47-1,0-1.11s.63.49.82.86a13.87,13.87,0,0,1,1.09,7.36c0,.2-.06.38-.07.58a1.34,1.34,0,0,0,0,.48c2.09-3.09,3.72-6.32,4-10a12.83,12.83,0,0,0-2.09-7.39,14,14,0,0,0-.95-1.46c-.16-.22-.44-.48-.17-.72s.57,0,.78.24a23.67,23.67,0,0,1,2.2,2.69,17.21,17.21,0,0,0,2.28,2.59,16.43,16.43,0,0,0-5.56-6.53,49.33,49.33,0,0,0-5.49-3.42c-.29-.16-.81-.34-.65-.71s.7-.2,1.05-.07c.87.35,1.73.73,2.58,1.15a10.17,10.17,0,0,0,2.74.92c.33.06.72.21.93-.25a.37.37,0,0,1,.54-.17c.2.11.2.3.17.5a4.85,4.85,0,0,0-.09.55l-.14.08c-.31.08-.76,0-.83.38s.36.45.57.65a19.8,19.8,0,0,1,4.94,6.57,13.19,13.19,0,0,1,.94,3.72c-1.1-.92-1.65-2.21-2.85-3,.07.84.17,1.55.17,2.26a19.46,19.46,0,0,1-2.9,10.12,14.59,14.59,0,0,1-2.46,3.51c-.15.14-.3.41-.54.3s-.19-.42-.16-.67.16-.59,0-.89c-.28-.05-.36.22-.55.32s-.56.17-.68-.25a6.68,6.68,0,0,0-.41-1.08c-.18-.36-.11-1.17-.91-.6-.05,0-.2-.07-.3-.11-4-1.83-8.18-2.15-12.47-2.05-.3,0-.6,0-.91.05-1.63.12-1.9.46-1.52,2.08.56,2.35,1,4.71,1.77,7a2,2,0,0,1,0,.49A.45.45,0,0,1,123.3,154.5Z"/><path class="cls-1" d="M74.5,269.37v-.54c.45-.34.91-.06,1.35,0a2.7,2.7,0,0,0,2.32-.61c.54-.46.49-.89-.1-1.26a2,2,0,0,0-2.19-.12,2.76,2.76,0,0,1-1.22.49,1.08,1.08,0,0,1-1.16-.64c-.17-.49.24-.74.58-1a2.53,2.53,0,0,1,.36-.2c.47-.2.42-.45.08-.73a5.85,5.85,0,0,0-2.5-1.25,16.31,16.31,0,0,1-4-1.22c-.39-.2-1.1-.39-.88-.89s.78,0,1.17.15a8.53,8.53,0,0,0,3.37.75,1.85,1.85,0,0,1,1.16.37c1.12.77,2.3,1.44,3.41,2.22a7.44,7.44,0,0,0,1.59.87,3.11,3.11,0,0,1,2,1.9.93.93,0,0,0,.8.62,10.85,10.85,0,0,0,2.48.14,2,2,0,0,0,1.31-.63.91.91,0,0,0,.27-1.06,1,1,0,0,0-1-.68,3.18,3.18,0,0,0-1.28.32,3,3,0,0,1-1.69.27,1,1,0,0,1-.91-.75c-.11-.5.31-.71.66-.93a9.72,9.72,0,0,0,1.17-.55c-1.64-1.11-2.83-2.72-4.77-3.38a11.53,11.53,0,0,1-4-2,4,4,0,0,1-.44-.38c-.18-.2-.47-.43-.29-.71s.52-.06.74.06a26.17,26.17,0,0,0,4.13,1.7,8.93,8.93,0,0,1,2.72,1.87c1.18.95,2.35,1.92,3.62,2.77a1,1,0,0,0,1.07.19c.88-.4,1-.65.3-1.36l-.48-.57a4.9,4.9,0,0,0-2.64-2,5,5,0,0,1-1.95-1.08c-.18-.16-.39-.38-.19-.64s.4-.08.6,0c.79.39,1.64.64,2.47,1A4.85,4.85,0,0,1,85,261.81a6.3,6.3,0,0,0,1.8,1.8,8.78,8.78,0,0,1,2.72,2.5,1.38,1.38,0,0,0,1.79.07.58.58,0,0,0,.06-.76,1.19,1.19,0,0,0-1.42-.58,2.53,2.53,0,0,1-1,.18,1.13,1.13,0,0,1-.92-.64c-.17-.37.19-.59.43-.81.7-.61.69-.59.17-1.4a3.87,3.87,0,0,0-2.14-1.7c-1.93-.66-3.94-1.12-5.84-1.87-.4-.16-1-.14-1.1-.71,0-.34.26-.34.5-.34,1.89.52,3.78,1,5.66,1.58a6.54,6.54,0,0,1,4.18,3.25,13.88,13.88,0,0,0,1.94,2.26c.43.52,1.07,1.07.62,1.81a1.86,1.86,0,0,1-2,.93,3.37,3.37,0,0,0-1.83.41,3.71,3.71,0,0,1-2.71.4c-.25-.09-.4.07-.55.24a3.56,3.56,0,0,1-3.11,1c-.88-.06-1.76-.15-2.64-.25a3,3,0,0,0-2.13.49.67.67,0,0,1-.54.14A17.24,17.24,0,0,1,74.5,269.37Z"/><path class="cls-1" d="M123.3,154.5V154a55.53,55.53,0,0,1,1.86,5.45q1,3,2.12,6a3.25,3.25,0,0,1,.19,1.52c-.24,1.91-.32,3.83-.54,5.74s-.37,3.87-.6,5.8c-.17,1.34-.3,2.7-.38,4s-.33,2.74-.46,4.11-.19,2.57-.32,3.85c-.15,1.43-.36,2.84-.5,4.26-.07.67-.12,1.35-.19,2-.16,1.69-.29,3.38-.5,5.07s-.13,3.16-.36,4.71c-.17,1.13,0,2.27-.28,3.41a18.76,18.76,0,0,0-.19,2.51c-.19,2.53-.27,5.07-.39,7.6-.16.9,0,1.82-.11,2.72l-.06,2.76c-.14.73.05,1.47-.11,2.19-.19,1.53-.28,3.07-.48,4.6a19.1,19.1,0,0,0-.17,2.27c0,1.91-.27,3.81-.38,5.71-.14,2.16-.26,4.31-.35,6.47-.15.67.06,1.35-.12,2,0,.66,0,1.32,0,2s.07,1.35-.12,2l0,2c-.14.67.06,1.35-.11,2l0,2c-.15.67.06,1.36-.11,2l-.06,2.12c-.14.72.06,1.46-.12,2.18l0,2.13c0,.08-.09.08-.14,0a2,2,0,0,1-.33-1.25c-.1-1.71.35-3.38.41-5.06s.23-3.32.2-5c0-.89.16-1.75.13-2.6,0-1.54.29-3.06.2-4.57a10.5,10.5,0,0,1,.18-3.07s0,0,0-.08c-.33-1.52.31-3,0-4.55a.53.53,0,0,1,0-.25c.54-1.27.31-2.66.36-4s.5-2.69.15-4.05a2,2,0,0,1,.16-1,2.43,2.43,0,0,0,0-1.62.48.48,0,0,1,0-.33c.52-1.25.25-2.6.34-3.88a11.35,11.35,0,0,0,.17-3.63.3.3,0,0,1,0-.16c.44-1.08.19-2.22.3-3.32a17.56,17.56,0,0,0,.2-4c0-.06,0-.12,0-.17.54-1.16.24-2.43.35-3.63a16.74,16.74,0,0,0,.22-3.47,1.34,1.34,0,0,1,0-.4c.24-1.33.22-2.68.35-4,.08-.88.11-1.77.22-2.66a18,18,0,0,0,.25-3.37,9.6,9.6,0,0,1,.22-2.08c.15-1,.15-1.94.26-2.9a31,31,0,0,0,.34-4.41,10.9,10.9,0,0,1,.21-1.83c.21-1.39.24-2.79.46-4.18.27-1.72.35-3.47.54-5.21a25.64,25.64,0,0,0,.44-3.77c0-1.07.52-2.09.13-3.14-.2-.52.16-1,.18-1.44,0-.87-.2-1.7-.18-2.55a17.75,17.75,0,0,0-1.15-3.78c-.83-2.28-1.4-4.63-2.15-6.93A1.11,1.11,0,0,1,123.3,154.5Z"/><path class="cls-1" d="M142.56,125.13c-.42-.06-.3-.26-.13-.48s.17-.3,0-.43-.29-.07-.4.08c-.34.23-.6,0-.88-.15-.28-.35-.58-.66-1.09-.4a26.6,26.6,0,0,1-5.08-2.12,1.14,1.14,0,0,0-1.46-.67c-.51-.13-1-.2-1.29-.77a4.56,4.56,0,0,0-2.91-1.51,1.65,1.65,0,0,1-1.15-.63,21.6,21.6,0,0,0-4-3.36,13.42,13.42,0,0,1-3.34-2.9,2.87,2.87,0,0,1-.55-3c.29-.71.46-1.47.7-2.2.08-.26.13-.56.48-.6.12.57-.29,1-.4,1.52s-.22,1-.29,1.47a7.91,7.91,0,0,0,0,1.82,34.61,34.61,0,0,0,8.3,6.53,58.54,58.54,0,0,0,5.93,3.09c2.36,1,4.64,2.29,7.1,3.12a3.22,3.22,0,0,1,1,.51c.2.15.65.12.58.45a.76.76,0,0,1-.69.51C142.83,125.07,142.69,125.11,142.56,125.13Z"/><path class="cls-1" d="M118.32,245.94a.87.87,0,0,1,.08.71,3.35,3.35,0,0,0,0,1.72,8.39,8.39,0,0,1-.09,3.63,5.41,5.41,0,0,0,0,2.77c.26.71-.09,1.31-.21,1.92a9.43,9.43,0,0,0,.1,3.27,3.85,3.85,0,0,1-.24,1.34c-.25,1.52.19,3.07-.3,4.56a1.57,1.57,0,0,0,.09.9,1.49,1.49,0,0,1-.21,1.41c-.26-.32-.14-.66-.06-1,0-1.05,0-2.09,0-3.14s-.07-2.12.12-3.17l0-2.31c.15-.71-.06-1.45.13-2.16l0-2c.17-.72-.06-1.46.13-2.18l0-2.14c.13-.68,0-1.37.1-2.05l.06-2.09C118.23,245.86,118.28,245.86,118.32,245.94Z"/><path class="cls-1" d="M119.15,221.38c.07,1.59.07,3.19.1,4.78a13.62,13.62,0,0,1-.23,4.54,1.57,1.57,0,0,0,0,1,1.2,1.2,0,0,1-.23,1.31,4.81,4.81,0,0,1,0-2l0-3c.14-1-.06-2,.1-3l.06-3.58C119.06,221.3,119.11,221.3,119.15,221.38Z"/><path class="cls-1" d="M50.14,268.67c0,.05.09.09.1.14.32,1.15.31,1.15,1.59,1.13a8.25,8.25,0,0,1-3.7.58l1.26-.22c.44-.06.48-.41.6-.74A5.71,5.71,0,0,0,50.14,268.67Z"/><path class="cls-1" d="M118.49,241.63a19.47,19.47,0,0,0,.2,2.54,1.66,1.66,0,0,1-.34,1.44,4.17,4.17,0,0,1,0-1.86l0-2.13C118.4,241.55,118.45,241.55,118.49,241.63Z"/><path class="cls-1" d="M118.82,233.17a8.8,8.8,0,0,0,.13,1.77c.09.39.2.88-.24,1.21-.24-.28-.14-.58-.07-.87l0-2.12C118.74,233.08,118.78,233.09,118.82,233.17Z"/><path class="cls-1" d="M118.65,237.47a7.52,7.52,0,0,0,.2,1.26.9.9,0,0,1-.31,1.07c-.18-.09-.14-.22-.06-.35l0-2C118.56,237.4,118.6,237.4,118.65,237.47Z"/><path class="cls-3" d="M119.15,221.38H119a36.3,36.3,0,0,1,.12-4.17C119.15,218.6,119.15,220,119.15,221.38Z"/><path class="cls-3" d="M117.49,267.16l.06,1c-.17,1,.14,2-.19,3A29.66,29.66,0,0,1,117.49,267.16Z"/><path class="cls-3" d="M120,195.16l-.05,3a.1.1,0,0,1-.14,0,28.93,28.93,0,0,1,.12-3.84Z"/><path class="cls-3" d="M117.65,260.85a12.94,12.94,0,0,1-.12,3.17A19.73,19.73,0,0,1,117.65,260.85Z"/><path class="cls-3" d="M119,225a11.13,11.13,0,0,1-.1,3A19.44,19.44,0,0,1,119,225Z"/><path class="cls-3" d="M119.86,184.87a9.93,9.93,0,0,1,.1,2.88C119.93,186.79,119.89,185.83,119.86,184.87Z"/><path class="cls-1" d="M117.34,273.15a.53.53,0,0,1,.15.53c-.1.66.33.9.83,1.1-.78.19-1.13-.1-1-.91C117.33,273.64,117.33,273.39,117.34,273.15Z"/><path class="cls-3" d="M122.66,222.77a8.57,8.57,0,0,1,.11-2.72A17.63,17.63,0,0,1,122.66,222.77Z"/><path class="cls-3" d="M119.81,200.62a7.78,7.78,0,0,1-.13,2.5A11.59,11.59,0,0,1,119.81,200.62Z"/><path class="cls-1" d="M119.85,198.15H120a.7.7,0,0,1-.15,1.15Z"/><path class="cls-3" d="M118,252.22a5.52,5.52,0,0,1-.13,2.18A10,10,0,0,1,118,252.22Z"/><path class="cls-3" d="M120.14,267.18h.14a11,11,0,0,1-.11,2.22Z"/><path class="cls-3" d="M119.63,205.07a5.82,5.82,0,0,1-.11,2.2A9.53,9.53,0,0,1,119.63,205.07Z"/><path class="cls-3" d="M119.47,209.24a5.53,5.53,0,0,1-.13,2.18A10,10,0,0,1,119.47,209.24Z"/><path class="cls-3" d="M117.82,256.38a6,6,0,0,1-.13,2.16A9.77,9.77,0,0,1,117.82,256.38Z"/><path class="cls-3" d="M122.49,227.72a6,6,0,0,1,.11-2.19A8.92,8.92,0,0,1,122.49,227.72Z"/><path class="cls-3" d="M118.82,233.17h-.13a9.25,9.25,0,0,1,.12-2.17l0,2A1.1,1.1,0,0,1,118.82,233.17Z"/><path class="cls-3" d="M118.65,237.47h-.14a10.76,10.76,0,0,1,.13-2.2c0,.29,0,.58.07.87Z"/><path class="cls-3" d="M118.48,239.45l.06.35c0,.61,0,1.22-.05,1.83h-.13A9.31,9.31,0,0,1,118.48,239.45Z"/><path class="cls-3" d="M120.32,265.05a6.14,6.14,0,0,1,.12-2.18A8.85,8.85,0,0,1,120.32,265.05Z"/><path class="cls-3" d="M118.31,243.75c0,.62,0,1.24,0,1.86l0,.33h-.13A9.48,9.48,0,0,1,118.31,243.75Z"/><path class="cls-3" d="M120.82,252.77a5.28,5.28,0,0,1,.12-2A8,8,0,0,1,120.82,252.77Z"/><path class="cls-3" d="M118.13,248a5.06,5.06,0,0,1-.1,2.05A9.37,9.37,0,0,1,118.13,248Z"/><path class="cls-3" d="M120.66,256.76a5.29,5.29,0,0,1,.11-2A8,8,0,0,1,120.66,256.76Z"/><path class="cls-3" d="M121,248.78a5.24,5.24,0,0,1,.12-2A7.94,7.94,0,0,1,121,248.78Z"/><path class="cls-3" d="M120.5,260.75a5.14,5.14,0,0,1,.11-2A9.19,9.19,0,0,1,120.5,260.75Z"/><path class="cls-1" d="M119.34,214.9c.47.47.07.81-.18,1.16l0-1A.25.25,0,0,1,119.34,214.9Z"/><path class="cls-3" d="M119.34,214.9l-.16.17a8,8,0,0,1,.13-2Z"/><path class="cls-3" d="M120,273.52a4.33,4.33,0,0,1,.11-1.86A6.43,6.43,0,0,1,120,273.52Z"/><path class="cls-3" d="M120.77,110.85a2.54,2.54,0,0,1,0-1.82Z"/><path class="cls-3" d="M119.69,181.22a4.4,4.4,0,0,1,.12,1.84A6.69,6.69,0,0,1,119.69,181.22Z"/><path class="cls-4" d="M133.29,51.43a4.52,4.52,0,0,1-1.68-.08C132.17,51.41,132.74,51.17,133.29,51.43Z"/><path class="cls-5" d="M54.3,243.78V249l-1.2-1.71c-.5-.78-.1-1.59-.17-2.27-.19.54.12,1.3-.33,1.92-.16,1.29-.4,2.57-.47,3.87-.05.92-.13,1.85-.17,2.78a2.62,2.62,0,0,1-.33,2c-.05.18-.06.35-.21,0a21.48,21.48,0,0,1-1.63-5.48c0-.19,0-.39-.16-.54a23.21,23.21,0,0,0-.87-3.95c0-.12-.09-.3-.27-.24s-.2.26-.17.42a4.83,4.83,0,0,1,0,2.17c-.21-1.05-.44-2.1-.64-3.16A80.33,80.33,0,0,0,43,228.18a34.7,34.7,0,0,0-9.54-13.27,1.49,1.49,0,0,1-.11-.24,35.08,35.08,0,0,1,11.17,6.13,5.23,5.23,0,0,0-1.91-2.41,24.15,24.15,0,0,0-7.31-4,11.11,11.11,0,0,1-3-1.5c4.79-2,7.74-5.9,10.43-10-3.2,3.22-5.63,7.32-10.15,9.09a37.85,37.85,0,0,0,4.5-9.54,82.17,82.17,0,0,0,2.4-10.5,3.71,3.71,0,0,0-.8,1.53A39.05,39.05,0,0,1,36,201.12a7.87,7.87,0,0,1-.72,1.21,77.31,77.31,0,0,0,3-17.06c.38-5.93-1.26-11.52-2.77-17.11l-.27.62c-.38-.62-.36-.61-.13-2.85a20.31,20.31,0,0,1,.84-3l-2.23,2.1c-.05-1.45,1.09-3,3.76-5.14a4,4,0,0,0-3.23.7c-.94.55-1.84,1.19-2.93,1.92a7.46,7.46,0,0,1,4.91-4.08c2.18-.63,4.2.29,6.28.79-1.37-1-3.11-1.39-4.24-2.77l2.92,1.06a30.56,30.56,0,0,0,6.67,1.58c.51.07.6.2.41.66a31,31,0,0,1-1.9,3.49,11.51,11.51,0,0,0-1,2.11c.8.23,1.15-.7,1.91-.66-.07.78-.15,1.57-.19,2.35a12.6,12.6,0,0,0,2.12,8.26c.15.2.25.54.5.5s.35-.38.44-.65a6.84,6.84,0,0,0,.1-2.3,14.25,14.25,0,0,1,.31-3.08c.48.22.46.62.53.93a35.27,35.27,0,0,0,3.45,9c.12.22.3.45.17.7-.81,1.44-.61,3.06-.76,4.61-.81,8-.27,16-.3,23.94,0,3.59,0,7.18.13,10.77.17,5.86.23,11.72.36,17.57C54.2,239.47,54.18,241.63,54.3,243.78Z"/><path class="cls-6" d="M47.21,163.69c2.24-4.21,5-8.23,4.7-13.42-.43.4-.24,1-.55,1.36A13.84,13.84,0,0,0,49.87,149c-.15.82.33,1.42.25,2.13a7.32,7.32,0,0,0-2.87.17,1.35,1.35,0,0,0-1.13,1.55,5,5,0,0,0,1,2.58c.62.86,1.26,1.72,2,2.7-4.43-.09-8.36-1.67-12.47-2.94a3.32,3.32,0,0,0,.93,1.58c.32.43.33.59-.28.71a19,19,0,0,0-3.72.79.86.86,0,0,1-.69-.06c1.61-5.37,3.75-10.35,9.14-13.09a1.76,1.76,0,0,0-1.83.2,35.67,35.67,0,0,0-10.27,7.86s-.09.06-.18.12a2.37,2.37,0,0,1,.41-1.22c2.08-4.09,5.5-6.73,9.41-8.9a16.33,16.33,0,0,1,9.37-1.74l.67.05a2.87,2.87,0,0,0-1.86-.63c-.86,0-1.71,0-2.57.06a4.07,4.07,0,0,1-1.56-.1,22.67,22.67,0,0,0-6.29-.85,12,12,0,0,1,3.56-.61c3.07-.14,6.12.29,9.19.35a17.28,17.28,0,0,0,2.59-.12c-.94-.8-2.17-.56-3.15-1.15a27.77,27.77,0,0,1,3.87.29c.64.1.37.57.33.9-.26,2.39-.62,4.77-.74,7.17a12.49,12.49,0,0,0,.58,4.82,1.48,1.48,0,0,1,0,1.2l0,.08c-1,3.34-.8,4.15,2.71,6A32.08,32.08,0,0,1,61,161.39a33.34,33.34,0,0,1,6,6.17c2.09,2.64,4,5.43,6.22,8a27.17,27.17,0,0,0,4.06,3.89c.16.12.28.37.68.2-1.35-1.58-3.12-2.74-4.09-4.59,3.67.73,12.92,10.2,15,15.37a11.14,11.14,0,0,0-3.39-2.48l.88,1.26a27.49,27.49,0,0,0-7.72-2.39L83,188.52c-7.68.11-13.53-3.89-19.2-8.58a12.71,12.71,0,0,0,3.63,3.75,28.09,28.09,0,0,0,4.47,2.83c1.54.78,3.15,1.41,4.73,2.11a25.48,25.48,0,0,1-9.17-2.48,16.64,16.64,0,0,1-8-7.76,20.19,20.19,0,0,1-1.43-5.5c-.27-1.58-.47-3.16-.78-4.74-.33,2.78.24,5.5.56,8.24-1.33-3.18-1.45-6.6-2-9.94h-.2c0,.6,0,1.2,0,1.8s0,1.27.09,1.9a22.26,22.26,0,0,0,2.8,9.52c.51.88,1.39,1.48,1.92,2.38A12.32,12.32,0,0,1,62,185.66a21.54,21.54,0,0,1-8.8-11,21,21,0,0,1-.79-14c-2,4.09-2.42,8.57-3.25,13.08a8.36,8.36,0,0,1-.88-2.47,12.3,12.3,0,0,1,.94-8.77,28.45,28.45,0,0,0,1.84-4.58C49.61,159.73,48.9,162,47.21,163.69Z"/><path class="cls-5" d="M65.39,246.28c-1.57,1.05-3,2.34-4.88,3l.07-.69q2.67-4.23,5.36-8.46a15.93,15.93,0,0,0,1.67-3.57c-1.82,2-3,4.44-4.67,6.56.38-1,.76-1.92,1.15-2.88s.94-2.18,1.36-3.28a8.71,8.71,0,0,0,.45-4.47c-.44-3.14-.86-6.28-2.36-9.15a5.23,5.23,0,0,0-1.22-1.74,29.13,29.13,0,0,1,2.38,9.73c-.29-.07-.36-.33-.46-.52a80,80,0,0,0-9-13.2,2,2,0,0,1-.51-1.42c0-1.85-.06-3.7-.13-5.55,0-.52.12-.72.69-.73a73.14,73.14,0,0,0,17.28-2.57c.47-.12.9-.29,1.32.23,3.07,3.76,6.43,7.29,9.13,11.35a30.1,30.1,0,0,1,2.81,5.16,4.57,4.57,0,0,1-2.17-1.86,28.12,28.12,0,0,1-2-3.79,11.1,11.1,0,0,0-1.4-2.07,1.08,1.08,0,0,0,.25.89,35.4,35.4,0,0,1,3.07,6.95c1.36,4.75.49,8.93-3,12.48a30,30,0,0,1-4.19,3.52c1.52-2.22,3.28-4.3,4.34-6.83-.5.71-1,1.43-1.52,2.11a59.76,59.76,0,0,1-10.44,10.7,18.43,18.43,0,0,1-3,1.78c-.17,0-.36.26-.51,0a3.51,3.51,0,0,1,1-1.32c2.09-2.08,4.19-4.16,6.17-6.35a37.85,37.85,0,0,0,3.35-4.36c-1.17,1.53-2.57,3-4,4.51a58,58,0,0,1-5.44,5.31A1.94,1.94,0,0,1,65.39,246.28Z"/><path class="cls-7" d="M62.78,185.29c.35,0,.46.45.87.4,0-.55-.52-.83-.74-1.24.12-.13.2,0,.28,0,3.48,2.82,7.6,4.08,11.9,4.87a8.18,8.18,0,0,0,3.12.06,13.13,13.13,0,0,1,4.27.35,7.27,7.27,0,0,0,2.23.05,2.22,2.22,0,0,1,1.69.41,11.13,11.13,0,0,1,3.36,2.5,1.1,1.1,0,0,1,0,1.52,48.19,48.19,0,0,1-10.58,11.22.83.83,0,0,1-.38.17,38.82,38.82,0,0,1,3.45-4.74c-.12-.18-.22-.08-.28,0-3.26,3.7-7.52,5.47-12.23,6.42-3.64.74-7.34.92-11,1.32-1.12.12-2.25.21-3.37.37-.52.07-.73,0-.73-.58,0-2.43,0-4.86-.1-7.29-.1-3.9-.18-7.79-.11-11.69,0-1.07,0-2.15.1-3.23a6.37,6.37,0,0,1,1,2.37,20.11,20.11,0,0,0,4.57,8.06c.09.1.2.18.39.35-.08-1.14-.88-1.93-1-3.14a18.61,18.61,0,0,0,2.72,3.07l-1.63-2.48c1.79,1.21,3.23,2.84,5,4-2.61-3.16-5.82-5.78-8.23-9.36.27,1.64,1.07,2.92,1.33,4.55a16.89,16.89,0,0,1-2.42-4.84c-.53-1.54-.92-3.12-1.46-4.66-.38-1.1.06-2.1.14-3.29.92,1,1.72,1.79,2.51,2.63a10.35,10.35,0,0,0,3.91,2.72c.68.25,1.12.19,1.21-.62A.83.83,0,0,1,62.78,185.29Z"/><path class="cls-5" d="M33.19,230.17a11.14,11.14,0,0,0,3.38-.92,11.54,11.54,0,0,1-3.71,3.43c-.29.51-.84.6-1.31.8a9.06,9.06,0,0,1-2.79.73c.65,0,1.27-.27,1.93-.29a6.11,6.11,0,0,1,2.33.21l2.43-.26c-1.2,1.82-3,2.51-4.92,3.13a2.57,2.57,0,0,1-1.32,0,6.82,6.82,0,0,1-2.33-.34c-2.81-1.36-4-3.8-4.47-6.73-.18-1.09-.35-2.17-.51-3.26a1,1,0,0,0-.33-.63,42.19,42.19,0,0,0,.37,5.05,17.45,17.45,0,0,0,1.55,4.6,9,9,0,0,1-3.07-5.3c-1-4.48-.1-8.81,1.06-13.12,0-.08,0-.16.05-.25-.47.35-.53.44-.84,1.3-.19.52-.36,1-.54,1.57a4.41,4.41,0,0,1-.66,1.51A55.61,55.61,0,0,1,21,211.26a109,109,0,0,1,3.9-12.21,44.29,44.29,0,0,1,2.71-6.57,19,19,0,0,1,7.61-7.87c2-1.05,2.07-1,2,1.17a56.44,56.44,0,0,1-2.9,16.88,4.18,4.18,0,0,0-.22.71.61.61,0,0,0,.31.63c.27.2.47,0,.63-.2.31-.34.58-.72,1-1.26a20.79,20.79,0,0,1-2,5.39q-1.07,2.12-2.22,4.17a.88.88,0,0,0,.28,1.34c.39.27.67.57.46,1.1-.12.28.17.37.32.5a21.2,21.2,0,0,1,3.42,3.6,1,1,0,0,1,.13,1.12A20.8,20.8,0,0,0,34.44,225a9.27,9.27,0,0,0-.24,2.22c0,.2,0,.43.21.5s.3-.2.34-.35c.18-.69.7-.32,1.08-.38.21.16.57.19.18.61a8.41,8.41,0,0,1-3.16,2c-.6.66-1.41.24-2,.39A17.62,17.62,0,0,1,33.19,230.17Z"/><path class="cls-6" d="M81.13,125.86c-1.52.33-3.07-.21-4.54.65a15.06,15.06,0,0,1,10.3,2.86,20.13,20.13,0,0,1-2.58,1.4,7.34,7.34,0,0,0-1.57,1.2,2.29,2.29,0,0,1-.86.62A.92.92,0,0,1,80.5,132a4,4,0,0,0-1.65-2.66,1.25,1.25,0,0,0-2,.84,15.38,15.38,0,0,1-.39,1.52c-.11.3,0,.41.23.51a10,10,0,0,0,1.07.43A24.69,24.69,0,0,0,88,133.85a6.89,6.89,0,0,1,1.5.05,8.16,8.16,0,0,1-3.25.56,9.84,9.84,0,0,0-4.08-.18,17.81,17.81,0,0,0,3.45.8c6,1,11.12,3.55,15,8.39a9.82,9.82,0,0,1,.76,1.14c-2.09-1.28-3.94-2.93-6.3-3.72-2.71-.91-5.19-2.44-8-3a1.65,1.65,0,0,0-.59,0c9.73,3.78,17.3,9.72,20.43,20.15-.79-.92-1.54-1.87-2.34-2.79a30.8,30.8,0,0,0-8-6.95,12.1,12.1,0,0,0-3.73-1.51,1.21,1.21,0,0,0-1,0c.49.21.92.37,1.32.57a19,19,0,0,1,10.64,14,20.9,20.9,0,0,1-.84,10.37c-.1.33-.13.88-.55.91s-.65-.37-.89-.68a3.26,3.26,0,0,1-.69-1.58,14,14,0,0,0-3.08-6.59c-1.37-1.88-2.79-3.71-4.18-5.57-1.67-2.22-2.46-4.86-3.53-7.36a9.1,9.1,0,0,1-.51-1.31,3.62,3.62,0,0,0-2.64-2.47A24,24,0,0,1,84,146.06a4.27,4.27,0,0,1-2.15-2.58c-.57-1.64-.66-3.1.62-4.46a2.62,2.62,0,0,0,.45-1.05,1.91,1.91,0,0,0-.59-2.16,12.21,12.21,0,0,0-7.51-2.88,3.18,3.18,0,0,1-1.42-.33c-2.2-1.15-4.63-1.19-7-1.3a29.21,29.21,0,0,1-5.35-.52c-.62-.14-.79-.36-.47-.94s.44-.93.7-1.49c.49.62,0,1.26.32,1.94a22.91,22.91,0,0,1,14.87-8.44,56.57,56.57,0,0,0-5.58,3.49A17.58,17.58,0,0,0,66.26,130a14,14,0,0,1,11.52-4.9A5.94,5.94,0,0,1,81.13,125.86Z"/><path class="cls-5" d="M114.86,136.91v.5a4,4,0,0,1,.33,2.65v.5a4.58,4.58,0,0,1,.34,3.15c-.1.3.09.56.14.83,0,.48-.32.5-.67.5l-4.34,1.29,0-.08.78-.61a11.56,11.56,0,0,0-3.81,1.6c-1,.68-2,1.44-3,2.16-.26.19-.53.45-.83,0a53.31,53.31,0,0,0-5.46-5.78,3.05,3.05,0,0,1-.19-.33,25.17,25.17,0,0,1,3.28,2.26c.31.23.61.47.93.69.15.11.31.31.51.16s.1-.36,0-.54a12.11,12.11,0,0,0-2.11-3.63c-2.88-3.45-6.69-5.43-10.8-7l-1-.35c.94-.73,2.1-.88,2.91-1.77l-8.69-.31c.41-1,2.45-2.3,4.25-2.66-.22.67-.8.87-1.31,1.16s-1.13.43-1.51,1c3.69-1,7.36-2.19,11.25-1.25a7.82,7.82,0,0,1-5.24,1c.36.76,1,.71,1.52.79a61.54,61.54,0,0,0,12,.5,57.14,57.14,0,0,0,9.75-1.14c.24,0,.51,0,.52.34.64.93.33,2,.54,3A1.85,1.85,0,0,1,114.86,136.91Z"/><path class="cls-6" d="M101.71,214.16c-2-2.29-2.57-5-3.38-7.62a35.16,35.16,0,0,1-1.11-8.15c-.93,4.18.06,8.19,1,12.23a13.58,13.58,0,0,1-1.29-3.43c-1.08-4.31-1.65-8.73-3-13a18.07,18.07,0,0,0-5.43-8.61c1.81,3.13,4.42,5.89,4.55,9.81-2.37-5.31-6-9.74-9.71-14.15A14.59,14.59,0,0,1,86,182.81a14.11,14.11,0,0,0,3.59,1.82,4.08,4.08,0,0,0,4-.63,7.25,7.25,0,0,1,4.18-1.63c.54,0,.91-.49,1.3-.83a4.52,4.52,0,0,1,1-.82c.24,1-.14,2,.33,2.9.45-.2.24-.65.48-1a29.29,29.29,0,0,1,3,16.91,4.62,4.62,0,0,1-1.18-3.52,36.14,36.14,0,0,0,.15-3.89,13.58,13.58,0,0,0-1.21-4,36.48,36.48,0,0,1,.35,5.32c0,3-.4,6-.68,8.92a35.07,35.07,0,0,0,.37,11.29A3.83,3.83,0,0,1,101.71,214.16Z"/><path class="cls-8" d="M81.07,139.88a4,4,0,0,0-5.54-.31c-2.22,2.24-3.55,4.84-3,8.11a.75.75,0,0,1-.32.79,2.36,2.36,0,0,1-2.54.59,6.89,6.89,0,0,0-5.92.51A16.08,16.08,0,0,0,57,156a8.58,8.58,0,0,0-.45,1.07c1.19.11,1.27,1.18,1.81,1.85A10.88,10.88,0,0,1,54.49,157a2,2,0,0,1-.67-2.14,26.86,26.86,0,0,1,4.4-9.29A4.92,4.92,0,0,1,61,144c1.1-.36,2.23-.62,3.35-.94a10,10,0,0,0,6-4.9,15.38,15.38,0,0,1,2.18-3.4,3.37,3.37,0,0,1,3.35-1.1,12.87,12.87,0,0,1,5.21,2c1.24,1,1.38,1.41.81,2.87A4.51,4.51,0,0,1,81.07,139.88Z"/><path class="cls-9" d="M93.67,160.55a21.21,21.21,0,0,1,7,13.16.66.66,0,0,1-.19.67,24.1,24.1,0,0,1-6,4c-3,1.22-6,.86-8.94.11a32.94,32.94,0,0,1-11.17-5.62c-.58-.42-1.15-.86-1.74-1.3.29-.17.54.16.79,0-1.14-1.36-3.31-1.08-4.43-2.71a3.81,3.81,0,0,1,3.19.22c2.11,1.42,4.5,1.91,6.88,2.5A23.49,23.49,0,0,1,83.65,173a2.18,2.18,0,0,0,.23.09c.68.16,1.43.37,1.93-.26s0-1.2-.25-1.76c-.11-.24-.26-.47-.43-.78a7.2,7.2,0,0,1,4.42,1.3c1,.61,1.92,1.3,2.88,1.95.37.24.74.5,1.2.15a1.07,1.07,0,0,0,.36-1.17,41.26,41.26,0,0,1-.92-6c0-.57-.2-1.13.57-1.53.47-.24.61-1,.6-1.56A8.85,8.85,0,0,0,93.67,160.55Z"/><path class="cls-10" d="M57.11,251.25l-1,1.59c-.52-.36-.42-1-.45-1.45-.5-8.85-.79-17.7-.72-26.57,0-1.7-.07-3.42-.09-5.13,0-.25-.1-.54.11-.8.07,0,.16,0,.2.09A73.67,73.67,0,0,1,62.67,230c.44.85.78,1.76,1.23,2.61a6.07,6.07,0,0,1,.16,4.87,42.84,42.84,0,0,1-4.33,9.34C58.87,248.33,57.85,249.7,57.11,251.25Z"/><path class="cls-5" d="M60.11,134.2c-.64-.83-1.56-1.39-2.15-2.28-.05-.06-.13-.11-.16-.18-.11-.28-.57-.52-.22-.85s.55.13.75.29a12.63,12.63,0,0,0,3.94,2.28c-.78-.89-1.78-1.27-2.4-2.28a7.78,7.78,0,0,1,2.25,1,3.86,3.86,0,0,0,2.24.39c.16-.34-.32-.22-.3-.5a24.84,24.84,0,0,1,7.91.85c.57.19.74.46.32.95-1.61,1.87-2.88,4-4.55,5.8a8.72,8.72,0,0,1-5.5,3.06A8,8,0,0,0,57,146.16a21.62,21.62,0,0,0-2.47,4.17A1.62,1.62,0,0,1,54,149a45.68,45.68,0,0,1,.42-8,38.49,38.49,0,0,0,.42-5c0-.19-.12-.53.15-.57s.41.26.5.54c.16.51.09,1.1.46,1.57a5.5,5.5,0,0,0,.46-3.48,14.59,14.59,0,0,1-.1-2c0-.2,0-.41.22-.49s.36.07.51.19c.67.58,1.11,1.38,1.84,1.9A2.73,2.73,0,0,0,60.11,134.2Z"/><path class="cls-5" d="M13.92,170.34a4.39,4.39,0,0,0-1.65,0c2-1.33,4.29-.83,6.59-.72-.48-.45-1.13-.44-1.62-1a12.7,12.7,0,0,1,2.61,1.07A66.36,66.36,0,0,1,33.52,179c.5.43,1,.89,1.49,1.32s.37.55,0,.87a10.3,10.3,0,0,1-1.72,1.29c-.48.31-.75-.09-1-.38a41.06,41.06,0,0,0-6.65-5.84,30.17,30.17,0,0,0-6.23-3c-2.88-1.08-5,0-6.82,2a40.14,40.14,0,0,0-7.86,12.94A54,54,0,0,0,2.33,197c0,.19-.09.37-.12.56a.71.71,0,0,1-.66.65c-.41,0-.61-.3-.71-.68a11.62,11.62,0,0,1-.09-5.65,40.65,40.65,0,0,1,8.92-17.8A16.76,16.76,0,0,1,13.92,170.34Z"/><path class="cls-11" d="M92.8,160.5A17.9,17.9,0,0,0,91,164.56c-.94,2.63-3,3.57-5.55,3.89a10.9,10.9,0,0,0-4.16,1c-.37.22-.72.48-1.14.76a24.34,24.34,0,0,0,.49-4.79A11.25,11.25,0,0,0,78.74,159a49.36,49.36,0,0,0-7-8.35c-.54-.51-.57-.78.07-1.21.94-.64.89-.66,1.42.29A20.06,20.06,0,0,0,87.06,160a14.49,14.49,0,0,0,2.64.08A14.67,14.67,0,0,1,92.8,160.5Z"/><path class="cls-9" d="M101.71,173.39c.4.47.69.77.92,1.1a.88.88,0,0,1,.14,1.07c-1.39,2.09-2.7,4.25-4.81,5.74-.28.2-.58.39-1,.68.32-.92,1.09-1.53.8-2.56-.68.77-1.28,1.46-1.91,2.14a8.8,8.8,0,0,1-2,1.56,5,5,0,0,1-5,.13,106.56,106.56,0,0,1-10.89-6.6c-1.71-1.12-3.4-2.26-5.12-3.36a3.39,3.39,0,0,1-1.43-1.62l.82.56A45,45,0,0,0,84.62,179c2.75.88,5.54,1.52,8.45.72a16.34,16.34,0,0,0,6.19-3.4C100.17,175.55,101.27,174.92,101.71,173.39Z"/><path class="cls-12" d="M65.89,159.48a14,14,0,0,0-4.84.43.76.76,0,0,1-.93-.3c-.75-1-1.51-2-2.29-2.94a.47.47,0,0,1,0-.65,17.5,17.5,0,0,1,6.29-5.74,9.45,9.45,0,0,1,3-.92,5.49,5.49,0,0,1,4.41,1.69,31.4,31.4,0,0,1,3,3.28,1.08,1.08,0,0,1,.2,1.2,5.49,5.49,0,0,1-5.19,3.78C68.08,159.32,66.66,159.55,65.89,159.48Z"/><path class="cls-12" d="M73.18,146.36A7.54,7.54,0,0,1,76,140.12a4.19,4.19,0,0,1,2-.85,1.92,1.92,0,0,1,2.41,1.7c.2.94.31,1.9.53,2.84a3.66,3.66,0,0,0,1.61,2.42c.51.3.45.81.49,1.24a7.37,7.37,0,0,1-1.24,5,4.18,4.18,0,0,1-4.08,1.71,1.12,1.12,0,0,1-.74-.35c-1.56-1.68-3.09-3.39-3.67-5.71A6.67,6.67,0,0,1,73.18,146.36Z"/><path class="cls-13" d="M93.13,161.34a18,18,0,0,0-.72,5,25.77,25.77,0,0,0,.79,5.73c.07.31.41.72,0,1s-.59-.2-.84-.38c-1.78-1.21-3.51-2.52-5.69-3a4.44,4.44,0,0,0-3.61.55c1.56-.47,1.77.74,2.19,1.65.23.48.1.81-.54.69a9,9,0,0,1-3.63-1.51c-.45-.31-.33-.53,0-.83a4.2,4.2,0,0,1,2.52-1.13,34.34,34.34,0,0,0,4.16-.68,4.45,4.45,0,0,0,2.62-1.77,26.56,26.56,0,0,0,2.09-4.12C92.66,162.13,92.91,161.74,93.13,161.34Z"/><path class="cls-14" d="M63.05,162.16a18,18,0,0,1,3.64-.31c2.07.07,4.13.22,6.2.24a13.59,13.59,0,0,0,5.42-1c.48-.21.69-.1.82.38A14.41,14.41,0,0,1,79.9,164c0,.58-.11.86-.77,1-2.56.44-5-.18-7.43-.8a18,18,0,0,0-7-.9C63.93,163.4,63.66,162.64,63.05,162.16Z"/><path class="cls-14" d="M61.12,160.4a8,8,0,0,1,3.15-.42c1.49,0,3,0,4.47,0,3.09,0,5.61-1,6.52-4.4A25.3,25.3,0,0,1,78.47,160c.24.38-.16.4-.34.49a10.45,10.45,0,0,1-4.15,1c-2.33.16-4.63-.17-7-.22a12.67,12.67,0,0,0-3.54.17A2,2,0,0,1,61.12,160.4Z"/><path class="cls-14" d="M83.69,146.93c.11,0,.14,0,.17,0a4.83,4.83,0,0,1,1.56.69c.44.44-.06,1.07-.13,1.61a32.28,32.28,0,0,1-1,5.94A6.88,6.88,0,0,1,83,157.39a.52.52,0,0,1-.77.17,15.91,15.91,0,0,1-3.87-2.79C83.13,154.18,83.69,150.75,83.69,146.93Z"/><path class="cls-14" d="M83.08,158.18c1.72-1.88,2.09-4.14,2.39-6.42a22.21,22.21,0,0,1,.63-3.33c.24-.84.72-.38,1.09-.25s.89.24.53.9a7.45,7.45,0,0,0-.64,3.87,32,32,0,0,1,.07,5.62c-.1.62-.4.73-.89.65A19.93,19.93,0,0,1,83.08,158.18Z"/><path class="cls-14" d="M65,164a5.08,5.08,0,0,1,3-.14c1.93.32,3.73,1.15,5.64,1.58a13.39,13.39,0,0,0,5.74.18c.43-.09.65,0,.61.52-.12,1.41-.09,1.39-1.5,1.45a17.62,17.62,0,0,1-5.54-.81,26.34,26.34,0,0,0-6-1.21C65.94,165.55,65.71,164.53,65,164Z"/><path class="cls-14" d="M88.28,149.31A26.42,26.42,0,0,1,90.45,154a.83.83,0,0,1,0,.56,16.4,16.4,0,0,0-.33,4.36c0,.47-.14.53-.55.53-1.58,0-1.6,0-1.54-1.62a43.74,43.74,0,0,0-.47-4.85A7.22,7.22,0,0,1,88.28,149.31Z"/><path class="cls-14" d="M78.93,170.94a15.13,15.13,0,0,1-3.8-1.25,18.29,18.29,0,0,0-4.77-1.82,6,6,0,0,0-1.39-.15,1.29,1.29,0,0,1-1.35-.72c-.1-.18-.36-.33-.21-.57s.39-.15.6-.11c1,.22,2.11.41,3.14.69a26.22,26.22,0,0,0,6.38,1.25,8.18,8.18,0,0,0,1.57-.1c.6-.11.75.16.69.67a11.49,11.49,0,0,0-.33,1.86C79.46,171.14,79.05,170.79,78.93,170.94Z"/><path class="cls-15" d="M48,154a12.6,12.6,0,0,1,1.64,1.62c.19.27.38.52.23.9-.08.21-.11.44-.34.53s-.38-.17-.5-.33l-1.42-1.83a2.09,2.09,0,0,1-.5-2.29,2.16,2.16,0,0,1,2.39-.71c.71.12,1.27.43,1.17,1.3a4.21,4.21,0,0,0,0,.5c0,.49.15,1.12-.28,1.39s-.64-.41-1-.57A3.28,3.28,0,0,0,48,154Z"/><path class="cls-16" d="M30.05,187.36A12.61,12.61,0,0,1,34,182.91c.66-.49,1.37-.93,2.07-1.36.46-.29.94-.31,1.2.23s0,.82-.56,1a18.7,18.7,0,0,0-5.79,3.92,7.83,7.83,0,0,0-.67.83Z"/><path class="cls-17" d="M90.76,155.45a31,31,0,0,1,2.28,4c.19.31.17.56-.36.49-1.93-.25-2.05-.37-2-2.33C90.64,156.93,90.71,156.27,90.76,155.45Z"/><path class="cls-18" d="M79.38,131.89s0,.14,0,.18c-.47.4-1,0-1.41,0-.22,0-.69.06-.6-.45a13,13,0,0,1,.27-1.54c.14-.5.49-.59.86-.21A3.5,3.5,0,0,1,79.38,131.89Z"/><path class="cls-1" d="M115.53,143.71c-.11-1.05-.22-2.1-.34-3.15.24,0,.52-.17.55.24.09,1,.17,1.94.26,2.91Z"/><path class="cls-19" d="M49.81,264.85l0,.66c-.83-.23-1-.88-.63-1.94.17-.09.14-.37.39-.41.17.14.06.36.12.52C50.09,264,50,264.43,49.81,264.85Z"/><path class="cls-20" d="M93.44,164.21c-.33-.44-.33-.44-.1-1.72C93.71,163,93.73,163.35,93.44,164.21Z"/><path class="cls-1" d="M115,145c.18-.23.56-.18.67-.5.33.15.3.41.07.57S115.21,145.47,115,145Z"/><path class="cls-3" d="M119.15,49.78V48.29a5.85,5.85,0,0,1,0-2.82v-.83a6.06,6.06,0,0,1-.47-2.41,93.75,93.75,0,0,0-4-14.73c-1.43-4.12-3.18-8.11-5-12.09a14.55,14.55,0,0,1-1.34-6.83A10,10,0,0,1,111,1.89a3.31,3.31,0,0,1,3.31-1A2.14,2.14,0,0,1,116.14,3c.27,2.57.61,5.13.92,7.69.34,2.89.81,5.77,1.27,8.64A105.54,105.54,0,0,0,120.89,31a68.54,68.54,0,0,0,4,10.85,1.55,1.55,0,0,1,.21,1c-.23,1.07-.19,2.18-.43,3.26a1.38,1.38,0,0,1-.89,1.07,6,6,0,0,0-2.62,1.7,5.62,5.62,0,0,0-.77,5.92,4.3,4.3,0,0,1,.33,1.36,3.13,3.13,0,0,0,.68,2.07,1,1,0,0,1,.12.94c-.65,2.73-1.39,5.43-2,8.18-.71,3.37-1.23,6.76-1.61,10.18-.13,1.14-.15,2.3-.38,3.43-.09.48-.31.63-.74.46a11.11,11.11,0,0,1-2.31-1.58c-.41-.28-.24-.84-.17-1.26.3-1.67.57-3.36.86-5,.55-3.15,1.09-6.29,1.59-9.45.53-3.37,1.15-6.72,1.77-10.07a4.65,4.65,0,0,1,.4-1.84v-.33A2.35,2.35,0,0,1,119.15,49.78Z"/><path class="cls-21" d="M129.28,73.55c-3.09-.15-5.39-1.82-7.43-3.92-1.32-1.34-1.41-3-1.09-4.8.09-.47.16-.95.24-1.43a.34.34,0,0,1,.14-.34c.36-1.07.72-2.14,1.07-3.22.13-.4.3-.5.71-.25a3,3,0,0,0,1.69.49,4.61,4.61,0,0,0,1.85,0,7.23,7.23,0,0,0,3.94-2.73,9,9,0,0,0,1.21-2,4.73,4.73,0,0,0,.29-2.74c-.08-.54.07-.52.43-.53a7.85,7.85,0,0,1,5.38,2.06,12.6,12.6,0,0,1,2.85,3.6,6.78,6.78,0,0,1,.58,2,12.47,12.47,0,0,1-3,11,8.92,8.92,0,0,1-6.16,2.69A15.63,15.63,0,0,1,129.28,73.55Z"/><path class="cls-22" d="M121.62,101.69a22.15,22.15,0,0,0-3.65,6.5c0,.14-.12.24-.29.19-.47-.58-.1-1.29-.32-1.91a2.59,2.59,0,0,1,.12-1.69c.1-.18,0-.24-.17-.28a5.06,5.06,0,0,0-2.32-.13,8.61,8.61,0,0,0-1.81.33c-.19.29-1,.1-.66.81a.47.47,0,0,1,0,.74c-2.74-.74-3.13-1.33-2.77-4.24.36.55.21,1.15.33,1.7a1.64,1.64,0,0,0,1,1.33,8.1,8.1,0,0,1-.39-4c.06-1.2.34-1.45,1.58-1.48,1.43,0,2.86.27,4.3.19a3,3,0,0,0,1.63-.44,10,10,0,0,0-2.54-.35c-1.25-.18-2.52-.23-3.79-.37a1.72,1.72,0,0,0-1.59.85c-.19.24-.37.49-.56.72s-.22.17-.37,0a4.23,4.23,0,0,1,.3-4.49c.19.84,0,1.75.59,2.48-.12-.88,0-1.75-.06-2.62,0-.61.18-.84.8-.83,1.46,0,2.93.08,4.39.06a18.23,18.23,0,0,0,5.36-.69c-.2-.35-.48-.28-.73-.26a61.52,61.52,0,0,1-8.37.12A2.64,2.64,0,0,0,109,95.1c-.12.17-.25.43-.49.38s-.22-.35-.3-.54a3.22,3.22,0,0,1,.73-3.65,26.21,26.21,0,0,1,3.11-3.21,1.09,1.09,0,0,1,1-.23A44.45,44.45,0,0,0,119.73,89a12.38,12.38,0,0,0,3-.25.62.62,0,0,0-.76-.47A21.57,21.57,0,0,1,113.82,87a2.35,2.35,0,0,0-2.55.62c-.77.71-1.6,1.35-2.42,2a3.09,3.09,0,0,1-.4-2.47A8,8,0,0,1,111.79,82a5.19,5.19,0,0,0,.45-.37c.9-.87,1.86-1.36,3-.49a1.25,1.25,0,0,1,.55.31,19.4,19.4,0,0,0,7.36,2.79,4.22,4.22,0,0,1,1.17.38c.58.28.89.62.51,1.35a2.81,2.81,0,0,0,.45,3,3.15,3.15,0,0,1,.12,3.73,5.35,5.35,0,0,0-1.23,2.66,4.53,4.53,0,0,0,.06.82,2.66,2.66,0,0,1-.61,2.22A14.76,14.76,0,0,0,121.62,101.69Z"/><path class="cls-2" d="M115.83,81.48a.88.88,0,0,1-.55-.31c.12-.1.67.15.3-.35a1,1,0,0,0-.42-.39c-1.24-.4-1.14-1.3-1-2.31.68-3.85,1.32-7.71,2-11.57.3-1.76.58-3.51.9-5.26.07-.4.13-.64-.39-.39a1.2,1.2,0,0,1,.18-1.49c.51.3.57-.13.61-.44.27-2.06.89-4.07,1-6.16a.8.8,0,0,1,.49-.7,36.28,36.28,0,0,1-.74,4.63c-.51,3.11-1,6.22-1.58,9.33s-1,6.17-1.57,9.25c-.19,1.13-.4,2.27-.58,3.41a1,1,0,0,0,.63,1.27,17.36,17.36,0,0,1,1.63,1.11c.47.31.69.12.72-.42a109.1,109.1,0,0,1,3.72-21.06A1.59,1.59,0,0,0,121,57.9a2,2,0,0,1-.4-1.41c0-1.17-.66-2.12-.85-3.24-.34-2.06.52-5.07,3-5.89,1.77-.57,1.75-1.83,2-3.2.37-1.8-.53-3.19-1.17-4.69A78.06,78.06,0,0,1,119,23.91c-.58-2.9-1.06-5.83-1.49-8.75-.5-3.31-.9-6.64-1.33-9.95-.12-.93-.25-1.85-.34-2.78A1.27,1.27,0,0,0,115,1.32C113.21.49,111.67,1,110.38,3a11.61,11.61,0,0,0-1.75,7.39c.19,2.84,1.41,5.25,2.5,7.73a111.43,111.43,0,0,1,7.65,23.6,13.84,13.84,0,0,1,.37,2.94c-.43-.08-.47-.42-.49-.75a40.09,40.09,0,0,0-1.58-8,103,103,0,0,0-4.23-12.68c-1-2.58-2.23-5.1-3.25-7.69a15.93,15.93,0,0,1-1.21-4.31,15.25,15.25,0,0,1,0-4.16c.45-2.58,1.44-4.89,3.86-6.23a2.73,2.73,0,0,1,4.05,2.35c.1,1.07.34,2.14.42,3.22.13,1.7.44,3.37.6,5.07s.48,3.24.73,4.86c.56,3.72,1.21,7.42,2.11,11.07a73.74,73.74,0,0,0,3.6,11.32c.45,1.06.93,2.12,1.41,3.17a1.74,1.74,0,0,1,.11,1.22c-.26.89-.16,1.82-.33,2.72a1.74,1.74,0,0,1-1.21,1.51,1.31,1.31,0,0,0-.76.47c-.46.84-1.31,1.33-1.89,2.06a.7.7,0,0,0-.36,1.07.56.56,0,0,1,0,.34,1.12,1.12,0,0,1-.19.29,1.88,1.88,0,0,0,.2,2.12c.26.19.43.4.26.73-.17.06-.69-.28-.36.33a3.82,3.82,0,0,1,.34,1.92c0,.69.11.84.66,1.08.37,0,.5.15.33.5-.38,1.45-.76,2.89-1.13,4.34-.07.25,0,.44.3.47,0,.15,0,.28-.14.34-.4,0-.45.34-.52.64a106.28,106.28,0,0,0-2,10.91c-.15,1.19-.29,2.39-.48,3.57-.13.77-.19,1.58-.26,2.38s-.24.89-1,.62C116.46,81.43,116.16,80.93,115.83,81.48Z"/><path class="cls-21" d="M121,54.42l-.31-.67a.63.63,0,0,1-.26-.53,4.41,4.41,0,0,1,.18-1.94l0-.33a.94.94,0,0,1,.35-1.13,10.77,10.77,0,0,1,2-2,8.66,8.66,0,0,1,2.54-.12c3.34.62,4.14,4.4,2.83,6.81a4.13,4.13,0,0,1-6.47.87C121.59,55.05,121.29,54.74,121,54.42Z"/><path class="cls-23" d="M116.86,59.41c0,.51-.29,1-.18,1.49-.46,1.78-.66,3.61-1,5.42-.12.68-.25,1.35-.38,2-.48.23-.85-.1-1.19-.32a8.58,8.58,0,0,1-4-5.89A3.89,3.89,0,0,1,112.2,58a8.14,8.14,0,0,1,4.51-1.19c.41,0,.67,0,.49.62A12.23,12.23,0,0,0,116.86,59.41Z"/><path class="cls-4" d="M122,58.25a.55.55,0,0,0-.33-.5c0-.47-.66-1-.22-1.36s.78.35,1.2.5a5.23,5.23,0,0,0,4.93-.7c1.91-1.33,2.56-3.28,2.12-5.75A3.35,3.35,0,0,1,131.26,54a6.77,6.77,0,0,1-4.09,5.17A4.56,4.56,0,0,1,122,58.25Z"/><path class="cls-21" d="M120.29,76.83c-1.47,0-1.53-.19-1.38-1.39a43.49,43.49,0,0,1,.61-4.42c.12-.5.22-1,.33-1.5,0-.2-.1-.51.17-.57s.36.23.5.39a21,21,0,0,0,2.58,2.76c.31.22.57.57.91.69,1,.34.71.85.26,1.42C123.18,75.6,121.92,76.73,120.29,76.83Z"/><path class="cls-24" d="M108.9,58.43A6.52,6.52,0,0,1,110.38,57a7.16,7.16,0,0,1,1.3-.13c.39,0,.71.25.33.71a2.19,2.19,0,0,1-.94,1.13,3,3,0,0,0-1.31,3,8.63,8.63,0,0,0,3.13,5.92,14,14,0,0,1,1.43,1.11c.33.29,1.05.21.81,1s-.21,1-1.16.53a2.49,2.49,0,0,1-.28-.15,7.79,7.79,0,0,1-3.31-2.86A6.71,6.71,0,0,1,109,64.72a13.74,13.74,0,0,1-.94-2.82A5.07,5.07,0,0,1,108.9,58.43Z"/><path class="cls-2" d="M114.32,68.76a4.94,4.94,0,0,1-2.2-1.56,8.28,8.28,0,0,1-2.56-5.82,3,3,0,0,1,1.33-2.83,8.64,8.64,0,0,0,1.12-1l.19.4c-.49.65-1.22,1.09-1.58,1.89a3.45,3.45,0,0,0-.33,1.93,8.07,8.07,0,0,0,5,6.56c0,.43-.27.26-.5.21S114.34,68.33,114.32,68.76Z"/><path class="cls-2" d="M119.15,45.47v2.82A2.94,2.94,0,0,1,119.15,45.47Z"/><path class="cls-2" d="M119.15,49.78c-.06.67-.11,1.33-.17,2C118.45,51,118.51,50.25,119.15,49.78Z"/><path class="cls-4" d="M129.28,73.55h2.65A5.29,5.29,0,0,1,129.28,73.55Z"/><path class="cls-4" d="M126.46,60.08a2.86,2.86,0,0,1-1.85,0Z"/><path class="cls-3" d="M116.66,106.54c0,2.32.14,4.63.2,6.95.09,3.13.33,6.26.66,9.37.37,3.55.78,7.09,1.25,10.62s1,7.07,1.57,10.58c.55,3.17,1.4,6.28,2.2,9.4,1,3.84,2.24,7.61,3.51,11.37.11.31.16.63.24.95a65.09,65.09,0,0,1-.64,10c-.37,2.83-.58,5.68-.86,8.52-.33,3.3-.68,6.6-1,9.91-.21,2.35-.33,4.71-.51,7.07-.26,3.28-.57,6.56-.82,9.85-.15,2-.21,4-.35,6-.2,2.91-.43,5.81-.64,8.71-.07,1-.06,2-.15,3.05-.2,2.33-.22,4.68-.37,7-.2,3-.39,6-.52,9-.1,2.42-.19,4.84-.32,7.26-.14,2.64-.19,5.28-.36,7.92-.14,2.15,0,4.3-.13,6.45s.15,4.49-.32,6.72a2,2,0,0,1-.15.54.81.81,0,0,1-.93.39c-.41-.06-.41-.38-.42-.7a32,32,0,0,1,.23-4c.13-1.34.14-2.69.22-4,.12-2.06.21-4.13.25-6.2.06-3.85.23-7.71.35-11.57,0-1.71,0-3.42.12-5.12.17-2.75.22-5.51.35-8.25.09-1.76.17-3.52.34-5.27.29-3.09-.17-6.17-.05-9.25.07-2,.16-4.08.22-6.12q.14-4.17.32-8.34c.12-2.8.2-5.61.34-8.42.18-3.52.36-7,.29-10.57-.06-3-.12-6-.35-8.92-.24-3.22-.68-6.43-1.11-9.64-.39-2.94-.67-5.89-1-8.83s-.78-5.87-1.13-8.81c-.21-1.77-.32-3.55-.5-5.33-.16-1.57-.37-3.14-.56-4.71-.16-1.37-.32-2.73-.45-4.09-.23-2.35-.44-4.7-.65-7-.13-1.51-.23-3-.35-4.52-.22-2.82-.46-5.64-.64-8.46-.1-1.51-.18-3-.33-4.52-.18-1.7-.23-3.4-.36-5.1-.07-.79.2-1.23,1-1.23l.24-.05C116.49,104.57,116.66,104.7,116.66,106.54Z"/><path class="cls-1" d="M117.82,108.37l.15-.18c.4.48-.09.86-.17,1.29a6.27,6.27,0,0,1-.45,1.08,2.28,2.28,0,0,1-.22-1.24,7.65,7.65,0,0,0-.14-2.78c-.37-.67.19-1.55-.49-2.15a1.38,1.38,0,0,1,1,0,.85.85,0,0,1,.69.17c-1,.33-.59,1.16-.69,1.82a8.1,8.1,0,0,1,.08,1.63C117.59,108.15,117.48,108.41,117.82,108.37Z"/><path class="cls-1" d="M114.86,136.91c-.29-1.43-.3-2.88-.5-4.32.18,0,.44-.22.48.2a5.59,5.59,0,0,1,.22,1.11c-.07.9.32,1.78.11,2.69A.34.34,0,0,1,114.86,136.91Z"/><path class="cls-1" d="M115.19,140.06a26.63,26.63,0,0,1-.33-2.65c.24,0,.62-.12.55.22a4.34,4.34,0,0,0,.21,1.65A.63.63,0,0,1,115.19,140.06Z"/><path class="cls-3" d="M112.73,109.72c-.61-.69-.34-1.4-.33-2.06a.17.17,0,0,1,.23-.16.39.39,0,0,1,.19.23A4,4,0,0,1,112.73,109.72Z"/><path class="cls-1" d="M112.52,105.51c-.24-.05-.51-.08-.49-.42s.34-.22.51-.31a1.91,1.91,0,0,1,.64-.08Z"/><path class="cls-3" d="M117.5,104.37l-1,0-1.51,0A5.08,5.08,0,0,1,117.5,104.37Z"/><path class="cls-25" d="M113.18,70.65c.3.17.6.34.89.52s.59.12.61.55a5.33,5.33,0,0,1-.26,1.69c-.07.23-.54.12-.83.06A6.39,6.39,0,0,1,110,71.08a7,7,0,0,1-1.64-5c0-.17-.21-.63.33-.51a1.28,1.28,0,0,1,.58.57,18.52,18.52,0,0,0,3.63,4.22C113,70.42,113.08,70.56,113.18,70.65Z"/><path class="cls-22" d="M107.43,89c.1.16.16.29.24.4a1.94,1.94,0,0,1-.09,2.73,2.38,2.38,0,0,0-.52,1.37c0,.49-.26.53-.64.49a3.21,3.21,0,0,1-1-.19,1.49,1.49,0,0,1-.51-2.64c.39-.38.87-.67,1.28-1S107,89.42,107.43,89Z"/><path class="cls-2" d="M113.18,70.65a8.86,8.86,0,0,1-2.82-2.73,20.51,20.51,0,0,1-1.64-2.38l.31-.82a13.61,13.61,0,0,0,3.28,4.42c.45.36.92.7,1.38,1C113.36,70.17,113.14,70.27,113.18,70.65Z"/><path class="cls-22" d="M23.73,280.31c-.81,0-1.24.53-1.62,1.11A13,13,0,0,0,20.74,285c-.09.32-.16.64-.27,1-.56,1.64-.59,1.66-2.38,1.35a42.54,42.54,0,0,0,1.51-6.94c.08-.5.51-.66.88-.77a17.32,17.32,0,0,0,4.25-2.2,28,28,0,0,1,9.43-3.21c.08,0,.18-.06.24,0,1.64.85,3.24.15,4.85-.14a3,3,0,0,1,3.14.93c.42.52,1.06.39,1.6.47a9,9,0,0,1,4.17,1.37,5.45,5.45,0,0,1,1.31,2,.51.51,0,0,1,0,.4c-.53.94-.74,2-2.06,2.44a27.89,27.89,0,0,0-12.51,8.24,15.83,15.83,0,0,1-2.43,2.48,3.58,3.58,0,0,1-4.24.28c-.56-.39-1.09-.85-.82-1.63s1-.62,1.56-.69a2.17,2.17,0,0,1,1.19.29,3.8,3.8,0,0,0,.94.29.65.65,0,0,0,.83-.49c.11-.39-.22-.51-.47-.67-.42-.27-1-.21-1.43-.58a44.92,44.92,0,0,0,6.09-7.53,2.46,2.46,0,0,1,2.07-.84c.82,0,1.63,0,2.7,0l-1.26-.58c1-1,2.4-1.58,3-3.22-.53.42-.89.67-1.21,1a11.84,11.84,0,0,1-4.93,2.62,2.13,2.13,0,0,0-1.09.67,22.84,22.84,0,0,0-1.76,2.41,21.21,21.21,0,0,1-6.21,6.13,1.63,1.63,0,0,0-.84,1.95c.13.53-.06.69-.51.79a3.56,3.56,0,0,1-3.17-.36c-.32-.25-.73-.5-.55-1s.29-1.08.93-1.27a2.5,2.5,0,0,1,1.3-.07,5.06,5.06,0,0,0,1.9.05c.32-.06.67-.22.68-.62s-.35-.43-.63-.54a12.71,12.71,0,0,0-2-.2c-.13-.18,0-.31.1-.44,1.45-2,2.62-4.23,3.86-6.38a2.26,2.26,0,0,1,2-1.25c1,0,2.07,0,3.19,0-.25-.56-.75-.5-1.1-.75,1.27-1,2.87-1.67,3.51-3.36-.23.2-.46.39-.68.6a12.32,12.32,0,0,1-5,2.75,5.32,5.32,0,0,0-3.47,3.16A22.82,22.82,0,0,1,23.77,288a1.11,1.11,0,0,1-1.42.43,2.16,2.16,0,0,0-1-.16c-.73.07-.89-.13-.63-.85.67-1.81,1.28-3.65,1.87-5.48a2.55,2.55,0,0,1,1.12-1.47c.93-.59,2-.32,3.07-.39-.53-.52-.24-.84.23-1.1a12.51,12.51,0,0,0,2.3-2A25.68,25.68,0,0,1,26,279.44,5.2,5.2,0,0,1,23.73,280.31Z"/><path class="cls-22" d="M79.49,257.89a35.3,35.3,0,0,0,5.3,1.83,19,19,0,0,1,2.65.94c1,.48,1.37,1.53,2,2.39.08.13.06.26-.13.32a2.46,2.46,0,0,0-.38.14c-.38.18-.93.44-.78.8a1,1,0,0,0,1.34.46c1.13-.41,1.54-.28,2.11.48a.74.74,0,0,1-.25,1.24,1.51,1.51,0,0,1-2.13-.53,4.65,4.65,0,0,0-1.63-1.61,8.44,8.44,0,0,1-3-2.79A3.75,3.75,0,0,0,82.33,260a11.25,11.25,0,0,1-2.78-1.2c-.06.4.2.53.39.68a5.5,5.5,0,0,0,2,1c1.8.44,2.44,2.13,3.6,3.26a.33.33,0,0,1,.06.29,2,2,0,0,1-2.12.6c-1.95-1.26-3.65-2.86-5.52-4.23a2.74,2.74,0,0,0-.84-.51,17.59,17.59,0,0,1-4.83-2,3.88,3.88,0,0,0,2,1.8,8.74,8.74,0,0,0,1.74.78c2.51.63,4.12,2.57,6.15,4.07a18.43,18.43,0,0,0-1.87.8c-.44.32-.41.58,0,.89a1.35,1.35,0,0,0,1.25.2c.53-.16,1-.38,1.56-.55a1.29,1.29,0,0,1,1.79.71c.34.77-.06,1.23-.66,1.65-.93.68-2,.42-3,.38-.33,0-.65-.1-1-.14s-.63-.18-.68-.66a1.79,1.79,0,0,0-1.15-1.51A40.07,40.07,0,0,1,72.83,263a2.29,2.29,0,0,0-1.31-.42,10.14,10.14,0,0,1-4-1l-.44-.16A3.58,3.58,0,0,0,69,262.55c1,.28,2,.51,3,.78A6.16,6.16,0,0,1,75,264.88c.32.31.36.53-.12.7a2.66,2.66,0,0,0-.59.28c-.32.2-.78.41-.56.86a.9.9,0,0,0,1.14.41,4.1,4.1,0,0,0,.89-.44c1.21-.68,1.8-.34,2.75.3a.72.72,0,0,1,.08,1.25,2.92,2.92,0,0,1-2.82.79,3.36,3.36,0,0,0-1.22-.2l-1.32-.35c-.34.12-.56-.15-.83-.27l-2.15-.56a1.89,1.89,0,0,1-1.5-.43c-1.44-.32-2.88-.67-4.34-1a7.3,7.3,0,0,0-2.08-.28c-.29-.07-.63.15-.89-.12l-.65,0a5.65,5.65,0,0,1-2.49-.55c-.22-.15-.52-.18-.68-.43a1.65,1.65,0,0,1-1-.68c0-.37.19-.45.51-.36a12.68,12.68,0,0,1,2.13-.12,2,2,0,0,0,1.77-.95,5.72,5.72,0,0,1,2-2.22,2.54,2.54,0,0,1,1.06-.37,7.62,7.62,0,0,0,4.4-1.9,4.61,4.61,0,0,1,4.91-.64,4.46,4.46,0,0,0,3.14.09c.31-.36.71,0,1-.15A3.73,3.73,0,0,1,79.49,257.89Z"/><path class="cls-3" d="M48.8,249.72A19.58,19.58,0,0,1,50,253.37a14.74,14.74,0,0,0,.86,2.58c.15.32.28.75.7.74a1,1,0,0,0,.84-.82,12.57,12.57,0,0,0,.41-2,30.87,30.87,0,0,0,.18-4.3c0-.23-.09-.57.19-.66s.35.29.48.46a8.46,8.46,0,0,1,1.31,4.28c.48,4.59.44,9.23,1.52,13.74.57,2.37,1.38,4.61,3.84,5.77.91.43.86.53,0,1.16A17,17,0,0,1,54.44,277a14.27,14.27,0,0,0-3.9,1.18c-.66.41-1-.26-1.23-.73a4.63,4.63,0,0,0-3.52-2.33c-.78-.14-1.57-.23-2.36-.33a.8.8,0,0,1-.58-.26,3.75,3.75,0,0,0-4.39-1.14,8,8,0,0,1-2.25.55,2,2,0,0,1,1.22-.59c2.72-.7,5.46-1.25,8.23-1.72,1.59-.26,3.19-.52,4.78-.8a9,9,0,0,1,3.9.24c.25.07.49.28.86.14-.73-.81-1.84-.66-2.71-1.17.77-.64,1.67-.27,2.62-.5a4.51,4.51,0,0,0-2.76-.34,2.87,2.87,0,0,0-.72.14c-.72.29-.83-.16-.84-.68,0-.67,0-1.33,0-2a49.57,49.57,0,0,0-.92-8.51A77.15,77.15,0,0,1,48.8,249.72Z"/><path class="cls-3" d="M57.71,258.75c3.72-.24,7.17-1,10.7-1.3-1,1.09-2.18,2.16-3.7,2.21-1.68,0-2.61,1-3.56,2.1-.42.47-.73,1.23-1.26,1.35a12.1,12.1,0,0,1-2.89.06c-.35,0-.39-.32-.41-.61-.22-2.35-.41-4.7-.67-7.05a3.47,3.47,0,0,1,.78-2.44c.77-1.11,1.59-2.19,2.36-3.29.27-.39.46-.65.78-.05a.66.66,0,0,0,.86.3,11.65,11.65,0,0,0,1.63-.57c.57-.28,1.08-.83,1.85-.25.39.3,1-.16,1.69-.11C63.07,252.28,60.15,255.18,57.71,258.75Z"/><path class="cls-22" d="M54.33,281.09c-.14-.32-.27-.59-.37-.87-.21-.56-.63-.27-1-.26s-.39.35-.37.65a7.26,7.26,0,0,1,0,2.63c-.21.66-.38,1.41-1.24,1.41A2.08,2.08,0,0,1,49.26,283a4.64,4.64,0,0,1,5.54-5.19c.57.13.57.13.58-.41,0-.23.18-.24.33-.28a20.15,20.15,0,0,0,5.66-2.53c.4-.27.63-.08.79.25.61,1.23.72,2.35-.69,3.19a17.49,17.49,0,0,1-4.17,1.56A7.4,7.4,0,0,0,54.33,281.09Z"/><path class="cls-1" d="M65.39,246.28a72.52,72.52,0,0,0,6.11-5.91c1.35-1.45,2.65-3,4-4.43a1.86,1.86,0,0,1,.59-.56c-2.78,4.92-7.11,8.48-10.85,12.55-.33.88-.65,1-1.28.63-.47-.3-.5-.59,0-.82s.79-.68,1.26-.92A.35.35,0,0,0,65.39,246.28Z"/><path class="cls-22" d="M57.72,269.18a8.05,8.05,0,0,1-.63-3.82,1.06,1.06,0,0,1,1.31.51c1.24,1.4,1.24,2.46,0,3.94C57.78,270,57.85,269.5,57.72,269.18Z"/><path class="cls-26" d="M21.91,289.81a3.34,3.34,0,0,0-.41,1.44c-.07.79-.53.95-1.2.83s-1.43-.39-1.47-1.1.62-1.08,1.33-1.26A3.73,3.73,0,0,1,21.91,289.81Z"/><path class="cls-27" d="M23.73,280.31c2.3-.79,4.11-2.36,6-3.79a4,4,0,0,1-1.34,1.68c-.54.49-1.17.9-1.77,1.35l.63.79a12.84,12.84,0,0,0-3.53.13A.92.92,0,0,1,23.73,280.31Z"/><path class="cls-28" d="M19,289.05c0,.61-.75,1.72-1.09,1.64a1,1,0,0,1-.8-1.12c.07-.85.76-.82,1.37-.8C18.69,288.77,19.05,288.62,19,289.05Z"/><path class="cls-29" d="M20.07,289.31a2.08,2.08,0,0,1,2.19-.56c.2.08.54.16.38.5a.49.49,0,0,1-.62.3A8.46,8.46,0,0,0,20.07,289.31Z"/><path class="cls-1" d="M58.4,265.87c-.44-.14-.81-.5-1.31-.51l.49-.49c1.09.21,2,1,3.17,1-.36,0-.76-.11-1.08.22s-.38,0-.57-.09S58.68,265.54,58.4,265.87Z"/><path class="cls-30" d="M31.75,290.58c-1.13,0-2-.63-3-.54A2.42,2.42,0,0,1,31.75,290.58Z"/><path class="cls-31" d="M23.87,289.37a5.3,5.3,0,0,1,2.4-.3c.15,0,.38,0,.38.2s-.18.26-.34.31A5.85,5.85,0,0,1,23.87,289.37Z"/><path class="cls-1" d="M52.6,246.92a9.29,9.29,0,0,1,.26-2.37,8.28,8.28,0,0,1,.24,2.72c-.06.12-.15.28-.29.22S52.61,247.14,52.6,246.92Z"/><path class="cls-1" d="M51.63,255.56a19.2,19.2,0,0,1,.33-2A1.44,1.44,0,0,1,51.63,255.56Z"/><path class="cls-32" d="M17.83,288.2c.65-.24,1-.59,1.53-.29a.2.2,0,0,1,0,.35C19,288.63,18.51,288.32,17.83,288.2Z"/><path class="cls-1" d="M68.71,267.22a6.59,6.59,0,0,1,1.5.43C69.66,268.12,69.17,268,68.71,267.22Z"/><path class="cls-1" d="M49.81,264.85c-.05-.39-.1-.78-.16-1.17.17-.08.16-.42.38-.35s.21.3.12.48S50.38,264.65,49.81,264.85Z"/><path class="cls-33" d="M53.49,282.11a2.6,2.6,0,0,1-.37-1.59c0-.13.06-.29.23-.28s.14.18.14.32C53.48,281.08,53.49,281.59,53.49,282.11Z"/><path class="cls-1" d="M57.08,263.83a.61.61,0,0,0-.51.36c-.27-.16-.46-.46-.24-.65S56.85,263.66,57.08,263.83Z"/><path class="cls-1" d="M77.54,257.57a2.05,2.05,0,0,1-1,.15C76.71,256.73,77.19,257.57,77.54,257.57Z"/><path class="cls-1" d="M57.72,269.18c.21.23.23.67.69.63,0,.26-.17.48-.39.25S57.49,269.58,57.72,269.18Z"/><path class="cls-1" d="M72.36,268.21a2,2,0,0,1,.83.27C72.66,269.21,72.58,268.48,72.36,268.21Z"/><path class="cls-1" d="M61.4,265.87a1.38,1.38,0,0,1,.89.12C62,266.15,61.6,266.57,61.4,265.87Z"/><path class="cls-22" d="M39.6,229.55a4.56,4.56,0,0,1,.26,2c-.27,4-.6,8.05-.52,12.08a14.17,14.17,0,0,1-.15,1.56c-.37-.11-.23-.55-.63-.65a2.7,2.7,0,0,0,.25,1.49c.29.83.64,1.64.9,2.48.21.67.34,1.39-.45,1.83a1.55,1.55,0,0,1-1.95-.61,5.53,5.53,0,0,1-.9-3.62c0-.5.08-1,.1-1.49,0-.17.12-.45-.16-.47s-.31.25-.33.47a8.54,8.54,0,0,0-.12,1.24,17.14,17.14,0,0,1-1.15,5.47,28.11,28.11,0,0,0-.86,9.27c0,2.08.09,4.15.13,6.22a6.14,6.14,0,0,1-.33,2A1.66,1.66,0,0,1,31.83,270a.61.61,0,0,1-.64-.53c-.05-.37.15-.55.46-.68a2.39,2.39,0,0,1,1.06-.16c.69,0,.85-.43.75-1a1.51,1.51,0,0,0-1.67-1.15c-.33.06-.43,0-.43-.34,0-2.8-.64-5.54-.77-8.32a18.49,18.49,0,0,1,.34-3.12,24.6,24.6,0,0,0,.11-3.64c0-.17,0-.34-.22-.43a1.32,1.32,0,0,0-.43,1,22.3,22.3,0,0,1-.53,5,11.27,11.27,0,0,0,.27,3.93,37.16,37.16,0,0,1,.42,5.77c0,.47-.13.73-.63.76a6.94,6.94,0,0,0-1.85.43c-.21-3-1.18-5.73-1.62-8.6a36.94,36.94,0,0,1-.06-5.47,10.41,10.41,0,0,0-.4-2.76c-.5.13-.38.49-.37.76.07,2.43.18,4.85.24,7.28a18.77,18.77,0,0,0,.9,5.37c.18.56-.05.66-.47.79-1.33.4-1.32.41-1.71-.92-.44-1.54-.85-3.09-1.36-4.6-.58-1.71-.16-3.46-.31-5.18a38.35,38.35,0,0,0-.55-4.27c0-.12,0-.28-.25-.32a7.24,7.24,0,0,0,0,1.86c.11,2.48.2,5,.38,7.44a19.7,19.7,0,0,0,1.06,3.82c.07.27.28.53-.06.82s-.69.63-1-.12c-.69-1.5-1.45-3-2.2-4.45a2.68,2.68,0,0,1-.3-1.44c.18-2.87.15-5.74.16-8.62,0-.78.46-1.19,1.07-1a8.8,8.8,0,0,0,5.77-.57,2.28,2.28,0,0,1,1.59.09c1.23.35,2.37,1.06,3.72.94a2.73,2.73,0,0,0,2.15-1.12,10.75,10.75,0,0,0,1.76-4.89,35.49,35.49,0,0,1,1.6-6.26A45.11,45.11,0,0,0,39.36,230,2,2,0,0,1,39.6,229.55Z"/><path class="cls-3" d="M33.65,233.3a5.13,5.13,0,0,1,1.6-1.55,8,8,0,0,0,1.86-2.29c.1-.17.29-.38.11-.6a.6.6,0,0,0-.69-.15c-.34.08-.67.2-1.22.38.5-.63.85-1.1,1.24-1.53s.75-.71,1.3-.44a1.4,1.4,0,0,1,.82,1.33,22.16,22.16,0,0,1-.91,5.67c-.74,2.76-1.54,5.51-2.3,8.27-.19.71-.32,1.44-.44,2.17a5,5,0,0,1-1.43,2.66,2.67,2.67,0,0,1-2.8.4,13.84,13.84,0,0,1-1.62-.62,3.74,3.74,0,0,0-3.25,0,5.6,5.6,0,0,1-4,.38c-.49-.15-.76-.29-.45-.9a79,79,0,0,1,5.09-8.6.58.58,0,0,1,.73-.3A8.4,8.4,0,0,0,34,236.14a12.56,12.56,0,0,0,2.29-2.26c.17-.2.46-.52.25-.8s-.53-.11-.79,0C35.06,233.25,34.35,233.07,33.65,233.3Z"/><path class="cls-34" d="M29.1,269.35c-.27-.2-.73.4-.87-.24a1,1,0,0,1,.59-1.21c.47-.18.93-.59,1.46-.17a1,1,0,0,1,.36,1,.66.66,0,0,1-.65.54Z"/><path class="cls-34" d="M27.22,266.3c0,.63-.46.94-1.52.93-.55,0-.47-.48-.51-.82-.07-.74.45-.86,1-.87S27.2,265.61,27.22,266.3Z"/><path class="cls-1" d="M30.54,234.13c-.46.06-.92.14-1.38.19a1.41,1.41,0,0,1-.66-.09,23.07,23.07,0,0,0,4.36-1.55c.06.43.45.87,0,1.3C32.1,234.21,31.3,234,30.54,234.13Z"/><path class="cls-31" d="M32,266.84c.52.07,1.07.39,1,.93-.07.94-1,.46-1.48.6s-.32-.51-.37-.78C31,267.07,31.44,266.89,32,266.84Z"/><path class="cls-28" d="M29.76,269.66c.32,0,.77-.07.74.35s-.57.65-1.05.7-.85-.14-.79-.5C28.76,269.69,29.36,269.74,29.76,269.66Z"/><path class="cls-1" d="M33.19,230.17a3.79,3.79,0,0,1-2.54-.17l2.2-.34Z"/><path class="cls-35" d="M24.05,265a.48.48,0,0,1-.46.61c-.42,0-.49-.32-.54-.65a.54.54,0,0,1,.46-.66C24,264.22,23.89,264.74,24.05,265Z"/><path class="cls-36" d="M27.37,267.87c0,.39-.17.58-.44.57s-.77-.06-.87-.47.26-.44.54-.45A.73.73,0,0,1,27.37,267.87Z"/><path class="cls-3" d="M30.54,234.13a8.61,8.61,0,0,1,2.32-.15l.16.15Z"/><path class="cls-1" d="M29.21,237h1.32C30.09,237,29.65,237.59,29.21,237Z"/><path class="cls-5" d="M132.25,120.19a3.9,3.9,0,0,0,1.34.62,1.93,1.93,0,0,1,1.48.71,55.25,55.25,0,0,0,5.16,2.11c.41-.1.69.16,1,.38a2.1,2.1,0,0,0,.84.29c.27.57-.22.45-.46.46a5.62,5.62,0,0,1-2.25-.49c-1.09-.46-2.16-1-3.24-1.46a2.61,2.61,0,0,0-1.6-.3L137,124a28.54,28.54,0,0,1,6.65,4.89,12.87,12.87,0,0,1,3.09,4.93c-2.35-1.77-3.49-4.39-5.68-6.06.41.62.84,1.23,1.22,1.87a13.29,13.29,0,0,1,2.19,7.85,18.43,18.43,0,0,1-2.61,7.69,17.78,17.78,0,0,1-1.83,2.81c.22-3.56.49-6.93-1.57-9.89.23,1.31.67,2.57.8,3.9a18.73,18.73,0,0,1,0,4.79c-.06.4-.18.74-.59.77s-.37-.4-.45-.67a14.07,14.07,0,0,0-6.68-8.3,3.81,3.81,0,0,0-1-.37c1.43,1.16,3.08,2,4.26,3.76-2.27-1.07-4.15-2.6-6.55-3,1.21.63,2.46,1.17,3.61,1.9a35,35,0,0,1,4.29,3.37c.37.32.31.78.43,1.24a4.36,4.36,0,0,1-1.77-.52,22,22,0,0,0-6.35-1.41,22.91,22.91,0,0,0-6.35.17c-.55.08-.83-.07-1-.67s-.35-1.43-.49-2.15c-.33-1.88-.63-3.76-.81-5.67-.13-1.41-.33-2.81-.49-4.22,0-.22-.06-.54,0-.64.9-.78,1.41-1.88,2.31-2.83.58,2.07-.07,3.91-.29,5.78a8.47,8.47,0,0,0,1.25-5,18.51,18.51,0,0,0-.74-5.27c.63.31,1.14.54,1.63.8a.8.8,0,0,0,.85,0c.22-.18.14-.46.11-.75a7.37,7.37,0,0,0-.89-2.19c-.23-.61-.51-1.2-.77-1.8.32-.33.37-.35.69,0,1.43,1.41,3,2.74,4.13,3.91-1-1.34-2.69-2.59-3.85-4.29-.28-.42-.52-.81,0-1.22a18.73,18.73,0,0,1,3.24,2.35l.4.29c.69.18,1.14.75,1.75,1.08a9.27,9.27,0,0,0,2,.92,4.7,4.7,0,0,0-.91-.6c-.52-.25-.93-.52-.53-1.19.17-.3-.14-.57-.16-.87l-.53-.79Z"/><path class="cls-3" d="M129,120c-1.55-.3-2.46-1.28-3.49-2-.42-.31-.86-.6-1.27-.92s-.84-.41-1.16.12c-.2.33-.34.22-.55,0a13.74,13.74,0,0,0-1.71-1.62.21.21,0,0,0-.08.32,46,46,0,0,1,2.11,5.2c.19.48.51.91.75,1.38.07.13.23.29.07.44s-.32.05-.45,0a6.82,6.82,0,0,1-1.91-1.68c-1.14-1.55-1.91-3.35-3.15-4.84a1.44,1.44,0,0,1-.35-.91c0-1.3,0-2.59-.13-3.88a6.58,6.58,0,0,1,.82-2.75c.67-1.88,1.14-3.87,2.49-5.44.27-.31.56-.58.91-1a4.52,4.52,0,0,1-.68,2.63,27.7,27.7,0,0,0-1.28,3.65,3.9,3.9,0,0,0,1.06,4,35,35,0,0,0,4.44,3.43,16.29,16.29,0,0,1,3,2.89A5.27,5.27,0,0,1,129,120Z"/><path class="cls-10" d="M121,125.79a5.34,5.34,0,0,1-1.77,3.16c-.15-1.46-.26-2.78-.42-4.1a50.7,50.7,0,0,0-.66-5.9c0-.14-.09-.36.09-.43s.32.09.43.27A15.14,15.14,0,0,1,121,124,7.91,7.91,0,0,1,121,125.79Z"/><path class="cls-1" d="M123.81,117.51a1,1,0,0,0,.15,1.1c1.18,1.64,2.77,2.88,4,4.45.16.2.47.31.42.64-.17.13-.28,0-.37-.08-1.51-1.51-3.2-2.84-4.64-4.43-.16-.18-.34-.3-.54,0-.73-.33-.62-1.07-.83-1.78C122.61,118.06,123.22,117.26,123.81,117.51Z"/><path class="cls-1" d="M129.6,119.49c.43.33.72.67.24,1.21-.35.39.13.44.31.54.51.31,1.11.48,1.43,1.24a9.74,9.74,0,0,1-4.13-2.33c.09-.05.23-.17.26-.14C128.56,120.61,129.14,120.26,129.6,119.49Z"/><path class="cls-3" d="M121,125.79V124A2.54,2.54,0,0,1,121,125.79Z"/><path class="cls-22" d="M87,267.56c-1.07,0-1.66-.52-1.71-1.4a.56.56,0,0,1,.06-.31c.56-.82,2.63-.71,3.06.15s.21,1.35-.76,1.51A3.76,3.76,0,0,1,87,267.56Z"/><path class="cls-35" d="M83.1,265.44c-.71.24-1.43.49-2.15.72a.3.3,0,0,1-.42-.14c-.11-.23,0-.36.22-.45A2.79,2.79,0,0,1,83.1,265.44Z"/><path class="cls-30" d="M74.28,266.74a1.7,1.7,0,0,1,1.84-.85A3.26,3.26,0,0,1,74.28,266.74Z"/><path class="cls-37" d="M86.47,264.77a4.35,4.35,0,0,1-1.85.6C85.15,264.7,85.4,264.62,86.47,264.77Z"/><path class="cls-38" d="M90.13,264a1.94,1.94,0,0,1-1.51.3A1,1,0,0,1,90.13,264Z"/><path class="cls-1" d="M135.07,121.52l-1.48-.71C134.4,120.57,134.81,120.77,135.07,121.52Z"/><path class="cls-1" d="M141.21,124a2.86,2.86,0,0,1-1-.38C140.81,123.1,141,123.67,141.21,124Z"/><path class="cls-39" d="M39.73,219.12a22.48,22.48,0,0,1,5.17,5,24.66,24.66,0,0,0-3.68-5.25c2,1.52,3.74,3.21,4.35,5.76.08.32.27.8-.06,1s-.53-.31-.74-.55c-1.49-1.71-3-3.4-4.55-5C40,219.8,39.71,219.66,39.73,219.12Z"/><path class="cls-40" d="M68.13,136.72c-1.87,3.47-4.93,5.17-8.94,5.87,1.64-1.17,3.45-1.46,4.91-2.48A36.5,36.5,0,0,0,68.13,136.72Z"/><path class="cls-41" d="M60,139.54a18,18,0,0,0,3.78-1.81C63.62,138.93,61.61,139.9,60,139.54Z"/><path class="cls-42" d="M64.57,158.15h.06c-1,0-1.8.21-2.36-1.29-.63-1.69-.87-3.05.3-4.39a4.8,4.8,0,0,1,4.88-1.72,5.56,5.56,0,0,1,4,3.26c.23.5.81,1,.58,1.54a3.69,3.69,0,0,1-1.63,1.59,9.11,9.11,0,0,1-4,1C65.84,158.18,65.32,158.15,64.57,158.15Z"/><path class="cls-43" d="M70.1,157.91c-2.34,1.86-5.11,1-7.72,1.19a10.08,10.08,0,0,1,3.85-.63A16.9,16.9,0,0,0,70.1,157.91Z"/><path class="cls-44" d="M60.09,158.26a1.51,1.51,0,0,1,1.75-.51A2.12,2.12,0,0,1,60.09,158.26Z"/><path class="cls-45" d="M77,142.54a2.19,2.19,0,0,1,1.74.72,8.72,8.72,0,0,1,1.92,2.87c.11.25,0,.86.63.71.11,0,.09.21.08.35a5.94,5.94,0,0,1-4.75,5,1,1,0,0,1-1.07-.44,7.94,7.94,0,0,1-1.49-6.56A3.07,3.07,0,0,1,77,142.54Z"/><path class="cls-46" d="M81.93,148.52a4.47,4.47,0,0,1-2.11,3.74A31.21,31.21,0,0,0,81.93,148.52Z"/><path class="cls-47" d="M78.71,152.76a1.5,1.5,0,0,1-1.82.12A2.87,2.87,0,0,1,78.71,152.76Z"/><path class="cls-48" d="M114,82.36V86A3,3,0,0,1,114,82.36Z"/><path class="cls-49" d="M111.88,92.72l.2-3.76A3.82,3.82,0,0,1,111.88,92.72Z"/><path class="cls-3" d="M117.82,108.37c-.4.24-.32-.12-.32-.29,0-.57,0-1.15,0-1.72C117.82,107,117.36,107.76,117.82,108.37Z"/><path class="cls-1" d="M120.61,53.27l.08.48c-.15,0-.31.17-.44,0a3.41,3.41,0,0,1,.2-2.3C120.71,52,120.44,52.67,120.61,53.27Z"/><path class="cls-1" d="M121,49.82,120.64,51c-.65-.18-.15-.56-.12-.83S120.56,49.48,121,49.82Z"/><path class="cls-4" d="M120.61,53.27c-.31-.59-.06-1.22-.16-1.83,0,0,.11-.1.16-.16Z"/><path class="cls-50" d="M123.32,51.38c.11-.4.78-.62.36-1.2-.11-.14.21-.27.41-.25a.54.54,0,0,1,.53.52C124.7,51.08,124.21,51.43,123.32,51.38Z"/><path class="cls-51" d="M65.2,157.64h-.42c-1.49,0-1.69-.16-2.05-1.63a3.45,3.45,0,0,1,1.48-4.1A4.45,4.45,0,0,1,69,152a5.37,5.37,0,0,1,2.26,3.15,1,1,0,0,1-.42,1.12,6.52,6.52,0,0,1-3.94,1.28c-.55,0-.58-.07-.38-.32s.43-.47.16-.78a.37.37,0,0,0-.53,0c-.31.23-.26.51-.11.81a.3.3,0,0,1,0,.25C65.81,157.7,65.45,157.45,65.2,157.64Z"/><path class="cls-52" d="M65.2,157.64l.72-.14c-.33-.48-.49-1,.12-1.35a.61.61,0,0,1,1,.26c.23.49,0,.86-.79,1l.66.1A4.27,4.27,0,0,1,65.2,157.64Z"/><path class="cls-51" d="M77.18,151.51c-.58.39-1,.24-1.31-.36a8.13,8.13,0,0,1-1.21-5.84,3.24,3.24,0,0,1,1.62-2.09,2.08,2.08,0,0,1,2.25.6,8.5,8.5,0,0,1,1.91,3.43,2.07,2.07,0,0,1-.39,2.09,7.33,7.33,0,0,1-2.42,2.08c-.14-.19-.07-.42-.09-.63a.43.43,0,0,0-.38-.44.46.46,0,0,0-.47.26c-.13.24,0,.41.17.55A.68.68,0,0,1,77.18,151.51Z"/><path class="cls-53" d="M77.18,151.51c-.44-.23-1.22-.25-.72-1.07a.66.66,0,0,1,.84-.35.71.71,0,0,1,.46.86c0,.16-.09.31-.13.47Z"/></g></g></svg>