<svg xmlns="http://www.w3.org/2000/svg" viewBox="0 0 766.27 1106.19"><defs><style>.cls-1{fill:#595959;}.cls-2{fill:#b7b7b7;}.cls-3{fill:#ea892a;}.cls-4{fill:#ea8a2a;}.cls-5{fill:#f1d0a8;}.cls-6{fill:#533895;}.cls-7{fill:#fefefe;}.cls-8{fill:#562928;}.cls-9{fill:#9062a9;}.cls-10{fill:#cd5f2d;}.cls-11{fill:#ea3b28;}.cls-12{fill:#572929;}.cls-13{fill:#e9222a;}.cls-14{fill:#df65a5;}.cls-15{fill:#9062a8;}.cls-16{fill:#fcfcfc;}.cls-17{fill:#fdfdfd;}.cls-18{fill:#fbfbfb;}.cls-19{fill:#8f61a7;}.cls-20{fill:#fafafa;}.cls-21{fill:#ebcaa4;}.cls-22{fill:#895ea0;}.cls-23{fill:#f5f5f5;}.cls-24{fill:#f8f8f8;}.cls-25{fill:#f2f2f2;}.cls-26{fill:#845b9b;}.cls-27{fill:#f3f3f3;}.cls-28{fill:#79548c;}.cls-29{fill:#eaeaea;}.cls-30{fill:#d3d3d3;}.cls-31{fill:#cbcbcb;}.cls-32{fill:#ccc;}.cls-33{fill:#030201;}.cls-34{fill:#010101;}.cls-35{fill:#010102;}.cls-36{fill:#020202;}.cls-37{fill:#020102;}.cls-38{fill:#030303;}.cls-39{fill:#fefdfd;}</style></defs><title>Asset 9</title><g id="Layer_2" data-name="Layer 2"><g id="Layer_1-2" data-name="Layer 1"><path d="M766.27,512.92c-5.49,6.19-5.49,6.19-9.85,6.69,1.06,2.94,2.09,5.84,3.14,8.72,1.56,4.28,2.23,8.76.5,13-1.43,3.45-7.59,7.56-13.56,5.78l-1.84-.58c2.78,6.08,4.73,11.77,4.36,18.16-.46,7.83-3.11,12-10.71,14.48-1.87.6-1.22,1.61-1.07,2.6a22.05,22.05,0,0,1-3.47,15.77c-3.26,5.18-8.31,6.62-13.79,7.15-1.94.19-2.62.55-3,2.62-1,4.91-3.53,8.76-9,9.48-1.79.23-1.95.82-1.5,2.47a18.15,18.15,0,0,1-2.54,15.41c-2.67,4-7.09,5.24-11.29,6.74-.74.26-1.67-.32-1.61,1.35.37,9.51-4,15.09-13,17.07-8.2,1.81-16.29,2.68-24.24-1.27-1.79-.88-4-.78-6-1.33-1.13-.32-1.37,0-2,.95-8.21,11.69-25.32,13.65-35.55,7.88-2.88-1.63-5.82-3.16-9.22-5,0,1.79,0,3.43,0,5.07a9,9,0,0,1-6,8.31c-1.2.42-2.25.84-1.75,2.27,2.28,6.41-2,9-6.59,11.28s-9.46,4.14-14.26,2.75c-3.93-1.14-8.29-2-11.63-4.77-1.49-1.25-2.1-.88-3.06.59-6.85,10.45-18.37,10-28,4.17a32.42,32.42,0,0,1-9.43-8.51c-.75-1-1.34-1.45-2.8-.79-14.08,6.39-25.35-1.28-30.51-10.66-1.28-2.31-2.11-1.81-3.74-.49-4.24,3.42-8.76,6.79-14.6,5.64a26.21,26.21,0,0,1-13.43-7.21c-3.43-3.47-6.73-4.61-11.53-3,2.86,4.54,5.76,9.18,8.69,13.78C484.58,730.08,517.63,780.2,548,832c5.92,10.1,11.68,20.29,17,30.71,3.34,6.49,6.27,13.32,11.05,19,1,1.18.73,2.18-.06,3.37q-14.25,21.58-28.39,43.25c-1.27,1.95-1.86,1.39-3.13.11-5-5.08-8.83-11.16-13.3-16.69-21.48-26.59-43.64-52.59-67.25-77.3a308.29,308.29,0,0,0-35.59-31.64c-2.26-1.74-5-1.74-7.53-2.11a103.78,103.78,0,0,0-20.33-.7c-3.81.2-5,2.16-5.79,5.37-2.74,11.42-4,23.08-5.21,34.72-1.27,11.9-2.24,23.83-3,35.78-.88,13.9-1.25,27.83-2.09,41.74-1.41,23.33-1.34,46.73-3.48,70-1,10.76-.28,21.56-1.66,32.34-2.26,17.58-5.38,35-8.89,52.33-2,9.93-5.46,19.44-8,29.22-.52,2-1.87,1.65-3.19,1.66-16.47.13-32.94.21-49.41.39q-60.48.67-120.95,1.43c-9.21.11-18.41.38-27.62.57-4.82.64-9.66.1-14.49.28-6.74,0-13.48,0-20.22,0-1.12,0-2.29-.32-3.35.34H108c.93-4.19,3.33-7.72,5.1-11.53,13.43-28.84,27.62-57.34,40.19-86.57,11.64-27.1,22-54.77,33.71-81.81a741.08,741.08,0,0,0,27.6-75.68A557.47,557.47,0,0,0,233,770c3.69-23.9,3.55-47.9,1.23-72a248.14,248.14,0,0,0-6.65-38.69c-3.13-12-7.92-23.49-12.7-35-5.57-13.35-13.5-25.3-21.3-37.36-7.31-11.29-14.31-22.77-20.79-34.56-.42-.78-.63-1.76-1.63-2.23-1.36,2.17-.68,5-2.24,7.06-4.31,5.66-9.34,10.27-17.07,9.88-2.77-.14-2.66,1.16-2.31,3.08,1.31,7.11-1,10.32-7.91,12.27-7.93,2.24-13.77-1.64-19.53-5.93-2.19-1.63-3.77-4.83-6.07-5.34s-4.6,2.5-6.92,3.9c-7.75,4.69-19.79-1.5-21-11.24-.68-5.25-1.69-10.46-.73-15.77.27-1.54.2-2.43-1.88-1.77-6,1.9-11-.47-15.27-4.46a10.23,10.23,0,0,1-2.58-11.48c1.41-3.69,2.94-7.73,7-9.58-.31-1.36-1.5-1.11-2.24-1.51-4.11-2.22-6.6-5.11-6.71-10.28-.19-8.69,3.45-15.52,9-21.63,1.19-1.31,2.77-2.28,3.83-3.86a39.86,39.86,0,0,1-10.94-.5c-8.14-1.13-9.54-8.83-6.23-14,7.63-12,18.73-19.07,32.8-21.13,3.27-.47,5.48-1.5,6.86-4.55a57.38,57.38,0,0,1,11.25-17.19c1.51-1.53,3.1-3,4.58-4.74-3,1-5.93,2.09-9,2.9-20,5.33-39.58,3.76-58.62-4.34a101.63,101.63,0,0,1-25.73-15.18C12.76,395.89,4.43,385.35.81,371.57c-2.39-9.09.84-16.88,5.48-24.47,6-9.83,14.69-17,23.45-24.13C35.81,318,41.93,313.15,48,308.23a7.11,7.11,0,0,0,1.91-1.92c6.68-12.79,16.34-23.34,25.77-34,16.1-18.23,27.06-39.15,34.6-62.16,5.33-16.26,9.42-32.9,15.35-49.17,8.14,6.85,4.16,16.23,5.52,25.43,12.27-30.65,32.26-52,64.73-59.35a66,66,0,0,0-17.4,22.24c26.86-18.5,56.85-25.19,89.69-24.53-3,3-6.35,2.86-9.39,3.11a18.32,18.32,0,0,0-5.65,1.3c-8,3.35-16.5,5.69-24.22,11.22,24.13-6.21,47.64-7.08,70.88,1.62a374.52,374.52,0,0,0-38.6,7.27c4.37.64,8.74,1.31,13.12,1.93a132.17,132.17,0,0,1,26.72,6.61c2.34.85,2.68.46,2.89-2,1.17-13.74-3.69-26.22-7.46-39-4.74-16.09-9.11-32.38-10.77-49.06-1.14-11.53-.38-23.49,7.22-33.28,4.5-5.8,10.82-8.69,18.55-7.24,11.49,2.16,21.15,8,30.44,14.74,12,8.73,22.81,19,34.78,27.81,1,.75,2,2.88,3.67,1.36s4.34-2.59,3.58-6c-2.31-10.32-4.11-20.73-5.65-31.19a2.45,2.45,0,0,0-2-2.36c-7.63-2.23-12.43-7.31-13.41-15.15-.65-5.23-.26-10.68,4.86-14.17,5.61-3.83,12.91-2.9,16.77,2.77,3.67,5.38,6,11.34,3.48,18.16a17.11,17.11,0,0,1-4.91,6.54c-1.11,1-1.69,2-1.23,3.6,2.75,9.24,4.08,18.81,6.49,28.51,4.06-4,6.47-8.58,8.65-13.37,2.61-5.72,4.3-11.88,8.36-16.9a8.24,8.24,0,0,1,10.08-2.27c5.48,2.33,9.28,6.7,13.31,10.78,3.14,3.17,6.15,6.48,9.52,10.06,1.67-5.72.7-11.2.94-16.58.06-1.31-1.11-1.31-1.84-1.73-4-2.27-7.91-4.38-10.82-8.27C423.85,20,423.12,16.15,423.2,12S428.53,1.67,433.14.75c5.72-1.15,12.16-.78,16,4.52s4.18,16.88.42,22.31A4,4,0,0,1,448.07,29c-4.73,2-5.24,5.79-4.85,10.22.41,4.62-.54,9.17-1.09,13.73a6.5,6.5,0,0,0,1.32,5.09c13.27,17.67,25.47,36,35.47,56a26.12,26.12,0,0,0,5.35-6.4c3.57-5.76,6.85-11.7,10.35-17.5.93-1.53.86-2.51-.45-3.8-5.07-5-6.41-11.23-5.15-18.07a10.45,10.45,0,0,1,15.78-7c7.68,4.69,10.06,12.8,5.95,20.88-1.39,2.73-3.36,4.76-7,4.74-2.68,0-4.69,1.23-6.13,4.06-4.42,8.7-8.85,17.44-15.16,25a3.28,3.28,0,0,0-.57,3.7,90.39,90.39,0,0,0,7.29,15.16c5.14,8.79,7.46,18.76,12,27.81,1,2,1.51,2.39,3.49,1.14,4-2.51,8.13-4.74,12.25-7,1.35-.74,1.79-1.42,1.58-3.17-.88-7.46,3.67-14.82,9.72-16.31,4.8-1.17,10.15,1.92,12.2,6.47,2.6,5.76,2.62,11.29-.24,16.87-1.75,3.41-4.53,5.91-8.32,5.76-4.35-.17-8.82-1.31-10.85-5.92-.76-1.73-1.63-1.37-2.61-.85-4.68,2.46-9.29,5-14,7.52-1.79,1-1.09,2.41-.75,3.62,1.94,7,4.05,13.88,6,20.85,2.66,9.46,1.37,17.34-6.79,24.37-11.87,10.24-23.62,20.51-37.38,28.17-1.82,1-1.65,2.23-1.18,3.73,2.31,7.46,3.89,15.1,5.63,22.72,1.67,7.33,1.36,14.76.69,22-.49,5.27-5.91,7.22-10.69,8.4a122.75,122.75,0,0,1-22.5,3.21c-.85,0-2.1-.38-2.39.73-.15.56.51,1.53,1.05,2,2.14,2,2.43,4.62,2.56,7.26a5.85,5.85,0,0,0,2.71,5.15c10.54,7.12,19.46,16.08,25.65,27.07,4.45,7.89,6.61,16.84,4.64,26.28a69.06,69.06,0,0,1-14.51,30.14c-8.72,10.62-20.23,16-33.8,18.05a94,94,0,0,1-41.9-3.32A15.89,15.89,0,0,0,368.14,419c-12.47,6.95-23,16.35-33.42,25.89-3.22,2.95-5.3,7.15-7.81,10.83-.86,1.25-1.05,3.3.79,3.06,1.67-.21,4.69,2.6,5.21-1.31.93-6.95,7-8.49,12.46-6.75,10.84,3.46,17.29,11.28,20.78,21.36,1.85,5.35,5,8.5,9.48,11.24a13.69,13.69,0,0,1,6.4,9.82c.49,3.08.38,3.1,3.92,2.37-2.6-2.61-3.78-5.87-5.21-9-1-2.22-.46-3.87,1.06-5.54,3.57-3.92,8.13-5.05,13.17-4.54,14.06,1.41,25.19,8.5,34.91,18.25.49.49,1,.94,1.47,1.46,2.57,3,4.88,5.77,9.4,2.39,2.46-1.84,5.89-1.8,9-1.18.87-6.7,4.19-9.51,12.1-11.43,7.6-1.84,14.85-.78,22,1.71,2.23.77,3,.5,4-1.79,2.61-6.24,4.31-12.89,8-18.63s9.28-8,15.69-8.8c.63-.08,1.63,0,1.92.43,2.05,2.82,3.73,1,5.63-.2,2.59-1.69,5.15-3.38,7.92-4.83,7.31-3.79,18.09-1,22.85,5.82.67,1,1.21,2.42,2.87,2a3.83,3.83,0,0,0,2.8-3.17,32.73,32.73,0,0,1,5.52-11.66c7-9.92,24.75-10.89,32.63-4.28a14.82,14.82,0,0,1,3.66,4.91c.94,1.84,1.53,2.44,3.2.41,3.91-4.76,9.06-8.83,6-16.25-.64-1.57-.23-3.67,0-5.48.75-4.9,5.53-9.71,10.68-10.43,4-.55,8-1.12,11.81,1.08,1.56.91,2.5.62,3.93-.89,10.43-11,22.11-8.73,29,3.52.85,1.5,1,3,3.54,1.87,1.74-.76,3.85.56,5.53,2,5.12,4.54,5.4,4.58,8.47,4.45-.21-3.34-1.66-6.39-1.26-10,1-8.72,8.51-16.38,19.65-11.11C707.28,411,711.3,418.91,713.7,428c.56,2.12,1.26,2.71,3.36,2.65,6.47-.19,12.54,1.19,17.8,5.26,4.26,3.3,6.24,7.82,7.08,13a3,3,0,0,1-.15,2c-2.65,3.41-.11,5,2.14,7,5.4,4.67,10.7,9.45,14,16,2.63,5.26,4.44,10.59,1.92,16.42a1.9,1.9,0,0,0,.27,2.46c2.81,2.77,4.29,6.39,6.17,9.76Z"/><path class="cls-1" d="M123.21,1106.19c.89-1.14,2.14-.63,3.21-.64,6.79,0,13.58,0,20.37,0,.18.16.23.3.15.43s-.15.19-.22.19Z"/><path class="cls-2" d="M146.72,1106.19a1.09,1.09,0,0,1,.07-.62l14.48,0a1.26,1.26,0,0,0,0,.64Z"/><path class="cls-3" d="M415.7,790.83c.5,2.35,2.62,3.08,2.65,5.81a75.57,75.57,0,0,0-42.85,3.79,89.2,89.2,0,0,0-35.91,25.5c.22-8.37,3.38-14.91,6.28-21.65s7.89-12.07,11.85-18.76c-8.1.47-12.76,5.75-17.13,10.81s-6.34,12.08-9.27,18.34c-1.25-19.93,1.47-39.65,2.27-59.43l-.93-.1c-.77,5.77-1.47,11.54-2.34,17.28a168.14,168.14,0,0,1-3.1,17.66,61.69,61.69,0,0,1-7,16.51c-3.13-21.09-6.24-42.11-14.18-62a158,158,0,0,1,2.23,18.86,65.36,65.36,0,0,1-1.55,19.23c-.58-.81-.79-1-.78-1.11,1-12.78-3.52-24.37-7.38-36.19-8.66-26.52-22.89-50.12-37.95-73.31-6.86-10.57-23.5-30.14-30.26-35L237,647.21c-4.3-.92-7.66-3-9.25-6.91-5.3-13-10.8-25.95-18.05-38-7.47-12.42-16.28-24.07-23.25-36.75C176,546.66,166.16,527.35,161.31,506c-1.5-6.61-.6-13.32-.85-20a1.69,1.69,0,0,1,1.2-1.84c6.79-2.34,9.26-8.14,11.44-14.19.2-.53.47-1,.87-1.94a57.11,57.11,0,0,1,3.75,4.59c4.29,6.47,10.53,9.64,17.95,11,3.56.65,6.9-.25,10.14-1.35,1.78-.61,3.1-.61,4.36.69,4.27,4.41,10,4.85,15.55,5.49,2.68.31,4.4.22,5.31,4,3.25,13.43,12,20,25.13,21.13,1.82.16,2.25.78,1.78,2.29-2.35,7.52,1.8,12.75,6.27,17.85a8.8,8.8,0,0,0,6,3c2.66.19,3.95,1.72,5.25,3.8,6.07,9.76,14.82,15.07,26.42,15.34,1.39,0,3.1-.46,2.3,1.9-2.07,6.09.82,11,3.72,15.88,5.94,9.88,13.18,18.85,19.86,28.23,8.74,12.29,19.1,23.3,28.38,35.19,20.05,25.69,40.19,51.37,58.37,78.36q29.81,44.25,60.9,87.58C494.31,829.26,513,855.66,533,881.11a270.87,270.87,0,0,1,16.94,24.19c1,1.65,1.41,3.66,2.77,5.13.64.7.16,1.3-.19,1.86-2,3.22-4.09,6.4-6.08,9.64-.77,1.25-1.47,1.38-2.21.1-5-8.48-11.84-15.5-17.83-23.19-9-11.52-17.83-23.15-27.46-34.09-9.42-10.71-19.73-20.63-29.68-30.86a307.71,307.71,0,0,0-42-36.35A57.83,57.83,0,0,0,415.7,790.83Z"/><path class="cls-4" d="M158.34,426.81c-6.57-2.73-11.07,1.83-16.3,3.63a3.75,3.75,0,0,1-.29-1c.71-11.93-8.6-13.9-16.89-10.92a4.63,4.63,0,0,1-5-.74c-16.51-12.56-32.6-25.56-46.24-41.35a126.67,126.67,0,0,1-21.53-35.15c-3.16-7.73-3.23-15.91-.44-24.26,4.17-12.46,13.12-21.46,20.9-31.36,1.43-1.81,3.28-3.38,4.29-5.39,4.38-8.68,12.34-9.66,20.66-10a70.2,70.2,0,0,1,44.18,13c6.89,4.78,13.9,9.53,21.17,13.62,10,5.6,21.08,7.22,32.66,5.3,15.31-2.54,24.54-12.64,31-25.39,5.16-10.24,5.5-21.62,4.17-33.06a203,203,0,0,0-3.68-22,115,115,0,0,0-6.1-18.66c-1.63-3.9-3.15-7.7-3.39-12.14-.37-6.92-5-12.19-8.49-17.85-1-1.55-2.07-3-3.43-5,6-.76,10.71,1.7,15.45,3.61,16.6,6.68,29.49,18.09,40.27,32.11.35.45.71.89,1.41,1.76,4.93-9.2,9.79-18.07,18.34-24.26,8.25-6,16.81-11.05,27.5-13.7-3.37,4.15-6.22,7.72-9.13,11.23a18.88,18.88,0,0,0-4.57,10.26c-1.14,11.67-4.29,23-5.68,34.62-1.07,8.84-.54,17.71-.43,26.56.13,11.23,2.56,22.11,5.94,32.8,2.19,6.89,6,12.75,11.63,18.54-13.45-6.13-26.82-7.67-40.49-7.28A89.84,89.84,0,0,0,234.31,301c-6.34,2.56-12.68,4.9-17.76,9.62-5.9,5.45-8.63,12.29-7,20.2a74,74,0,0,0,26.45,43.31c7.94,6.38,17,11.49,27.19,13.75a43.43,43.43,0,0,0,17.44-.15c15.44-2.85,28.51-10.42,39.92-20.64,10.61-9.5,16.72-21.52,15.58-36.36-.17-2.29-1.49-4.07-2.62-5.91a51.55,51.55,0,0,0-15.49-16c-1.31-.88-2.55-1.87-4.33-3.19,2.37,0,4.14-.15,5.87,0,16.85,1.66,30.88-5.3,44.19-14.43,5.32-3.65,10.45-7.43,13.29-13.62a57.21,57.21,0,0,0,4.51-15.47c.11-.75-.19-1.78.75-2.12s1.63.58,2.25,1.23c14.09,14.9,28.88,29.08,44,43,3.33,3.07,4.33,7.94,4.9,12.26,1.79,13.71-3.39,25.79-9.49,37.66-6.93,13.49-16.38,25-27.27,35.34-12,11.39-25.45,21.2-38.54,31.36-7.1,5.5-14.81,10.2-21.45,16.26-6,5.49-11,11.73-13.41,19.72-.18.6-.22,1.44-1.57,1.41.17-2.89,1.49-5.35,2.59-7.89,5.77-13.31,15-24,24.83-34.45s21.71-18.87,32.46-28.41a40.52,40.52,0,0,0,11.92-19.41c1.68-5.62-.8-10.61-2.82-15.61-.8-2-1.91-3.86-2.95-5.94,2.94-.37,4.61,2.46,7.22,2.31-11.42-12.19-27.54-14.09-37.71-4.38,4.13.78,7.8-2.9,12.79-1.57-10.71,11.69-17,26.22-29.68,35.51-6,4.42-12.58,8-19.1,11.65a61.39,61.39,0,0,1-13.81,5.22c-5.33,1.5-10.55,0-15.73-.78-11-1.66-21.75-.52-32.6,1-10,1.43-19.81,4-30,4.74-6.83.49-12.41-1.86-17.62-5.61-17.4-12.54-31.79-28.28-46.24-43.94-7.57-8.21-15.26-16.29-23.57-23.78-2.85-2.56-6.71-3.33-10-5.8,7-2.67,14.3-.23,21.13-2.2-.15-.33-.22-.68-.33-.69-11.27-1.6-22.5-3.11-33.79.26-8.11,2.41-18.1,12.62-19,20.08,1.44-.05,1.77-1.78,3.63-2.13-3.41,7.71-.79,15.15.5,22.5,1.16,6.58,4.48,12.61,8.34,18,11.77,16.49,26.14,30.27,43.7,40.56,2.25,1.31,5.32,2.19,2.62,5.85C158.08,424.09,158.42,425.4,158.34,426.81Z"/><path class="cls-5" d="M234.57,1100.3c1.2-6,3.77-11.58,5.68-17.32q14.77-44.49,26.67-89.81c8.4-32,18.77-63.43,26-95.72,5-22.28,11.1-44.35,13.85-67.1,2-16.12,3.53-32.26,3.08-48.52a13.4,13.4,0,0,1,2.18-8.29l6.74,46.56c3.18-6.06,4.1-12.78,8.19-18.65.82,10.48-.15,20.73,3.48,30.52-.06-6.8,2.83-12.66,5.17-18.71s6.23-11.08,10.05-16.19c-1.36,6.12-5,11.24-7,17-2.26,6.51-4.19,13.11-2.3,20.69,6.24-8.8,14.51-14.87,22.69-20.9a64.48,64.48,0,0,1,29-12c2.44-.37,2.92,0,2.19,2.62-3.42,12.24-4.17,24.91-5.67,37.45-3,25.38-3.88,50.93-5.72,76.4-2,27.55-3.19,55.14-4.76,82.71-1.06,18.57-4.09,37-7.06,55.39q-3.28,20.43-8.11,40.52c-.43,1.77-.74,3-3.21,3q-60,.1-119.92.47A10.58,10.58,0,0,1,234.57,1100.3Z"/><path class="cls-4" d="M114,1101.2c3.94-6.76,7.74-12.89,11.16-19.24,19.09-35.46,35.61-72.13,51.24-109.22,1.14-2.72,2-3,4.57-1.63,9.34,5.26,19.45,5.73,29.8,4.37s20.48-4.07,29.66-9.5c3-1.8,3.18-1.93.15-3.84a107.34,107.34,0,0,1-20-15.75c-9.49-9.75-15.28-21.44-19.26-34.22-.8-2.57.32-5,1.11-7.34,4.16-12.3,8.47-24.55,12.81-36.79a9.74,9.74,0,0,1,5.76-5.58c12-5.11,23.82-10.41,35.3-16.51,9.41-5,17.67-11.6,25.36-18.91,3.58-3.41,6.85-7.14,10.32-10.67,1.25-1.26,1.51-2.15.14-3.67-14.37-16-25.88-34.05-36-53-3.09-5.76-5-12.18-8.15-17.88-5.05-9.07-6.45-18.66-6.57-28.85-.1-8.69-.46-17.48-2.83-26-.21-.76-.67-1.51.15-2.2s1.5-.11,2.14.34c6.9,4.88,14.42,3.85,21.85,1.93,1.95-.51,2.57-.13,3.47,1.27a315.55,315.55,0,0,1,28.14,54.47c4.77,12.14,6.91,25,8.59,37.91.38,2.85.6,5.7.75,8.57.08,1.48-1,4.17,2.47,3.91.8-.06.46,1.35.46,2.08,0,7.5-1.05,14.91-1.87,22.34-4.16,37.49-14.25,73.75-23.58,110.11-13.31,51.88-29.06,103.09-44.23,154.44-1.63,5.51-3.3,11-4.85,16.55-.45,1.64-1,2.49-3,2.49C190.93,1101.19,152.79,1101.2,114,1101.2Z"/><path class="cls-6" d="M680.26,589.64c-1.19-8-3.52-9.59,5.51-14.21a3,3,0,0,0-2.46-1.62c-7.79-1.46-11-5.62-11.8-13.53-1.06-10.56,7.9-24.77,19.42-28.07,2.82-.8,4.94-1.39,4.66-5.8-.52-8.22,2.68-15.28,10.56-19.4,2.92-1.53,5.46-1.45,7.77,1.09a28.8,28.8,0,0,0,14.45,8.79,21.66,21.66,0,0,0,11.88-.67c5-1.49,9-8.07,8.34-13.24-.07-.57-.13-1.14-.17-1.72-.18-2.49-.93-5.36,3.34-4.86a2.85,2.85,0,0,0,1.92-.68c3.16-2.69,4.61-.84,6.39,1.88a17.77,17.77,0,0,1,2.84,12.12c-.55,5.19-4.22,8-9.3,6.95a5,5,0,0,0-3.23,0c1.66,3.67,3.21,7.36,5,10.94,1.91,3.85,1.51,7.84,1,11.84-.47,3.67-3.21,4.76-6.9,4.31a24.58,24.58,0,0,1-9-3.33c-.89-.5-1.88-1.86-3-.68-.92,1,.2,2,.73,2.75,2.79,4.05,4.08,8.7,5.74,13.24,1.73,4.7,1.42,9.24.1,13.85-1.23,4.3-4.58,5.87-8.77,4.16-.83-.34-1.69-1.14-2.52-.4s-.3,1.74-.19,2.63c.62,4.89,1.72,9.71.61,14.72-1,4.68-7.79,9.6-12.73,10.52-1.07.21-2.39-.62-3.53-1.14-2.29-1-3.24-.19-3.26,2.14,0,1,0,2.07,0,3.11-.17,6.19-5.36,9.76-11.1,7.68-1.81-.65-2,.78-1.84,1.88a16.88,16.88,0,0,0,1.58,4.17c2.79,5.61,1.54,11.25-3.16,15.36a11.92,11.92,0,0,1-9.12,3c-3.26-.2-3.83.74-3,3.93,1.89,7.57-2.84,14.39-10.82,15.32-10.43,1.22-20.65.89-29.72-5.42-1.14-.79-1.7-.19-2.18.66a40.68,40.68,0,0,1-2.8,5.12c-2.65,3.39-5.66,6.09-10.35,6.76a53.33,53.33,0,0,1-18.18-.34c-6.34-1.26-10.77-5.35-13.65-10.78s.72-12.86,6.81-15.29c1.1-.44,2.5-.4,1-2.12-5.73-6.79-5.37-13.69,1-20.09,3.19-3.22,7.3-4.68,11.47-6,2.52-.79,5.06-1.54,7.62-2.18a3.47,3.47,0,0,0,3-4c0-.34,0-.69,0-1,0-4.78-.46-9.25,4.17-13.06,5.78-4.76,12-6.41,19.12-6,2,.12,4,.86,6.09,1.16a7.15,7.15,0,0,1,5.84,4.15c1.18,2.32,2.61,4.51,5.92,1.7C673.69,587.91,677,589.08,680.26,589.64Z"/><path class="cls-6" d="M587.41,673.66a17.8,17.8,0,0,1,1.92,2.91c1.29,3.16.9,6.08-2.49,7.3-8.92,3.22-17.59,4.23-26.25-.74-2.15-1.23-4-3.41-6.17,1.26-2.88,6.11-9.5,6.46-15.74,6-7.76-.58-13.15-4.93-17.3-11.07-1.19-1.77-2-2.35-4.32-1.52-10.69,3.82-21.54.48-27.52-9.45-1.54-2.56-3.19-5.07-4.82-7.57-.35-.53-.57-1.41-1.49-1.08-.66.23-.5.94-.59,1.48-.62,4-4.42,7.6-8.57,8.69-8.7,2.28-14.63-2.31-20-8-1.57-1.67-2.64-2.28-4.86-1.57-11.1,3.55-24.7-1.79-29.41-12.54-.55-1.26-1.3-2.43-1.94-3.66-1-1.91-2.42-2.53-4.66-2.71a46.86,46.86,0,0,1-32.51-16c-3.72-4.21-1.71-9.57,3.64-11.05,4.79-1.32,9.36.34,14,.56,1.7.08,3.39.3,5.09.46.38-1.75-1-2.19-1.65-3s-1.68-1.69-1.13-3a3.63,3.63,0,0,1,3.17-2.28c4.55-.59,4.63-.79,2.78-4.92-.8-1.78-1.6-3.56-2.36-5.36a7.5,7.5,0,0,1,1.44-8.06c1.69-2,4.27-2.19,6.71-1.33,7.89,2.76,14.78,6.92,19.22,14.31,1.35,2.25,2.42,3.45,5.59,2.09,7.57-3.27,14.88-2,21.3,3.21,4.95,4,8.81,8.81,8.94,15.56.05,2.45.92,3.09,3.25,3.22,3.29.18,6.77-1.16,9.82,1.73,1.41,1.34,1.39,3.1,2.52,4.36.61.69,1.35,2.36,2.07.41a11.26,11.26,0,0,1,9.36-7.72c4.77-.72,9.32.56,13.56,2.94a79.45,79.45,0,0,1,9.34,6.5c.64.5,1.26,1.74,2.3.87,2.48-2.06,4.72-.7,7,.3a65,65,0,0,0,21.6,5.47A39.87,39.87,0,0,0,561,639.16,8.37,8.37,0,0,1,571.51,648c-.25,2.9,2.28,2.9,4,3,3.11.28,6.13.92,9.19,1.43,4.7.8,7.79,3.9,10.46,7.36s.86,9.06-3,11.32C590.7,672,589.16,672.73,587.41,673.66Z"/><path class="cls-7" d="M186.6,299.26c-17.75,1-37.14-12.34-42.44-29.7-5.6-18.38-6-36.41,1.92-54.06,6-13.42,16.67-21,31.58-21.19,9.14-.12,16.73,4.56,23.72,10,11.89,9.22,20.53,21.09,24.07,35.62,4.3,17.66,2.48,35-11.58,48.11C205.66,295.71,197.87,299.81,186.6,299.26Z"/><path class="cls-5" d="M270.18,458.94c-3.11,1.07-6.3,1.37-9.12,2.91-1.42.77-1.74-.73-2.32-1.4-4.9-5.72-10.2-11.46-17.21-14-7.67-2.76-15-7.37-23.29-7.55-5.53-.12-8.44-2.58-11.12-6.78-6.35-10-15.28-16.29-27.05-18.42a21.41,21.41,0,0,0-14.59,2.59c-2.22,1.26-3.56,1.05-5.52,0a129,129,0,0,1-46.73-43.93,48.66,48.66,0,0,1-7.81-31.06c.73-9,6-15.64,14.31-17.21a22.12,22.12,0,0,1,20,5.79c15.61,14.4,29.12,30.74,43.7,46.08a154.23,154.23,0,0,0,34.49,27.36c2.37,1.38,5.39,1.77,8.17,2.28a5.22,5.22,0,0,1,4.42,3.86c1.18,4.79,3.84,8.85,6.12,13,5.56,10.18,11.1,20.41,19.59,28.62C260.2,454.93,264.24,458.45,270.18,458.94Z"/><path class="cls-8" d="M266.75,299.07c16.57.16,30.44,2.58,43.15,9.31,6.86,3.63,13.33,7.93,18.47,14.16a19,19,0,0,1,4.09,17.92,46.85,46.85,0,0,1-15.64,25.27c-11.5,9.69-25,14.88-39.28,18.29-6.86,1.64-13.94,0-20.19-2.81-6.94-3.15-14.06-6.42-19.27-12.43-6.93-8-13.92-15.9-19.32-25.06a42.7,42.7,0,0,1-5.44-14.79c-1.22-7.42,2.35-13.07,8.34-16.84,8.17-5.14,16.68-10,26.47-11.11C255.05,300.16,261.93,298.36,266.75,299.07Z"/><path class="cls-4" d="M560.26,897c-4-8.41-7.39-16.56-11.27-24.48-13.86-28.22-31.25-54.15-50.14-79.19-8-10.61-16.42-20.76-26.62-29.32a24.65,24.65,0,0,0-13.63-6.09c-2.88-.28-5.55.1-7.24,3.05-10.7-14.92-21.35-29.65-31.29-44.88a3.17,3.17,0,0,1-.63-2.91c2.9-8.47,2.25-17.26,2.3-26,0-1.32-.28-2.74.92-4.15,4.28,6.81,6.46,14.24,8.35,21.84a48.08,48.08,0,0,0,.41-22.37c-1.59-7.2-3.46-14.32-5.68-21.44A31.52,31.52,0,0,0,434,664c1.53.23,2.19,1.52,3,2.62,20.91,27.7,38.6,57.52,56.85,86.95,25.71,41.45,50.88,83.23,75.86,125.12,1.24,2.08,1.23,3.5-.24,5.42C566.39,888.16,563.52,892.43,560.26,897Z"/><path class="cls-9" d="M294.81,45.21c-.26-11.5,7.46-14.6,17.31-12.5,11.76,2.51,21.57,8.66,31,15.95C354.55,57.54,364.74,68,377,75.8A12.34,12.34,0,0,0,380,77.59c4.66,1.31,5.75,4.57,6,9,.58,11.59,3.1,23,2.93,34.7q-.12,7.39-.32,14.8c0,1.47-1.09,2.51-1.81,3.67-2.54,4.11-5.23,8.12-7.67,12.29-1.19,2.05-1.87,2.23-3.6.39q-21.9-23.26-44-46.36c-13.5-14.18-24.85-29.84-33-47.69C296.54,54.21,295,49.9,294.81,45.21Z"/><path class="cls-5" d="M340.93,509.45c-4.49-1.58-7.37-5.21-11.61-6.45-2.85-.84-6.94-4.95-8.58-7.61a19,19,0,0,0-14.63-9.17c-2.85-.33-4.2-1-3.72-4.38a16.27,16.27,0,0,0-2.67-11.12c-.42-.65-1.08-1.23-.69-2.17,3.3-7.92,1.61-16.61,4.29-25.27-3.35,3.13-3.71,6.74-4.46,10.17s-1.53,7-2,10.48c-.31,2.12-1,2.1-2.65,1.24-4.65-2.47-9-5.55-14.83-6.22,6-3.95,10.16-8.81,11.47-15.62a37.49,37.49,0,0,0,0-11.34c-1.2-10.31,2.75-19.14,8.29-27.36a12.58,12.58,0,0,1,8-5.06c17.56-3.73,31.49-13.82,43.84-26.09,5.65-5.61,10.06-12.51,14.83-19a131.37,131.37,0,0,1,8.83-10.14c2.28-2.5,4.3-2.08,6.5-.24,4.91,4.12,6.57,9.84,7.35,15.84,1.07,8.15-1.74,14.83-7.19,21-9.08,10.34-19.22,19.5-29.46,28.6a153.61,153.61,0,0,0-24.18,27.81c-2.77,4-4.53,8.76-6.66,13.21-1.63,3.42-2.79,7.11-4.76,10.31-3.57,5.79-2.29,10.89,1.21,16,5.3,7.78,11.75,14.15,20.75,17.5,1.92.72,2.39,1.36,1.74,3.7A14.33,14.33,0,0,0,340.93,509.45Z"/><path class="cls-6" d="M541.39,493.11c-3.74-.74-6.86-2.91-10.67-3.42-6.08-.81-13.38,3-15.14,8.79-1,3.23-2.14,2.79-4.62,1.52-7.62-3.93-15.5-6.81-24.37-4.41a14.73,14.73,0,0,0-9.7,7.62,9,9,0,0,0,1.65,10.44c.85.91,1.71,1.82,2.91,3.12-8.35-.86-13.95,3.17-18.39,9-3.17,4.17-.63,13.79,7.54,14.49-2.72,3-1.56,6.49-2.28,9.72a3.75,3.75,0,0,1-1.26,2.35c-4.07,3.19-13.07.27-14-4.8-.57-3-1.51-4.16-4.78-3.53a13.76,13.76,0,0,1-7.48-.6c-1.27-.47-2.47-1-2.93-2.19-1.46-3.7-2.77-2.55-4.49-.16-3.73,5.19-9,6.17-14.87,4.9a24.34,24.34,0,0,1-11.36-5.49c-5-4.42-7.43-9.58-4.59-16.23a9.34,9.34,0,0,0,.4-1.66c0-.08-.08-.19-.16-.33-6.18,1.48-11-1.51-15.5-5.07-2.85-2.25-5.86-4.41-7.46-8-1.7-3.83-.63-7.58,3.29-9.22a12.51,12.51,0,0,1,9.43-.34,4.73,4.73,0,0,0,4.05.2,40.18,40.18,0,0,1-7.53-5.6,13,13,0,0,1-3.43-5c-1.33-3.36-.33-5.26,2.76-7,6.83-3.92,13.37-1.2,19.58,1.11,10.32,3.83,18.19,11.44,26,19,1.45,1.4,2.59,3.14,4.77,1.31,4.6-3.85,9.71-2.69,14.74-1.39,2.41.62,2.66-.25,2.18-2.17A9.28,9.28,0,0,1,463,488.72c7.84-1.66,15.31,0,22.76,2.08,3.82,1.08,4.36.64,5.37-3.29a44.41,44.41,0,0,1,13.95-22.84c2.33-2,5-2.72,7.77-.4,2.22,1.84,4.1,1.2,5.86-1,5-6.28,17.9-11.13,25.77-5.87.47.31,1,.54,1.48.86,1,.69,1.93,1.62,1.67,2.81s-1.61,1.1-2.57,1.27c-5.76,1.08-10.52,3.35-13.57,8.86-3.17,5.74-.58,15.59,5.37,18.51C538.56,490.55,540.37,491.22,541.39,493.11Z"/><path class="cls-6" d="M583,640c-5.29.6-10.34-.91-15.19-3.14a10.22,10.22,0,0,0-6.37-.81c-17.27,3.2-32.26-1.37-45.22-13.13-3.62-3.3-4.08-7.69-4.16-12-.07-3.56,3-5.88,7.13-5.94,2.34,0,2.8-.52,2.44-2.94-.42-2.87-.7-5.91,1-8.72,3.09-5,4.92-5.84,10.41-3.75a13.59,13.59,0,0,0,5.08.61,2.18,2.18,0,0,0,2-1.42c5.84-10.4,14.32-17.46,26.48-18.26,4.36-.29,9.58-.39,13.06,3.79.23.27.63.47.69.76,1.11,5.12,3.35,3.29,6.56,1.63,9.29-4.79,18.45-4.42,27.34,1.66,4.94,3.38,9.4,7.93,16.07,8,1.46,0,.76,1.07.37,1.72-.95,1.58-1.91,3.16-2.94,4.68a11.37,11.37,0,0,0-1.67,9.55c.63,2.46-.52,2.3-2.22,2.46-10.31,1-18.38,5.64-23.15,15-2.17,4.28-3.44,8.83,0,13.25,1.06,1.37-.14,1.75-1,2.28C594.74,638.68,589.32,640.64,583,640Z"/><path class="cls-7" d="M612.19,507.63c2.68.33,5.17,1,7.62.85,5.08-.31,7.8-4,9.9-8.08,1.33-2.59,2.29-4.81,5.39-1.73,1,1,2.71,1.12,4.53,1.16-1.33,2.42-2.56,4.68-3.8,6.93-.26.47-.33,1.15-1.13,1.08-7.37-.66-9.78,4.91-11.92,10.11-2.53,6.13-2,12.67-.69,19,.44,2.15.28,3.23-1.92,4.22a15.74,15.74,0,0,0-8.47,8.61c-1.35,3.56-.27,7.25,2.32,10.24,1,1.2,1,1.78-.13,3.26-3.26,4.47-3.6,8.13,2.27,10.24,1.36.48,1.34.55,1.14,4a22.93,22.93,0,0,0-16.84-7.92,26.19,26.19,0,0,0-14.13,3.3c-1.31.75-2.12.69-3.12-.65-4.48-6-13.35-8.66-20.26-6.23-10.26,3.61-19.63,8.52-25.56,18.2-.81,1.34-1.48,1.11-2.74.6-5.14-2.09-12.06.61-14.77,5.58a25.23,25.23,0,0,0-2,3.6c-2.51,7.12-2.47,7.13-8.14,11.05-1-2.71-1-5.63-3.09-8-3.92-4.55-8.3-8.18-13.94-10.24-.83-.3-1.63-.17-1.5-1.67.5-5.81-2.54-9.92-8.74-11-3.93-.71-8.13-1.59-12,.78-1.44.89-1.73-.63-2.29-1.32-4.2-5.18-8.09-10.62-13.29-14.9-6.74-5.55-14.33-8.69-23.16-7.62-3.37.41-5.62,2.94-7,5.89-1.07,2.32-2,2.83-4.23,1.29a82.56,82.56,0,0,0-8.23-4.34c-4.56-2.36-9.05-2.11-13.86.53-.53-6.27-3.89-10.83-8.91-14.72,3-1.41,6.65-.8,8.38-4.53,3.45,10.08,11.22,13.73,20.41,15.22a16.72,16.72,0,0,0,15.11-5c1.66-1.68,2.79-1.65,4.58-.46a16.34,16.34,0,0,0,8.64,3.06c1.18,0,1.32.59,1.76,1.51,3.3,6.9,13.47,9.81,19.95,5.72a3.33,3.33,0,0,1,4.58.78c3.85,4.37,9,4.65,14.23,5.48,5,.8,9.54-.64,14.26-1.36,1.07-.16,2.21-1,3.18.78,4,7.51,9.34,9.09,17.52,5.13,3.41-1.64,6.69-3.73,8.37-7.38.69-1.49,1.61-1.69,3-1.45A39.79,39.79,0,0,0,554.77,555c6.23-2.38,11.27-10.47,10.31-17.17a31.19,31.19,0,0,0,11.91-.11c3.15-.62,6-1.6,8-4.2,1.13-1.44,2.54-1.63,4.24-1.69,5.9-.18,11.77-1.15,16.18-5.33C610.7,521.56,612.39,515,612.19,507.63Z"/><path class="cls-6" d="M733.1,453.19a134.41,134.41,0,0,1,16.07,14.25c3.52,3.79,6.52,8.09,7.79,13.24,1.88,7.59-2.44,12.48-9.87,11.3-1.24-.2-2.51-1-3.42.43-.79,1.19.29,2.1.68,3.15,2.33,6.24,2.16,13.08-4.5,16.48-4.28,2.18-8.76.82-13.11-.29-6.9-1.77-11.88-6.23-16.33-11.5a15.71,15.71,0,0,1-2.61-4.42c-.24-.6-.39-1.57-1.24-1.4a2.84,2.84,0,0,0-1.52,1.28c-4.24,6.85-9.77,8-16.81,4.21-8.66-4.67-11.35-15.75-10.88-23.42a9.37,9.37,0,0,1,5.36-8.31c2.57-1.19,2.19-2.43.24-4-6-4.79-10.58-10.51-12.35-18.17a25.44,25.44,0,0,1-.28-8.25c.44-4.5,3.6-6.95,8.61-7.14s5.25-.63,4.12-5.35a29.19,29.19,0,0,1-.36-9.28c.37-4.55,7.07-9.76,12.56-7.34a23.63,23.63,0,0,1,13.46,14.92c2.07,6.73,5.69,9.53,12.52,10.07a19.6,19.6,0,0,1,14.9,8.88c2.74,4,2.37,5.88-1.32,9.14C734.29,452.11,733.79,452.57,733.1,453.19Z"/><path class="cls-6" d="M386.66,559.54c2.81,3.14,5.41,5.89,7.82,8.8,3.08,3.72,5.24,7.65,3.92,12.91-1,4.12-6.89,7.79-11.08,6.57-8.19-2.37-14.1-8-19.91-13.74-3.45-3.42-3.68-3.53-5.48.76-6,14.16-19.72,14-29.57,11.44a36.93,36.93,0,0,1-22.24-15.71c-2.67-4.08-4.93-8.2-3.94-13.47.44-2.31-.55-3.87-3.61-4.07-8.48-.53-15.6-4.25-21.38-10.47a13.91,13.91,0,0,1-1.61-2.63c-.82-1.39-.48-1.93,1.19-2.13a23.83,23.83,0,0,0,12.62-5.88c2.27-1.94,4.22-2.24,6.83-1.06s5.17,2.13,8.21.56c6.28-3.24,7.83-9.64,3.11-15-1.5-1.7-1.48-2.25.48-3.42a25.87,25.87,0,0,0,5.62-4.46c2.89-3.07,5.88-2.56,9-1.4,13.81,5.05,25,13.19,30.77,27.26,1.08,2.64,2.36,3.89,5.3,3.59,6.15-.63,12.13.82,18.09,2,4.26.85,7.74,3.44,10.72,6.58C396.42,551.69,393,558.19,386.66,559.54Z"/><path class="cls-6" d="M87.27,478c-5-1.3-8.71,1.44-12.86,2.14a8.83,8.83,0,0,1-5.93-1c-4.29-2.43-4.69-6.08-.94-11.09a43.81,43.81,0,0,1,20-14.79,42.77,42.77,0,0,1,11.67-2.9,5,5,0,0,0,4.63-3.52c1.91-5.25,5.06-9.83,8.17-14.34,4.2-6.09,10.45-9.75,17.57-11.4,4.89-1.13,8.76,3.05,8.21,8.14-.26,2.37-1.34,4.67-.54,7.4,2.21-1.53,4.35-3,6.46-4.47,3.79-2.69,8.11-3.09,12.54-2.79,2.57.17,5.08,3.34,4.93,6.58-.22,5-.71,9.81-3.79,14.36-5.77,8.54-11.76,16.75-20.25,22.81-2.06,1.47-2.21,3.61-2.28,5.85-.17,5.75.7,11.57-.54,17.23-1.79,8.23-5,15.82-11.86,21.24-5.77,4.57-14.53,4.72-19.77-3.16-2.35-3.51-4.29-7-4.42-12.2-3.35,3.39-6.12,6.41-9.14,9.16-3.28,3-6.48,6.24-11.62,5.84-3.5-.27-7.92-4.68-7.67-8.17.5-7.06,3.86-12.91,8.15-18.25A143.14,143.14,0,0,0,87.27,478Z"/><path class="cls-7" d="M294.41,258.55c0-10.25,1.27-20.37,6.9-29.1,6.61-10.24,14.92-18.59,28.57-17.71,7.6.49,13.7,4.2,18.51,9.91a51.09,51.09,0,0,1,10.92,23.47c3.48,17.83,1.54,34.69-12,48.25-9.69,9.72-21.57,12.22-34.61,8.11-5.62-1.77-8.77-6.67-11.36-11.48C295.33,278.85,294.36,273.45,294.41,258.55Z"/><path class="cls-6" d="M234.67,468.49c-3.64-3.06-6.74-5.64-8.74-9.24-2.33-4.2-1.27-9.53,2.69-11,3.17-1.13,6.64-.48,9.75.91,6.91,3.08,13.13,7.23,17.89,13.18,2.35,2.95,4.35,3.57,8.07,2a26.88,26.88,0,0,1,24.59,1.52c6.07,3.45,9.19,9.08,10.67,15.8.62,2.8-1.1,4.39-2.77,6.37,1.63.8,3.12.43,4.53.46a20.74,20.74,0,0,1,13.35,4.85,9.54,9.54,0,0,1-.52,14.56,24.8,24.8,0,0,1-5.86,3.6c-3.63,1.46-3.65,2-.91,4.76,1.36,1.38,2.92,2.62,3.17,4.77.57,4.76-2.62,10.34-8.84,6.57-4.49-2.73-7-1.16-10.28,1.59-7.52,6.3-18.69,6.26-25.75.27A12.11,12.11,0,0,1,263,514.9c1.89-3.35,1.66-3.62-2.15-4.09-5.41-.67-10.86-.69-15.72-4.21-6.44-4.68-9.44-11.16-11.17-18.45-.65-2.78-1.79-3.48-4.6-3.59-4.61-.19-9.5,1.09-13.8-1.76-1.95-1.29-3.9-2.54-3.75-5.32s2.28-3.7,4.26-4.88c4.12-2.45,8.88-2.15,13.32-3.2C230.93,469,232.52,468.85,234.67,468.49Z"/><path class="cls-6" d="M518.91,507.59c-.91-8.63,1-12.11,7.69-14.67,3.56-1.35,9.54,0,12.21,2.73,1.33,1.34.69,2.85.4,4.21a16.14,16.14,0,0,0-.17,7.84c1.38,4.95,8.26,10.33,13.88,10.81s11.08.35,15.69-3.57c.88-.74,2.1-1.68,2.45.35,1,5.9,4.78,9.84,9.34,13.1,2.24,1.6,1.34,2.31-.27,3.34a12.17,12.17,0,0,1-6.5,2c-3.79,0-7.6,0-11.38-.29-2.22-.17-3.21.46-2.52,2.63,2.6,8.16-2.36,13.25-9.86,16.26-4.87,2-10,2.89-15.18,1.4-3.4-1-5.48.16-7,3.11-2.62,5.08-6.6,7.62-12.53,7.29-5.53-.31-7.69-2.13-8-7.69,0-.79-.11-1.58-.18-2.53a38.53,38.53,0,0,1-23.81,4c-4.89-.71-7.84-4-11.13-7-.88-.79-.69-1.82-.4-2.88,1.17-4.24,2.18-8.57,7.46-9.92-.73-1.46-1.61-1-2.42-.89-4.5.46-8.3-.76-11.16-4.49a2.4,2.4,0,0,1-.15-2.82c2-4.8,7.24-10.18,13.88-9.35a61.84,61.84,0,0,0,7.94,0,2.13,2.13,0,0,0,2.2-1.36c.34-1-.7-1.34-1.27-1.8-1.33-1.1-2.8-2-4.09-3.17-2.41-2.12-4.53-4.64-3.65-8a8.86,8.86,0,0,1,6.85-6.63c6.1-1.41,12.09-.66,18,1.28A55.08,55.08,0,0,1,518.91,507.59Z"/><path class="cls-6" d="M542.19,503.53c0-5.22,2-9.1,4.45-12.75,1.19-1.76.58-2.53-1.16-2.66a14.18,14.18,0,0,1-6.07-2.28,9.81,9.81,0,0,1-1.9-15.67c4.9-4.57,10.73-6.64,17.4-4.88,2.33.61,2.93.1,3.32-2.18,1.14-6.61,3.58-12.7,9.29-16.71,7.21-5.07,15.11-5,23-1.89,4,1.57,5.84,5,5.83,9.36q0,4.32,0,8.64c0,7.16,3.95,11.26,11,11,3.24-.12,3.8.82,2.48,3.51a11.15,11.15,0,0,0-.93,7.72,9.67,9.67,0,0,0,12.6,6.92c.87-.27,1.7-.71,2.58-1,1.49-.42,3-2.5,4.2-1.41s.34,3.25-.19,4.93c-2.11,6.61-5.6,10.81-15.16,8.88-5.68-1.14-5.79-.94-5,4.6,1.1,8.35-7,19.41-15.33,20.06-5.19.4-9.76-2-13.31-6-2.79-3.11-5-6.52-5.77-10.74-.42-2.46-1.9-2.23-3.54-1.36-2.44,1.3-4.76,2.81-7.26,4a15.7,15.7,0,0,1-15.5-1.15C543.78,510.42,541.84,507.14,542.19,503.53Z"/><path class="cls-9" d="M383.49,213.93c31.32-46.06,49.39-96.3,58.4-150.14.67-.24.84.47,1.12.89a570.39,570.39,0,0,1,31.85,52.06,3.68,3.68,0,0,1-.13,4.34c-12.51,19.69-27.31,37.54-43.48,54.31-10.88,11.28-22.54,21.7-34.24,32.1C393.23,210.86,388.56,211.71,383.49,213.93Z"/><path class="cls-6" d="M636,517.55a16.23,16.23,0,0,0,2.51-5.26c2.71-7.58,6.55-14.42,12.76-19.72a19,19,0,0,1,8.24-4.13c4.73-1.07,10.83,3.43,11.27,8.42.46,5.18.08,10.35,0,15.53,0,.83-.55,2,.6,2.43.89.34,1.38-.61,2-1.12,1.4-1.19,2.74-2.46,4.22-3.55,2.51-1.86,5.5-3.16,8.39-1.82,3.54,1.64,6.61,4.91,6.56,8.67,0,3.14-1.11,6.28-.53,9.64.23,1.35-1.84,1.45-3,1.79-6.69,2.06-12.4,5.5-16.18,11.56-5.38,8.61-6.33,17.79-3.13,27.37a3.5,3.5,0,0,1-.41,3.49,22,22,0,0,1-9.79,7.86c-3.4,1.48-8.15-.32-11-3.85-3.09-3.86-3.64-3.87-6,.74-2.46,4.87-5.92,7.34-11.7,7.33-6.13,0-8.39-4.46-9.59-10.15-.41-1.91-.15-3.25-2.85-3.54s-1.62-3.09-.77-4c1.76-1.94.92-3.39.06-5.13-3.6-7.37-.27-14.61,7.73-16.47,1.78-.42,2.41-.93,1.78-2.61-2.22-5.92-1.16-12.07-1.26-18.12-.07-4.12,2.7-7.26,4.24-10.81a2,2,0,0,1,2.33-1.08,2.21,2.21,0,0,1,2.16,1.89A15.24,15.24,0,0,0,636,517.55Z"/><path class="cls-6" d="M630.5,484.72a22.55,22.55,0,0,1-9.81,3.28c-5.72.41-9.94-5.73-7.63-11,.18-.42.45-.8.67-1.2,2.78-5,2.78-5-2.77-5-6.74,0-9.79-3.35-10.16-10.05a15.61,15.61,0,0,1,5.55-13.45c5-4.33,7-9.1,4.83-15.81-1.54-4.75.48-8.92,3.76-10.77,5.89-3.33,10.32-3.29,14.56.71,2.36,2.22,3.55,1.63,5-.79,2.78-4.67,7.23-7,12.39-7.84,5-.82,12.17,4.08,13.22,9,.66,3.13,1.7,4.5,5.12,3.34s5.23,1.48,7.37,3.52c-3.49,2.67-6.5,5.83-7.12,10.15-.79,5.53,1.1,10.71,3.83,15.47a32.35,32.35,0,0,0,8.33,9.6c1.41,1.09,1.68,1.65.14,3-5.07,4.59-6,10.59-5.19,17,.11.91.53,1.79.19,2.7-.41,1.12-1,1.85-2.26.79-5.89-5-12.12-3.85-18.23-.69a26,26,0,0,0-8.18,6.78c-3.11,3.81-9.68,2.49-11.44-2.19C631.85,489.19,631.24,487,630.5,484.72Z"/><path class="cls-10" d="M242.36,736.3a180.75,180.75,0,0,0,9.86,23.59c8.13,16.08,18.33,30.85,29.23,45.13,2.07,2.72,4.86,4.91,7.47,7.17,1.47,1.27,1.39,2.19.37,3.72-4.71,7.06-11.54,11.82-18,17-15.19,12-32.76,19.47-50.7,26.19a12.13,12.13,0,0,1-1.68.21C229.78,818.69,239.2,778.11,242.36,736.3Z"/><path class="cls-6" d="M148.51,534.81c4.67.55,9.25,1.19,13.17,4.15,5.08,3.84,6.68,9,4.35,14.91-3.23,8.18-6.28,10.21-15.42,10.21-6.28,0-6.28,0-5.26,5.81,1.05,6-2.18,9.82-8.27,9.53-7.55-.37-12.59-5-17.23-10.33-.22-.26-.38-.57-.59-.85-2.84-3.75-2.62-3.55-5.94,0-6.1,6.48-12.36,6.47-17.6-.69C91,561,88.76,553.36,91,545.05c1-3.8.44-4.35-3.4-3.45-2,.47-3.92,1.23-6,1.22-6.8,0-10.9-4.91-9.19-11.47,1.41-5.38,4.39-9.66,10.16-11.11,5.2-1.32,8.42-5.37,12.31-8.51.78-.63,1.23-1.68,2.55-1.89.48,3.64,1,7.39,4,9.85a19.81,19.81,0,0,0,13.29,5c3.65-.07,6.72-1.79,9.5-3.73,4-2.83,7.67-6.23,9.71-11,1.72-4,3.31-4.61,7.61-3,6.83,2.52,11.94,13.22,9.66,20.25C150.26,529.68,149.4,532.16,148.51,534.81Z"/><path class="cls-9" d="M381.26,209.69c2.45-6.45,3.8-13.16,5.07-19.88A349.43,349.43,0,0,0,392.22,143c.23-4.43,1.06-8.43,3.58-12.3,8.52-13.06,13.68-27.58,16.82-42.74a95.41,95.41,0,0,0-2.24-48.39c-.48-1.53-1.71-3.37.35-4.66,1.83-1.15,3.08.24,4.57,1.19,8,5.1,14.21,12,20.36,19a5.5,5.5,0,0,1,1.46,4.67c-1.52,12.32-3.46,24.53-6.11,36.7a315.88,315.88,0,0,1-19,58.24C403.68,174,394.22,192.82,381.26,209.69Z"/><path class="cls-9" d="M443.57,189.8c4.07,28.43,14.85,55,21.46,82.67,1.07,4.46,1.7,9,2.45,13.56a11,11,0,0,1,0,3.44c-.63,3.93-1.81,4.77-5.57,3.53a21.82,21.82,0,0,1-8.69-5.4q-11.94-12-23.38-24.4A43.79,43.79,0,0,0,414,251.75c-5.66-2.27-11.31-2.65-16.71,1.05-2.37,1.62-4.9,3-7.39,4.45-3.14,1.83-3.9-1-5.22-2.71-1.66-2.16.53-2.45,1.62-3.1a136.64,136.64,0,0,0,43.86-41.8C434.57,203.06,439.4,196.76,443.57,189.8Z"/><path class="cls-9" d="M292.4,47.44a65.39,65.39,0,0,0,9.47,27.84c5,8.19,11.18,15.47,17.28,22.82,11.43,13.79,24.3,26.15,37.19,38.51a141.05,141.05,0,0,1,23.08,28.72c1.16,1.91,2.59,4.49.87,6s-4.44.63-6.55-1c-8.64-6.88-17.38-13.64-26.06-20.46A29.06,29.06,0,0,0,337,144.4c-4.6-1.2-7.83.37-9.91,4.74a40.91,40.91,0,0,0-3.09,7.28c-1.48,5.89-9.66,9-14.67,4.74-.84-.71-1.51-1.22-1.5-2.44.27-20.54-5.22-40-10.76-59.52-4-14.13-6.7-28.42-5.95-43.22C291.25,53.1,291.32,50.25,292.4,47.44Z"/><path class="cls-11" d="M237.75,130.91a150.58,150.58,0,0,0-30.19,18.42c1.25,1.77,2.62.89,3.82.52a267,267,0,0,1,30.1-7.41,135.55,135.55,0,0,1,41.6-1.11c-16,2-31.67,5-46.33,12.4,23.86-.33,47.13,2.41,70.09,11-20.2,5.61-35.06,17.06-44.2,36.23-5.36-8.73-13-14.43-20.39-20.47a84.53,84.53,0,0,0-33.38-16.61c-4.68-1.18-9.11-2.53-13.06-5.71a38.69,38.69,0,0,0-12-6.3C200.36,140.38,218.48,134.26,237.75,130.91Z"/><path class="cls-10" d="M147.08,282.72c-19.09-11.4-37.51-21.64-60.23-14.25,4.88-6.84,9.51-13.64,14.46-20.2,9.58-12.67,18.72-25.75,29.19-37.65,11.91-13.52,25.9-24.83,42.69-32.12,6.65-2.88,13.34-1.67,19.83.52,3.13,1.06,6,2.89,9,4.44a25.43,25.43,0,0,1,7.81,6.63c8.24,9.92,10.37,22.32,14.24,34a11.64,11.64,0,0,1,.59,3.4c-2.46-4.64-5.78-8.67-8.6-13a54.53,54.53,0,0,0-32.85-23.65c-15.09-3.92-30.5,2.75-38,17.36-5.35,10.5-8.64,21.52-9,33.3C135.8,255.89,138.1,269.65,147.08,282.72Z"/><path class="cls-6" d="M225.18,445.48c-5.45,7.53-5.25,12,.91,20.29-1,1.16-2.34.55-3.51.6-6.87.33-12.09,2.89-14.5,9.89-1.18,3.43-7.21,4.63-11.62,3.82a27.12,27.12,0,0,1-13.88-7.16c-2.68-2.51-5.65-4.72-8.51-7-2-1.63-3.71-1.12-4.58,1.37a20.55,20.55,0,0,0-.66,2.68c-2.14,10.26-9.71,12.85-18.69,13-4.13.08-7.45-2.65-10.24-5.7-1.05-1.15.09-1.63.68-2.18,1.78-1.64,3.53-3.33,5.46-4.78a53.91,53.91,0,0,0,15.15-17.25c3.75-6.89,6.2-14.29,2.53-22.31-3.08-6.74,2.37-14.17,10.09-13.7,13.88.86,25.19,6.57,33.15,18.27.45.66,1.14,1.35,1.19,2.06.26,4.36,2.74,5.13,6.65,5.12C218.38,442.49,222.18,442.9,225.18,445.48Z"/><path class="cls-6" d="M429.42,568c-.19-2.25-.53-4.51-.55-6.76,0-4.2,2.15-6.27,6.34-6.26,8.2,0,14.36,4.48,20.08,9.55,4.22,3.73,8.08,7.88,11.95,12,1.52,1.59,2.8,2.13,5,1.35a17.09,17.09,0,0,1,10.15-.76,7.33,7.33,0,0,1,4.76,3.49c1.4,2.21,1.3,3.76-1,5.16-.85.52-2.13,1.11-1.86,2.24s1.69,1,2.66,1.29c2.42.72,4.86,1.36,7.29,2.05,4.77,1.35,9.54,7.15,9.95,12.1.48,5.79-3.29,10.24-9.91,11A33.77,33.77,0,0,1,471,609.17c-6.06-4-12.13-8.27-19.08-10.56-5.21-1.71-10.73-1.55-15.52,1.63-1.31.87-1.68.63-2.32-.31-4.79-7-11.73-12-17.79-17.75a88,88,0,0,1-15.46-18.89c-2.31-3.93-.71-6.83,4-7,6.14-.18,11.12,3.2,16.28,5.87a24.67,24.67,0,0,1,7.56,6.27Z"/><path class="cls-8" d="M86.6,423.11c-15.79-.55-30-4.77-43.78-10.69a5.83,5.83,0,0,1-2.7-2.56c-3.19-6.49-5-13.27-3.71-20.59a46.37,46.37,0,0,1,13.47-25.4c4.46-4.39,4.7-4.77,8,.59,6,9.62,13.67,17.88,21.16,26.22,5.18,5.76,11.57,10.44,17.48,15.55a91.22,91.22,0,0,0,12.34,9.33c1.9,1.15,1.86,2-.22,2.93A58.42,58.42,0,0,1,86.6,423.11Z"/><path class="cls-5" d="M337.45,605.19c4.79,2.88,9.51,5.64,15.31,5.47.9,0,1.63.44,1.18,1.53-1.05,2.56-1.57,5.25.21,7.54a19,19,0,0,0,9.92,6.51,13,13,0,0,0,7.77.25c1.64-.5,3.37-.47,4.48,1.48,2.33,4.07,6.45,6.26,10.19,8.51,6.79,4.09,13.94,7.65,22.14,8,3.05.12,4.83,1.42,5.5,4.52a12,12,0,0,0,3.9,6.37,19.89,19.89,0,0,1,6,10.21c1.93,7.56,4,15.1,4.77,23.58-6.23-7.84-6.59-18.15-13.59-24.9,5,14.3,2.59,28.55.19,43C390.34,672.47,363.79,638.94,337.45,605.19Z"/><path class="cls-12" d="M378.4,413.45c5.52-3.58,10.25-8.06,15.07-12.45,12.45-11.35,24-23.44,32.52-38.13,1.39-2.4,2-2.55,4-.57A55.15,55.15,0,0,1,446,394.69c1,7.18-5.25,16.8-12,19.19-14.82,5.24-29.92,5.22-45.17,2.59-3.26-.56-6.47-1.43-9.69-2.18C379,414.25,378.86,414,378.4,413.45Z"/><path class="cls-7" d="M554.26,909.1c-4.52-12.78-11.11-23.67-18.54-34.05-7.69-10.76-16.06-21-24.22-31.39-19.94-25.43-38.3-52-57.36-78.1-.53-.73-1.55-1.46-1.22-2.33.45-1.18,1.78-.71,2.77-.76,5.07-.26,9.23,1.53,13.09,4.91,15.91,14,27.29,31.56,39.82,48.29,13.95,18.65,25.29,38.86,36.93,58.92,4.85,8.35,8.1,17.49,12.65,26a2,2,0,0,1-.12,2.24C556.93,904.65,555.82,906.52,554.26,909.1Z"/><path class="cls-10" d="M293.11,246c-1.07-10.33-.27-20.51,1.14-30.66.56-4,1.21-7.94,1.63-11.93.54-5,3.62-8.33,7.43-11A40.36,40.36,0,0,1,317,186c9.06-2.23,16,2.12,22.13,8.19,10.65,10.63,17.5,23.88,25,36.65,3.51,5.94,6.57,12.21,10.59,17.78,7.79,10.79,2.25,28.88-7,36.4-5.44,4.44-11.56,7.76-17.81,11,10.77-10.48,14.69-23.8,14.81-38.13.16-20.36-7.07-37.52-25.39-48.15-12.24-7.1-25.2-3.15-35.42,8.58-6.75,7.75-8.74,17-10.62,26.47C293.26,245.2,293.19,245.62,293.11,246Z"/><path class="cls-9" d="M477.73,122.85c5.38,8.47,8.63,17.33,12.22,26,2.11,5.1,4.09,10.26,6.37,15.28,1,2.14.37,2.89-1.57,3.74-7.9,3.48-15.76,7-23.55,10.73a6.38,6.38,0,0,1-5.89-.1c-2.6-1.22-5.22-2.41-7.83-3.6-4.68-2.13-8.21-1.32-11.16,2.77-3.7,5.13-7.27,10.36-10.95,15.51-.78,1.11-1.48,2.37-2.89,2.88l-27,9.91C434.29,182,457.55,154,477.73,122.85Z"/><path class="cls-9" d="M451.72,178.11a65.4,65.4,0,0,1,14.78,5.36c8,4.16,14.92,9.91,22,15.46,4.57,3.59,8.42,8.2,14.42,9.73,2.32.59.47,1.78,0,2.42-4.85,6.41-11.16,11.28-17.6,15.88s-13.5,8.76-20.19,13.24c-1.82,1.22-2.32.72-3-1.1-6.94-17.71-11.54-36-14.94-54.73C446.51,181,448.43,178.2,451.72,178.11Z"/><path class="cls-6" d="M327.1,463c3.49-.38,6.57,1.6,9.83,3,.6.26,1.19.95,1.83.3s.33-1.29,0-1.94a11.58,11.58,0,0,1-1-2.17c-1.27-5.59,1.38-7.62,6-7.44,8.19.31,12.18,5.82,15.93,11.5a39.07,39.07,0,0,1,6,13.49c.3,1.46,1.47,1.59,2.38,2.19,3.68,2.45,6.95,5.28,8.83,9.41a8.78,8.78,0,0,1-3.8,11.75,6.19,6.19,0,0,1-6.83-.25c-2-1.22-3.54-1-3.65,1.63-.28,6.56-9.81,9.21-15,4.41-3.8-3.54-5.6-7.25-3.26-12.13.88-1.83-.38-2.2-1.31-2.89-5.94-4.35-12.19-8.25-17.61-13.3-3.59-3.35-4.67-7.9-5.86-12.25C318.79,465.1,322.09,462.93,327.1,463Z"/><path class="cls-13" d="M273.5,456c-2.13.41-2.44-.54-1.54-2.44,3.15-6.72,2.88-13.78,1-20.62-2.22-8.19-8.6-13.13-15.7-16.94-6-3.22-12.77-3.54-19.44-4-.87-.07-2.33.46-2.49-.47-.43-2.42-2.78-3.71-3.18-6-.16-.89.82-.89,1.48-1,15.31-2.53,30.54-5.72,46.12-6,4.69-.08,9.4.72,14.1,1,1.49.09,1.64.82,1.51,2a9.84,9.84,0,0,1-1.88,4.41c-4.79,7-7.49,14.67-7,23.32a91.81,91.81,0,0,1,0,10.36c-.36,6.17-2.75,11.33-8,15A7.48,7.48,0,0,1,273.5,456Z"/><path class="cls-10" d="M198.91,915.86c6.22,22.1,15.79,36.37,39.75,48.66-5.58,2.69-11.32,4-17.1,5.24a80.58,80.58,0,0,1-32.81.36c-9.18-1.83-9.52-2.15-6.32-10.59q7.68-20.29,15.3-40.61C198.05,918.07,198.38,917.23,198.91,915.86Z"/><path class="cls-9" d="M459.46,297.37c-6.63,3-13.52,2-20,3.39-6,1.28-10-.8-14-5.12-8-8.46-16.53-16.35-24.81-24.52-5-4.91-3.12-14.12,3.33-16.61a6.62,6.62,0,0,1,4.38.25c9.06,2.6,16,8.51,22.58,14.77,7,6.64,12.65,14.65,20,20.94C453.65,292.76,456.44,294.93,459.46,297.37Z"/><path class="cls-6" d="M399.62,589.83a35.59,35.59,0,0,0,4.77,13.33c-1.85.55-3.52.09-5,.91-2,1.08-3.6,2.47-2.93,4.88.88,3.17-.57,2.61-2.78,2.42-4-.33-7.85-1.62-12-.42-5.06,1.49-9.32,3.48-9.49,9.65,0,1.85-1.43,1.57-2.5,1.47a18.14,18.14,0,0,1-11.18-4.75c-1.83-1.75-1.1-3.62.12-5.27,1-1.32.75-2-.73-2.46-2-.63-3.86-1.52-5.86-2A27.85,27.85,0,0,1,340,601.21c-2.7-2.28-1.77-7.11,1.55-8.61a11.66,11.66,0,0,1,4-.91c10.38-.54,15.79-4.56,19-14.44.75-2.31,1.54-.94,2.29-.2,3.91,3.88,7.64,7.88,12.69,10.47a48.12,48.12,0,0,0,11.31,4.06C393.91,592.29,396.66,590.74,399.62,589.83Z"/><path class="cls-9" d="M430,200.43C417.43,219,403.12,236,384.59,249.05c-1.54,1.08-2.44,1.18-3.72-.26-4.42-5-6.87-11.09-10.14-16.73-.8-1.39.55-1.83,1.31-2.34,4.68-3.15,9.39-6.24,14.1-9.34a8.67,8.67,0,0,0,1.48-.89c5.86-5.89,13.76-7.42,21.16-10.14C416,206.71,423,203.43,430,200.43Z"/><path class="cls-8" d="M132.8,204.94c6.58-11.73,12.55-23.67,20.79-34.2,5.89-7.52,13.37-12.64,22.79-14.42,6.71-1.26,12.47,1.51,17.32,5.89,5.79,5.22,11.74,10.38,15.2,17.66.73,1.55,1.55,3,1.22,5.16-1.43-1.1-2.73-2-3.91-3.05-12.88-11.33-28.67-12.4-43.21-3.11a111,111,0,0,0-18.45,14.94C140.72,197.61,136.72,201.24,132.8,204.94Z"/><path class="cls-9" d="M336.69,148.65c5.6,1.06,10.08,4.4,14.11,8,6,5.35,12.46,10.17,18.66,15.28a20.36,20.36,0,0,0,7.42,4.25c1,.3,2,.7,1,2.12-5.29,7.23-10.53,14.5-17.36,20.42a25.94,25.94,0,0,1-3.45,2.26.9.9,0,0,1-1.24-.07c-.37-.41-.19-.85.09-1.23,3.27-4.48,2.56-9.51,1.5-14.32-1.3-5.94-4.94-10.78-8.8-15.37-4.88-5.81-9.78-11.6-13.54-18.23-.42-.73-1.18-1.56-.58-2.53S335.9,148.62,336.69,148.65Z"/><path class="cls-11" d="M181.55,135.25c-3.09,5.76-7.33,10.53-9.67,16.5-.37.95-1.37,1.2-2.2,1.54-8.5,3.45-14.75,9.54-20.31,16.64-6.77,8.64-12.18,18.13-17.84,27.47-8.53,14.09-18.72,27.08-27.14,41.24a4.89,4.89,0,0,1-3.18,2.31c12.48-20.07,18.34-42.68,25.37-64.88-.59,8.25-.6,16.54-2.78,25,2.13-.77,2.87-2.43,3.89-3.81,8.9-12.06,15.15-25.78,23.81-38,3.23-4.57,6.61-8.88,11.27-12C169,143.11,175.28,139.23,181.55,135.25Z"/><path class="cls-8" d="M297.64,192.5c1.87-9.05,5.55-16.09,12.41-21.22,4.37-3.27,8.89-6.05,14.77-5.54a12.26,12.26,0,0,1,6.06,2.11c5.66,3.78,10.2,8.51,12.9,14.87s5.49,12.77,8.4,19.51c-1.71-.65-2.24-1.81-3-2.75A74.53,74.53,0,0,0,335,186.41c-11.14-7.92-25-3.16-32.54,2.37C301.11,189.8,299.77,190.86,297.64,192.5Z"/><path class="cls-14" d="M270.53,443.69c-.11,4.19,1,8.39-1.83,10.06-2.66,1.58-5.08-2.14-7.61-3.51-4-2.18-6.38-5.94-9-9.42-5.21-7-10.12-14.25-13-22.63-.55-1.58-.91-2.67,1.43-2.55,10.33.55,19.37,4.06,26,12.24C270.37,432.69,270.3,438.8,270.53,443.69Z"/><path class="cls-9" d="M472.38,182.1c8.43-3.65,16-6.89,23.55-10.26,1.59-.71,2.2-.24,2.86,1.14,4.38,9.1,6.65,18.78,8,28.71.37,2.71-2.17,3.95-5,2.41a43.57,43.57,0,0,1-6.05-3.94C488.13,194.25,481.41,187.27,472.38,182.1Z"/><path class="cls-9" d="M405.71,40.22a40.64,40.64,0,0,1,4.64,18.14c0,3.57.2,7.15,0,10.7-.82,12.17-9.38,14-18.89,10.57a2.17,2.17,0,0,1-.89-.5c-.95-1-1.85-10.86-.95-12,6.34-8,10.67-17.13,15.38-26.07A4.9,4.9,0,0,1,405.71,40.22Z"/><path class="cls-10" d="M230.4,648.05a40,40,0,0,0,9.42,4.08,5.51,5.51,0,0,1,3.13,2.5q9.23,13.53,18.54,27c1.11,1.58,1.41,2.39-1,2.85a34.12,34.12,0,0,1-16.35-.56,9,9,0,0,1-6.67-6.66C234.91,667.86,234.19,658.07,230.4,648.05Z"/><path class="cls-6" d="M382.9,518c-3.31-1.21-6.08-3.47-9.79-3-2.77.38-3.7,1.72-2.85,4.49,1.84,6,10.95,11.77,17.08,10.7,2.59-.46,3.41-1.9,2-4.12s-3-3.9-4.36-6c3.77,2.17,7.34,4.45,11.79,5.17,2.73.44,1.71,3,.73,4.38a13.46,13.46,0,0,1-5.36,4.73c-12,5.5-30-2.7-32.78-14.94-.66-3,.57-4.86,1.85-7.42,3-6,8.16-5.53,13.29-6,1.14-.11,1.13.35,1.26.95A17.9,17.9,0,0,0,382.9,518Z"/><path class="cls-9" d="M384.38,176.58a255.25,255.25,0,0,1-8.13,34.18c-1.3,4.06-8.51,7.79-12.52,6.74-.92-.24-1.08-1.09-1.41-1.82-1.35-3-2.7-6.08-4.11-9.1-.51-1.11-.91-2,.34-3A141.29,141.29,0,0,0,384.38,176.58Z"/><path class="cls-15" d="M411.3,81.05c-3.91,15.52-10.33,30.08-17.21,44.71-.33-4.34-.88-8.68-.95-13-.13-9.22-1.75-18.29-2.71-27.42-.26-2.48.35-2.47,2.25-1.78,3.62,1.31,7.42,1.3,11.22,1.3C407,84.84,408.65,82.33,411.3,81.05Z"/><path class="cls-6" d="M449,17.06c-.74,5.38-3,10.34-8.7,10.47s-12.8-7-12.81-12.83c0-6.47,4.08-10.7,10.52-10.55C442.86,4.26,449.26,8.71,449,17.06Z"/><path class="cls-6" d="M367.14,13.46c0-.46,0-.92,0-1.38,0-3.3,0-6.83,3.63-8.22s7.1-.28,10.1,1.9c3.45,2.51,5,11.24,3,15.24-2.24,4.36-5.32,6.08-9,5s-7.71-6.61-7.74-10.47Z"/><path class="cls-6" d="M137.29,482.69c10.5,4,16.39,9.37,16.25,20,0,4.32-2.68,5.81-6.3,3.7-2.63-1.53-5.6-1.94-8.53-2.48-1-.18-2.26,0-1.84-1.7C138.43,495.77,137.78,489.26,137.29,482.69Z"/><path class="cls-6" d="M491.81,73c.11-5.59,1.54-8,4.53-8.78,4.37-1.12,8.35.32,10.26,4,1.71,3.32,3.93,6.54,2.62,10.7-.88,2.77-2.55,4.72-5.33,5.21s-5.6.13-7.77-2.44C493.68,78.74,491.82,75.71,491.81,73Z"/><path class="cls-6" d="M539.3,153.08c-.1,4.66-4.58,9.64-8.43,9.16-6-.74-8.93-5.35-8.44-11.15a10.78,10.78,0,0,1,2.75-6.88c3.53-3.63,6.71-3.64,10.5.24A11.87,11.87,0,0,1,539.3,153.08Z"/><path class="cls-15" d="M324.92,161.33c2.54-2.84,3.5-6.23,5.43-9.33,6.27,9.72,14.64,17.56,21.3,26.78a25.72,25.72,0,0,1,4.64,13.87c.07,1.3,0,2.86-1.39,3.19-1.64.38-1.42-1.46-1.79-2.36-3.75-9-7.17-18.25-14.69-25.09C335.05,165.32,337.59,165.46,324.92,161.33Z"/><path class="cls-16" d="M514.48,628c-6.3-6.1-13.91-8.14-22.44-7.06-1.57.19-3.79.37-4.49,1.39-2.63,3.82-4.85,1.51-7.19,0a9.39,9.39,0,0,0-6.91-1.45c-1.82.32-2.65-.23-2.5-2.08a8.88,8.88,0,0,0-1.3-5c12.8,4.57,25.4,9.39,37.61-1.31.26,6.11,3.93,10.6,7.53,15.12v.32Z"/><path class="cls-17" d="M155.82,507.11c2.1,9.5,3.43,18.84,8.06,27.31-3.76.51-6.57-2.41-10.12-2.14-1.33.11-.68-1.09-.39-1.77a19.72,19.72,0,0,0-.69-17.2C151.59,511.1,151.62,511.09,155.82,507.11Z"/><path class="cls-18" d="M596.28,641.61c-2.37,4.16-2.82,7.27-1.8,11.35-4.62-3.45-10.06-5-15.73-5.67-2.13-.25-2.47-1.18-2.23-2.83.3-2.05,1.75-.79,2.68-.76C584.85,643.85,590.33,642.66,596.28,641.61Z"/><path class="cls-19" d="M388.37,146.13c-2.58,7.54-1,15.51-2.79,23.7-2.06-3.91-3.8-7.47-6.27-10.57a1.63,1.63,0,0,1,.1-2.2q4-5.55,8-11.14Z"/><path class="cls-16" d="M663.09,581.91c3.94-1.86,7.1-4,9.34-7.36.71-1.07,1.65-1.47,2.41-.26s3.67,1.19,2.33,3.75a17,17,0,0,0-2.34,6.31c-.16,1.52-2.73,1.73-4.41,2.19-1.16.33-2.34.83-2.93-.6C666.72,584.09,665.06,583.3,663.09,581.91Z"/><path class="cls-18" d="M372.5,518.52c7-1,10.72,4,14.77,8.28,1.09,1.14,0,1.61-1,1.67C382.64,528.7,373.65,522.2,372.5,518.52Z"/><path class="cls-20" d="M674,490.07c2.94,5.25,5.74,10.28,11.45,13.92-4.57-.45-7.16,2.38-10.65,4.15A38.87,38.87,0,0,0,674,490.07Z"/><path class="cls-21" d="M334.91,602.3c-3.71-4.76-7.43-9.52-11.74-15,4.64,2.26,8.78,3,13.07,4.4C333.29,595.05,332.88,598.54,334.91,602.3Z"/><path class="cls-22" d="M368.38,227.18c-1.56-2-4.3-3.68-2.93-6.2,1.24-2.28,4.14-.79,6.59-1C371.33,222.74,369.82,224.83,368.38,227.18Z"/><path class="cls-23" d="M347.22,514.44a6.06,6.06,0,0,1,.91-.13c2.41.64,5.56.59,7,2.13,1.2,1.28-.83,4.46.05,7Z"/><path class="cls-24" d="M690.06,506.15c3.83-.49,7.1,1.34,10.87-.65-1.5,2.93-3.76,3.83-5.25,5.5-.73.82-.94.26-1.44-.36C693.09,509.22,691.76,508,690.06,506.15Z"/><path class="cls-25" d="M402.56,574.8a36.59,36.59,0,0,1,6.59,7,7.36,7.36,0,0,1-.94.58c-4.71,1.92-4.69,1.92-5-3.11C403.12,577.91,402.83,576.6,402.56,574.8Z"/><path class="cls-26" d="M390.6,260c2.06.36,3.46-2.71,5-1.46s-.46,3.55-.08,5.43c0,.15-.2.34-.41.69a11.39,11.39,0,0,1-1.07-.67c-1.33-1-2.64-2.1-4-3.16Z"/><path class="cls-27" d="M399.05,567.69a30.19,30.19,0,0,0-3.57-3.81c-3.22-2.36-1.61-3.82.95-5.53C396.61,561.63,398.12,564.32,399.05,567.69Z"/><path class="cls-28" d="M384.56,216.76a28.56,28.56,0,0,1-8.15,5.85C378.67,220.44,379.9,217,384.56,216.76Z"/><path class="cls-29" d="M365.27,534.63c-4.66,1.67-5.18-1.3-5.82-4.62C362.24,530.78,363.4,533,365.27,534.63Z"/><path class="cls-30" d="M151.9,487.54c4.3-.24,4.3-.24,3.2,5A14.45,14.45,0,0,1,151.9,487.54Z"/><path class="cls-31" d="M703.37,504.72c1.2-1.48,2-2.45,2.79-3.44s1.22-.74,1.78.16.86,1.41-.36,1.81S705.22,504.07,703.37,504.72Z"/><path class="cls-32" d="M514.79,627.58l4.57,3.13c-2.44.28-3.6-1.32-4.88-2.76l0-.29Z"/><path class="cls-33" d="M295.08,294.44c-15.13-6.31-30.41-6.41-46.28-1.29C260,283.75,280.29,283.74,295.08,294.44Z"/><path class="cls-34" d="M664.84,614c.23,0,.46,0,.69,0,3.05.22,6.74-.28,8,3.33s0,7.36-2.39,10.24c-5.14,6.06-11.45,10.14-19.67,10.84-2.89.25-5.49-.53-7.15-2.5a7,7,0,0,1-1-7.78C646.41,621.71,655.9,613.25,664.84,614Z"/><path class="cls-34" d="M701.9,571.43c.47-9.79,3.42-18.25,12.75-23.12,3.16-1.64,4.49-1,5.79,2.33,3.94,10.26,2,19.57-4.85,27.9-2.2,2.69-5.39,5.12-8.91,3.71-3.81-1.53-5.17-5.27-4.79-9.44C701.93,572.35,701.9,571.89,701.9,571.43Z"/><path class="cls-34" d="M527.33,647c6.47,1.4,14.25,2.61,18.85,10.15,2.1,3.44,1.67,6-2,7.52-10.79,4.32-21.35,4.54-31.34-2.52-5.52-3.9-3.92-10.8,1.84-12.91A36.12,36.12,0,0,1,527.33,647Z"/><path class="cls-34" d="M423.84,626.86c0-6.32,4.12-8.85,10.91-7.27a26.29,26.29,0,0,1,14.46,9.47A13.69,13.69,0,0,1,452,637c.13,3.77-1.2,5.19-7.08,5.13-7-.07-13.52-2.41-18.39-7.89C424.6,632,423.28,629.46,423.84,626.86Z"/><path d="M185.28,278.67c-5.52,0-12.05-6.19-12-11.47,0-7.42,5.25-14.4,10.63-14.23,7.41.23,14.42,6.26,13.85,12.79C197,274.38,194.07,278.79,185.28,278.67Z"/><path class="cls-34" d="M261.4,316.45c-9.17.5-18.35,1-27.53,1.45-1.47.07-3.43.74-4.11-1.46s1.15-3,2.56-3.95c6.6-4.34,14.16-5.78,21.77-7a107.42,107.42,0,0,1,38.35.91c8.55,1.72,16.45,5.66,24.18,9.72a1.39,1.39,0,0,1,.27.21c1.57,1.36,3.71,2.9,3,5s-3.36,1.65-5.22,1.4c-6.36-.88-12.67-2.08-19-2.92-7.49-1-15-2.24-22.53-2.63C269.2,317,265.33,316.22,261.4,316.45Z"/><path class="cls-35" d="M425.69,524.62c-7.31,0-12.54-3.88-16.79-9.24-2.64-3.33-.66-8.19,3.49-9.27,8.19-2.15,18.61,2.63,22.14,9.48,1.84,3.59-.8,8.5-5,9A31.91,31.91,0,0,1,425.69,524.62Z"/><path class="cls-36" d="M500,489c-.26-1.76.57-2.95,2-4.24a27.9,27.9,0,0,1,14.27-6.92c2.79-.46,5.73-.53,7,2.1a6.1,6.1,0,0,1-1.93,7.49c-3.59,2.77-7.19,5.59-11.94,6.51-3,.58-5.41-.29-7.95-1.3C499.85,492,499.87,490.56,500,489Z"/><path class="cls-34" d="M574,627.61c-3.88.7-7.44-1-11.09-2.41a8.63,8.63,0,0,1-5.91-7.74c-.06-3.36,2.44-6.46,5.81-7.91a29.14,29.14,0,0,1,24.93.41c3.41,1.62,5.78,4.07,5.18,8.37-.51,3.68-3,5.42-6,6.81A24.44,24.44,0,0,1,574,627.61Z"/><path class="cls-34" d="M697.92,446.72c0-6.82,4.75-9.84,11.22-6.13a30.22,30.22,0,0,1,15.46,22.1,7.15,7.15,0,0,1-4,8.06,8.59,8.59,0,0,1-8.24-.24C703.48,465.11,697.73,457.69,697.92,446.72Z"/><path class="cls-34" d="M361.22,559c-.05,7.74-2.36,7.82-9,5.77-9.87-3-18.12-8.8-21.05-19.78-1.06-4,.46-6.62,4.49-7.13a20.2,20.2,0,0,1,15.71,4.9C359,549.27,361.39,551,361.22,559Z"/><path class="cls-34" d="M126.09,453.45a28.55,28.55,0,0,1-8.81,17.08c-3.32,3.29-6.88,6.46-11.2,8.53A15.08,15.08,0,0,1,99.19,481c-4.93-.1-7-3.23-5.08-7.8,3.1-7.43,8.66-12.85,14.52-18.09,3.9-3.5,8.06-5.89,13.49-5.85C125.11,449.28,126.4,450.44,126.09,453.45Z"/><path d="M323.6,269.66c7,.84,11.07,5.11,11.19,14.12.07,5-4.89,9.64-10.11,9.69-6.13.07-11.08-5.46-11.09-12.36C313.58,275.08,318.3,269.68,323.6,269.66Z"/><path class="cls-37" d="M278,503.36c-6.44.23-10.8-3.1-14.37-7.71-2.34-3-5.25-5.85-4.78-10.29.41-3.88,2.84-6.32,6.71-6.32,9.73,0,16.55,5.54,22.43,12.36,2.7,3.13,0,9.82-4.06,11.22A16.39,16.39,0,0,1,278,503.36Z"/><path class="cls-34" d="M521.47,520.35c3.48,0,6.93-.07,10.15,1.58,3.6,1.83,4.35,4.22,2.61,7.86-4,8.37-11.65,10.4-19.78,11.47a22.1,22.1,0,0,1-9.57-.84c-5.5-1.72-7.32-6.75-3.82-11.28C506.21,522.46,513.49,520.53,521.47,520.35Z"/><path class="cls-38" d="M589.29,480.46c0,7.13-2.75,11.89-7.89,14-4.31,1.74-8.09-.05-10.26-4.18-4.37-8.32-1.08-15.35,4.5-20.71,2.35-2.24,5.1-2.67,8.3-1.68s4.21,3.25,4.71,6.11A25.52,25.52,0,0,1,589.29,480.46Z"/><path class="cls-34" d="M659.93,527.38c.05,8.37-3.43,15-9.84,20.27-3.46,2.83-7.2,1.57-8.21-2.77a15,15,0,0,1,1-8.76c1.87-4.76,4.33-9.31,8.5-12.69,2-1.59,3.55-3,6.36-1.64S659.87,525.28,659.93,527.38Z"/><path class="cls-34" d="M654.2,465.78c.32,2.64,0,5.06-2.71,6.44-3,1.48-5.84,1.73-8.81-.14-7-4.44-11.41-10.86-13.78-18.66-.67-2.22-1-4.85,1.05-6.82s4.66-2,7.06-.79c6.24,3,12,6.74,15.55,13A10.62,10.62,0,0,1,654.2,465.78Z"/><path class="cls-34" d="M125.83,552.38c-7.54-1.09-14.06-4-17.9-11-3-5.44-1-9.7,5-11.24,7.92-2,17.91,2.14,22,9.2,3.67,6.34,0,12.82-7.41,13C127,552.4,126.41,552.38,125.83,552.38Z"/><path class="cls-34" d="M188.87,456.93c-5.3.79-10.55-1-15.25-4.85-1.92-1.57-3.54-3.42-2.6-5.84,1-2.6,2.38-5.14,5.56-6.08,7.93-2.36,15.18-.67,22.1,3.37,2.92,1.71,5.31,3.76,4.49,7.61-.68,3.17-3.77,5.49-7.67,5.77C193.55,457.05,191.59,456.93,188.87,456.93Z"/><path class="cls-36" d="M465.17,600.09C454.72,599,445.36,596,440.1,585.54c-1.6-3.19.12-4.41,2.25-5.68,3.35-2,7-1.2,10.41-.49,7,1.44,13.12,4.65,17.61,10.48,1.68,2.19,3.05,4.53,1.66,7.24S468.13,600.46,465.17,600.09Z"/><path class="cls-35" d="M365.89,491c0,3.3-2.37,5.1-5.53,4.46-6-1.2-14.17-9.71-15-15.66a4.86,4.86,0,0,1,5.23-5.42c6.39.44,12.57,6.48,14.12,11.19C365.29,487.43,366.09,489.26,365.89,491Z"/><path class="cls-34" d="M383.45,605.67a29.72,29.72,0,0,1-17.89-5.52c-3.47-2.38-3.31-6.27.23-8.66a13,13,0,0,1,9.83-2.38c6.42,1.21,12.86,2.48,17.31,8.1,1.26,1.59,1.19,2.77.06,4.23A10.12,10.12,0,0,1,383.45,605.67Z"/><path class="cls-17" d="M665.36,617.36c1.78,0,3.62,0,4.65,1.66s.13,3.39-.92,4.76c-3.9,5.11-7.71,10.43-14.9,11.06-2.88.25-6.51.49-7.73-2.33-1.13-2.64,1.3-5.43,3.32-7.31C654.16,621.11,659.13,617.89,665.36,617.36Z"/><path class="cls-7" d="M719.24,558.46c-1,6.45-.85,13.45-5.94,19-3.12,3.41-6,3.25-7.79-1a8.22,8.22,0,0,1-.77-3.31c.3-8.64,1.6-16.88,9.34-22.47,1.24-.89,1.86-1.2,2.8.43C718.17,553.35,719.28,555.53,719.24,558.46Z"/><path class="cls-7" d="M529.58,663.83c-5.72.29-11-.74-15.6-3.87-3.61-2.46-2.93-6.7,1.52-7.74,9.1-2.13,18.25-2.2,26.47,3.33,3.22,2.17,2.82,4.67-.81,6.26A24.48,24.48,0,0,1,529.58,663.83Z"/><path class="cls-17" d="M443,639a28.82,28.82,0,0,1-15.21-8.11,5.9,5.9,0,0,1-1.36-6.41c.8-1.84,3.2-1.79,5.18-1.8,6.65,0,15.7,6.3,17.79,12.54.5,1.51.2,2.8-1.6,3.16C446.45,638.61,445.07,638.71,443,639Z"/><path class="cls-20" d="M188.5,258.09c1.83-.08,5,3.34,4.92,5.4a3,3,0,0,1-2.43,3c-1.8.43-5.56-3.7-5.53-5.82C185.48,259.39,187,258.15,188.5,258.09Z"/><path class="cls-8" d="M233.15,315.28c4-2.48,8.15-3.67,12.21-4.88,11.07-3.28,22.35-3,33.78-2.36,12.94.74,24.73,4.62,36,10.53.78.41,2.42.42,1.89,1.89s-1.63.66-2.66.45c-6.83-1.42-13.54-3.42-20.48-4.41-7.72-1.1-15.43-2.28-23.28-2.11-7.14.15-14.28.09-21.42,0a55.34,55.34,0,0,0-12,1.22A5.36,5.36,0,0,1,233.15,315.28Z"/><path class="cls-17" d="M426,521c-5.6.6-9.74-2.63-13.57-6.29a3.29,3.29,0,0,1,2-5.81c8.71-1,14,1.08,18.24,8.49,1.33,2.3-1.14,3-2.71,3.53C428.89,521.25,427.53,521,426,521Z"/><path class="cls-17" d="M516.8,480.83c3.21,0,4.25,2.13,3,4.46-1.83,3.3-11,6.92-14.7,5.8-1.9-.58-2.18-3-.51-4.74C508.1,482.66,512.81,481.7,516.8,480.83Z"/><path class="cls-7" d="M576.51,611.05c3.31,0,6.68-.37,9.85,1.07,3.61,1.64,4.31,4.38,1.67,7.24a12.15,12.15,0,0,1-7.7,4.13c-2.62.29-5.22.73-7.84,1a13.13,13.13,0,0,1-10.88-3.11c-2.5-2.23-2.51-4.3,0-6.54C565.19,611.76,568,611,576.51,611.05Z"/><path class="cls-7" d="M705.3,442.39c3-.06,5.32,2.22,7.41,4.37,4.51,4.61,6.64,10.61,8.3,16.7a3,3,0,0,1-1.37,3.22c-1.54,1-3.21,1.21-4.51.24-6.33-4.7-12.07-9.95-13.8-18.15C700.51,444.9,702,442.32,705.3,442.39Z"/><path class="cls-7" d="M353.55,562c-3.58-.3-8-2.64-11.59-6.34-2.64-2.7-4.93-5.75-7.45-8.57a3.6,3.6,0,0,1-.49-4.68,4,4,0,0,1,4.28-2c11.55,1.23,17.1,8.34,20.53,17.18C360.31,561.36,359.47,562.05,353.55,562Z"/><path class="cls-7" d="M99.87,478.29c-4.13.06-4.9-.87-3.35-4a48.47,48.47,0,0,1,22.91-22.48c1.28-.62,2.75-1,3.87,0s.47,2.33,0,3.52c-4.1,10.66-12.09,17.53-21.93,22.6A5.27,5.27,0,0,1,99.87,478.29Z"/><path class="cls-25" d="M325.72,278.06c.42-1.12.11-3,1.95-2.62,2.47.51,3.67,2.64,4.11,4.92.28,1.44-.89,2.21-2.39,2.22C326.23,282.6,326.41,280,325.72,278.06Z"/><path class="cls-7" d="M267.94,481.44c6.41,1.57,13.2,4.5,17.63,11.3,1.39,2.13.41,4.46-.54,6.16a5,5,0,0,1-5.81,2c-4.88-1.56-9.79-3.12-13.71-6.78a12.27,12.27,0,0,1-3.68-6.8C261.08,483.57,262.94,481.37,267.94,481.44Z"/><path class="cls-17" d="M523.92,523.35c1.69.41,3.61-.62,5.25.6,2.29,1.7,2.55,6.38,0,8-7,4.59-14.41,7.88-23.16,5.86-1.83-.42-3.24-1.14-3.79-3s.83-2.66,1.87-3.73C509.53,525.55,516.23,523.31,523.92,523.35Z"/><path class="cls-7" d="M587.44,479.61c-.94,4.56-.79,9.74-6.31,11.93-4,1.59-7.6-.11-8.88-4.25-1.57-5.06.84-13.43,5.8-16.5a5.51,5.51,0,0,1,7.76,1.79A11.76,11.76,0,0,1,587.44,479.61Z"/><path class="cls-17" d="M657.38,526.65c-.44,7.09-2.36,13.25-8.12,17.67-1.15.89-2.77,1.91-3.67,1.41-1.24-.69-1.11-2.62-.92-4.14.85-6.76,4.94-11.72,9.2-16.58.65-.74,1.36-1.41,2.36-.86S657.1,525.93,657.38,526.65Z"/><path class="cls-17" d="M649.45,469.3c-2.66-.49-5.44-1.12-7.72-3a33,33,0,0,1-9.39-12.5,4.72,4.72,0,0,1,.32-4.53c.92-1.39,2.41-.22,3.46.14,8,2.7,13.14,8.43,16,16.22C652.85,467.59,652.3,469.31,649.45,469.3Z"/><path class="cls-39" d="M126.52,549.1c-6.61,0-11.71-3.35-15.45-8.27-2.74-3.62-.36-6.88,4.75-7.72,6.91-1.13,12.49,2.11,16.69,7.49a5.73,5.73,0,0,1,.44,6.21C131.6,549.36,129,549.08,126.52,549.1Z"/><path class="cls-17" d="M182.12,442.22c5.18,1,10.2.34,14.27,3.71,1.59,1.32,4.16,2.52,3.84,4.45-.42,2.53-3.42,3.33-5.69,3.67a40.87,40.87,0,0,1-13.28-.43c-3.47-.62-5.34-3.4-7.17-6-.91-1.31.27-2.38,1.19-2.8C177.61,443.7,180.09,443,182.12,442.22Z"/><path class="cls-17" d="M449.31,582.15c7.19.34,13.28,2.18,18.05,7.3a17.66,17.66,0,0,1,2.34,3.37c1.14,2,.4,3.26-1.59,3.95-6.56,2.25-20.31-1.25-24.47-10.26-.82-1.78.27-2.64,1.21-3.47A5.09,5.09,0,0,1,449.31,582.15Z"/><path class="cls-16" d="M363.81,489.58c.1,2.25-.77,2.89-2.33,2.67-4.28-.58-12.28-8.2-12.83-12.35-.22-1.63-.33-3.18,2.5-2.44C356.51,478.87,363.75,485.82,363.81,489.58Z"/><path class="cls-17" d="M374.3,591.84c5.83-.64,10.71,2.17,15.33,5.71,1.58,1.2,1.35,2.21-.1,3.2a3.85,3.85,0,0,1-1.85.83c-7,0-14.17.72-20.12-4.2-2.23-1.85-2.08-3,.55-4.16C370,592.44,371.8,591.27,374.3,591.84Z"/></g></g></svg>