<svg xmlns="http://www.w3.org/2000/svg" viewBox="0 0 1910.52 931.49"><defs><style>.cls-1{fill:#1e1e1e;}.cls-2{fill:#eda800;}.cls-3{fill:#eea800;}.cls-4{fill:#fece65;}.cls-5{fill:#c26200;}.cls-6{fill:#fece66;}.cls-7{fill:#fe9d86;}.cls-8{fill:#e8a200;}.cls-9{fill:#fe70d0;}.cls-10{fill:#e01f0e;}.cls-11{fill:#fe660f;}.cls-12{fill:#fefefe;}.cls-13{fill:#ce3600;}.cls-14{fill:#feee47;}</style></defs><title>Asset 12</title><g id="Layer_2" data-name="Layer 2"><g id="Layer_1-2" data-name="Layer 1"><path d="M1328.29,0c0,5.65.08,11.3-.08,16.94-.35,12.19-2,24.15-7.1,35.38-.52,1.13-1,2.31.06,3.08,1.37,1,1.85-.7,2.49-1.33,6.27-6.17,12.29-12.6,18.73-18.57,7.72-7.16,15.29-14.51,24-20.57a1.34,1.34,0,0,1,1-.16,259.7,259.7,0,0,0-21.08,23.64c7.2-5.17,14.11-10.67,21.84-15.06s15.35-9.06,24.77-9.39c-12.89,12-25.8,24-36.79,38,3.71-1.57,7.41-3.18,11.14-4.71,12.06-5,24.4-9.07,37.3-11.17,6.63-1.09,13.36-.2,20,0,2.26.06,4.24,1.6,5.79,3.11,2.45,2.37,2,4.41-1.18,6.83,5.16,2.34,9.55,5.78,13.93,9.19a13.86,13.86,0,0,1,3.17,3.94c1.12,1.92.81,2.43-2,4.25,3.64,2,7.52,2.8,11.2,4.06,13.45,4.59,27,9.05,40.39,13.64a3,3,0,0,0,2.77,0c10.5-5.17,19.16-12.75,27.13-21.08,9.13-9.54,17.49-19.82,26.78-29.19,10.81-10.92,23-20.19,38.37-23.66,3.07-.69,6.7.49,9.94,1.31,14.15,3.61,26.68,10.29,36.89,20.8a107.46,107.46,0,0,1,17.12,23.25c8.26,15,14.18,31.07,19.84,47.22a113.94,113.94,0,0,1,6.09,44,196.41,196.41,0,0,1-9,48.79c-4,12.94-8.36,25.81-14.1,38.06a104.55,104.55,0,0,1-15.06,22.9c-2,2.34-4.76,3.88-8.37,5,3.82-4.86,5.7-10.06,7.6-15.93-2.91,1.39-3.6,3.84-4.5,5.75-4.43,9.36-11.34,16.57-19.33,22.81-2.45,1.91-2.64,4.08-2,6.45,2.32,9.17,5,18.23,6.86,27.53a42.78,42.78,0,0,1,1.22,10.9l-3.83-9.56c-.72,8.21-.29,15.73-3,22.81-.37,1-.07,2.26-1.56,2.76-2.22.75-.42-2.31-2.09-1.94-1.89,1.74-2.38,4.19-3.1,7.23,8.85-2.31,17.67-1.07,26.44-1.64a172,172,0,0,1,28.88.28c5.28.55,10.62.59,15.88,1.54a195.4,195.4,0,0,1,26.89,6.61,8.88,8.88,0,0,1,1.55,1.11c-5.24-.83-10-1.27-14.5-2.37-6.05-1.45-12.23-1.87-18.34-2.58a374.64,374.64,0,0,0-44.43-2.09c-6.58,0-13.14.91-19.72,1.26-1.65.09-1.77,1.3-2.05,2.22a131.92,131.92,0,0,1-13.86,30.23c-3.12,5-7.46,9.18-10.11,14.6a143,143,0,0,1-8.29,14.47c-1.69,2.63-.39,3.85,1.52,4.93,6.1,3.46,12.25,6.83,18.4,10.2a258.46,258.46,0,0,1,36.36,23.86c8.3,6.58,16.45,13.33,23.64,21.08,6.18,6.66,12.39,13.36,17.47,21.21-1.44,0-1.84-1-2.47-1.66-8.74-8.69-17.29-17.59-26.21-26.09a252.8,252.8,0,0,0-43.21-32.69,190.82,190.82,0,0,0-27.54-13.4c-1.2-.49-1.35-.34-1.94.69-3.42,6-6.41,12.24-9.55,18.39-.73,1.45-.35,2.12.62,2.82,8.81,6.24,16.33,13.92,23.66,21.73a106.75,106.75,0,0,1,13.66,17.84c-12.29-13.65-24.85-27-39.55-38.42-3.4,8.47-7,16.67-10,25.07a33.74,33.74,0,0,0-1.55,18.95c.91,4.17-.23,8.46-.76,12.59a129.26,129.26,0,0,1-8.16,32c-1.57,3.92-3.24,7.8-5.15,11.56-.52,1-1,1.43,0,2.36,13.49,12.2,19.8,28.42,25.18,45.16,1.42,4.44,2.93,8.85,4.51,13.62a63,63,0,0,1,16.06-12.79,55.15,55.15,0,0,1,16.06-5.26c13-2.56,24.68,2.39,36.42,6.86,12.65,4.83,24.33,11.53,35.64,18.82,7.27,4.68,13.84,10.4,20.51,15.95,10.53,8.77,16.73,20.57,23.18,32.22a199.81,199.81,0,0,1,15.68,36.35c3.41,10.72,6,21.61,6.12,32.93a3.14,3.14,0,0,0,2.36,3.24c15.24,6.13,30.51,12.16,46.28,16.84,13.47,4,27,7.64,40.94,9.72,11.43,1.71,22.83,3.41,34.42,3.39,14.76,0,24.48,7.85,31.66,20a120.42,120.42,0,0,1,14.26,36.83,112.26,112.26,0,0,1,2.49,19.83c.13,4.3.83,8.66.5,13-.86,11.13-2.63,22.06-10.28,30.94-2.7,3.15-6.37,5.09-10.15,6.65a6.84,6.84,0,0,0-4.47,5.94c-1.11,7.67-3.28,15-7.57,21.54a22.48,22.48,0,0,1-6.87,7.11c-5.42,3.21-10.91,6.14-17.76,6.35a57.81,57.81,0,0,1-22-3.23c-2.26-.82-2.1.77-2.45,1.54-2,4.31-4.54,8.1-8.72,10.43-3.35,1.86-7.29,1.8-10.93,2.78-6.08,1.64-12.15.6-18.21-.22a89,89,0,0,1-22.58-5.85c-1.19-.5-2.07.23-2.82.72-8.43,5.48-17.63,5.23-27.09,4.12a61.92,61.92,0,0,1-17-4.61,54.47,54.47,0,0,1-16.76-11.57c-9.48-9.2-18.38-19-27.8-28.24-6.66-6.55-14.16-12-23.4-14.58-7.63-2.11-15.36-3.88-23.29-3.27-6,.47-11.77,2-16.32,6.8-3,3.15-7.47,1.73-11,1-6.22-1.24-12-3.85-16.15-9.09-.91-1.15-1.42-.47-2.07.21a81.13,81.13,0,0,1-22.1,16.47c-5.65,2.88-11.69,5.05-18.18,5.22-3.63.09-7.22.57-10.92-.32-6.24-1.51-10.52-5.8-15.08-9.73-3.11-2.67-5.79-5.92-9.13-8.23-2.23-1.53-5.44-.65-8-.21-5.75,1-11.57,1.41-17.33,2.47-8.57,1.59-17.08,3.42-25.59,5.26-21.22,4.57-42,11-63,16.45-10.78,2.79-21.54,5.68-32.42,8-6.6,1.39-13.44,1.7-20.2,2.22-5.8.45-11.63,1.22-17.46.7-9.32-.82-18.65-1.39-27.89-3.17-3.92-.76-7.77-2.06-12.56-2.5a41.54,41.54,0,0,0,7.63,6.49c2.13,1.48,1.57,2.26-.32,3.45-2.54,1.6-5,.22-7.2-.25-8.51-1.82-15.92-5.94-22.76-11.46-10.94-8.82-18.18-20.3-25.18-32.85v11.18c-7.88-7.89-10.14-18-13.77-27.48-1.36-3.54-3-7-4.48-10.4a3.13,3.13,0,0,0-2.53-1.75,49.38,49.38,0,0,0-22.19-1.11,14.66,14.66,0,0,1-3.11,0c-16.39-.41-32.73,1.13-49.1,1.53-8.64.21-17.31.67-25.94,1.31-10.09.74-20.18,1.47-30.27,2.12-8.94.57-17.88,1.32-26.82,2-8.59.7-17.2,1.21-25.77,2.06-9.23.92-18.45,1.86-27.68,2.76-11.13,1.07-22.25,2.35-33.38,3.49-8.42.86-16.84,1.78-25.25,2.7-9,1-17.85,2.56-26.82,3.32-6.88.57-13.74,1.37-20.56,2.28-8,1.06-16,2.06-24.07,3.17-7.57,1.06-15.2,1.91-22.79,3-6.77,1-13.5,2.19-20.28,3.18-4.57.66-9.18,1.08-13.77,1.63-7.5.9-15,1.88-22.5,2.68-4.07.44-8.18.36-12.28.64a510,510,0,0,1-53.75.64,283.9,283.9,0,0,1-32-3.14c-8.1-1.24-16.27-2.11-24.34-3.58a285.75,285.75,0,0,1-28.86-7.08c-15.27-4.47-29.84-10.73-44.44-17-11.85-5.11-23.14-11.42-35.21-16-2.49-1-5.06-1.71-7.47-2.83-3-1.41-5.89-.43-8.3,1a134.69,134.69,0,0,1-32.06,13.84c-14.28,3.89-28.51,2.9-42.66-1.1A118.74,118.74,0,0,1,447.23,825c-4.89-2.84-8.57-7-12.26-11.22-5.31-6-9.56-12.62-11.89-20.37-.54-1.8-2.09-.56-2.77-.3a105.52,105.52,0,0,0-18.74,9.38c-23.36,14.82-45.44,31.44-67.49,48.1-18.85,14.23-37.6,28.58-57.34,41.61s-40.09,24-62.4,31.49a105.38,105.38,0,0,1-24.25,5.07c-5.19.46-10.46.71-15.59.88a60.93,60.93,0,0,1-22.15-3.5c-8.13-2.89-16.47-3.93-25-4.62-4.63-.38-9-2.27-13.32-4.12-4.48-1.94-8.67-4.55-13.15-6.51-11.79-5.16-19.51-14.21-24.82-25.56-3-6.51-5.09-13.3-1.94-20.35,1.07-2.38-.47-2.48-1.72-2.78-4.44-1-8.87-2.08-13.22-3.48-7.74-2.5-13.33-7.81-18.34-13.86-8.56-10.37-14.49-22.69-23.24-32.79A91.52,91.52,0,0,1,4.3,791.21,41.08,41.08,0,0,1,.74,778.45c-.06-.54.07-1.17-.74-1.25V766.82c2.13-5.65,4-11.42,7.78-16.28a4.87,4.87,0,0,0,.48-4.29c-1.13-4.69-.79-9.49-1.41-14.17-1.54-11.5,10.29-24.54,20-27.52,4.82-1.47,9.86-2.93,13-7.52a9.69,9.69,0,0,0,1.6-2.53c2.52-9.69,10.08-14.52,18.08-18.91,8.25-4.53,17.38-5.15,26.46-5.43,6.75-.21,13.16,1.78,19.42,4.52,10.74,4.7,20.82,10.66,31.36,15.71A79.46,79.46,0,0,0,169,698.54c9.11.29,18.22.9,27.33,1.39,8.41.45,16.85.71,25.25,1.3,8.93.63,17.9.17,26.8.75,19.08,1.25,38.16.4,57.23.42,4.86,0,9.8-.5,14.7-.46,1.85,0,2.83-1.24,4.14-2,2.06-1.18,3.95-2.66,6.5-4.41-5.27,0-9.84-.17-14.39,0-8.62.4-17.2-.42-25.76-.87-11.51-.6-23-1.78-34.42-3.41a404.11,404.11,0,0,1-46.09-8.84c-16.56-4.37-33.07-9-48.37-16.79a123.71,123.71,0,0,1-25.46-17.32c-5-4.36-10-8.62-14.65-13.33-11.22-11.47-20.83-24.24-27.55-38.84a121,121,0,0,1-9.41-33.31c-2.18-14.81,2.54-27.1,10-39.12,7.57-12.28,18.11-21.79,28.61-31.39,17-15.51,35.87-28.5,54.78-41.41,14.27-9.74,29.23-18.46,43.43-28.34,17.26-12,34.54-24,51.24-36.81,11.51-8.82,23-17.63,34.28-26.76,7.66-6.2,14.95-12.89,22.31-19.46s15.08-13.22,22.2-20.26c5.39-5.33,10.22-11.25,15.11-17.07a156.53,156.53,0,0,0,15.37-21.59c2.57-4.38,5.61-8.58,6.3-13.84.14-1.07,1.12-1.67,1.71-2.48,1.81-2.49,2.15-5.51,3-8.36a58.18,58.18,0,0,0,3.05-21.11,67.05,67.05,0,0,0-4.64-21.51c-1.73-4.21-5.49-6.25-8.83-8.47a25.49,25.49,0,0,0-17.9-4.45,7.19,7.19,0,0,0-2.22.6c-13.56,6.4-26.69,13.53-38.53,22.79-12,9.38-23.87,18.94-34.25,30.13-6.53,7-12.47,14.63-18.67,22-14.23,16.81-26.53,35-38.65,53.3-4.31,6.51-8.66,13-12.51,19.78-1.41,2.5-1.49,5.78-2.07,8.72q-2.22,11.19-4.32,22.39a15.56,15.56,0,0,0,0,2.67c-4.55-1.67-6.44-5.66-8.08-9.39-3.84-8.72-5.51-18.08-7-27.44-1.42-8.71-2.07-17.5-2.92-26.27a123.69,123.69,0,0,1-.38-19.89c.47-7.51.73-15.1,2.55-22.49.2-.82.17-2.32-.26-2.55-1.38-.76-.67-1.2.07-1.49a3.49,3.49,0,0,0,2.3-4.37c-.93-4.89,1.53-9,2.8-13.45,3.14-10.88,6.05-21.85,11.08-32a70.72,70.72,0,0,1,8.24-13,3.24,3.24,0,0,0-3.59.81c-7.86,7-14.21,15.35-20.8,23.49-.67-3,.08-8.16,2.4-12.26a190.65,190.65,0,0,1,23.66-33.83,129.72,129.72,0,0,1,26-22A148.72,148.72,0,0,1,300,145.19c8.51-1.83,17.09-2.66,25.71-3.61,7.39-.82,14.62-.19,21.81.37,19.44,1.51,37.79,7,53.45,19,11.19,8.61,20.36,19.22,25.52,32.66,2.16,5.62,3.13,11.6,4.21,17.52.66,3.63,1.42,7.24,2.06,10.87,1,5.8.47,11.66-.12,17.41a140.13,140.13,0,0,1-3.72,20.1,146.23,146.23,0,0,1-10.62,28c-7.49,15.36-17.07,29.29-27.62,42.69a312.94,312.94,0,0,1-31.15,33.63c-9.28,8.78-19.06,17.05-29,25.15-9.09,7.41-18.14,14.88-27.28,22.23-7.27,5.85-14.69,11.51-22.06,17.22-9.06,7-18.18,13.95-27.19,21-9.61,7.55-19.57,14.62-29.4,21.87-12.62,9.31-25.64,18.08-37.9,27.92-7.52,6-14.93,12.18-21.81,18.84A211,211,0,0,0,143.52,543c-4.19,5.55-7,11.28-5.83,18A39.32,39.32,0,0,0,147,581c4.07,4.55,8,9.27,11.91,13.93,3.59,4.22,8.6,6.52,13.14,9.32,15.82,9.76,33.08,16.27,51.07,20.65a167.36,167.36,0,0,0,20,3.13,284.34,284.34,0,0,0,41.34,1.86c10-.3,20.06-1,30.09-1.43,6.57-.26,13.14-.94,19.72-1.36,10.78-.71,21.59-1.19,32.35-2.09,11.33-.95,22.63-2.44,33.89-4.12,12-1.78,23.8-4.36,35.77-6,13.1-1.85,25.95-4.94,39-7.08,10.81-1.78,21.51-4.19,32.3-6.08,4.26-.75,8.8-.49,12.23-3.71,3.25-3,6.39-6.2,9.78-9.11,14-12,28.51-23.26,44.26-32.9,8.48-5.18,17.27-9.82,26.82-12.49,16.92-4.75,33.74-9.86,51.05-13.22,11.43-2.21,22.91-4.17,34.4-6,5.35-.86,10.82-1,16.24-1.47,10.85-.92,21.68-2,32.53-2.69,6.66-.39,13.37.08,20-.11,11.83-.33,23.64.32,35.44.82,11.09.48,22.18,1.5,33.21,2.74,12.05,1.36,24.06,3.06,36,5.44,2.8.56,5.4-.53,7.84-1.51,13.11-5.23,26.76-8.37,40.57-10.9a303.48,303.48,0,0,1,37-4.34,208.49,208.49,0,0,1,24.73-.34c10.16.61,20.33,1.12,30.48,2.43a501.36,501.36,0,0,1,57.56,11.36c13.23,3.31,26.31,7.42,39.24,11.8A388,388,0,0,0,1145,550.16c1.56.32,1.44-.48,1.8-1.11,4.33-7.55,8.68-15.09,14.2-21.89a69,69,0,0,1,5.09-6.28c8.23-8,16.21-16.26,24.55-24.15,9.35-8.85,18.7-17.9,26-28.63,7.49-11.06,14-22.72,18.44-35.44.86-2.5,1.64-5.05,3.36-7.23,2-2.55,1.87-5.34.14-8.1-3.74-6-5.55-12.79-7.88-19.39-1.46-4.15-2.67-8.51-5.36-12.14-.72-1-.47-3.31-2.78-2.45a5,5,0,0,0-3.47,4.53,10.78,10.78,0,0,0,.63,2.79c-1.54-.36-2.47-1-2.62-2.38-.27-2.55-1.7-2.75-3.72-2.06-7,2.37-14,5.14-21.4,6.21a83.47,83.47,0,0,1-27.18,0c-1.56-.28-3.62.27-4.9-1.6,3.41-2.51,7.86-2.85,11.74-5.31a34.33,34.33,0,0,0-9.71-1.84c-12.41-.4-24.37-2.78-35.68-8.22-11.8-5.67-23.28-11.89-35.77-16.23-7.93-2.76-14.23-9-19.28-16-3-4.18-5.88-8.48-9.18-12.41-3.91-4.66-4.6-10.54-6.57-15.9-5.74-15.58-9.68-31.7-13.2-47.9-.6-2.74.14-5.76-.16-8.6a153.82,153.82,0,0,1-.62-19.55,116.73,116.73,0,0,1,3.52-25.72,109.57,109.57,0,0,1,15-34.37,119.65,119.65,0,0,1,16-19.62c4.9-4.81,11.81-6.82,18.85-7.66,13.74-1.64,26.56,2.82,39.62,5.74s26.33,5.83,39.48,8.84c10.75,2.46,21.6,4.63,32.15,7.77,7,2.09,12,.87,15.84-5.38,2.94-4.77,7.58-8.37,10-13.51,3.66-7.86,10.43-13.17,15.69-19.71,7.45-9.26,14.86-18.55,18.75-30a51.54,51.54,0,0,0,3.25-16.09c.06-4.69,1.69-9.42,2.93-14.05s1.08-9.38,2-14c1.34-6.73-.33-13.18-1.54-19.66-.27-1.44.78-2.53.22-3.88,3.18,3.43,3.6,7.88,4.56,12,1.81,7.78-.17,15.5-1.1,23.2-.67,5.58-1.52,11.14-2.28,16.71a9.94,9.94,0,0,0,1.19,5.44c10.08-25.42,23.39-49.49,24.24-77.54,2.89,5.79,1.54,12.13,1.89,18.09.36,6.16-.77,12.58-1.43,18.86-.64,6.1-2.65,11.93-2.77,18.13a140.36,140.36,0,0,0,11.22-19.23,330.73,330.73,0,0,0,16.37-44c.92-3.06,2.35-6,2.58-9.26Z"/><path class="cls-1" d="M1688.14,418.28c-5.77-3.49-11.52-7-17.32-10.47a232,232,0,0,0-46-21.32c-8.76-2.9-17.5-5.83-26.58-7.56-.75-.14-1.57-.55-1.48-1.06a1.44,1.44,0,0,1,1.93-1c10.14,2.88,20.41,5.31,30.36,8.89a250.4,250.4,0,0,1,28.55,12C1668.59,403.34,1679.1,409.77,1688.14,418.28Z"/><path class="cls-2" d="M1243.49,425.73c2,1.22,3.49,2.14,5,3.12.62.4,1.15.78,1.79.07.4-.44.8-.88.32-1.48-2.93-3.61-.86-8.46-3-12.36,4.42,4.34,9.28,8.17,13,13.13,1.28,1.72,4.37,2.93,3.83,4.85s-3.14,3.52-4.8,5.27c-9.78,10.33-19.75,20.51-28,32.17a16.91,16.91,0,0,0-2,4.16c5.27-4.05,9.32-9.23,13.67-14.09,5.49-6.11,10.63-12.53,17.17-17.62,2.15-1.67,3.84-3.88,6.13-5.46,1.16-.79,1.58-1.16,3.08-.24,7.84,4.83,15.58,9.89,24,13.76,6,2.76,12.06,5.48,18.28,7.71,2.82,1,2,2.25,1,3.63a156.88,156.88,0,0,0-10.79,19.49c-3.85,7.86-7.27,15.91-10.34,24.11a5.63,5.63,0,0,0,.07,1.68c3.8-7.29,7.22-14.38,11.11-21.21,4.51-7.91,9.5-15.54,14.08-23.4.83-1.41,1.61-.57,2.08-.37,11.39,4.87,23.24,9,31.84,18.66,2.24,2.54,3.29,4.66,2,8.38-3.65,10.78-6.77,21.8-6.55,33.32.09,4.59.34,9.28,1.89,13.88-.18-16.36,3.14-32,8.62-48.41,3.75,6.26,7,11.52,10.1,16.93,8,14.2,15.07,28.94,24.6,42.23,8.61,12,19.53,21.39,34,26.18.11-1.8.23-3.55.37-5.79,6,3.74,12.37,5.5,18.89,6.75s13.1.39,19.53-1.18c.77-.19,1.92-.52,2.06-1.57s-1-1.35-1.72-1.8a16.66,16.66,0,0,1-2-1.58c12.9-2,26.17.42,38.69-4.45,2.51,9.11,2.53,18.91,8.86,26.69-5.56-3.55-6.46-10-10.15-14.59-3.7,4.06-.17,7.59,1.23,11,2.88,7.07,7.4,13.41,9.59,20.82a35.53,35.53,0,0,1,2,10.25c0,1.24-.2,2.13-1.66,2.55-11.42,3.3-18.68,10.46-20.44,22.52-.22,1.46-.63,2.86-.84,4.32-.63,4.31-5.44,7.47-10.69,7.76-5,.29-10,.15-14.88,1.36-6.39,1.59-11.36,5.64-17.17,10.25h6.26c-6.19,5.09-12.76,8.76-17.89,14.19a70.19,70.19,0,0,0-6.17,7.67c-1.87,2.63-3.14,2.9-5.63.86a7.47,7.47,0,0,1-2.71-5.3c-.38-7.73-2.62-15.3-2.16-23,.34-5.79.75-11.57.59-18.33,3,4.24,4.91,8.31,9.21,10.86-1.27-5.9-2.29-11.49-3.71-17-2.7-10.44-5.89-20.71-11.06-30.27-6.32-11.7-15.37-21-25.25-29.7-4.88-4.3-9.57-8.8-14.53-13-7.45-6.32-14.72-12.81-22.34-18.93-7-5.62-13.48-11.88-20.49-17.48-4.11-3.29-7.35-7.48-11.67-10.54a18.51,18.51,0,0,1-5.75-7.1,8.54,8.54,0,0,0-4.29-4.19c-.71-.32-1.39-1.35-2.31-.5-1.13,1,.09,1.57.59,2.22,3,3.94,5.91,8,9.09,11.8,9.69,11.63,21.23,21.3,32.85,30.9,8.59,7.09,16.81,14.62,25.35,21.76a192.73,192.73,0,0,1,21.38,21c10.35,11.88,19.49,24.7,22.81,41.11-2.09-1.84-2.4-4.26-3.17-6.28-.86-2.22-2-4.28-3-6.41s-1.72-4.48-4.75-5.48c.8,4.08,1.59,7.85,2.27,11.64a155.46,155.46,0,0,1,2.66,18.78c.27,4.77.32,9.46.12,14.24-.16,3.92,1.17,8,1.5,12,.38,4.7.5,9.45,2,14,.29.86,0,2.32-2.11,1.49-7.64-2.91-15.38-5.54-23.13-8.15a37.63,37.63,0,0,0-7.91-1.61,79.83,79.83,0,0,0,19.43,11.65c14.22,6,29.16,9.56,44.1,13.08,3.6.84,2.17,2.5,1.14,4.18a124.93,124.93,0,0,0-13.16,29.77,112.34,112.34,0,0,0-4.27,22.18,136.7,136.7,0,0,0-.42,18.53c.26,5.65-.37,11.48,1.35,17,1.63,5.19,4.77,9.62,8.16,13.9,3.15,4,6.65,7.61,9.2,12.12,2.42,4.3,2.53,9,3.73,13.5,2.23,8.37,6.67,15.38,11.52,22.31,3,4.27,7.17,7.11,11.36,10.23-9.74,2.17-19.39,4.07-28.89,6.52-14.32,3.68-28.54,7.79-42.82,11.65-12.89,3.5-25.92,6.43-39,9-8.46,1.66-17,2.3-25.65,3a136.46,136.46,0,0,1-20.6.35,157.92,157.92,0,0,1-30.59-5.18,179.45,179.45,0,0,1-25.22-9.25c-1.36-.61-2.09-.5-2.86.55-.88,1.21.45,1.63,1,2,4.8,3.75,9.73,7.35,14.51,11.12a21.17,21.17,0,0,1,5.19,6,48.7,48.7,0,0,1-17.19-10.44c-15.1-14.14-23.73-32.07-30.4-51.28-2.58-7.44-6.6-14.35-9.27-21.85,0,10.66,3,20.78,5.14,31-5-9.6-7.35-20.09-11-30.14-5.58-15.51-10.48-31.3-18.05-46-5.94-11.54-12.53-22.67-21.65-32.19-3-3.13-6.25-5.93-9.28-9-.41-.42-.75-1.7-1.8-.63-.89.91-.11,1.45.45,2,6.35,6,10.74,13.35,15.24,20.68A132.49,132.49,0,0,1,1195,778.55c-8.48-2.87-16.67-5.32-24.63-8.39-13.61-5.25-27-11-40.16-17.34-11.06-5.34-22-11-32.82-16.77-8.14-4.31-16.15-8.9-24.15-13.47-14-8-28-15.88-41.76-24.09-11.42-6.78-22.89-13.38-35.65-17.34-6.59-2-12.77-5.3-17.22-10.21-6.07-6.7-13.88-9.59-21.74-12.58-13-4.94-26.58-8.23-40.19-10.91a226.45,226.45,0,0,0-25.61-3.16c-8.67-.68-17.3-1.3-26-1.25-12.7.07-25.39-.08-38.09.09-2.57,0-5.15.89-8.43.41,9.69-4.63,19.87-5.49,29.76-8.18-3.42-3-7.35-2.24-10.87-1.83-5.91.68-11.68,2.65-17.58,3.09-3.89.29-7.93-.48-11.93-.5-11.64-.06-22.87,2.38-34,5.5-19.54,5.5-38.41,12.94-57.4,20a7.3,7.3,0,0,1-1.9,0c11.46-11,24.24-19.82,35.5-30.93-7,1-12.34,4.7-17.71,8.32-18.6,12.57-32.86,29.83-48.67,45.39-8.07,7.94-15.61,16.44-23.39,24.69s-15.77,16.62-23.6,25c-12,12.82-24,25.67-36.65,37.83-11,10.51-22,21-33.67,30.7-7.3,6.06-15.69,10.84-24.05,15.52a107.56,107.56,0,0,1-32.56,12.39c-9.23,1.75-18.39,2.76-28,.85-8.7-1.73-17-3.91-24.92-7.91a55.73,55.73,0,0,1-23-20.93c-2.79-4.64-4.29-10.15-8.09-14.24-5.58-6-11.64-11.43-20-14.06.3,2.74,2.51,3,3.8,4.13,2.73,2.35,5.79,4.32,8.49,6.71,1.16,1,2.58,2.22-.52,3.61-21.82,9.82-42.11,22.24-61.47,36.3-10.12,7.34-20.34,14.55-30.3,22.11q-16.17,12.27-32.51,24.29-18.25,13.38-37.46,25.34c-12.91,8-26.68,14.46-40.5,20.78-3.95,1.8-5.5-1.21-7.48-2.78a45.46,45.46,0,0,1-12.27-15.33c-1.76-3.52,1.61-3.84,3.38-4.63,4.47-2,9.11-3.58,14-5.48-4.28-2-5.74-1.84-9.46-.24-3.38,1.46-6.61,3.36-10.44,3.62-2.51.18-4-.86-5.18-3-3.61-6.4-5.91-13.32-8.11-20.27-.54-1.72.08-2.78,1.76-3.77,4-2.39,8.84-3.44,12.78-7.55-6.25-1.23-10.31,2.81-15.26,5-1.6-13.17-1.62-25.81,3.55-38a30,30,0,0,0,2.41-7,3.37,3.37,0,0,1,2.53-3c4.26-1.72,8.41-3.74,12.73-5.3a24.82,24.82,0,0,0,6.17-3.32c-5.28-.94-9.52,1.43-13.93,3-.9.33-1.86,1.49-2.79.65-1.16-1,.17-2.08.54-3,4-10.27,7.62-20.7,9.28-31.57,1.6-10.48.85-21-4-30.74-1.08-2.16.19-2.68,1.65-2.82,9.78-1,19.45-2.63,29.15-4.2,8-1.3,15.88-3,23.77-4.84a346.68,346.68,0,0,0,39.5-11c11.64-4.13,23.07-8.75,34.25-14,15.68-7.35,29.21-18.06,43.55-27.52A113,113,0,0,1,405,664a42.57,42.57,0,0,1,13.77-1.21c4.76.54,8,4.33,10.61,8.32,2.82,4.28,4.91,9.16,9.45,12.1,1.16.76.81,1.54-.11,2-4.23,2.26-5.9,7.21-10.09,9.52-.63.35-1.82,1-.91,2.17a2.25,2.25,0,0,0,3.18.72c5.85-3.81,11.87-7.34,17.17-12,7.86-6.85,14.05-15.27,21.56-22.47,7-6.72,13.5-14,20-21.26,7.24-8.14,15.1-15.7,22.31-23.82,9-10.15,19.19-19,29.17-28,16.87-15.26,35.33-28.44,56.22-37.76a150.83,150.83,0,0,1,35.23-11c10.07-1.79,20-4.06,30.11-5.89,6.77-1.23,13.6-2.12,20.42-3,7.28-1,14.56-2,21.88-2.7,5.43-.5,10.86-1,16.3-1.4,7.53-.52,15.11-.57,22.66-.75,5.61-.13,11.2-.17,16.81-.59,9.26-.68,18.55.62,27.85.71,10.11.11,20.23,1.07,30.32,2,8.46.78,16.85,2.22,25.34,2.76a9.11,9.11,0,0,1,2.35,1,482.93,482.93,0,0,0-53.44,25.93c10-1.1,19.13-4.64,28.22-8.33,15.27-6.19,30.19-13.2,46-18.13a329.27,329.27,0,0,1,40.81-10.05c6.76-1.19,13.68-1.85,20.6-2.38,7.85-.61,15.71-.92,23.56-1.37,12.68-.74,25.22.36,37.8,1.42,6.9.58,13.81,1.06,20.63,2.2,11.64,2,23.3,3.83,34.81,6.51,24.15,5.6,47.94,12.41,71.53,20.06,8.71,2.83,18,4,27,5.79,1.53.3,1.14.71,1.14,1.78,0,4.23-1.72,8.23-1.5,12.48.08,1.46.12,2.76,1.9,3.57,3.51-18.54,13.25-33.85,25.23-47.84,11.08-12.94,24-24.12,35.64-36.55,11.82-12.65,22.95-25.91,30.23-41.88A84.08,84.08,0,0,0,1243.49,425.73Z"/><path class="cls-3" d="M1445.73,261c-3.38-1.94-6.57-.3-9.65.11-7.52,1-14,4.84-20.26,8.75-6.08,3.82-12.64,6.93-18,12-3.3,3.1-5.21,7-7.26,10.75-2.55,4.73-4.77,9.64-7,14.55a27.08,27.08,0,0,1-9.69,10.93c-5.21,3.61-8,8.72-11,13.77-4.91,8.19-8.64,17.12-14.61,24.64-4.26,5.38-9.46,9.66-17.1,9.32-4.4-.19-8.82.09-13.16-1.66,4.61-3.9,11-2,16-5.42a17.77,17.77,0,0,0-11.79-.95c-9.18,2.07-16.45,7.62-23.16,14-1.86,1.76-2.19,4.46-3.94,6.3a1.34,1.34,0,0,0,.18,1.26c.54.56,1,0,1.41-.37,2.61-2.39,5.2-4.8,7.86-7.14,2.4-2.11,5-3.44,8.31-1.89,5.8,2.73,11.75,5.13,16.49,9.72,3.07,3,3.39,6.58,2.9,10.4-.29,2.29-2.48,3-4.16,4.1-3.85,2.48-8.46,2.91-12.56,4.68-8.08,3.51-15,8.92-22.41,13.59-6.37,4-12.39,8.61-18.6,12.89-1.39,1-1.58,3.94-4.3,2.66-1.93-.9-4-1.58-5.61-3.05-9-8.07-16.47-17.23-21.37-28.38-1.23-2.82-1.58-6-3.72-8.54-.36,7.54,1.68,14.84,2.05,22.33a115.64,115.64,0,0,1-12.24-32.56q-3.48-16.49-6.91-33c-.13-.62-.24-1.09-1-1.12-1.31-.05-.93.95-1.12,1.67a69.84,69.84,0,0,1-3.85,11.81c-1.7-7.87-3.49-15.73-5.09-23.62-2.35-11.55-5.2-23-8.38-34.31-.06-.21-.28-.38-.34-.59-.56-1.94-2-4.17-1.47-5.76,1-3,3.46.71,5.2-.41.37-.23.78-.4,1.41-.72-4.68-2.92-9.21-5.65-13.65-8.52-9.84-6.39-17.86-14.75-25.63-23.45-12.82-14.37-23.47-30.43-35.71-45.23-5.82-7-11.11-14.9-19.38-19.54-3.86-2.17-7.52-5.43-12.39-4.81A42.48,42.48,0,0,0,1077.93,201c-10.79,9.56-17.09,22-22.12,35.23-2.73,7.17-3.16,14.7-4.14,22.17a52,52,0,0,1-2.1,9c-1.43-5.46-1.54-11-2.23-16.38-.77-6.12-.08-12.09.36-18.05.56-7.71,3-15.17,5-22.65,3.77-13.87,10.7-26.13,19.12-37.62A33.71,33.71,0,0,1,1094.26,159c12.68-2.15,24.79.43,36.86,3.79,13,3.61,25.8,7.62,38.94,10.53,10.41,2.3,20.75,4.95,31.2,7,3.41.68,7.08.1,10.73.1-.08,2.08-1.55,3.4-1.94,5.08,3.41.39,4.86-2.15,6.82-3.91,12.28-11,19.9-25.67,30.05-38.34,8.91-11.12,17.71-22.32,26.55-33.49a5.75,5.75,0,0,0,1-1.73c3.34-10.42,10.52-19,14.1-29.29,1.24-3.58,2.74-7.06,4.3-10.53-.88,9.69-2.8,19.08-8.38,28.17,4.54-1.76,7.17-5.05,9.55-8.1,11.47-14.7,18.64-31.75,25.9-48.72.57-1.32,1.6-2.43,1.72-4a7.74,7.74,0,0,1-.22,4.47,207.88,207.88,0,0,1-12.67,32.56c-1.16,2.44,1.86,2.93,1.11,4.91,20.23-16.32,39.22-34,60.86-48.3-5.51,4.95-10.46,10.45-15.76,15.59-5.49,5.33-10,11.47-15,17.24-4.85,5.62-9.25,11.63-13.69,17.72,29-22,59.61-39.5,98.51-38.48-5.13,3.44-10.15,3.74-15.1,4.34-5.88.72-11.92.64-17.77,3.19,6.71,1.74,13.26.74,19.74.91a70.39,70.39,0,0,1,17.16,2.07,37.68,37.68,0,0,1,13,6.69c-23.58,2-47,2.17-69.62,8.38a128.25,128.25,0,0,1,51.21,7.43,85.36,85.36,0,0,1,25.65,14c-8-3.7-16.86-4.66-25.1-7.59-4.86-1.73-9.68-3.56-14.52-5.28a13.31,13.31,0,0,0-10.1.65c24.25,7.61,43.15,21.18,57.42,41.14-3.16-.81-5.36-4.28-9.47-2.81l20.26,17.65c-3.55-20.31-18.71-32-32.61-44.91,4.81.12,8.71,2.52,12.92,3.77a25.31,25.31,0,0,0,5.62,1.1c3.34.21,3.21-1.22,1.83-3.32a31.16,31.16,0,0,0-10.92-10.3c-9.52-5.34-19.89-8.69-29.78-13,6.65-1.81,14.4-1.26,21.92.79,10.22,2.77,19.51,8,29.6,11a311.34,311.34,0,0,1,53.94,21.49c13.25,6.88,24.87,15.66,33.18,28.33.3.45.66,1,1.53.73a55.76,55.76,0,0,0-9.76-13.83,109.52,109.52,0,0,0-12.36-11.62,165.94,165.94,0,0,0-14.11-9.88c-4.66-3-9.74-5.31-15.23-8.11,6.9-1.92,11.31-6.52,16.17-10.39,9.09-7.23,16.58-16.13,24.45-24.59,6.33-6.8,12.85-13.35,19.76-19.54a81.86,81.86,0,0,1,25-15.81c5.38-2.08,10.82-.75,16,.84a57.46,57.46,0,0,1,22.77,13.5c8.59,8.12,15.26,17.6,21,27.8.18.33.3.68.53,1.2a45.82,45.82,0,0,0-28-3.25c-2.77.55-4.9,3.08-7.13,5-6.49,5.55-9.77,13.07-13.25,20.62-5.76,12.48-6.92,26-9.59,39.14-1.67,8.26-3.43,16.52-4.72,24.85-1.06,6.94-1.42,14-2.22,21-.88,7.64-.6,15.3-1.15,23.09l-7.38-19.43a89.75,89.75,0,0,0,5.35,29.46c6.22,16.82,12.93,33.45,19.68,50.06a247.48,247.48,0,0,1,14.47,48.94c1.63,9,1.2,18.15.12,27.26-4.43-8.08-3.13-17.91-8.65-26.34a39.45,39.45,0,0,0,.66,13.94,15.11,15.11,0,0,1,0,7.41,4.93,4.93,0,0,0-.17,2.7c1.82,5.34-.62,10.23-1.42,15.29-.15,1-.63,1-1.37,1.1-12.07,1.08-23.56,4.59-35,8.17-3.73,1.17-7.62,1.85-11.37,3-1.41.43-2,.13-2-1.14,0-5.28-2.93-9.61-4.66-14.32-1.27-3.45-2.28-6.71-.54-10.41,1.17-2.47,0-5.17-.91-7.55-2.79-7.63-7.56-14-13-20a159,159,0,0,1-10-12.43c-2.61-3.55-5.11-7.17-8.31-10.78,6.91-1.61,13.79-2.43,20.17-5,8.09-3.3,15.82-7.34,22-13.6,7.59-7.66,16-14.47,23.2-22.6-.14-.14-.3-.38-.38-.35-6.25,1.88-6.45,1.87-6.2-4.6a221.39,221.39,0,0,0-.89-24c-1.27-18.26-4.38-36.23-13-52.73a76.62,76.62,0,0,0-25.48-28.19,4.47,4.47,0,0,0-2.62-.46c-.88-.06-1.76,0-2.89,0,1.35-1.31,4.4-1.12,3.7-3-.77-2.08-3.18-.82-5.08-.61-4.61.52-8,3.18-11.08,6-5.5,5.15-11.08,10.29-15.42,16.54-.38.54-.8,1.27-1.62,1-1-.39-.44-1.2-.5-1.92-.13-1.41,1.34-2.5.55-4-2.38,1.33-2.85,3.8-3.15,6.06a280.27,280.27,0,0,0-2.15,42.76c.12,5.6-.28,11.2-.55,16.8a210.49,210.49,0,0,0,.06,26.7c.47,6.08,0,12-.24,18a129.85,129.85,0,0,1-1.41,13.17c-.13,1-.48,2.32-2.12,2.14-1.05-.12-2.39,0-2.46,1.2s1.47,1.72,2.35,2.06a50.4,50.4,0,0,1,9.76,4.49c9.61,6.37,17.08,14.84,23.68,24.16,4,5.72,8.4,11.21,12.91,16.58.66.78,1.52,1.6,1.2,2.59s-1.57.6-2.43.79c-7.76,1.71-14.88,5-21.7,9-11.75,6.81-22.75,15-35.79,19.4a43.83,43.83,0,0,1-19.26,2.28c-5.74-.63-11.56-1-17.29-1.78a69.9,69.9,0,0,0-18.87-.29c-12.07,1.77-24.87,2-34.81,10.94-1.69,1.51-2.86,1.08-3.67-1.1a16.64,16.64,0,0,1-.52-8.79c.64-3.57.39-7.07.54-10.6.42-10,.72-20,4.18-29.44,2.91-8,7-15,14.22-20.3a148.38,148.38,0,0,1,36-19.68A43.35,43.35,0,0,1,1445.73,261Z"/><path class="cls-4" d="M561.05,819.53c5.14-4.39,9.82-8.63,14.78-12.51,2.51-2,4.83-4.14,7.16-6.23,12.84-11.53,25-23.8,37-36.2,10.45-10.83,20.5-22.06,30.55-33.27,6.24-7,12.52-13.87,18.72-20.84,10.1-11.34,20.15-22.72,30.86-33.48,5.42-5.44,12.61-8.17,19.29-11.48a231.85,231.85,0,0,1,25-10.49c12.08-4.31,24.31-8.26,37-10.57,9.33-1.7,18.64-3.54,28.2-3.54,1.75,0,3.46-1,5.49-.45-1.17,1.53-2.32,3-3.43,4.51-.36.48-1.3.73-.73,1.63.45.69,1.17.57,1.85.6A58.87,58.87,0,0,0,826.6,646a14.63,14.63,0,0,1,2.39-.19c13-.5,26,.2,38.89.86,10.7.54,21.4,1.69,32.07,3.14a290.15,290.15,0,0,1,56.91,14.06c6.08,2.14,11.87,5.1,17.87,7.71-1.48,1.24-2.52,0-3.67-.35-4-1.25-7.85-3.48-12.28-2-.64.21-1.78-.27-1.79,1,0,1.09.59,1.56,1.63,1.86,13.12,3.76,25.55,9.36,38,14.69,11.54,4.92,22.65,10.79,33.67,16.8,15.42,8.4,30.78,16.94,46,25.75,20.64,12,41.72,23.17,63.33,33.3a302.31,302.31,0,0,0,57.52,20.71,3.11,3.11,0,0,1,2.36,2.58c3.22,11.74,8.73,22.68,12,34.4,2.08,7.4,2.31,7.22-5.41,7.36q-23.6.42-47.19.8c-11.53.18-23.07.88-34.6,1.36-11.95.51-23.88,1.44-35.83,2.06-9.07.47-18.13,1.31-27.19,2.05-8.71.71-17.44,1.26-26.14,2.1q-14.55,1.41-29.1,2.71c-10.82,1-21.61,2.17-32.39,3.44s-21.48,2.78-32.23,4.09c-8.31,1-16.66,1.63-24.93,2.86-9.8,1.46-19.69,2.28-29.47,4-7.55,1.32-15.23,1.87-22.84,2.89-7.81,1.05-15.58,2.34-23.39,3.38-6.16.82-12.35,1.45-18.53,2.13-8.43.93-16.85,1.9-25.29,2.71-2.94.28-5.91.49-8.84.65-19.86,1.08-39.76,1.17-59.63.61-9-.25-18-1.49-27-2.44A346,346,0,0,1,650,853.21,298.43,298.43,0,0,1,608.92,839c-12.94-5.52-25.06-12.9-38.65-16.9C567.39,821.26,564.5,820.49,561.05,819.53Z"/><path class="cls-3" d="M509.66,607.8c-6.29,7.8-12.84,14.77-19.39,21.75-10.34,11-20.81,21.92-30.94,33.12-4.77,5.29-9.65,10.55-13.76,16.41-.84,1.19-1.41,1.06-2.61.12-4.62-3.64-7-9-10.78-13.31s-7.16-8.63-12.83-10.55a14.5,14.5,0,0,0-7.77-.39c-11.18,2.46-22.1,5.7-32.47,10.81a382.57,382.57,0,0,0-37.27,21.62,6.62,6.62,0,0,1-3.06,1.32,307.28,307.28,0,0,1-33.38.6c-10-.31-20-.9-30-2.08-20.45-2.44-40.73-5.78-60.66-11.33A473.43,473.43,0,0,1,168,660.17c-8.57-3.39-16.28-8.67-23.65-14.25a165,165,0,0,1-20.08-18.42,137.79,137.79,0,0,1-16.34-20.82,120.93,120.93,0,0,1-16.66-41.61c-2.88-14.39,2.19-26.46,10.32-37.69,7.84-10.8,17.52-20,27.11-29.13,9.17-8.76,19.61-16,30.05-23.13,22-15.1,44-30.07,65.88-45.35q28.08-19.65,55.73-39.94c9.11-6.67,17.88-13.84,26.66-21,9.59-7.78,19.37-15.38,28.44-23.74,11.76-10.84,23.55-21.64,33.47-34.38,6.74-8.65,13.31-17.38,18.83-26.82,6.38-10.9,11.22-22.45,13.4-35a108.83,108.83,0,0,0,1.35-16.3c.24-10.77-3-20.74-7.2-30.34-3.61-8.13-7.73-16.09-14-22.64-.17-.18-.12-.6-.26-1.46,15.46,7.12,26.58,18.73,37.49,32.06-4.1-17-10.91-31.43-23.5-43.74,2.74.83,4,2.33,5.5,3.44,5.54,4.11,9.47,9.68,13.21,15.33,6.14,9.29,9.6,19.62,11.66,30.56a97.35,97.35,0,0,1,1.28,17.69c.06,13.63-3.17,26.58-8.12,39.17-1.8,4.59-3.25,9.38-5.56,13.7A189.41,189.41,0,0,1,402.57,303a325.47,325.47,0,0,1-25.95,33.1c-6.78,7.63-13.71,15.09-21,22.18-8.66,8.39-18,16-27.15,23.9Q313.65,395,298.11,406.8c-7,5.34-14.36,10.19-21.07,15.84-10.82,9.11-22.45,17.13-33.64,25.72-11.36,8.73-22.88,17.26-34.29,25.93s-22.9,16.91-33.71,26.18c-5.51,4.72-11.36,9.06-16.65,14a146,146,0,0,0-25.46,31.35c-1.85-2.86-1.66-6.54.73-14.32-5.51,2.46-6.8,10.12-5.89,15.84.71,4.45,1.61,8.85,2,13.38.41,5.35,2.87,10.19,5.55,14.71a103.72,103.72,0,0,0,17.13,22.29,127.54,127.54,0,0,0,37.84,25.19c11.48,5,23.24,8.8,35.89,9.86,14,1.17,27.92,2.24,41.94,2.86,11.95.53,23.91.75,35.81.3,10.5-.4,21-.14,31.52-1.18,10.17-1,20.37-1.72,30.52-2.82,11.25-1.21,22.45-2.84,33.69-4.06A394.61,394.61,0,0,0,440,621.53c8.26-1.75,16.53-3.34,24.83-4.84,10.73-2,21.43-4.06,32.13-6.15C501,609.75,505.07,608.8,509.66,607.8Z"/><path class="cls-3" d="M1733.66,716.91c-12.08-2.89-23.33-6.68-34.76-9.84a73.6,73.6,0,0,0-11-1.74c-1.63-.2-2.47,0-1.75-2.34,1-3.3,3.24-5.3,6-7.34-2-2.09-3.73-1-5.51.14-4.44,2.83-7.18,7.17-10,11.41-5.75,8.79-8.57,18.61-10.34,28.93-2.43,14.1-1.48,28.28-2.11,42.42-.44,9.69-.72,19.48-3.24,29a13.82,13.82,0,0,0,0,3.3c-1.87-.56-2.08-2.24-2.52-3.4a77,77,0,0,0-17.24-27.25c-6.85-6.87-15.24-11.8-24-16.22-7.81-4-16.53-3-24.42-5.74.86-4.78,1.73-9.6,2.6-14.42-2.86,2.78-3.48,6.54-4.92,9.88-2,4.74-1.81,4.4-6.82,4.28-6.28-.16-12.48-1-18.71-1.57-7-.64-13.89-1.75-20.83-2.66l-.35,0a42.89,42.89,0,0,1-4.82-.16c-2.38-.35-1.13-2.2-1.07-3.36a23,23,0,0,1,.89-4.62,24,24,0,0,0,1-9.77,81.56,81.56,0,0,0-6.64,13.73c-.53,1.37-.86,1.4-2.1,1.14-8.19-1.79-15.1-6.24-22.13-10.44-2.7-1.61-5.2-3.55-7.86-5.22-1.72-1.07-1.84-2-.65-3.73,4-5.7,8-11.43,11.74-17.3a33.57,33.57,0,0,0,3.51-8.29c-3.69,3.43-6.61,7.41-9.64,11.34s-6.09,7.92-10.31,10.81c-1,.69-1.3.63-2.13-.08-8.45-7.15-14.8-15.71-17.92-26.45a13.91,13.91,0,0,1-.68-2.94c-.27-4-.15-7.3,4.36-9.85a187.64,187.64,0,0,0,24.94-17.29c7.28-5.84,14.54-11.79,20.2-19.36.17-.22.11-.6.28-1.64-10.2,5.95-19,13.06-28.71,19a54.72,54.72,0,0,1,7.18-37.14,4.27,4.27,0,0,1,2.58-2c13.3-4,26.61-8,39.72-12.56.36-.12.83.11,1.7.24-4,4.8-8.06,9.16-10.8,15.17a46.38,46.38,0,0,0,15-11.5c8.75-10.52,16.85-21.66,27.37-30.5,6-5.07,13.46-8,21.36-9.42,11.07-1.94,21.33,0,31.63,4.66,19.63,8.84,37.38,20.59,54.78,33,8.89,6.35,14.33,15.46,19.63,24.57,11,19,17.8,39.64,23.92,60.56C1731.21,708.38,1732.37,712.45,1733.66,716.91Z"/><path class="cls-5" d="M401.53,184c-11.65-7.21-21.47-16.71-36.41-14.57,7.91,10.5,18.53,18.43,23.37,31.41-4.26-2.61-7.93-5-12.49-5.95-5.84-1.19-11.25.2-16.76,1.39-13.26,2.84-23.65,11.06-34.33,18.62A232.66,232.66,0,0,0,290,245c-12.1,12.84-23.89,26-34.41,40.21A473,473,0,0,0,227,329.31c0-3.65,1.42-6.31,2.06-9.12a55.26,55.26,0,0,1,3.15-8.58,150.54,150.54,0,0,1,21.1-35.55c.72-.93,2.27-1.95,1.2-3-1.22-1.24-2.87-.78-4.23.5-6.8,6.36-12.15,13.85-16.87,21.79-7.53,12.66-11.25,26.78-15.92,40.6-2.79,8.26-2.57,16.92-5.62,25-1.12,2.95.32,6.7-1.33,10a258.61,258.61,0,0,1-5.93-30.65c-2.21-15.23-1.5-30.51-1-45.71.33-10.55,3.15-21,5.42-31.38a152.23,152.23,0,0,1,12.76-37.08c5.06-9.9,10.73-19.5,18.54-27.57,4.4-4.54,10-7.42,15.5-10.38,6-3.22,12.15-6.11,18.16-9.45-6.18-.08-11.91,1.87-17.74,3.63-6.07,1.83-11.25,5.32-16.81,8.12s-10.36,6.66-15.6,9.93c9.67-13.54,22.08-24,36.43-32.1a145.52,145.52,0,0,1,38.41-15.05,135.13,135.13,0,0,1,29.65-3.91c13.16-.18,26.25.14,39.06,3.53a73.67,73.67,0,0,1,17.36,6.7c.58.33,1.43.66,1.59,1.17,2.21,6.78,7.39,11.6,11.26,17.28C398.72,179.75,399.89,181.52,401.53,184Z"/><path class="cls-3" d="M1797.52,771c2.75,5.15,8.24,6,12,9.32-8.23,6.88-15.75,14.53-26.25,18.09-2.83,1-4.86.39-7.17-1-2.15-1.28-4-3.49-7.06-2.81,1.06,1,2.1,2,3.1,2.95,3.12,3.1,3.2,3.29-1,5-7.35,3.08-15.06,5.08-22.77,7.06a77.1,77.1,0,0,0-10.52,3.47c-2.32,1-3.77.12-5.05-1.75-1.1-1.62-1.56-3.7-3.45-4.76-.64-.36-1.32-.63-1.88-.07s.23,1,.33,1.49a13.73,13.73,0,0,0,2.67,5.41c.79,1.09,1.26,2-.67,3-10.68,5.68-18.55,14.22-24.62,24.61-6.63,11.35-10.27,23.59-11.91,36.56-.51,4-1.23,8-1.5,13.32-15.68-17.63-33.45-29.75-57.67-30.55,7.36-7.81,13.72-15.21,19.89-22.78,6.63-8.13,11.71-17.11,14.29-27.26,1.19-4.67,1-9.69,1.57-14.52,1.13-8.81,0-17.69.81-26.46.69-7.36.08-14.68.59-22a130.36,130.36,0,0,1,3.74-25.08c1.07-3.94,4.37-7.27,6.61-10.91.58-.94,1-.21,1.63-.12,22.81,3.4,44.41,10.9,65.59,19.65,19.92,8.22,40,15.84,61.1,20.51,3.08.68,6.22,1.08,9.34,1.52,3.83.54,5.18,2.57,3.78,6.13a69.39,69.39,0,0,1-8,14.37c-2.16,3.1-4.77,2.83-7.64,1.61C1804.27,773.75,1801.45,771.65,1797.52,771Z"/><path class="cls-6" d="M1500.13,558.62c6.14-7.5,14.37-13.34,17.56-23.08-9.14,13.15-21.63,21.13-37,25.29A72.8,72.8,0,0,1,1435.8,559c1.6,2.56,3.85,3.6,6.18,4.52,4.14,1.64,8.31,3.22,12.4,5,.83.36,2.45.55,2.2,1.77s-1.67.88-2.69.87a38.66,38.66,0,0,1-14.75-3.06,67.2,67.2,0,0,1-16.52-9.58c-2-1.63-2.65-4.36-4.23-6.44-2.45-3.24-5.52-5.56-9.36-8.59,3.41,8.2,8,14.82,10.52,23.25a85.24,85.24,0,0,1-7.27-5.35,136.16,136.16,0,0,1-24-29.36c-9.53-15.67-17.23-32.43-27.89-47.44a3.89,3.89,0,0,1-.35-4.05c3.48-9,8.22-17.39,12.64-25.92.26-.5.54-1,.77-1.5,2.45-5.51,2.44-5.51,6.67-1.28,3.85,3.85,6.22,8.79,9.68,13,7.52,9.07,15.94,17,26.32,22.69a47,47,0,0,0,25.72,5.5c14.2-.76,28.39-1.74,42.22-5.49,14.71-4,28.44-10,40.77-19.07a3.13,3.13,0,0,0,1.31-2c1.57-5.41.41-10.43-1.69-15.43a51.18,51.18,0,0,1-4-19.36c0-1.88,1-3.49.8-5.7,2.88,2.9,3.29,6.44,4.11,9.84.92,3.78.93,7.71,2.54,11.44a8.43,8.43,0,0,0,3.37,4.25c13.37,7.81,16.91,21.55,15,35.44a112.75,112.75,0,0,1-12.73,39.36,77.6,77.6,0,0,1-21.49,25A74.81,74.81,0,0,1,1500.13,558.62Z"/><path class="cls-5" d="M1165.24,336.12a185.3,185.3,0,0,1,16.52-29.91A48.07,48.07,0,0,1,1192.7,295c1.55-1.14,2.22-.58,2.81,1a242.5,242.5,0,0,1,13.19,50c.24,1.68.67,3.34,1,5-21.2.65-49.34-1.32-77.55-21.28.59,2.79,2.72,4,4.3,5.64a51.56,51.56,0,0,1,5,5.1,47.42,47.42,0,0,1-15.27-9.2c-4.15-3.7-8.43-7.45-11-12.63-.45-.93-1.23-1.58-2.19-1.09s-.23,1.32-.15,2.08c.24,2.38,1.83,4.42,1.62,7.38-4.86-3.92-8.28-8.59-11.76-13.27a94.16,94.16,0,0,1-16.27-36.65,27.18,27.18,0,0,1-.87-6,4.61,4.61,0,0,0-2.47-4.53c-1.88,2.46-1.82,5.42-2,8.32-1.15-14.61.07-28.82,5.74-42.51a87.42,87.42,0,0,1,17.18-27.09,21.6,21.6,0,0,1,5-4.16c2.51-1.39,4.88-.3,6.7,1.65a222,222,0,0,1,15.42,19.08c7.86,10.53,14.77,21.7,22.34,32.88-4.29,1.83-8.78,1.23-13,1.79a81.63,81.63,0,0,0-38.61,15.24c5.24-2,10.42-4.14,15.72-5.91,10.45-3.48,21-6.42,32.17-6.49,5.85,0,11.15,1.06,15.12,6.18a73.86,73.86,0,0,0,9.25,9.3c2.05,1.85,1.91,2.62-.55,3.89-11.58,6-22.36,13.1-31.38,22.6a51.84,51.84,0,0,0-8.47,11.2c3.8-2.1,6-5.17,8.87-7.43,11.19-8.81,21.82-18.56,36.08-22.51,1.88-.52,3.28-.8,5.28.09a34.13,34.13,0,0,1,6.64,4c2.6,2,2.38,3.67-.09,5.62A75.63,75.63,0,0,0,1172,314,46.27,46.27,0,0,0,1165.24,336.12Z"/><path class="cls-6" d="M1399.82,416c-7.23,2.52-11.21,7.51-14.78,12.81-1.24,1.85-2.17,1.74-3.56.56a91.55,91.55,0,0,1-13.92-15c-.59-.79-.53-.93.32-1.73,3.81-3.61,8.46-6,12.83-8.7,2.7-1.69,4.6-3.93,7.14-6.07-2-.58-3.15,0-4.61.9-5.28,3.34-10.83,6.26-16.16,9.52-2.22,1.36-3.61.88-5.19-.94-4.41-5.07-9-10-13.69-15.27a89.59,89.59,0,0,1,19.48-6.29c4-.76,8-.85,11.94-2,.78-.23,2.06.35,1.87-1.23s-1.38-1.71-2.58-1.55q-6,.83-12,1.78a102.74,102.74,0,0,0-19.45,4.94c-1.24.46-2-.14-2.65-.94-1.49-1.71-3.11-3.28-4.56-5.06-1.86-2.3-3.67-4.92-7.2-5.38-2.8-.37-4.13-3.31-7.49-4.7,6.93-1,12.9-2,18-5.59,6.48-4.55,10.81-10.86,14.7-17.52,5-8.5,9.5-17.25,15.4-25.19a40.24,40.24,0,0,1,9-8.68c.69,5.56-.22,10.78-.93,16-1.32,9.52-1.91,18.84,3.85,27.38,2,3,4.9,5,7.82,6.85,7.52,4.87,14.9,9.93,23.14,13.59a165.59,165.59,0,0,0,36,11.49c6.94,1.33,13.94,2.4,20.93,3.45a4.74,4.74,0,0,1,4.18,3.44c2.24,6,.81,12,0,18-.13.92-1,.94-1.52,1.16-20.75,8.56-39.91,20.67-61.51,27.4-7.27,2.27-13.45,1.7-19.54-2.72-2.54-1.85-5.22-3.48-7.66-5.5-1.28-1.06-1.05-1.46-.4-2.65C1390.29,426.53,1395.32,421.91,1399.82,416Z"/><path class="cls-6" d="M1587,762.84c-2.76,5.86-5.21,11.49-8,16.95a118.41,118.41,0,0,0-9.79,25.92c-3,12.16-2.71,24.37,2.94,35.68,2.73,5.48,4.7,11.4,8.39,16.4,1.06,1.43,1,2.69-.52,4.12-9.74,9.23-20.69,16.26-34.19,18.24-12,1.75-21.45-2.59-29.12-12.15-8.49-10.59-12.67-22.69-14.93-35.77-.69-4-2-7.79-2.12-11.93-.37-9.21,2.89-17.13,7.61-24.71,7.27-11.66,16.7-21.73,24.24-33.19,3.26-4.94,3.3-4.72,9.3-3.44a66.9,66.9,0,0,0,13.1,1.65A323.74,323.74,0,0,1,1587,762.84Z"/><path class="cls-5" d="M1594.45,135.25c.1-5.85,1.3-10.59,2.15-15.38a200.94,200.94,0,0,1,6.08-26.39,90.4,90.4,0,0,1,15.68-29.12c1.86-2.33,4.37-1.77,6.6-1,6.18,2.17,10.43,6.66,13.57,12.23s6.1,11.39,9.23,17c1.62,2.94,2,6.24,2.88,9.36a161.08,161.08,0,0,1,5.5,23.28c-4.34-4.37-5.53-10.28-10.35-13.89,5.09,16.34,6.31,32.69,1.77,49.25-.47-7.11-.29-14.29-3.28-21.1,0,1.27,0,2.53,0,3.8s.44,2.54.45,3.68a113.15,113.15,0,0,1-.62,13.67,146.09,146.09,0,0,1-4.65,24.63c-4.6,16-11.25,31.12-21.49,44.33a36.82,36.82,0,0,1-11,9.11c-2.5,1.41-4.52.49-5.65-2.33-3-7.55-6.34-15-9.12-22.65s-4.27-15.58-2.53-23.72c1-4.77,4.25-8.09,8-11,4.8-3.63,10.37-5.42,16.07-6.93a34.18,34.18,0,0,0,9.26-4c-13.15-1.09-24,4.13-33.88,12.87-.77-4.23.75-7.77,2-11.27,2.76-7.78,9.31-12.15,15.67-16.55,7.1-4.92,15.11-8.08,23.38-11.22-9.78-.31-23.86,5.21-39.44,18.66-.89-6.09,5.58-22.51,14.2-34.36a118.35,118.35,0,0,1,27.33-26.47,5.29,5.29,0,0,0-5.18,1c-4,2.93-8.27,5.55-12.3,8.47-8.64,6.24-13.06,15.83-19,24.21C1595.61,133.88,1595.32,134.19,1594.45,135.25Z"/><path class="cls-6" d="M1831.72,870.83c0,16.52-2.16,30.83-8.82,44.27-1.47,3-4.18,4.23-6.65,5.61-9.12,5.08-18.84,5.33-28.75,2.77-4.64-1.2-9.19-2.81-13.89-3.7-2.47-.47-2.35-1.25-1.66-3.09,2.12-5.64,3.63-11.46,5.24-17.26a76.71,76.71,0,0,0,1.7-34.73c-2.34-12.58-8.54-23.38-19.62-30.81a203.06,203.06,0,0,1-18.13-14.08c-2.16-1.84-1.34-2.42.8-3.23,9-3.37,18.64-4.5,27.74-7.55,3.06-1,6.24-1.64,9.1-3.3a3.82,3.82,0,0,1,3.7,0c8.19,4.11,17,6.63,25.43,10.19,8.12,3.42,15.5,7.68,19.52,16.17,1.71,3.62,1.74,7.52,2,11.2C1830.07,853.06,1832.28,862.7,1831.72,870.83Z"/><path class="cls-3" d="M116.89,688.65A212.72,212.72,0,0,0,137.54,697a201.39,201.39,0,0,0,30,7.65,268.08,268.08,0,0,0,33.81,3.6c3.39.15,6.82.45,10.23.5,9.17.13,18.33,1.31,27.51.68,11.12-.77,22.25-.58,33.39-.67,8.83-.07,17.62,1.38,26.51.78a257.54,257.54,0,0,1-24.47,9.55c-10,3.11-20,5.78-30.24,7.93-9.58,2-19.2,3.84-28.88,5.26s-19.18,3.11-28.83,4c-7.12.66-14.18,1.84-21.32,2.25-12.8.73-24.86,3.61-35.3,11.7-8.78,6.81-17,14-20.66,24.94-.22.63-.75,1.33-.63,1.88.93,4.08-1.64,5.62-4.64,7.37a50.61,50.61,0,0,0-13.53,11.37c-2.18,2.63-4.46.84-6.48.44-1.76-.35-1.12-2.64-.92-4,1.78-11.72,4.76-23.09,10.55-33.55.65-1.18,1.44-2.29,2-3.5a2.43,2.43,0,0,1,2.63-1.54c2.87.12,5.74,0,8.82,0-.31-2.11-1.41-2.83-3.25-2.78a13.51,13.51,0,0,1-3.77-.15c-1.54-.42-2.57-1.07-1.12-3.09,7.92-11,14.41-22.74,17.58-36.11C118,705.35,118.41,694.07,116.89,688.65Z"/><path class="cls-6" d="M1573.85,819.71c-.71-10.45,2.94-18.71,6.06-27.14,3.4-9.2,7.86-18,10.52-27.48,1.19-4.25,4.68-2.54,7-2.23a67.94,67.94,0,0,1,33.15,14.33,81,81,0,0,1,24.5,30.66c4.39,9.72.24,17.84-6.13,25.21-5.39,6.25-10.29,13-15.89,19-5.81,6.23-12.21,12.27-20,16-3.91,1.86-8.46.06-12.38-1.67-6.81-3-11.71-8.24-15.48-14.51a100.76,100.76,0,0,1-11.22-26.05C1573.34,823.53,1573.85,821,1573.85,819.71Z"/><path class="cls-6" d="M1786.68,802.38c4.35-2.75,8.44-5.27,12.44-7.91,5-3.27,9.2-7.41,13.41-11.56.67-.66,1-1.91,2.72-1.17,7.78,3.34,16.23,4,24.42,5.81,7,1.5,14,3.11,20.27,6.64,8.19,4.63,11.56,12.65,14.75,21.18,6.57,17.54,7.44,35.62,6.66,53.93-.22,5.35-2.08,10.64-2.29,16-.15,3.8-1.7,7.24-1.72,11a6,6,0,0,1-1.21,3.44,26.68,26.68,0,0,1-18.42,11.88c-7.61,1.3-15,1.71-22.5-.11-1.92-.46-2-1.07-1.49-2.66A130.92,130.92,0,0,0,1839.5,877c.76-12-1.38-23.24-4.26-34.63a83.55,83.55,0,0,0-5.13-14.83c-2.19-4.71-6.35-8.08-10.61-11.06-6.59-4.62-14.42-6.49-21.7-9.56C1794.21,805.44,1790.58,804,1786.68,802.38Z"/><path class="cls-6" d="M1745.16,924.53c-10.09-.47-19.1-4.35-27.83-9-9-4.77-14.44-13.29-21.19-20.43-1.14-1.22-.8-2.64-.64-3.9,1.75-14.5,4.63-28.78,11.31-41.87,6.14-12,14.37-22.41,27.21-28.13.92-.4,1.6-1.35,2.87-.23,6.95,6.17,14.4,11.85,20.93,18.44,7.29,7.34,13.55,15.56,15.48,26.26.88,4.85-.36,9.51-.67,14.24-.29,4.48-1.33,8.91-1.78,13.38a73.77,73.77,0,0,1-6,23.62c-1.31,2.85-4.23,3.88-6.93,4.85C1753.82,923.26,1749.66,924.67,1745.16,924.53Z"/><path class="cls-6" d="M145.76,872c-18.37-.15-31.8-5-43.63-14.47-5-4-10.12-7.83-14.39-12.81-4.46-5.2-5.64-10.91-4.65-17.19a55.54,55.54,0,0,1,10.19-23.79c4.12-5.74,9.76-9.67,15.62-13.34,1.5-.93,2.86-.06,4.3.52,6.23,2.53,11.35,6.76,16.66,10.69,5.86,4.35,11.45,9,18.11,12.22a42.07,42.07,0,0,0,12.91,3.35c5.49.72,11,1.62,16.6.12,1.32-.36,2,.35,1.43,1.76A86.92,86.92,0,0,0,174,837.87c-.91,6.85-.4,13.73-.25,20.6,0,.3.38.59.45.91,1,4.93.1,6.59-4.78,8C160.65,870,151.82,872.32,145.76,872Z"/><path class="cls-6" d="M1455.52,800.38c-.6-15,3.89-28.56,11-41.52,1.69-3.08,4.87-4.26,7.34-6.31,5.34-4.46,11.07-8.45,16.59-12.69,1.75-1.34,3-2,5.35-.41,6.88,4.57,14.07,8.69,21.25,12.8a27.82,27.82,0,0,0,9,3.45c2.25.38,2.24,1.25,1.42,2.95a75.89,75.89,0,0,1-11.29,16.3c-6.14,7.1-13,13.68-18,21.66-3.13,5-5.19,10.63-4.75,17,.36,5.22.29,10.49.82,15.72.9,9,2.06,18.06,6.15,26.35.88,1.8,1,3-1.09,4-10.6,5-15.7,7.11-25.61-2.25-9.08-8.56-12.89-19.41-15.44-31.07A110,110,0,0,1,1455.52,800.38Z"/><path class="cls-7" d="M1421.74,365.2c-4.22-.39-7.44.25-10.25,2.57-1.81,1.49-3.65.44-5.26-.51-4.56-2.69-8.59-6.13-12.8-9.32-1.55-1.17-.52-2,.39-2.69,5.33-3.91,10.93-7.25,17.49-8.89,4.75-1.19,9.6-1.33,14.39-1.9s9.82.39,14.68.78a158,158,0,0,1,16.82,1.95c8.41,1.6,16.44-.4,24.38-2.32,4.6-1.11,8.88-3.63,13.24-5.66,14.35-6.68,27.28-16,41.53-22.84,5.23-2.53,8.65-.28,9.13,5.54.5,6.06-2.29,10.88-4.77,15.94-.49,1-1.11.89-1.88,1a28.91,28.91,0,0,0-11.79,4.59c-2.83,1.77-4.68,5.4-6.45,8.51-2.36,4.16-4.27,8.58-6.26,12.95a3.81,3.81,0,0,1-1.14,1.64c-9,6.15-17.13,13.53-26.92,18.46a31.57,31.57,0,0,1-26.46,1.57,60,60,0,0,1-17.85-10.4c-4.9-4.08-9.38-8.78-15.9-10.58C1424.31,365.07,1422.68,365.41,1421.74,365.2Z"/><path class="cls-6" d="M195,768.1a80.35,80.35,0,0,1-7.5,32.22,66.84,66.84,0,0,0-3.51,8c-1,3.34-3.5,4.49-6.45,4.81-8,.88-15.82.15-23.24-3.36-9.71-4.59-18.14-11.06-26.46-17.72-1.75-1.4-3.59-2.7-5.39-4-6-4.48-6.36-13.59-1.55-19.5C126.56,761.55,133,755.85,141,752c10.1-4.85,20.65-8.11,32-8.07a59.27,59.27,0,0,0,8.27-.2c6.89-1,8.78,3.58,10.66,8.2A39.54,39.54,0,0,1,195,768.1Z"/><path class="cls-6" d="M88.42,854.27a97.27,97.27,0,0,0,31.48,18.47A65.91,65.91,0,0,0,142,876.63a71.15,71.15,0,0,0,30.64-6.8c2.37-1.13,2.91-.25,3.73,1.82,3,7.56,6,15.18,10.38,22.07,1,1.55.69,2.22-.79,2.77-9.6,3.53-18.26,9-27.41,13.4-9.47,4.58-19.44,7.38-30.07,6.23-7.88-.85-15.07-4.17-21.91-7.92-6.57-3.6-12.22-8.49-17.54-13.82-4.92-4.93-7.85-11-10.56-17.12-1.58-3.56.53-7.23,2.4-10.47C83.29,862.64,85.82,858.58,88.42,854.27Z"/><path class="cls-6" d="M91,753.88a75.52,75.52,0,0,0-7.83,18.54A149,149,0,0,0,79,792.78c-.35,2.33-1.14,2.58-2.94,2.39a100.4,100.4,0,0,1-25.28-6.35,65,65,0,0,1-22.07-14.55,43.3,43.3,0,0,1-10.62-15.84c-2.56-6.88-5.47-13.75-6.16-21.14a23.38,23.38,0,0,1,4.27-15.91c4.25-6,9.54-10.72,17-12.37,1.73-.39,3.43-.07,5.13-.28,1.32-.16,1.64.44,1.92,1.66,2.5,11.06,9.2,19.51,16.81,27.54a52.58,52.58,0,0,0,23.19,14.66C83.45,753.56,87,753.44,91,753.88Z"/><path class="cls-6" d="M114.79,693.12a82.34,82.34,0,0,1-8,33.8c-3.42,7.06-7.54,13.69-11.38,20.5a3.52,3.52,0,0,1-3.12,2.15c-13.59.73-23.61-5.63-32.26-15.42a65.47,65.47,0,0,1-13.31-23.91c-2.68-8.4.24-15.39,6.38-21.38,8.72-8.5,19.68-10.85,30.72-13.15,4.74-1,9.64.59,14.08,2.62,4.67,2.14,9.13,4.77,13.78,7C115.29,687,114.94,690,114.79,693.12Z"/><path class="cls-6" d="M1904.27,827.14c0,6.13.56,12.21-.13,18.14-1,8.56-3,17-8.87,23.85-1.71,2-4.19,2.92-6.5,3.92-1.63.7-1.14-1-1-1.67,1.59-9.91-.25-19.72-.65-29.58a100.27,100.27,0,0,0-2.88-19.7,63.61,63.61,0,0,0-14.46-27.71c-5.83-6.52-13.72-9.67-22.43-11-8.54-1.34-17.22-1.84-25.6-4.11-3.9-1-3.72-1.11-1.6-4.72a52.56,52.56,0,0,0,6.79-17.75c.27-1.57.12-3.42,3.46-2.63,5.35,1.27,11,1.33,16.56,1.58,9.51.44,18.8,1.82,27.5,5.86,4.33,2,7.58,5.54,10.39,9.23,8.55,11.24,12.53,24.55,16.07,37.93C1902.48,814.79,1903.18,821.08,1904.27,827.14Z"/><path class="cls-8" d="M1500.56,190.55c-.65-8.5.77-16.94.78-25.42,0-3.47,3.06-6.41,5-9.42,4-6.28,7.67-12.81,13.09-18.08,2.06-2,4.54-3.32,6.86-4.93,4.84-3.36,8.59-.12,12,2.37,13.84,10.16,21.32,25,28.23,40.05a35.89,35.89,0,0,1,3.45,12.59c.59,11.23,5.46,21.88,4.42,33.22-.38,4,0,8.16-1.22,12.13-1,3.31-2.69,5.87-6.36,7.3a63.21,63.21,0,0,0-2-21c-3.18-12.46-8.39-23.84-18.22-32.61-1.4-1.26-3.21-1.56-4.9-2.12-2.23-.74-4.49-1.4-6.41-3.41,5.06.67,9.81,1.41,14.12,3.94.32-1.16.49-2.14-.47-3-7-6.06-14.72-8.19-23.92-5.35-8.63,2.66-15.77,7.52-22.57,13.14C1501.94,190.33,1501.63,190.93,1500.56,190.55Z"/><path class="cls-9" d="M1459.79,471.67c-3.29-12.44-10.86-20.66-21.5-26.39-1-.55-2.84-.62-2.63-2.14.1-.68,1.67-1.27,2.66-1.68,3.18-1.32,5.62-4,9.2-4.69,1.44-.29,2.58-.52,3.8.23,6.19,3.77,13,6.34,18.89,10.78,9.66,7.34,16.84,16.36,20.35,28.11.48,1.59.23,2.25-1.56,2.84-10.44,3.41-20.78,7.11-32,7.39a15.47,15.47,0,0,0-3,.66c-4.94,1.18-7.78-1.43-10.37-5.25a31.44,31.44,0,0,0-15.21-11.94c-7.4-2.75-11,.52-11.72,8.12-.08.88,0,1.78,0,3.09a53.11,53.11,0,0,1-10.54-7.75,124.14,124.14,0,0,1-23.17-27.25c-.88-1.42-1.47-3-2.45-4.38-1.14-1.57.43-1.92,1-2.76.76-1.19,1.26-.49,2.06.08,3.39,2.37,6.87,4.62,10.32,6.9,4.36,2.89,9.2,5.11,14.34,5,5.76-.1,11.64-.83,16.92-3.73,3.12-1.71,5.69-2.1,9.32.18,9.9,6.21,18.43,13.54,24.17,23.85C1458.83,471.13,1459.1,471.22,1459.79,471.67Z"/><path class="cls-6" d="M1538.25,408.72c-3.81-3.07-9-4.12-11-9.25-.4-1.08-1.89-.57-2.8-.37a3.34,3.34,0,0,0-2.2,1.38c-.36.91.8,1.43,1.49,1.91,4,2.7,7.94,5.44,12,8,1.22.76,1.47,1.18.91,2.59a15.51,15.51,0,0,1-6.49,7.44c-3,1.9-6.2.38-8.92-.22-10.62-2.35-21.36-4-32-6-.22,0-.47,0-.69,0-2-.37-4.54,1.06-6-.87-1.7-2.24-1-5.22-.61-7.69.56-3.56-.19-6.89-.65-10.27-.28-2-.3-3.35,1.88-4.38,12.78-6,24.23-14,35.07-23.05a161.7,161.7,0,0,0,26.09-27.63,32.92,32.92,0,0,1,2.74-3c2.61,3.08.81,7.42,2.91,11,.67,1.15-1.16,2.75-2.73,3.75-2.86,1.82-6.57,1.58-9.14,4-.14.14-.51,0-.63.19-.84,1-2.88,1.61-2.15,3,1,1.92,2.31-.07,3.32-.5,3.84-1.61,8-2,12.29-3.51,0,4.6,0,8.92,0,13.24,0,1.68-1.08,1.45-2.09,1.42a38.08,38.08,0,0,0-11.39,1.32c-1.32.38-2.55-.39-3.52-.89a1.67,1.67,0,0,0-2.64,1.12c-.35,1.19,1,1,1.78,1.26,3.81,1.22,7.71.51,11.56.63,4.61.15,5.31.78,4.88,5.32a28.08,28.08,0,0,1-.93,5c-1.95,6.82-3.81,7.79-12.31,5.49-2.85-.77-5.93-1.27-8.43-3.17.3,3.36,2.58,5.11,6.91,5.4,1.24.09,2.47-.19,3.72.31,5.79,2.28,6.09,3,3.47,8.64C1540.7,403.05,1539.53,405.83,1538.25,408.72Z"/><path class="cls-3" d="M1534.61,538.05c5.91,6.66,11.3,13.54,15,21.62,4.06,8.78,6.5,18.11,9.51,27.25.83,2.52,1.49,5.2,2.36,7.69a5.86,5.86,0,0,1-1.36,6.22c-4.33,4.84-8.67,9.73-15.27,11.8-8.23,2.58-16.56,4.76-24.93,6.84-1.13.28-2.33.31-2.22-1.54.42-6.88-2-13-6-19.36,3.82,1.36,6.24,4.65,10.29,3.35-2.17-2.85-4.54-5.42-6.29-8.36-5.37-9-9.4-18.42-9.07-29.22.06-2,.43-3,2.62-3.92,8-3.32,13.66-9.71,19.31-15.92C1530.57,542.3,1532.69,540.25,1534.61,538.05Z"/><path class="cls-6" d="M10,755.77c2.78,7.49,7,13.64,11.86,19.45,7.45,8.93,17,15,27.45,19.59a45.89,45.89,0,0,0,15.55,3.92c3.75.24,7.49.65,11.25.6,1.45,0,1.72.86,2.1,2.13,1.5,5.13.17,10.13-.44,15.15-.47,3.9-1.89,7.62-1.77,11.66.14,4.57-1.88,6.12-6.45,6.35-9.75.49-19.13-.62-28.11-4.77a20.64,20.64,0,0,1-8-6.34c-5.87-7.54-11.62-15.16-16.79-23.19-6-9.35-10.76-19.22-10.38-30.75A34.18,34.18,0,0,1,10,755.77Z"/><path class="cls-6" d="M1448.55,808.49c-7.73-8.48-10.69-18.09-11.82-28.74-1.2-11.23.79-22,2.79-32.88a100.11,100.11,0,0,1,14.68-36.75,44.36,44.36,0,0,1,14.26-13.29c2.28-1.41,2.14,1.18,2.15,1.65.09,7,3.51,12.92,6.5,18.89,2.53,5,6.17,9.39,10,13.55,1.29,1.41,2.36,2-.28,3.48a84.41,84.41,0,0,0-30.93,28.52,42.22,42.22,0,0,0-6.73,21.23C1448.78,792.08,1448.74,800,1448.55,808.49Z"/><path class="cls-3" d="M1275.08,431.54c13.26-11.74,28.37-20.34,44.09-28,2.43-1.17,4.94-2.15,7.37-3.32,3.66-1.76,4.34-1.25,4.55,2.93s0,8.18.43,12.32c.74,6.52,2.24,12.89,3,19.38.1.77.47,1.35-.3,2.07-5,4.71-9.27,10.07-13.82,15.18-1.75,2-3.34,2.12-5.82.89C1301.2,446.4,1287.86,439.64,1275.08,431.54Z"/><path class="cls-10" d="M1453.74,432.66c8.37-3.78,16.4-6.53,24.15-9.87s14.88-2,22.42-1.14c3.72.41,7.46.23,11.13,1.39,4.41,1.4,5.07,1.88,4.15,6.17a29.65,29.65,0,0,0,.39,14.53c.38,1.34.48,2.46-.82,2.81-6.06,1.64-6.83,7-8.42,11.75-1.19,3.51-1.86,7.19-2.83,10.77a11,11,0,0,1-3.54,5.72c-2.41,2-5.4,1.15-6.07-1.88a43.55,43.55,0,0,0-7.15-16.34c-7.14-9.92-16.64-16.87-27.81-21.64C1457.7,434.23,1456,433.59,1453.74,432.66Z"/><path class="cls-6" d="M1465.38,661.32c3.72-1.22,7.36-2.93,11.66-1.31-.87,1.27-3.06,1.94-1.88,4.25,5-1.89,8-7.52,14-7.79a22.43,22.43,0,0,0,.14,10c.7,2.7-.39,5.4-.85,8.06a4.65,4.65,0,0,1-3,3.56c-7,2.12-11.67,7.77-17.52,11.61-3,2-5.71,4.38-8.68,6.39-3.24,2.19-6.64.18-9.88-.2a103.7,103.7,0,0,1-16.53-3.4c2.48-5.86,7.29-10,11.95-14,6.47-5.64,14.14-9.33,22.23-12.19,1.21-.42,3-1.09,2.73-2.58-.17-1.07-1.83-1.37-3.12-1.32C1466.05,662.41,1465.7,661.92,1465.38,661.32Z"/><path class="cls-6" d="M1357.57,419.71c6.62,7.24,9.42,16.54,15.16,24,.69.9.23,1.36-.15,2.07-5.56,10.56-11,21.17-15.38,32.3-.7,1.77-1.58.46-2.2-.21a48,48,0,0,1-8.58-12.8c-3.76-8.19-4.25-17.27-7-25.73a2,2,0,0,1,.74-2.13Q1348.9,428.47,1357.57,419.71Z"/><path class="cls-3" d="M1556.47,361.82c0-7.78,0-7.67,7.87-10,9.54-2.84,19-5.92,28.52-8.81.72-.22,1.46-1.31,2.45-.26a2.49,2.49,0,0,1,.46,2.88c-2.64,3.86-2,8.55-3.38,12.68-1.68,4.82-2.36,10.06-6,14.12a2.27,2.27,0,0,1-2.24.94c-8.39-1.19-16.81-2.16-25.26-2.78-1.62-.12-2.66-.93-2.47-2.9S1556.47,363.78,1556.47,361.82Z"/><path class="cls-6" d="M151,920c.37-1.36,1.68-1.72,2.74-2.26,11.86-6.09,24.1-11.42,35.49-18.38,1.49-.92,1.9.18,2.47.83,5.07,5.68,10,11.43,15.12,17.1,1.08,1.22,1.66,1.82-.54,2.38-11.57,2.92-23.26,5-35.24,4.06A89.2,89.2,0,0,1,151,920Z"/><path class="cls-3" d="M1547.19,457.21c-2.18-2.82-5-3.82-7.62-5.09-4.16-2-6.56-5-6.69-9.94-.12-4.41-2.63-8.29-3.61-12.54-.46-2,.09-4.26,1.62-4.56,5.14-1,6-5.56,8.2-8.91,1.23-1.86,1.84-1.72,3.33-.53,4,3.24,8.08,6.53,12.39,9.39,2,1.3,1.77,2.57,1.36,4.28-2.08,8.84-5.46,17.26-8.45,25.8C1547.53,455.64,1547.44,456.2,1547.19,457.21Z"/><path class="cls-3" d="M1558,374.36c7.91.6,15.82,1.15,23.72,1.85,2.13.19,3.3.59,2.09,3.68a146,146,0,0,1-9.4,19.27c-1,1.78-2.08,2.48-4.36,1.47-5.41-2.4-11-4.37-16.51-6.55-2.18-.86-3.18-1.92-2.06-4.66a92.5,92.5,0,0,0,4.17-13.44C1556.05,374.3,1556.54,373.86,1558,374.36Z"/><path class="cls-6" d="M1337.4,432.77c-.46-10.37-3.58-20.21-2.81-30.33.49-6.44,0-6.36,5.93-8.39a3.78,3.78,0,0,1,4.4,1.16,34.11,34.11,0,0,1,6.62,10.1c1,2.12,1.93,4.3,3.09,6.34,2.48,4.37,2.51,4.32-1.13,7.4C1348.22,423.51,1343,428,1337.4,432.77Z"/><path class="cls-11" d="M1501.57,234.46c4.89,6.7,9.71,12.92,17.39,16.08,8.08,3.32,15.64,2.15,22.81-2.49,9-5.82,12-14.41,12.82-24.78.66-8.84-1.59-16.67-5.17-24.33-1.76-3.78-4.84-6.79-7.58-10-.58-.67-2.1-1.3-.7-2.41,1.06-.85,1.41.58,2,1,5.8,4.11,9.28,10.07,12.57,16.12a15.28,15.28,0,0,1,2,6.32c.51,11.29.58,22.59-5.79,32.65-4.81,7.58-11.11,13.52-20.06,15.65-4.33,1-8.72-.53-12.91-1.88-2.23-.73-4.29-2-6.49-2.81-7.22-2.71-10.16-8.66-12-15.5C1500.18,236.82,1500.74,235.73,1501.57,234.46Z"/><path class="cls-6" d="M40.46,834.33c5.31,1.9,9.92,3.68,14.88,4.48,6.16,1,12.31.47,18.46.56,2.2,0,3.76.23,4.65,2.66a29.41,29.41,0,0,0,3.29,5.41c2.8,4.31,1.06,8.15-4.18,8.53a35.31,35.31,0,0,1-26.71-9C47,843.54,43.15,839.91,40.46,834.33Z"/><path class="cls-3" d="M1568.94,406.35c-.12.24-.29.64-.5,1-2.66,4.95-5.38,9.87-8,14.86-.77,1.49-1.55,1.33-2.66.54-4.41-3.12-8.8-6.26-13.27-9.29a2.42,2.42,0,0,1-1-3.23c1.51-4.1,3.1-8.17,4.59-12.27.27-.73.3-1.24,1.31-.83,5.19,2.08,10.9,2.64,15.9,5.28C1566.9,403.25,1568.57,404.09,1568.94,406.35Z"/><path class="cls-6" d="M1499.87,249.69c10.61,9.78,22.19,17.43,36.67,11.58,13.28-5.36,23.84-14.26,24.22-30.71,2.51,10-.35,19-8.72,24.54a79.86,79.86,0,0,1-24.49,11.3c-5.14,1.29-10.66,3-15.7,1.61a30.37,30.37,0,0,1-12-6.21,2,2,0,0,1-.74-2.15C1500.13,256.49,1499.57,253.19,1499.87,249.69Z"/><path class="cls-3" d="M1334.88,441.79c4.1,8.32,4.47,17.56,9.46,25.66-3.67-.43-6.36-2.35-9.18-3.61-3.66-1.63-6.94-4.1-10.45-6.09-1.44-.81-.88-1.3-.15-2.23C1328,451.07,1331.32,446.55,1334.88,441.79Z"/><path class="cls-12" d="M1521.9,457.72c-.67,3.32-1.54,6.83-5,9-2.42,1.56-4.26,4-7.19,4.75-.71.17-1.33,1.3-2.09.53s0-1.4.23-2.16c1.52-4.74,2.91-9.52,4.36-14.28a2.77,2.77,0,0,1,.31-.59c.89-1.47-.64-4.7,3-4.16C1518.47,451.28,1521.88,454.83,1521.9,457.72Z"/><path class="cls-12" d="M1441.84,485.14c-5.09,2.33-9.24,1.12-13.34.9-4.26-.24-9.12-6.23-9-10.43.06-1.51,1-1.17,1.83-1.28,5.59-.71,10.06,1.63,14.09,5.16C1437.48,481.28,1439.52,483.09,1441.84,485.14Z"/><path class="cls-12" d="M1542,208.16c0,5.16-1.75,7.66-5,9.14a2.59,2.59,0,0,1-3-.42c-4.74-3.47-4.94-11.4-.44-15.59,2.54-2.37,6.34-.79,7.77,2.9A7.5,7.5,0,0,1,1542,208.16Z"/><path class="cls-9" d="M1366.92,419.81c3.92,4.66,7.76,9.39,11.79,13.95,1.67,1.9-.27,2.37-1,3.2-1.3,1.48-1.83-.39-2.16-.91-3.06-4.77-7-9-9-14.42a8.55,8.55,0,0,1-.24-1.62Z"/><path class="cls-3" d="M1603.5,341.4c-1.37,6.61-2.88,13.1-5.86,19.39-1.08-2,.07-3.69.42-5.27a28.39,28.39,0,0,0,.53-8.5C1598.29,343.46,1598.92,341,1603.5,341.4Z"/><path class="cls-13" d="M1437.14,379.61a18.18,18.18,0,0,1-10.74-3.87c-.92-.75-1.89-1.83-1.62-2.84.35-1.35,1.91-.81,3-.89a5.3,5.3,0,0,1,4.49,2C1433.94,375.89,1435.56,377.8,1437.14,379.61Z"/><path class="cls-13" d="M1418.87,373.4a6,6,0,0,1-2.63-.62c-1.49-.64-2.61-1.37-2.18-3.21s2-2.26,3.64-2.35c.73,0,1.48.48,2.25.61,1.79.3,4.07.7,3.93,2.73C1423.73,373,1421.36,373.41,1418.87,373.4Z"/><path class="cls-3" d="M82.29,806.49V802a1.67,1.67,0,0,1,1.48-1.93c.76-.1,1.7-.3,2.15.57s-.22,1.64-.72,2.31C84.43,804,83.56,805,82.29,806.49Z"/><path class="cls-13" d="M1531.74,345.9l5-4.06C1535.77,344,1534.61,345.9,1531.74,345.9Z"/><path class="cls-13" d="M1528.4,350.11c-1.25,2.12-3.49,3.45-4.68,6.26C1524,353.27,1524.49,352.63,1528.4,350.11Z"/><path class="cls-6" d="M1336.74,386.31c.87,1.34,2.57,1.22,2.48,2.5-.08,1.11-1.47,1.14-2.48,1.75Z"/><path d="M1252.92,253.56c-1.11-1-2.2-.19-3.67-.18,3.23-4.32,7.22-7.45,11.12-10.65,12.05-9.84,26.11-16.28,39.67-23.57,10.35-5.57,20.44-11.53,29-19.74a12.3,12.3,0,0,0,4.06-7.95,2.36,2.36,0,0,1,2.71-2.32c1.38,0,1.49,1.29,1.5,2.54A58.54,58.54,0,0,1,1336,205.9c-.5,2.07.71,3.87,2,5.21,8.94,9.48,15.65,20.4,21,32.18a151.17,151.17,0,0,1,11.52,36.45c1.62,9.3,3,18.61,2.82,28.09,0,2.11-.55,2.64-2.68,2.7-7,.19-13.85,1.85-20.58,3.64-10.91,2.88-22,3.55-33.15,3.21a329,329,0,0,0-36.74,1.22c-6.34.52-12.68,1.35-19.05,1.54-.58,0-1.25-.17-1.72.06-5.1,2.53-8-1.11-10.2-4.35-4.46-6.56-6.61-14.22-7.93-22-1.61-9.45,1.85-18.06,5.29-26.64C1248.41,262.55,1251,258.17,1252.92,253.56Z"/><path d="M1378.27,303c-2.57-18.31,26-50.07,52.14-58.52-11.57,6.83-22.29,14.69-31.39,24.64A106.2,106.2,0,0,0,1378.27,303Z"/><path d="M1575.73,165.24c-1.65-2.11-2.92-4-2.5-6.89C1574.61,160.55,1575.7,162.55,1575.73,165.24Z"/><path class="cls-8" d="M1315.56,240.76c4.15-1.91,7.37.5,10.77,1,1,.15,2.05,1.84,2.88.19.53-1-.86-1.71-1.56-2.24a26.32,26.32,0,0,0-20.51-5.57,47.08,47.08,0,0,0-25.66,11.74c-7.21,6.43-12.54,14.48-14.73,24.2a69.88,69.88,0,0,0,1.44,35.71,54.25,54.25,0,0,0,2,5.72c2.26,5.39,1.86,6-4.67,5.78l3.89-2.92c-4.07-1.61-7.23,1.22-10.76,1.73-3.86.55-6.18-.17-7.46-3.67-2.16-5.89-4.21-11.82-6.08-17.8a9.87,9.87,0,0,1,1.44-9.34c2.7-3.58,2.77-8.21,4.62-12.17,6.9-14.76,18.37-25.05,32-33.34a172.13,172.13,0,0,1,32.07-15.51c5.82-2.07,10-6.86,14.76-10.64,2.25-1.78,3-2.07,5,.59a198.28,198.28,0,0,1,24,39.47c5.09,11.42,9.32,23.15,10.12,35.81.1,1.48.78,2.8.76,4.35-.08,5.27,0,5.53-5.29,4.78-4.26-.61-8.09-1.66-10-8-3.88-12.46-8.31-24.72-16.46-35.22-5.2-6.69-11.27-12-20-13.47A11.57,11.57,0,0,1,1315.56,240.76Z"/><path class="cls-11" d="M1272.79,269.23c.72,8.08,1.74,16,6.5,22.54,7.17,9.79,16.46,16.22,29.38,15.22,7.65-.59,13.15-5.12,17.95-10.53,5.93-6.68,8.09-14.68,8.81-23.58.47-5.72-.72-10.82-2-16.14a23.48,23.48,0,0,1,5.9,14.6,76.56,76.56,0,0,1,0,10.71c-.27,3.79-2.61,6.9-4.12,10.26a36.57,36.57,0,0,1-13.48,15.88,30.55,30.55,0,0,1-22,4.52c-7.79-1.15-14.32-4.18-19.5-9.91-6.08-6.74-10.68-14.35-10.65-23.81C1269.6,275.6,1270.07,272.07,1272.79,269.23Z"/><path class="cls-14" d="M1343.88,276.91c4.87,8.55,7.37,17.48,2.9,26.81-2.48,5.16-7.75,6.92-13.11,7.31-2.59.19-5.1,1.34-8.36.59,5.9-4.11,9.79-9.49,12.87-15.5S1343.79,283.9,1343.88,276.91Z"/><path class="cls-12" d="M1321.3,263.59c.8,3.28-1.2,5.84-3.2,8.2-1.65,1.94-3.8,1.63-5.49-.21-4.6-5-3.84-12.26.58-16.93a2.76,2.76,0,0,1,4.42.13C1319.18,257.44,1322,259.71,1321.3,263.59Z"/><path class="cls-14" d="M1270.74,300.46a143,143,0,0,0,17.44,13.86,18.54,18.54,0,0,1-8.69,1.5c-2.83-.09-5.48-1.41-6.06-5.1A104,104,0,0,0,1270.74,300.46Z"/><path class="cls-6" d="M1346.46,312.27c8.79-1.92,15.72-7.07,24.28-6.65C1366.91,308.91,1353.38,312.76,1346.46,312.27Z"/></g></g></svg>