<svg xmlns="http://www.w3.org/2000/svg" viewBox="0 0 544.53 467.99"><defs><style>.cls-1{fill:#453541;}.cls-2{fill:#fe5711;}.cls-3{fill:#5879a1;}.cls-4{fill:#fefefe;}.cls-5{fill:#5878a1;}.cls-6{fill:#fd5711;}.cls-7{fill:#fd5611;}.cls-8{fill:#3c526d;}.cls-9{fill:#b43e0c;}.cls-10{fill:#010101;}.cls-11{fill:#1e171c;}.cls-12{fill:#20191e;}.cls-13{fill:#161d26;}.cls-14{fill:#443540;}.cls-15{fill:#1f181d;}.cls-16{fill:#3b506a;}.cls-17{fill:#5e6879;}.cls-18{fill:#21191f;}.cls-19{fill:#3c5069;}.cls-20{fill:#373d49;}.cls-21{fill:#5b595a;}.cls-22{fill:#bb400d;}.cls-23{fill:#24282f;}.cls-24{fill:#424a56;}.cls-25{fill:#6d6c6d;}.cls-26{fill:#615f60;}.cls-27{fill:#444b56;}.cls-28{fill:#543326;}.cls-29{fill:#63301b;}.cls-30{fill:#562519;}.cls-31{fill:#5e3c30;}.cls-32{fill:#6f3e2b;}.cls-33{fill:#353b44;}.cls-34{fill:#696767;}.cls-35{fill:#733820;}.cls-36{fill:#702c11;}.cls-37{fill:#29323f;}.cls-38{fill:#703f2c;}.cls-39{fill:#6c6a6b;}.cls-40{fill:#734f41;}.cls-41{fill:#6f6e6e;}.cls-42{fill:#3d536f;}.cls-43{fill:#4d5560;}.cls-44{fill:#654133;}.cls-45{fill:#2c262a;}.cls-46{fill:#55759d;}.cls-47{fill:#4d555f;}.cls-48{fill:#a94a22;}.cls-49{fill:#8b8a8b;}.cls-50{fill:#31353b;}.cls-51{fill:#614439;}.cls-52{fill:#474546;}.cls-53{fill:#2e343e;}.cls-54{fill:#29313c;}.cls-55{fill:#804f3d;}.cls-56{fill:#624337;}.cls-57{fill:#474e58;}.cls-58{fill:#6e6d6e;}.cls-59{fill:#6a4334;}.cls-60{fill:#51403a;}.cls-61{fill:#56595e;}.cls-62{fill:#4b535e;}.cls-63{fill:#717071;}.cls-64{fill:#63473d;}.cls-65{fill:#67483d;}.cls-66{fill:#764837;}.cls-67{fill:#7b4e3d;}.cls-68{fill:#232223;}.cls-69{fill:#63453a;}.cls-70{fill:#656465;}.cls-71{fill:#6d493b;}.cls-72{fill:#737273;}.cls-73{fill:#767475;}.cls-74{fill:#211a1e;}.cls-75{fill:#62473e;}.cls-76{fill:#5e392b;}.cls-77{fill:#6f4d40;}.cls-78{fill:#7a5648;}.cls-79{fill:#46474d;}.cls-80{fill:#4d545e;}.cls-81{fill:#6c4637;}.cls-82{fill:#6b4f44;}.cls-83{fill:#885b49;}.cls-84{fill:#804a35;}.cls-85{fill:#484f5a;}.cls-86{fill:#5c3c2f;}.cls-87{fill:#5c4136;}.cls-88{fill:#674538;}.cls-89{fill:#472e24;}.cls-90{fill:#503931;}.cls-91{fill:#4b515b;}.cls-92{fill:#6b4e42;}.cls-93{fill:#67483e;}.cls-94{fill:#3a4049;}.cls-95{fill:#fdfdfd;}.cls-96{fill:#c0bfc0;}.cls-97{fill:#8f2c21;}.cls-98{fill:#744711;}.cls-99{fill:#621d12;}.cls-100{fill:#602f25;}.cls-101{fill:#472e28;}.cls-102{fill:#512013;}.cls-103{fill:#5b2416;}.cls-104{fill:#544a29;}.cls-105{fill:#2c2f36;}.cls-106{fill:#2f2e32;}.cls-107{fill:#3b516d;}.cls-108{fill:#433540;}.cls-109{fill:#212c3b;}.cls-110{fill:#405875;}.cls-111{fill:#d2d2d2;}.cls-112{fill:#32353b;}.cls-113{fill:#6e6c6d;}.cls-114{fill:#312f30;}.cls-115{fill:#171e27;}.cls-116{fill:#fbfbfb;}.cls-117{fill:#5f697a;}.cls-118{fill:#8a98b2;}.cls-119{fill:#5d6575;}.cls-120{fill:#b83f0c;}.cls-121{fill:#b63e0d;}.cls-122{fill:#742c0f;}.cls-123{fill:#742d11;}.cls-124{fill:#c2430e;}.cls-125{fill:#bfbebe;}.cls-126{fill:#414854;}.cls-127{fill:#532115;}.cls-128{fill:#542014;}.cls-129{fill:#4a1d13;}.cls-130{fill:#5a240f;}.cls-131{fill:#fef103;}.cls-132{fill:#57779f;}.cls-133{fill:#3b516c;}.cls-134{fill:#8b99b3;}.cls-135{fill:#dbdada;}.cls-136{fill:#443541;}.cls-137{fill:#443440;}.cls-138{fill:#d3d3d3;}.cls-139{fill:#cdcccc;}.cls-140{fill:#f6f6f6;}.cls-141{fill:#f3f3f2;}.cls-142{fill:#3c4f67;}.cls-143{fill:#ccc;}.cls-144{fill:#d1d1d1;}.cls-145{fill:#383638;}.cls-146{fill:#221a20;}.cls-147{fill:#c3c2c3;}.cls-148{fill:#d3d2d2;}.cls-149{fill:#4b494b;}.cls-150{fill:#d1d0d0;}.cls-151{fill:#fefdfd;}.cls-152{fill:#5f4033;}.cls-153{fill:#3d516a;}.cls-154{fill:#f5f5f5;}.cls-155{fill:#6f6d6e;}.cls-156{fill:#cd3f30;}.cls-157{fill:#cd0000;}.cls-158{fill:#cd7169;}.cls-159{fill:#cb7168;}.cls-160{fill:#f7f7f7;}.cls-161{fill:#e2e2e2;}.cls-162{fill:#59433c;}.cls-163{fill:#f95511;}.cls-164{fill:#4e3f3a;}.cls-165{fill:#433f09;}.cls-166{fill:#42333e;}.cls-167{fill:#a3a2a2;}</style></defs><title>Asset 2</title><g id="Layer_2" data-name="Layer 2"><g id="Layer_1-2" data-name="Layer 1"><path class="cls-1" d="M10.91,49.52c-.12-7.35-.11-7.4,7.78-5.82C42.28,48.44,63,59.36,82.27,73.38c11,8,21.86,16.2,31.62,25.73,6.13,5.29,11.82,11,17.5,16.81,1.87,1.9,3.84,3.82,2.47,6.91a9,9,0,0,1-3.38,2c-20.29,8.11-35.4,22.39-47.81,39.93-2.39,3.37-4.47,7-7.49,9.89a2.91,2.91,0,0,1-1.4.25c-6.36-3-10.53-8.59-15-13.58-9.11-10.12-18.12-20.42-25-32.24-1.23-2.13-4,.08-4-2.61,1.7-2.34-.65-3.71-1.51-5.19-8.52-14.64-14.59-30.14-17-47-.23-1.62-.22-3.29-.32-4.93A123.82,123.82,0,0,0,10.91,49.52Z"/><path class="cls-2" d="M426.34,19.42l3.15-2c8.82-3.75,17.52-7.78,26.63-10.8,15.07-5,30.26-8.35,46.13-4,13.38,7.67,22.47,19.32,29.69,32.56,3.93,7.21,7.71,14.58,9.32,22.79-1.78,1.77-4.27,1.71-6.43,2.49-9.89,3-20.12,4.44-30.21,6.5-10,2.24-20.2,3.46-30.21,5.72-3.88.87-7.71,1.9-11.52,3a28.22,28.22,0,0,0-5.76,1.7c-14.31,5.93-26.64,15-38.86,24.28-10.61,6.65-21.58,12.46-34.12,14.6a47,47,0,0,1-14.88.11,7.81,7.81,0,0,1-5.78-3.27,9.61,9.61,0,0,1,5.14-2.1c-6.26,1.26-11.18,5.32-16,7.41,2.39-1.92,4.09.49,5.8,2.63,4.14,5.18,7.86,10.74,13.37,14.67,1.89,1.5,3.54,3.28,5.65,4.52,10.28,7.87,22.05,12.78,34,17.42,7,2.71,14.19,4.64,21.24,7.14a186.05,186.05,0,0,0,46.56,7.41,31.76,31.76,0,0,1,6.36,1.21,4.61,4.61,0,0,1,2.46,7.15c-3.18,1-5.94-.62-8.81-1.5-6.73-.48-13.1-3-19.83-3.56-1.61-.15-3.25-.37-4.89-.47a114.09,114.09,0,0,0-23.11-2c-3.68-1.23-7.8-.52-11.32-2.5L409.84,164c-2.47-2.84-6-4-9.27-5.3-5.07-2-9.77-4.68-14.86-6.57a201.19,201.19,0,0,0-22.23-9.58c-1.43-.57-2.93-.92-4.4-1.37-10.23-4.07-21.2-3.95-31.84-5.73a2.4,2.4,0,0,1-2.41-1.43c-1.65-3.93.13-6.61,3.19-8.84,4.5-3,9.31-5.58,13.84-8.58,12.3-6.27,24.49-12.8,37.24-18.11,7-2.9,14.16-5.31,23-4.79-2.62.16-2.87-.83-3-2,.75-4,1.93-7.66,6.06-9.47a361.72,361.72,0,0,1,75.13-32c6.21-1.86,12.44-3.63,18.74-5.19,7.94-2,9.69-7.71,4.43-14.37a21.16,21.16,0,0,0-9.54-7c-9.54-3.42-19.38-3.18-29-1.55C448.39,25,432,28.71,416.58,35.73a166.81,166.81,0,0,0-19.42,10.18c-3.23.45-3.24-1.43-2.49-3.62,1.18-3.39,3.6-5.88,6.37-8,3-2.29,5.64-5.07,9.15-6.65C415.86,25.47,420.69,21.63,426.34,19.42Z"/><path class="cls-3" d="M324.65,339.53c-.5,1.27-1.18,2.59-2.73,2.27-1-.21-1.08-1.53-1.21-2.52-.23-1.61-.47-3.23-.7-4.84,1.21-2.92-1.7-5.05-1.5-7.77a13.5,13.5,0,0,0-.67-3.66c-.26-2.83-1.56-5.53-1.08-8.45.1-4.66-.66-9.26-1-13.89-2.17-28.26,6.84-52.22,27.28-71.85,3.34-3.21,6.11-7.06,10.3-9.34,2.23-2.35,3.69-.42,5.25,1,4.11,7.6,9.5,14.37,13.78,21.9,6.1,10.73,8.93,22.47,12.23,34.1a15.55,15.55,0,0,1-.19,9.81c-.58.88-1.66,1.73-2.42,1.48-3.67-1.22-5.08,1.44-7.25,3.43a21.79,21.79,0,0,1-11,5.28c-3,.55-6,.5-7.08-2.58,1.18,1.46,1.45,3.29-.52,5.08-3.88,1.13-7.32,5.59-11.93,1.55-.36-.32,0,.39-.16.6-3,4.54-4.67,5.14-9.74,3.52-1.18-1.77-1.2-3.82-1.43-5.82-.73-11,3.58-20.69,8-30.32-4.92,10.59-9.7,21.22-7.57,33.45.11,2.73,2.06,5,1.92,7.81.87,8.11,4,16,2.92,24.31a7.92,7.92,0,0,1-3.09,5.73c-2.26,1.86-4.26,6.18-6.57,5.33-3-1.11-.65-5.28-.77-8.08-.28-6.76.57-13.55-.13-20.09C327.84,324.47,329.07,332.34,324.65,339.53Z"/><path class="cls-4" d="M423.36,218.45l1.42-1.42c3.23-3,5.74-7,10.84-7.17,4.86,2.68,7,7.69,10.26,11.81,8.16,13.34,15.54,27,18.69,42.57a88.3,88.3,0,0,1,1.62,20.27,30.36,30.36,0,0,1-1.41,8.67c-.58,1.33-.84,2.94-2.62,3.33-4.39-7.32-3.48-16.36-7.65-22.79,1.21,4.16,4.14,8.73,4.14,14.2,0,11.07-1.46,21.77-7.13,31.54-1.88,3.25-4.75,5.55-7.47,8-.78.7-2,1.59-3.15.8s-.71-2.16-.08-3.12c1.81-2.74,1.75-6,2.83-9,1-2.17.7-4.59,1.28-6.84,3.8-12.47.07-24.09-4.09-35.64-1-2.79-2.35-5.46-3.13-8.33a43,43,0,0,0-8.92-19.62c-3.68-4.46-6.67-9.44-10.06-14.13a7.76,7.76,0,0,1-1.83-5C417.83,222.86,421.06,221,423.36,218.45Z"/><path class="cls-5" d="M170.82,121.54c2.47,2.88,5.28,5.5,7.06,8.93a76.62,76.62,0,0,0,8,9.05l1.67,2c4.09,7.67,10.12,14,14.95,21.13a109.36,109.36,0,0,0,7.36,9.83l0,0c1.39,2.38,3.28,4.43,4.46,6.94,9.42,12.63,18.1,25.78,26.75,38.94,4.07,6.27,8.67,12.19,12.18,18.82,3.34,4.69,6.39,9.58,9.63,14.34l0,0c2.51,3.5,4.43,7.38,6.94,10.9.82,1.14,2.71,2.84.73,4.29-1.66,1.21-3.11-.42-4.3-1.54-4.49-4.23-8.15-9.21-12.32-13.73-7.14-7.74-12.24-17-18.73-25.19-8-10.12-15.81-20.51-24.8-29.88a347.35,347.35,0,0,1-26.16-31.4,171,171,0,0,0-14.53-17.1c-7.59-7.7-14.23-16.3-22.42-23.42a3.17,3.17,0,0,1-1-1.69c.08-2.61,2.08-3.79,3.82-5.16,4.13-2.3,7.74-5.72,12.83-6l1.69,1.95C165.63,117,168.85,118.77,170.82,121.54Z"/><path class="cls-1" d="M54.66,191.55C34.45,171.7,16.21,150.31,2.4,125.41c-1.13-2-3.12-4.86-2.13-6.31C1.68,117,5,117.36,7.7,117.6c6.19.58,12.07,2,17.15,5.85,2.69,8.23,8.45,14.58,13.57,21.2a265.7,265.7,0,0,0,25.35,28.62c1.87,1.81,3.29,3.76,2.48,6.57-3.64,3.81-6.82,8-10.28,12A1.47,1.47,0,0,1,54.66,191.55Z"/><path d="M309.93,86.61c-1.09,1.88-2.1,3.5-3.16-.07-2.9-9.72-1.69-19,3-27.88.76-1.45,1.62-2.85,2.59-4.55l-4.11-.83a7.6,7.6,0,0,1,1-1.13,17.16,17.16,0,0,0,4.65-4.42c6.25-8.8,15-11.65,25.29-10.1,5.87.89,11.64,2.48,17.45,3.75A4.07,4.07,0,0,1,359,41c10.18,2.6,19.93,7,30.61,7.57a7.3,7.3,0,0,1,3.57,1.87c1.45,3.47-.39,4.82-3.47,5.46-4.49.94-9.13,1.4-13.18,3.84a13.07,13.07,0,0,1-3.65,1.4,5.61,5.61,0,0,1-1.53.1c-9.9-2.19-19.68-4.88-29.65-6.83a8.23,8.23,0,0,0-8.06,2.45c-8,7.66-14.33,16.6-20,26C312.69,84.53,311.87,86.08,309.93,86.61Z"/><path class="cls-6" d="M272.33,446.45l6.93-6a40.52,40.52,0,0,0,9.48-7.35c5.66-5.41,5.75-5.41,12.55-.84.07.05.25.43.27.12.29-4.69,4.41-1.9,6.37-3.29,5.3-.12,10.16-1.93,15-3.83a50.66,50.66,0,0,1-15.83,4c-3.54.19-7.14,1.9-10.58-.58-.61-.44-1.64-.14-2.39.27-5.6,3-11.58,1.63-17.44,1.46-1.3,0-3-.13-3.23-1.73-.29-1.87,1.35-2.26,2.81-2.81,6.33-2.4,13.21-2.89,19.39-5.74,5.47-3.9,11.12-5,17.66-2.36,3.91,1.61,8.27,2.08,12.62,2.34,4.15.24,6-1.69,7.3-5.17,2.32-6.42,3.11-13.08,3.48-19.83l-.09-.23a2.44,2.44,0,0,1,.77-2.82c1.52-1.08,3-2.35,5.07-1.54,4.34,3.22,4,7.55,2.86,12.08-1.37,5.58-4.1,10.79-4.47,16.64-.06,1.93-.86,3.7-.77,6,.27-7.3,3.87-2.86,6.5-2.21,1.23,2.16-.65,3-1.85,3.88-6.88,5.11-14.54,9.08-21.3,14.4a8.12,8.12,0,0,1-6.53,1.72,7.58,7.58,0,0,1-3.06-2.4c-1.67-1.95-1.74-3.42,1.14-4.2a45.09,45.09,0,0,0,8.53-3.77c1.55-.83,2.66-2.33,4.37-2.91-1.88.59-3,2.24-4.71,3.15-4.95,2.22-9.83,4.56-15.36,5.19-3.91.45-6,3.89-8.69,6.22-6.57,2.64-12.92,5.85-19.82,7.63a28,28,0,0,1-4.85,1c-2.22.16-4.76-.09-5.5-2.38S270.59,447.34,272.33,446.45Z"/><path class="cls-7" d="M408.23,411.48a12.4,12.4,0,0,0-3.41-4.45c-.78-2.53-3.08-3.82-4.63-5.72-.67-.82-2.14-1.53-1.13-2.84a3.24,3.24,0,0,1,3.13-1c6.69.68,13.43,6.19,15.21,12.6.34,1.22.63,2.45,1,3.66.21.64.7-.47.19,0-.12.11-.25,0-.32-.35-1-5.36-3.25-10.35-4.63-15.61-.82-3.09-1.06-5.75,1-8.35,3.2-.36,3.59,2.42,4.67,4.3,2.56,4.48,3,9.89,6,14.19a5.69,5.69,0,0,1,1,2.25c1.61,8.61,4.11,16.65,12.93,20.76,1.92,5.51,7.16,6.95,11.56,9.4,1.91,1.07,4.65.86,5.22,3.89.2,1,.7-.15,1-.27,7.08-2.43,17.85,3.44,19.14,10.48-4.56,4.71-13.81,4.9-19.32.41-3.3-3.28-6.78-5.48-11.95-4.63-3.86.63-6.62-2.62-9.53-4.75-1.15-.85-1.74-2.39-3.09-2.81a37.89,37.89,0,0,0,9.27,7c2.28,1.13,1.11,2.25.4,3,3.87-3.54,7.75-3.67,12.26-.25,4.07,3.07,5.86,7.64,7.65,12,1.26,3.15-1.75,2.5-3.29,2.33a40.35,40.35,0,0,1-20-8.26c-4-3-7.86-6.1-10.7-10.28-.36-.42-.71-.84-1.07-1.25-1.59-4.89-3.71-9.6-5-14.58l0,0c-1.28-2.8-1.83-6-4.53-8L413.81,419C412.28,416.28,410.82,413.46,408.23,411.48Z"/><path class="cls-1" d="M114.76,99.32c-3.41-8.6-8-16.74-10.18-25.84a37.3,37.3,0,0,1-1.21-9.07c22.72,8.68,39.23,24.63,54.65,42a5.28,5.28,0,0,1-1.93,1.91c-4.76,2.72-9.68,5.17-14.07,8.51a3.82,3.82,0,0,1-1.39.16c-3.76-.78-6.63-3.2-9.11-5.79-4.1-4.28-9.42-6.77-13.93-10.38-1.14-.92-2.23.31-3-.69a.56.56,0,0,1-.07-.4A1.91,1.91,0,0,1,114.76,99.32Z"/><path class="cls-8" d="M146.65,122.37a306.68,306.68,0,0,1,33,35.17c13.31,16.32,26.74,32.51,40.66,48.33a251.14,251.14,0,0,1,23.58,30.67c6.53,10.25,15.16,18.84,23.31,27.79.74.81,1.43,1.91,3.24,1.7-1.45-5.52-6.37-9.17-7.6-14.62,3.78,3.09,5.57,7.6,8.08,11.57,8.3,13.13,16.4,26.38,24.58,39.59.06,1.77,1.12,3.05,2.1,4.4.58.81,1.19,1.84-.08,2.51-1.05.55-1.95-.26-2.57-1-2.67-3.19-5.07-6.6-7.71-9.81-1.16-1.42-2.31-2.84-3.55-4.19a10.1,10.1,0,0,1-.84-1.11,203.61,203.61,0,0,0-13.13-16.86,9.79,9.79,0,0,1-.83-1.09c-3.35-4.43-6.08-9.4-10.91-12.54-5.35-4.35-8.64-10.26-12.13-16-6.74-10.1-14.93-19.06-22.46-28.53C211.12,202.87,198.1,188,185,173.24c-9.24-10.42-18.38-21-28.3-30.8a154.93,154.93,0,0,1-14.19-16,2.78,2.78,0,0,1,.11-1.43C143.58,123.59,144.56,122.14,146.65,122.37Z"/><path class="cls-5" d="M362.11,203.36c-.19-4.38-.33-8.77-2.09-12.9-1.22-7.22-4.66-13.72-6.86-20.63a141,141,0,0,0-8.46-20.72c-.59-1.15-1.66-2.49-.64-3.67,1.27-1.47,3.11-1,4.63-.29,4.9,2.41,10.19,4.12,14.47,7.72,4.78,7.4,8.07,15.51,11.21,23.69,4.33,10.57,4.49,21.62,3.81,32.76-.27,5.53-.61,11.05-3.55,16-.41.29-1,.7-1.35.45-4.54-3.16-10-5.18-13.14-10.12a97.69,97.69,0,0,1,3.73-14.39c2.6.95,2.06,3.57,3.23,4.38a55.74,55.74,0,0,0-3.24-6.77C363.54,200.24,364.19,202.32,362.11,203.36Z"/><path class="cls-9" d="M487.73,180.45l0-4.79c2.5-2.42,5-.64,7.35.17,5.5,1.89,10.32,5.14,15.19,8.24,2,1.54,4.46,2.58,6.41,4.29-1.84-1.77-4.25-2.71-6.29-4.2-3.61-1.49-5-4.08-4.95-8.08,0-6.63-3-12.32-6.6-17.7-3.95-5.66-9.69-9-15.75-11.76a162.05,162.05,0,0,0-34.53-10.94c-10.93-2.21-20.6-6.32-26.9-16.16a9,9,0,0,1-.87-1.25c-1.24-2.69-3.19-5-4.12-7.88s-.28-4.9,3.14-5.1c9.77-.55,18-4.86,25.88-10.25,3.73-2.79,7.73-5.21,11.49-8a10.69,10.69,0,0,1,1.23-.79c9.68-5.83,19.39-11.61,29.86-16a26.62,26.62,0,0,1,9.08-2.4c1,0,2.24-.22,2.52.95S499,70.55,498.1,71c-3.12,1.53-6.11,3.35-9.46,4.38l-6.28,3.12a47.4,47.4,0,0,0-15.46,7.16l0-.07c-2.91,1.53-5.88,3-8.11,5.47-8.19,4.24-15.14,10.48-23.47,14.48-4.54,1.34-8.81,3.6-14.13,3.6,3.24,8.61,9.94,13.12,16.6,17.67l7.79,3.67c2.94,1.53,6.37,1.71,9.26,3.39,2.86.4,5.53,1.83,8.52,1.51,3.45,1.24,7.15,1.75,10.46,3.45l10.49,3.52c7.13,2.58,13.93,5.66,18.6,12l-.07,0c2.15,2.7,3.71,5.87,6.46,8.1,5,6.7,8.37,14.33,12.48,21.53.83,3.38,2.72,6.3,4.08,9.45v-.06c.57,3.23-1.3,2.13-2.73,1.45-4.88-2.32-9.58-5.1-14.93-6.34l-4.47-1.44c-3.61-2.16-7.72-2.9-11.65-4.17C490.9,181.65,488.57,182.38,487.73,180.45Z"/><path class="cls-10" d="M375.8,59.23c3.63-3.92,8.81-3.55,13.39-4.49,3-.61,4-1.65,3.57-4.43-1.08-7.78-5.9-11.67-15.37-12.46-2.6-.22-5.27.33-7.82-.65-.72-.44-1.22-1-.94-1.92,1.63-6.91,5.17-8.27,11.86-8.52,4.95-.18,11.33-.2,14.28-6.29.69-1.44,2-.89,3.06-.92,5.4-.11,8.77,3.35,12,7,.51.5,1.41.79,1,1.8-5.38,4.12-11.3,7.69-14.79,13.79-.58,1-2.88,2.92.64,3.38a1.7,1.7,0,0,1,.5,1.12c4.15,3.28,4.15,3.28-1.52,9.53a5.31,5.31,0,0,1-1.36.7c-4.46,2.2-9.3,2.92-14.13,3.6C378.61,60.67,376.92,60.9,375.8,59.23Z"/><path class="cls-11" d="M65.86,179.51c-.12-2.41-1.55-4-3.18-5.65C49,160.1,36.39,145.42,25.9,129c-1-1.61-3.37-3.23-1-5.57l4.95,3.07c3.69-.66,4.76,2.22,6.4,4.56,11.07,15.76,23.15,30.66,37.64,43.46.89,3.84-2.91,3.07-4.45,4.53C68.25,179.51,67.13,180.1,65.86,179.51Z"/><path class="cls-12" d="M329.05,125.69c-2.11,2.43-5.49,4.21-4.22,8.35-1.59-3.71-3.65-3.71-6.23-.89-1.56,1.72-3.56,3.08-4.91,4.94-7.16,9.8-17.69,13.58-28.77,16.47-1.08-1.7-1.19-1.83.8-3.41a144.7,144.7,0,0,0,14.29-13c1.61-1.67,3.31-3.26,3.76-5.69,8.05-7,10.21-16.06,9.49-26.23-.18-2.58-.65-5.22.35-7.77,1.83-.58,2.29.68,2.71,2-.07,3.46-.56,6.93.21,10.37A48.3,48.3,0,0,0,321,122.18c1.62,3.08,3.62,4.38,6.94,2.74A1.65,1.65,0,0,1,329.05,125.69Z"/><path class="cls-13" d="M283.72,293.5c5.62,4.06,8.45,10.53,13.42,15.63.62-2.69-3.3-4-1.61-6.56a22.67,22.67,0,0,1,2.24,3.28c1.92,4.22,4.8,7,9.66,7.38.89.06,2.08-.05,2.49,1.2-1.8,1.64-1.84,1.75-5.14.8-2.33-.67-4.23-1-4.69,2.18a1.85,1.85,0,0,1-1.27.47,36.75,36.75,0,0,0-6.12-1.61c-18.37-3.23-35.43-10.35-52.15-18.16-17.78-8.31-35.47-16.94-51.94-27.68-20.35-13.28-39.65-28-58.91-42.83q-24.13-18.54-46.4-39.33a20.44,20.44,0,0,1-3.15-3.68c-.61-1.08-1-2.16.76-2.59,5.9,2.39,9.49,7.67,14,11.66,23.16,20.33,47.62,39,72.43,57.18a414.68,414.68,0,0,0,66.72,39.85c17.41,8.34,35.09,16.1,54,20.57,2.22.53,4.41,1.4,7.24.74-3.26-4.64-6.73-8.82-9.83-13.25C284.43,297.22,282.46,295.87,283.72,293.5Z"/><path class="cls-10" d="M315.82,100.44a3.37,3.37,0,0,0-2.21-2c-.27-1.31-.54-2.61-.82-3.91-1-1.16-.46-2.26.11-3.37,2.3-3,5.79-4.64,8.42-7.28,2.42-1.28,4-4.16,7.26-3.84a4.14,4.14,0,0,1,1.18.81,41.92,41.92,0,0,1,5.48,5.82c3.86,6.26,4.23,12.62.61,19.12-2.21,3.84-6.36,2.44-9.59,3.53a6.91,6.91,0,0,1-1.38.5,2.26,2.26,0,0,1-1.86-.91c-1.25-1.78-3.15-2.81-4.78-4.16C316.93,103.64,315.19,102.68,315.82,100.44Z"/><path class="cls-14" d="M303.77,132.42c1.63,2.26.07,3.59-1.39,5-5.4,5.38-10.64,10.93-17,15.25-.69.47-1.47,1-.46,1.86a43.23,43.23,0,0,1-20.41,2.77c-1.26-.12-2.9-.28-3.38-1.6-.54-1.49,1-2.3,1.93-3.16,5.79-5.48,12.8-8.75,20.32-11.07l6.83-2.09c-1.42-1.53-3.64-1.12-4.69-3.48C292,135.93,298.2,135.59,303.77,132.42Z"/><path class="cls-15" d="M334.75,339.48q1.13-2.4,2.27-4.8c3.78-7.23-.54-13.79-1.84-20.56a19.87,19.87,0,0,0-1.32-4.7c-.38-2.61-.75-5.21-1.12-7.82-.2-1.16-1.44-2.63.91-3,.3,2.05,0,4.21,1.12,6.12a2.18,2.18,0,0,1,1.66,1.92c.59,2.68,2.47,2.72,4.57,2.18,1.92-.49,3.55-1.71,5.47-2.24,3-.48,4.66,0,4.38,3.8-.31,4.18,2,8,2.78,12.05,1.37,6.83,3.13,13.6,2.32,21.46A9.1,9.1,0,0,0,359,339.6c3.3-10,6-20,2.18-30.54-.79-2.18-2.47-3.43-3.65-5.19a3.9,3.9,0,0,1,2.29-3,5,5,0,0,1,4.49.17,17,17,0,0,0,1.24,8.05c1.59,4.18,3.41,8.47,2.26,13.19,1.48,9.11-1.17,17.36-5.31,25.29a3.34,3.34,0,0,1-.7,1.33,38.68,38.68,0,0,1-5,3.25c-2,1.12-4.17,1.87-4.87-1.54-.08-.4.25-1.3-.26-1.15-5.1,1.48-7.17-3.29-10.69-5a10.34,10.34,0,0,1-1.09-1c-.5-2.07-2.53-2.6-3.88-3.81A.81.81,0,0,1,334.75,339.48Z"/><path class="cls-16" d="M444.64,221.66l-8.81-11.16c.28-2.59,1.95-1.23,3.18-1.11a20.2,20.2,0,0,1,8.58,7.13c1.39,3.38,4.23,5.73,6.22,8.68a135.62,135.62,0,0,1,9.55,16.8c.7,1.46.68,3.54,2.7,4.21a80.94,80.94,0,0,1,7.67,33.23.88.88,0,0,1-1.19.05c-.85-1-1-2.52-2.18-3.29-4.69-.14-5.14-3.3-5.62-7.05C462.47,251.48,454.62,236.1,444.64,221.66Z"/><path class="cls-17" d="M321.9,84.57l-8.16,6.76c-1.55.37-1.26-.81-1.42-1.65-.07-.39.17-.8-.09-1.17a1.08,1.08,0,0,1-.59,1.13l-1.71-3A223,223,0,0,1,324.21,65.3c10.65-13.74,11.19-14.06,27.85-9.92,6.58,1.64,13.38,2.49,19.71,5.14.94.6,1.87,1.19.75,2.42-2.89,1.44-5.84.8-8.75.12-5.17-1.22-10.28-2.71-15.49-3.76-9.55-1.93-13.35-.12-17.66,8.55C327.82,73.48,324.77,79,321.9,84.57Z"/><path class="cls-18" d="M472.73,279.35l1,.09c1.37,18.48-5.38,33.17-18.89,40.14,2.77-7.19,7.2-13.41,6.93-21.07.44-1.79,2.06-3.15,1.9-5.17q.6-4.44,1.22-8.86c1.06-1.41-.46-3.77,1.75-4.76C468.64,279.16,470.65,278.67,472.73,279.35Z"/><path class="cls-19" d="M362.72,153.57a143.68,143.68,0,0,0-19.08-9.08,267.7,267.7,0,0,1,10.23,25c2,5.8,4.12,11.56,6.21,17.32.44,1.23,1.28,2.44-.06,3.62-3.46-9.25-7-18.5-10.37-27.77a93.55,93.55,0,0,0-8.76-18.2c.29-2.05-1.64-2.7-2.54-4-.61-.89-2.08-1.48-1.42-2.87s1.95-1.12,3.09-1.1c6.22.08,12.09,1.91,18,3.67C362.12,142.11,364.07,147.63,362.72,153.57Z"/><path class="cls-20" d="M80.88,182.42c-.94,2.8,2.62,3,2.94,5-1.52,2.83-3.48,1.39-5.35.53-1.37-.62-2.28-2.54-4.24-1.44a9.63,9.63,0,0,0-.79.6c-9.42,8.47-9.42,8.47-1.15,17.7a6.74,6.74,0,0,1,1.83,2.86,1,1,0,0,1-.64,1.1c-6.9-5.06-12.85-11.18-18.82-17.25l1.36-.13c5,3.87,7.82.89,10.6-3.09,1.51-2.17,3.8-3.66,5.83-5.36,2.29-1.35,4.8-2.39,6.53-4.55,8-10.58,15.41-21.65,24.78-31.2,8.65-8.82,18.47-15.71,30-20,2.87-1,3.75-2.24,2.13-4.89-.11-1.26,0-2.44,1.3-3.1,2.5,1,3.75,3.46,5.8,5a1,1,0,0,1-.21,1.27l0,0c-.92.68-.47,2.15-1.58,2.72-9.84,4.1-19.56,8.37-27.86,15.3-8,6.66-14.32,14.8-20.73,22.86C88.55,171.57,84.68,177,80.88,182.42Z"/><path class="cls-21" d="M422.55,330c-3.76.52-5.66,4-8.83,5.5a7.9,7.9,0,0,1-2.89,3.07,52.07,52.07,0,0,1-9.28,4.75c-1.57.63-3.5,1.14-3.05-1.86,5.48-3.94,11.91-6.36,17.08-10.8,2.86-2.23,4.19-5.54,5.36-8.7a75.45,75.45,0,0,0,4.65-21.19c.25-3.81-.8-5.23-4.58-3.81-1.44-1.37-2.64-2.88-5.15-1.74a3.07,3.07,0,0,1-3.83-1.63c-.88-1.9.93-2.62,2.13-3.35a17.84,17.84,0,0,0,5.43-5.74c.7-1.06,1.62-2.63,3.07-1.72s.44,2.42,0,3.63a9.83,9.83,0,0,1-1.79,2.94c1.45-.94,1.91-3.43,4.16-3.13,1.76.23,1.11,1.95,1.38,3.06,2.34-1.27,1.28-5.26,4.23-5.6,1.53-.17,1.62,2.24,2.49,3.36,4-5.44,2-10.68-.36-16-1.13-2.52-3.57-4.5-3.24-7.65a4,4,0,0,1,3.65-2.21c.85,5,4.14,9.15,5.47,14,2.2,7.94-.78,14.62-8.54,19.29-1,.63-.32.88-.32,1.28a74.34,74.34,0,0,1-5,27.63,7.25,7.25,0,0,0-.55,4.35A2.64,2.64,0,0,1,422.55,330Z"/><path class="cls-22" d="M540.75,57.58c-4.49-10.16-8.36-20.57-14.7-29.87A87.41,87.41,0,0,0,505.37,5.77c-.93-.68-1.77-1.45-2.66-2.18,5.79-.74,9.65,3.05,13.65,6.12a43.5,43.5,0,0,1,7.53,7.74v-.08a155.2,155.2,0,0,1,15,27.56c2.17,1.41,1.32,4.29,2.92,6,.41,1.39.93,2.75,1.31,4.14C543.67,57,543.27,58.38,540.75,57.58Z"/><path class="cls-23" d="M373.73,225.4a49.52,49.52,0,0,0,3.19-15.82c2,0,1.77,1.63,2.13,2.85.37,5.43-1.28,10.54-3,15.53a9.34,9.34,0,0,0,1.09,8.84c8.41,13.49,14.58,27.91,17.51,43.61a11.92,11.92,0,0,1-.07,6.38,2.19,2.19,0,0,1-1,1c-1.92-.41-2.49-3-4.67-3a1.53,1.53,0,0,1-.42-1.25c1.83-2.9,1.75-5.87.76-9.08-5.17-16.65-11.81-32.51-23.24-46-2.5-3-5.82-5-8.26-7.93-1.27-.64-2.2-2.57-4-1.07a.8.8,0,0,1-1.37-.07c1.1-1.57,2.38-2.6,4.43-1.67,1.21.55,1.74-.24,2.14-1.2a59,59,0,0,1,10.25,9.32C371.18,228.06,372.37,227.17,373.73,225.4Z"/><path class="cls-24" d="M298.81,317.5l1.15.13c1.37.5,2.47,1.18,2,2.93-27.84.16-53.66-8.38-79.05-18.6-10.61-4.28-21.16-8.77-31.15-14.44a1.93,1.93,0,0,1,1.71-1.46c7.39,2.17,13.91,6.32,20.95,9.31,20.28,8.59,40.77,16.51,62.6,20.25A109.16,109.16,0,0,0,298.81,317.5Z"/><path class="cls-11" d="M137.71,119.46c-1.35.76-.77,2.1-.94,3.21a2,2,0,0,1-2.94-.32,9.87,9.87,0,0,0-2.9-5.38c-5.19-4.53-9.44-10.07-15.1-14.13a3.87,3.87,0,0,1-1.94-3.73l.87.21c6,1.28,10.73,4.91,15.12,8.86a62.55,62.55,0,0,0,10.92,8.28C141,118.73,140,119.8,137.71,119.46Z"/><path class="cls-25" d="M463.67,293.34c.66,2.2-.18,3.85-1.9,5.17-1.55-1.3-.46-3.61-2.41-5.52-.68,8-1.68,15.57-4.86,22.56-3.33,7.32-8.17,13.08-16.8,15.7.11-4.25,3.71-6.68,3.83-10.7-3,3.2-5.33,6.5-9.2,8-.75.32-1.38.27-1.75-.58,3.78-4.41,8-8.4,11.76-12.83a2.85,2.85,0,0,1,2.44,1.31c-.16,4.2-3.18,7.48-3.22,11.63,18.69-17,20.62-37.13,10.41-59.59,6.65,7.86,6.42,18.21,10.45,27Z"/><path class="cls-26" d="M423.36,218.45q-2.88,3.9-5.74,7.81c-3.89,5.59-1.76,10.32,1.82,15.14s6.6,9.87,10.62,14.29c1.33,1.45,2.63,3,2.18,5.26-.91,1.35-1.91,1.3-3,.21A240.75,240.75,0,0,1,412,236.64C404.21,222.69,396,209,390.77,193.79c-.43-1.26-.78-2.56-1.24-3.79-.13-.34,1-2.26-1-1.24a1.33,1.33,0,0,1-1.28-.66c-.67-2.14-1.16-4.22,1.76-5.13.94.08,1.34.76,1.66,1.51,4,16.91,13.09,31.46,21.27,46.81C416.08,226.93,417.75,220.9,423.36,218.45Z"/><path class="cls-27" d="M352.37,219.36l1.37.07c-12.15,11.14-23.79,22.71-30.51,38.16a81.8,81.8,0,0,0-6.6,42.09c.53,4.93.72,9.89,1.06,14.84a1.41,1.41,0,0,1-2-.12c.1-9.1-1.43-18.1-.86-27.26C316.6,258.51,330.31,236.66,352.37,219.36Z"/><path class="cls-28" d="M523.89,17.45c-3.66-2.07-5.77-5.88-9.17-8.24-3.68-2.56-7.43-5-12-5.62C486.8-.92,471.47,2.21,456.38,7.36a175.31,175.31,0,0,0-23.55,9.44,4.66,4.66,0,0,1-3.34.61C450.39,6.38,472-2,496.27.44,508,1.65,517.61,7,523.89,17.45Z"/><path class="cls-29" d="M427.85,448.31c4.73,3.34,8.37,7.92,13.22,11.19a44.18,44.18,0,0,0,17.54,6.61c1.94.33,3.62.19,2.08-2.46-1.84-3.15-3.31-6.52-5.86-9.23-4.65-4.94-8.17-5.08-13.18-.47-.57.52-.94,1.4-2.17,1.15,0-1.86,1.91-2.48,2.79-4.46-4.78-1.55-7.63-6.23-12.62-7.69,1.54-3.53,3.9-1.74,5.08,0,3.17,4.73,7.25,7.05,12.92,6.33,4-.5,6.51,2,9.06,4.38,2,3.1,4.82,4.25,8.51,3.89,1.64-.15,3.79-.8,4.76,1.55l-9.09.68c.25.75.44,1.35.63,1.95.59,1.85,3.06,3.76,1.9,5.32s-4.06.63-6.1.28C444.83,465.17,434.76,459.17,427.85,448.31Z"/><path class="cls-30" d="M488.64,75.39l11.12-6.15c-3-1.53-5.05-.3-7,.53a190.08,190.08,0,0,0-30.44,15.71c-1.38.9-2.7,2-4.46,2-.59-1.84.68-2.84,1.9-3.61,7.1-4.46,14.14-9.07,22.16-11.82.66-.15-.47-.78-.05-.26.11.13,0,.25-.31.35-5.06,1.56-10.28,2.49-15.42,3.71-1.5.36-3.6,1.43-4.26-1.35a232.83,232.83,0,0,1,42.92-8.29.65.65,0,0,1,.25.65c-.07.23-.13.34-.2.34C499.85,70.8,495,74.54,488.64,75.39Z"/><path class="cls-31" d="M272.33,446.45c-.44,1.69-3.89,2.09-2.5,4.15,1.19,1.77,3.68,1.71,6,1.31,8.14-1.44,15.34-5.33,22.85-8.45,1-.46,1.33.16,1.65.89,0,2.32-.78,4.11-3.58,4.9,10.67-.84,20.44-3.44,29.37-9.09,3.91-2.47,7.24-5.89,11.84-7.23a1.56,1.56,0,0,1,1.12.86c-13.07,11.66-28.06,18.26-46,17.88.15-2.53,2.6-2.86,3.12-5.1-5.73,2.23-11,5-16.83,6.17a32.78,32.78,0,0,1-5.87.88c-2.59.05-5.68-.65-6-3.35C267.28,448.15,269.78,446.6,272.33,446.45Z"/><path class="cls-32" d="M438.82,431.48c-2.26-1.67-3.81-4.65-7.49-3.62-1.95.54-1.33-1.37-1.59-2.29-1.66-5.68-2.7-11.53-5-17-1.12-2.26-2.84-4.36-2.11-7.18a1,1,0,0,1,1.4.06c2.71,5.72,3.91,11.92,5.52,18a11.68,11.68,0,0,0,4.67,6.73c8.76,6.5,18.7,9.12,29.4,8.59a12.15,12.15,0,0,1,9.82,3.68,54,54,0,0,1,9.45,12.08,2,2,0,0,1-1.35.48c-2.7-1-3.64-3.74-5.47-5.61-3.71-3.78-6.6-9.37-13.52-6.41-7.34-3.8-16.51-1.32-23.36-6.82Z"/><path class="cls-33" d="M192.76,286.64l-1,.88a440.81,440.81,0,0,1-76.39-46.83,1.92,1.92,0,0,1,1.2-.8c2.18,0,3.67,1.42,5.28,2.56,21.13,14.91,43,28.64,66.1,40.27C189.78,283.66,192.12,284.14,192.76,286.64Z"/><path class="cls-34" d="M361.8,348.49a1,1,0,0,1-.1-.83c2.09-1.54,4.72-.43,6.93-1.42.49,1.61,1.63,1,2.65.74,3.71.45,7.2-.65,10.73-1.52,3.76-.74,7.32-3,11.39-1.53,1.11,3.17-1.87,2.86-3.29,3.87-1.2.31-1.75-.83-2.66-1.19-3.34.91-6.64,2.38-10,2.59-4.12.25-6.21,2.48-8,5.59a45.41,45.41,0,0,0-6.3,17.65c-1.12,9.62-6,17.79-9,26.68-.69,2.08-1.71,1.52-2.93.65a1.21,1.21,0,0,1-1-.77,2.74,2.74,0,0,1,.38-2.55c.63-.52,2.08.28,2.09-1.3,4.34-9.2,7-18.89,9.11-28.79A37.38,37.38,0,0,1,366,355.28c1.54-2.64,1.41-4.29-2.06-4.73C362.94,350.41,361.54,350.21,361.8,348.49Z"/><path class="cls-35" d="M307.86,429.66a8.6,8.6,0,0,1-2.76.79c-3.14-.2-3.61,1.09-.92,4.91a28.5,28.5,0,0,1-3-2.08c-4.68-5-4.74-5.06-10.22-.83-.64.5-1.36.91-2,1.36a.75.75,0,0,1-.13-1.29c-3.89-1.8-8.12-.31-12.08-1.23-1.81-.42-4.52,0-4.77-2.6s2.27-3,4.13-3.53c6.06-1.7,12.16-3.26,18.24-4.88a1.32,1.32,0,0,1,1.52.17c-5,2.91-10.77,3.12-16.06,5-2,.7-4.23.81-6.25,3.12a33.63,33.63,0,0,0,19.45,0c1.09-.32,2.33-1.58,3.21-.9,3.74,2.88,7.75.58,11.59,1,.35.22.48.45.38.69S308,429.66,307.86,429.66Z"/><path class="cls-36" d="M481.5,450.54l1.4-.07a3.22,3.22,0,0,1,1.52,2.4c-3.51-.15-4.57,3.28-7,4.77-1.26.49-2,.12-1.7-1.28.18-1,.64-1.89.05-2.85-1.79-2.69-4.45-4.45-7-6.28-5.47-4-9.3-3.78-15.63.37-.68-2,2.28-2.23,1.9-4.42a36.78,36.78,0,0,1-14.55-7.71c-1-.87-3.9-1.52-1.73-4l-.06,0c7.34,4.93,14.73,9.56,24,10.16,4.42.28,7.94,3.13,11.35,5.87C476.24,449.2,478.23,451.49,481.5,450.54Z"/><path class="cls-37" d="M334.75,339.48l1.28.13c-2.89,3.27-5.39,7-10.34,8.41.43-3,.86-5.74,1.15-8.46.06-.56.48-1.89-.95-1.52-.5.14-.83,1-1.24,1.49-.95-.6-.67-1.31-.26-2.11,3.59-7.06,2.64-14.52,1.88-21.95-.13-1.21-1.08-2.46.8-4,3,11.2,1.71,22.12.74,33.4C331.1,344,332.22,340.77,334.75,339.48Z"/><path class="cls-38" d="M414.71,389.5c-2.67,9.75,4.71,18,4,27.57-1.77-6.65-2.7-13.63-10.17-16.82-2.91-1.24-5.65-2.47-9.15-1.79,1.09,3.58,5.56,4.65,5.4,8.57-2.17-2.26-4.3-4.57-6.54-6.76-1.89-1.85-1.31-2.61,1-3.18,3.47-.85,6.56.16,9.54,1.69,1.57.81,3,1.84,5.2,3.18l-2.34-9.2c-.68-1.77.78-2.42,1.74-3.34A1.3,1.3,0,0,1,414.71,389.5Z"/><path class="cls-39" d="M413.93,389.58c.16,1.71-1.89,1.84-2.25,3.18-15.17-11.66-20.21-28.63-24.23-46.15l2.15.86c.42.27.95.6.95,1.06-.12,7.27,4.21,12.93,6.93,19.16,1.82,4.26,3.55,8.58,5.54,12.76,1.91,4,4.73,7.19,9.6,7.61a2.33,2.33,0,0,1,1.32.29A1,1,0,0,1,413.93,389.58Z"/><path class="cls-40" d="M295.86,420.45l-1.52-.17c5.37-4.48,11.28-5.89,18.05-3.52A51.06,51.06,0,0,0,325,419.42c4.38.38,6.57-1.13,7.84-5.44,1.84-6.21,2.53-12.6,3.91-18.87.93,7.82-1.18,15.11-3.83,22.33-.89,2.43-2.49,3.21-4.95,3.19-4.5,0-9,0-13.25-1.69C308.11,416.25,301.85,416.27,295.86,420.45Z"/><path class="cls-41" d="M410.77,337.32l3-1.86c2,10.39,4.47,20.69,5.59,31.24.49,4.6.91,9.22,1.36,13.83a1.68,1.68,0,0,1-1.62.17c-1.36-1-1.48-2.5-1.6-4a245.26,245.26,0,0,0-3.84-26.43C413.11,345.87,411.7,341.65,410.77,337.32Z"/><path class="cls-42" d="M373.73,225.4c0,1.7-.78,3.12-2,5.23-3.55-5.69-9.54-8.59-12.82-14.14a2.18,2.18,0,0,1,.75-2.09c.63.09.73.73,1.11,1.08C364.53,219.55,370.06,221.27,373.73,225.4Z"/><path class="cls-43" d="M240.77,218.56l-26.86-39.09a.75.75,0,0,1,1.3-.13c9.07,12.24,17.72,24.77,25.74,37.73A1.06,1.06,0,0,1,240.77,218.56Z"/><path class="cls-44" d="M346.67,423.55c-2,.5-3.27-1.13-4.91-1.78-1.8.77-.35,2.81-1.72,3.93-.72-2.11-.22-4.13-.16-6.12,1.17-.69-.79-3.62,2.18-3a2.8,2.8,0,0,1-.15,2.25c1.37,3,3.95,3.26,6.66,2.67a21.53,21.53,0,0,0,5-2c9.06-4.53,12.51-3.75,19.29,4.48a2.45,2.45,0,0,1,.17,1.44c-2.67.84-3.79-1.41-5.29-2.75-4.61-4.09-5.77-4.19-11.47-1.6C353.27,422.44,350.48,425.09,346.67,423.55Z"/><path class="cls-45" d="M357.71,140.54c-6.59-1.29-13-4.09-19.93-2.84-.46,3,5,3.21,3.11,6.79-3.31-4.87-7.73-8.09-13.65-9,11.13.35,22.35,0,32.8,4.92A1.69,1.69,0,0,1,357.71,140.54Z"/><path class="cls-46" d="M301.93,320.56l-2-2.93c.16-1.49-1.33-2.74-.63-4.36,3.68-1.09,6.87,2.53,10.59,1.16a2.72,2.72,0,0,1,1,.21c.62.31,1.28.59,1.26,1.46-1.37,4.12-4.77,4.58-8.39,4.66a12.26,12.26,0,0,0-1.36-.08l-.26.05Z"/><path class="cls-47" d="M209.89,172.44c-3.51-1.93-4.94-5.64-7.22-8.59-5.06-6.55-9.94-13.23-14.89-19.86-.61-.81-1.32-1.58-.2-2.51q10.47,14,20.91,27.93C209.14,170.28,210.2,171.07,209.89,172.44Z"/><path class="cls-48" d="M475.81,453.51c3.31.26-.2,3.28,1.66,4.13a17.45,17.45,0,0,1-7.5,1.47c-1.82-1.09-3.84-.78-5.76-.62-3.82.32-6.25-1.27-7.5-4.83C462.71,457.82,471.5,457.75,475.81,453.51Z"/><path class="cls-49" d="M334.76,392.47c-1.12-8.23,3.21-15.47,4.41-23.3.45-2.89-.14-6,1.43-8.73a1.09,1.09,0,0,1,1.51.08c1.37,6.24-.59,12.12-2.1,18-.82,3.21-2,6.33-2.06,9.7C337.25,389.91,337.47,392.29,334.76,392.47Z"/><path class="cls-50" d="M466.06,246.21c-.94,1.13-1.28.22-1.63-.51-4.78-9.75-9.76-19.37-17.16-27.49a1.1,1.1,0,0,1,.32-1.69C455.88,225.08,461.41,235.37,466.06,246.21Z"/><path class="cls-51" d="M437.83,126.82c-6.89-2.81-11.81-7.88-15.79-14-1.46-2.22-2.38-4.32,1.83-4.47,4-.14,7.41-2.89,11.49-2.84-3.82,2.8-8.42,3.4-13.21,4.39,2.76,6.06,7.36,10,12.27,13.72C435.63,124.58,437.71,124.69,437.83,126.82Z"/><path class="cls-52" d="M431.1,327.13a1.43,1.43,0,0,0,1.23,1.44c-2.91,2.91-6.37,2-9.78,1.39l1.27-2.39A31.79,31.79,0,0,0,427.87,312c0-1,.1-2.25,1.29-2.32,1.55-.11,1.63,1.41,1.8,2.49a42.18,42.18,0,0,1,.17,6.93,11.74,11.74,0,0,1-1.71,6.34c-.37.54-.39,1.06-.12.45,0,0,.26,0,.42,0a2.27,2.27,0,0,1,1,.28A1.11,1.11,0,0,1,431.1,327.13Z"/><path class="cls-53" d="M311.75,315.52l-.86-.88,4.76-.24,2,.12q.74,4.56,1.46,9.13c.19,1.11.09,2-1.35,2.13-4.08-1.76-8.82-1.19-12.72-3.6a1.66,1.66,0,0,1-.51-1.28c1.75-1.69,3.95-.77,5.95-1,1.49-.17,3.62,1.06,4.22-1.05S312.61,316.8,311.75,315.52Z"/><path class="cls-54" d="M360.8,215.48l-1.11-1.08q1.21-5.52,2.42-11c1.73-2.19-.32-4.87,1.12-7.46,2.81,4,4.13,8.58,5.11,13.46l-4.27-7.75Z"/><path class="cls-55" d="M504.81,67.23a2.21,2.21,0,0,1-.05-1c10.08-2,20.26-3.63,30.17-6.45a1.47,1.47,0,0,1,1.05.81A170.25,170.25,0,0,1,504.81,67.23Z"/><path class="cls-56" d="M538.92,44.93q-7.5-13.78-15-27.56A73.65,73.65,0,0,1,538.92,44.93Z"/><path class="cls-57" d="M109.36,236.6a151.16,151.16,0,0,1-22.67-16.7,1,1,0,0,1-.34-.85c0-.31.1-.47.17-.47,1.25-.83,2.2,0,3.09.65C96,224.11,102.38,229,109,233.6c1,.69,2.4,1.37,1.77,3.09A1.89,1.89,0,0,1,109.36,236.6Z"/><path class="cls-58" d="M390.67,184.48l-.88-1c-2.68-1.45-2-3.77-1.55-6a42.44,42.44,0,0,1,1.56-5.64c2.06-4.47,2.48-9.71,6.14-13.46.91-.23,1.41.23,1.7,1C394.18,167.42,390.37,175.38,390.67,184.48Z"/><path class="cls-59" d="M397.64,159.36l-.81-.89c-3.9-1.75-8.07-3-11.2-6.15a1,1,0,0,1,.44-1.14c7.93,2.78,15.1,7.13,22.57,10.87a2,2,0,0,1,1.2,2C405.59,163,402.65,158.43,397.64,159.36Z"/><path class="cls-60" d="M419.7,380.5a7.8,7.8,0,0,0,1,0A50.66,50.66,0,0,0,424,401.42H423c-3.21-5.41-6-11-6.53-17.4C420,385.11,418.33,381.42,419.7,380.5Z"/><path class="cls-61" d="M155.8,107.45a2.53,2.53,0,0,1,2.22-1l4.92,5.08-12.16,6.89c-.69-.25-1.24-.62-1.25-1.46,1-2.28,3.16-3.34,5.23-4.09C158.48,111.5,158.19,109.77,155.8,107.45Z"/><path class="cls-62" d="M240.77,218.56l.18-1.49a213,213,0,0,1,13.39,20.26,1,1,0,0,1-1.5.13Z"/><path class="cls-63" d="M318,325.4l1.14-1.76c.81.79.57,1.8.59,2.76-.66,1-.35,2.51-1.85,2.94-6-1.45-11.91-2.95-15.49-8.66l.41-.28c1-.45,1.57.31,2.22.84a.31.31,0,0,1-.09.47C309.22,323.21,313,326.66,318,325.4Z"/><path class="cls-64" d="M508.25,188.51c5.27-.06,9.26,3.32,13.86,5.06,1.15.44,2.7,2.88,3.8-.17a4,4,0,0,1,1.43,4.21Z"/><path class="cls-65" d="M503,154.4c-5.41-5.22-11.92-8.76-18.59-12C492.28,143.71,498.74,147.31,503,154.4Z"/><path class="cls-66" d="M454.8,174.45c8.5.44,16.68,2.71,25,4.27.27.24.35.47.25.7s-.19.34-.28.34l-24.94-4.45q-.49-.28-.33-.57C454.59,174.54,454.69,174.45,454.8,174.45Z"/><path class="cls-67" d="M454.8,174.45c0,.29,0,.57,0,.86l-24-2a.63.63,0,0,1-.21-.67c.07-.22.15-.33.22-.33C438.86,172.45,446.9,172.64,454.8,174.45Z"/><path class="cls-68" d="M311.64,89.64l.63-2.33c.94,1.25-.2,3.14,1.47,4-.32,1.06-.63,2.12-.95,3.18-2.26-1.45-3.1,1-4.53,1.71-1.62.84-2.47,3-5.13,3.15C304.73,94.62,310.57,94.17,311.64,89.64Z"/><path class="cls-69" d="M341.91,418.79l-.13-2.34c-.18-6.35,4.46-15.29,8.91-17.16a3.25,3.25,0,0,0,.5.48C347.05,405.6,345,412.44,341.91,418.79Z"/><path class="cls-70" d="M334.76,392.47c1.74-.83.71-3.06,2.06-4.09,1.19-2.89,2.13-5.91,4.42-8.19.83-.83,1.92-1.65,3.06-.88,1.35.9.38,2.11-.13,3.06-1.88,3.49-4.56,6.49-6.22,10.12l-1.31,2.38C335.85,394.2,334.49,394,334.76,392.47Z"/><path class="cls-71" d="M410.87,28.32l-1-1.8c4.48-.86,7.9-3.91,11.91-5.74,1.46-.67,2.72-2,4.57-1.36C421.53,23,416,25.31,410.87,28.32Z"/><path class="cls-72" d="M341.66,360.45H340.6l-.69-17,1.12.3c2.48,1.52,2,4,2.17,6.36C343,353.58,344.35,357.32,341.66,360.45Z"/><path class="cls-20" d="M86.78,218.57l-.09,1.33a88.69,88.69,0,0,1-13.21-11.1l.32-.31c.51-.49,1.22-.83,1.77-.42C79.68,211.17,84.51,213.51,86.78,218.57Z"/><path class="cls-8" d="M252.84,237.46l1.5-.13c3,4.61,6.76,8.77,8.55,14.11C258.47,247.55,256.34,242,252.84,237.46Z"/><path class="cls-73" d="M439,209.39c-1.09.27-2.52-.39-3.18,1.11-5,0-7.12,4.78-11.05,6.53C427.3,211.12,433.59,207.74,439,209.39Z"/><path class="cls-74" d="M10.91,49.52a46,46,0,0,1,0,19.92A78.12,78.12,0,0,1,10.91,49.52Z"/><path class="cls-75" d="M466.9,85.67c4.22-4.4,9.5-6.51,15.46-7.16Z"/><path class="cls-76" d="M356,428.77c-1.44,1.13-3.21.8-4.77.8a18,18,0,0,0-12.19,4.22l-.32-.43c0-3.06,2.2-4.19,4.54-5a20.05,20.05,0,0,1,11.58-.72A2.21,2.21,0,0,1,356,428.77Z"/><path class="cls-77" d="M536,60.6l-1.05-.81c2-.65,4.12-.87,5.82-2.21,4.54-1.54-.45-4.64,1.09-6.66C546.14,58.22,546,58.4,536,60.6Z"/><path class="cls-78" d="M421.74,432.48a45.53,45.53,0,0,1,5,14.58A29.58,29.58,0,0,1,421.74,432.48Z"/><path class="cls-79" d="M368.63,35.28l1.25,1.41a1.13,1.13,0,0,1-.29,1.27c-3.46,1.37-6.67,3.51-10.58,3.51l-2.33-.09C360.16,38.36,364.89,37.8,368.63,35.28Z"/><path class="cls-80" d="M185.91,139.52c-4.09-1.77-6.15-5.33-8-9.05C181.57,132.59,183.5,136.27,185.91,139.52Z"/><path class="cls-81" d="M288.82,432.52c0,.43.08.86.13,1.29-3,2.61-5.41,6-9.69,6.64Z"/><path class="cls-82" d="M491.93,182.35c4.07,1.26,8.59,1.4,11.85,4.72l-13.31-4.45A1,1,0,0,1,491.93,182.35Z"/><path class="cls-83" d="M430.81,172.31c0,.33,0,.67,0,1-3.56-.91-7.73.45-10.64-2.86Z"/><path class="cls-84" d="M491.93,182.35l-1.46.27-10.72-2.86,0-1,8,1.73Z"/><path class="cls-85" d="M170.82,121.54c-2.66-2.24-6.33-3.7-6.19-8.08C166.75,116.1,169.63,118.18,170.82,121.54Z"/><path class="cls-86" d="M509.34,162.48c-3.48-1.64-5.1-4.77-6.46-8.1C505.9,156.39,507.62,159.44,509.34,162.48Z"/><path class="cls-87" d="M458.83,91.07c1.74-3.24,4.6-4.83,8.11-5.47C464.73,88.17,461.64,89.4,458.83,91.07Z"/><path class="cls-88" d="M525.9,193.46c-2.31-2.73-4.08-5.71-4.08-9.45C523.71,186.94,525.39,190,525.9,193.46Z"/><path class="cls-65" d="M473.86,138.84c-3.61-.78-7.26-1.41-10.46-3.46C467.19,135.6,470.91,136.06,473.86,138.84Z"/><path class="cls-89" d="M372.68,425.49c.07-.51.14-1,.2-1.51.82.75,2.16,1.4,1.85,2.63-.38,1.48-1.92.78-3,.88-1.95.18-3.92.21-5.88.3a1.3,1.3,0,0,1-.17-1.49C367.85,424.44,370.36,425.74,372.68,425.49Z"/><path class="cls-90" d="M365.78,426.76l.11,1c-3.22,1.07-6.55.93-9.87,1a2.38,2.38,0,0,0-.31-.4C358.55,424.59,362.21,426,365.78,426.76Z"/><path class="cls-78" d="M417.23,424.49c3.51,1.56,4.37,4.6,4.53,8Z"/><path class="cls-91" d="M215.21,179.34l-1.3.13c-1.36-2.35-3.85-4.05-4-7.07C212.48,174.08,213.76,176.77,215.21,179.34Z"/><path class="cls-92" d="M454.88,133.88c-3.23-.73-6.59-1.12-9.26-3.39C449,130.82,452.32,131.31,454.88,133.88Z"/><path class="cls-93" d="M408.23,411.48c3.46,1.34,4.92,4.15,5.58,7.56A33.38,33.38,0,0,1,408.23,411.48Z"/><path class="cls-53" d="M317.89,329.34c.61-1,1.23-2,1.85-2.94-.54,2.7,2.12,5.29.27,8C319.19,332.78,319.72,330.57,317.89,329.34Z"/><path class="cls-94" d="M109.36,236.6l1.5-.16c3-.15,5.3.72,5.9,4.05l-1.42.2A17.66,17.66,0,0,1,109.36,236.6Z"/><path class="cls-95" d="M133.83,122.35l2.94.32,2.79,3.42c-8.38,3.19-16.39,6.81-23.62,12-12.26,8.73-21,20.67-29.81,32.52-2.18,2.92-4.34,5.87-6.5,8.81-4.18.78-5.37-1.37-5-5.08C86.59,156,100,139.24,119.77,128.73,124.3,126.31,129.13,124.46,133.83,122.35Z"/><path class="cls-96" d="M74.67,174.31a6.18,6.18,0,0,0,5,5.08c-2.28,1.3-3.83,3.73-6.57,4.34a5.85,5.85,0,0,1-4.37-5.34c.83-2.47,5.11-.33,5.15-3.85A7.84,7.84,0,0,1,74.67,174.31Z"/><path class="cls-97" d="M461.84,74.53c1.08,1.51,2.28.56,3.54.27,6.5-1.49,13-2.89,19.7-3.84-8,4.1-15.77,8.28-23.3,13-1.55,1-3.26,1.69-4,3.57l0,0a87.16,87.16,0,0,0-12.34,8.45c-7.92,5.3-16.24,9.6-26.05,9.88-3.22.09-3.4,1.22-2.43,4,1.11,3.23,3.21,5.76,4.82,8.62l0,0c5.51,10,14.9,14.23,25.4,16.37a196.79,196.79,0,0,1,32.69,9.9c7.38,2.89,14,6.79,19.23,12.81,3.85,6.05,6.95,12.39,7.13,19.74.1,4.14-.2,4.12-4,2.29-5.19-2.46-10.35-5.19-16.35-5.18-17.45-1.68-35-2.46-51.91-7.88-.77-.25-1.49-.64-2.23-1a3.2,3.2,0,0,1,2.62-1.59c10.06,2.17,20.05,4.64,30.34,5.75,5,.54,10,.09,14.92,1,3.34.6,2.62-1.66,1.75-3.37a33.44,33.44,0,0,0-13.06-13.41c-9.74-5.83-20.52-8.8-31.66-9.93-9.4-.94-17.36-5.46-25.83-8.77a6.25,6.25,0,0,1-3.38-3.53c-.44-2.11.81-3.84,1.31-5.74,1.21-4.62,1.34-9.26-.66-13.62-1.53-3.33-.67-5.23,2.46-6.68,2.41-1.11,4.43-2.9,6.76-4.14,4.85-2.87,9.16-6.5,13.62-9.9,8-6.09,17.25-10,25.73-15.25A11.45,11.45,0,0,1,461.84,74.53Z"/><path class="cls-98" d="M396.69,46.21a.57.57,0,0,1,0-.72c1.52-2.59,4.29-3.59,6.71-4.87a182.86,182.86,0,0,1,68.24-20.3c7.86-.77,15.57-.49,23,2.23,7,2.56,11.72,7.21,12.77,15.1.58,4.34-.45,6.76-5.07,7.89a383.17,383.17,0,0,0-96.66,37.73,1.94,1.94,0,0,1-.3-1.51c4.44-5.34,11-7.23,16.86-10.2,24.24-12.43,50-20.77,76.21-28,6.15-1.71,7.69-4.87,4.49-10.48-4.4-7.69-11.9-9.63-20-10.2-14.68-1-28.8,2.3-42.77,6.13s-27.5,9-39.93,16.68C399.25,46.3,398.09,47.33,396.69,46.21Z"/><path class="cls-99" d="M417.83,101.55c-6.21,3.52-11.45,6.91-7.27,15.86,2,4.36-.25,9.72-2.65,14.21-1.57,4.8-1.43,4.57,3.15,7.32,3.34,2,8.07,3,8,8.36a1.49,1.49,0,0,1-1.33.44c-6.94-5-14.3-8.76-23-9.48-3.64-.3-7.22-.64-10.84.05a9.23,9.23,0,0,1-5.36-.1,1.64,1.64,0,0,1-.94-1.13c1.66-2.66,4.5-2.57,7.06-2.76a60.23,60.23,0,0,1,12.45.1,7.41,7.41,0,0,0,7.65-3.52,18.2,18.2,0,0,0,2.91-15.63c-.94-3.6-2.83-4.51-6.24-3.08a81.25,81.25,0,0,1-20,6A34,34,0,0,1,366.2,117a16.55,16.55,0,0,0-3.36-.91c-1.49-.11-3.21-.35-4.06,1.16s.62,2.41,1.33,3.47c3.51,5.25,8.39,9.39,11.9,14.66a1.3,1.3,0,0,1-.42,1.36c-5.42-3.47-9.2-8.54-13-13.53-4.08-5.32-4-5.36-9-1.3,2-5.6,13-11.48,22.24-11.22l-8.07,2.3c8.78,4,16.82,3,24.84,1.07,10.62-2.6,19.95-8,29.26-13.52.35.22.47.45.36.68S417.94,101.55,417.83,101.55Z"/><path class="cls-100" d="M433.73,164.58l-2,1c-16.68-4.91-33.1-10.47-48.07-19.57-2.53-1.53-5.2-2.92-7.12-5.28a1.77,1.77,0,0,1,1.16-.76c5.29,3,11,3.43,17,3.67a20.85,20.85,0,0,1,18,10.91,5.57,5.57,0,0,0,1.88,2.29c2.15,1.19,4.81,3.29,6.76,1.77,1.67-1.31-.58-3.86-1.34-5.79-.64-1.64-2.3-3-1.49-5a5,5,0,0,1,.52-.51c3.46.39,4.5,3.36,5.28,5.84C426,158.27,428.33,162.59,433.73,164.58Z"/><path class="cls-101" d="M399.89,91.56c-.26,2.27,2.19,1.4,3.17,2.68-12.74.53-24,5.35-35,10.69-8.68,4.2-17.3,8.51-25.95,12.77l-.52-.56c.13-1.76,1.43-2.59,2.78-3.25,13.78-6.66,26.93-14.71,41.66-19.31,4.58-1.44,9.38-2.12,13.73-4.31A.78.78,0,0,1,399.89,91.56Z"/><path class="cls-102" d="M485.88,174.38c5.58-1.57,9.89,2.16,14.77,3.52,1.65.46,3,3.08,4.64,1.67,1.27-1.09.26-3.38.06-5.19-.72-6.25-3.89-11.46-6.7-16.84a.57.57,0,0,1,1,0c4.38,6,7.56,12.61,7.09,20.2-.23,3.67,2.62,4.6,4.15,6.72l-.14.16c-4.86-2.3-9.7-4.67-14.61-6.87-2.66-1.19-5.31-2.68-8.44-2Z"/><path class="cls-103" d="M417.83,101.55c0-.34,0-.69,0-1,12.22-9.23,24.33-18.64,38.85-24.19.42.27,1.68.63,1,.88C443.29,83,431.13,92.3,418.79,101.35,418.55,101.53,418.15,101.49,417.83,101.55Z"/><path class="cls-104" d="M399.89,91.56l-.21-1.45A4.81,4.81,0,0,1,398.52,86c1.13-9.44-1.6-18.32-3.83-27.27a4.22,4.22,0,0,1,.2-3.14l1.21-.11c2.42.65,2.51,2.93,3.06,4.71a89.67,89.67,0,0,1,3.81,17c.24,2.1.59,3.92,2.68,4.92l.06,1.24C401.55,84.47,401.6,88.63,399.89,91.56Z"/><path class="cls-105" d="M357.71,140.54l2.32-.15,3.75,1.25a2.06,2.06,0,0,1,.48,1.32c-.7,4.43.86,8.4,2.47,12.37,2.12,5,4.16,9.94,6.7,14.71.84,1.58,1.61,3.23,1.17,5.14-.3.74-.67,1.37-1.64,1.17q-5.11-11.39-10.24-22.78c-.66-3.22-1.64-6.42-1.86-9.68C360.69,141.54,358.69,141.69,357.71,140.54Z"/><path class="cls-106" d="M323.74,108.46l.85.89c1.53,2-.27,4.55,1.15,6.56,3.69,6,4.2,6.07,10.36,2.72,1.66-.9,3.27-2.29,5.43-1.41a3.29,3.29,0,0,0,.57.48l-13.05,8a1.51,1.51,0,0,1-.46-.48c-4-3.42-7.77-7-7.7-12.86C321.51,110.82,321.31,108.67,323.74,108.46Z"/><path class="cls-59" d="M363.75,142.46a7.42,7.42,0,0,1,0-.82,113.72,113.72,0,0,1,22.3,9.54c-.19.21-.37.43-.55.65a3.77,3.77,0,0,1-3.76-.08c-5-2.39-10.18-4.46-15.28-6.68A4.07,4.07,0,0,1,363.75,142.46Z"/><path class="cls-99" d="M376.55,140.69c-2.18-.67-3.62-2.25-5-4l.32-.37c2.17-1,4-.34,5.8,1l.23.34c.07,1-.64,1.77-1,2.65A3,3,0,0,0,376.55,140.69Z"/><path class="cls-107" d="M357.78,220.5c7.53,2.75,11.4,9.43,15.51,15.41,8.11,11.8,13.18,25.11,17.42,38.74,1.17,3.76,1.26,7-1.84,9.86-1.41,1.61-2.92,2.91-5.25,1.8,1.51-9.48-2.82-17.83-5.21-26.53-3.58-13-11.29-23.8-18.62-34.8A9.37,9.37,0,0,1,357.78,220.5Z"/><path class="cls-108" d="M383.62,286.31l5.25-1.8.16.4a2.85,2.85,0,0,1-1.33,2.32c-2,2.3-7,.74-7.21,5.46a3.23,3.23,0,0,1-.56,1.27c-.75.63-1.52,1.17-2.48.39-.67-.69-.67-2.6-2.42-1.31a31.9,31.9,0,0,1-10.32,4.71c-3.56,1-.28,1.83.11,2.73a.9.9,0,0,1-.29,1.18l-4.71-.18c-1.5-.42-2.43-1.66-3.67-2.47-.12-.18-.24-.36-.35-.54,2.38-3.33-1.73-5.54-1.87-8.75,3.55.83,2.64,5.75,6.4,5.79A19.77,19.77,0,0,0,367.6,294c6.41-2.4,8.73-4.86,9.63-11.64C378,288.76,381.05,286.79,383.62,286.31Z"/><path class="cls-109" d="M333.65,298.58c-1.06.78-.7,2-.91,3-2.25-7.23-.12-14.05,2-20.83a60,60,0,0,1,7.94-16.22C338.44,275.61,333,286.28,333.65,298.58Z"/><path class="cls-110" d="M333.86,309.42c2.8,5.8,4.3,12.07,6.42,18.12,1.19,3.4-2.56,4.58-3.26,7.14C337.56,326.06,334.7,317.87,333.86,309.42Z"/><path class="cls-108" d="M335.78,306.35l-1-1.65c.66-.05,1.33-.09,2-.16,5.85-.67,6.8-1.94,5.57-7.35a5.92,5.92,0,0,1,.85-.18c1.72,5.17,5.08,4.38,8.85,2.57a23.73,23.73,0,0,1,3.77-1.11l.31.36c-1.62,4.54-6.54,3.54-9.56,5.73a5.36,5.36,0,0,1-1.27.51C342.05,305,339.34,308.85,335.78,306.35Z"/><path class="cls-109" d="M332.43,283.55c-2.53-4.12-2.15-8.38-.18-12.65C332.86,275.06,331,279.27,332.43,283.55Z"/><path class="cls-111" d="M430,320.49v-10.3c-2.47,5.83,1.18,13.37-6.21,17.38-1.46,0-2.25-.32-1.41-2,3.78-7.67,5-16,6.22-24.34.5-3.38-1.23-6.77.45-10.41.21,3,.83,4,3.27,1.7,6.19-5.81,7.36-13.37,3-22.27-1.39-2.86-3.5-5.47-2.41-9-1,.07-.92-.73-1.11-1.33-5.25-6.64-10.51-13.26-14.94-20.5-4.11-6.71-4.15-6.68.69-13.16,2.8,7.18,8,12.83,12.45,18.88s7.63,12.24,8.56,19.62c-.33,3.41,2.31,6,2.6,9.22a40,40,0,0,1-4.83,23c-1.33,1.21-.85,2.85-1,4.35.2,5.85-1.82,11.24-3.41,16.71C431.7,319.14,431.54,320.37,430,320.49Z"/><path class="cls-112" d="M466.92,280.41c-1.74.83-.56,3.11-2,4.07.94-22.93-8-42.64-20-61.38a4.34,4.34,0,0,1-.28-1.44c1.23-1.32,1.67,0,2.09.73,7.76,14,15.89,27.91,18.61,44.07.05.32.34.65.29.94-.8,4.91,1.18,7.61,6.2,8C470.81,277.64,466.49,276.72,466.92,280.41Z"/><path class="cls-113" d="M440.53,273.65c.18-3.14-4.24-5.29-1.9-8.89,5.17,11.53,9.58,23.25,9.18,36.21a20.08,20.08,0,0,1-1.74,8.55,1.07,1.07,0,0,1-1.52-.08c-.15-.3-.39-.61-.36-.91,1.1-11.23-.53-22.16-3.62-32.92A3.44,3.44,0,0,1,440.53,273.65Z"/><path class="cls-114" d="M445,309.55l1.1,0a15.21,15.21,0,0,1-1.29,7,1.53,1.53,0,0,1-2-1A4.91,4.91,0,0,1,445,309.55Z"/><path class="cls-115" d="M149.76,117.46l1,.94a12.84,12.84,0,0,0-4.13,4q-1.92,1.57-3.83,3.16l-.12-1.22c-.25-2.14,1.54-3.07,2.61-4.43C146.68,118.87,147.55,116.91,149.76,117.46Z"/><path class="cls-116" d="M68.69,178.39l4.37,5.34c-2.4,2.25-4.82,4.48-7.19,6.76-1.76,1.68-2.18,5.5-4.3,5.46-1.88,0-3.7-2.91-5.55-4.53,2.19-4.87,5.76-8.6,9.84-11.91Z"/><path class="cls-117" d="M324.71,116.57c-1.77-2.38-.55-4.81-.12-7.22a4.74,4.74,0,0,0,.23-.84c6.37-.74,12.78-1.1,19.09-2.35,12.91-2.57,23.29-8.52,28.65-21.24,3.39-8,1.91-16.23.62-24.4.29-1.62,1.74-.88,2.62-1.29,6.68.41,12.85-1.82,19.09-3.68.22.72.45,1.43.67,2.15-2.42,2.82-5.87,3.72-9.18,4.79-2.69.88-4.25,2.4-4.44,5.31-.1,1.49-.64,2.94-.66,4.44-.34,17.43-10.64,28.16-24.73,36-8.43,4.65-17.16,9-27.4,7.69C327.67,115.69,326.19,116.3,324.71,116.57Z"/><path class="cls-118" d="M359,41.47c3.46-1.67,6.84-3.57,10.76-4,8.81-1.16,15,3.5,20.39,9.51.55.61,2.23,2.24-.45,2.67C378.78,49.51,368.82,45.76,359,41.47Z"/><path class="cls-106" d="M373.18,60.52c3.24,1.49,1.68,4.39,2.17,6.8,4.44,21.79-12.32,37.08-31.69,40.3-6.3,1-12.56.57-18.84.89,1.31-1.87,3.24-1,4.89-1,2,0,3.79-.21,5-2.07a55.86,55.86,0,0,0,14.64-2.15c12.12-3.73,20.31-11.32,23.55-23.81,1-4.46,1.32-8.83-1.54-12.81a3.13,3.13,0,0,1-.8-1.9c.32-1.22,2-1.14,2.32-2.34l-1.08-1.92Z"/><path class="cls-119" d="M389.71,49.6c.12-.42.5-1.05.35-1.22-5.42-6.12-11.9-10.32-20.29-11,0-.24.08-.49.11-.73,7.62-.9,14.69.3,21.12,4.84,3.56,2.52,3.91,5.31,1.76,8.78Z"/><path class="cls-4" d="M341.66,360.45l.27-10.91c9.65-.08,21.62,7,19.81,16.77-1,5.33-1.95,10.7-4.11,15.75a64.29,64.29,0,0,0-4.72,14.55c-1,1.19-1.39-.32-2.08-.49a1.82,1.82,0,0,1-1.73-1.06c-1.83-7.44-2.72-5.16,1.55-15.63-1.95,4.13-3.93,8.24-7.94,10.91a4,4,0,0,1-1.38.19l-3.38,2c-1.71-.52-.76-1.33-.24-2.12,2.23-3.44,4.44-6.89,7.32-11.35-4.91,2.24-5.24,7-8.21,9.36-.53-3.57.82-6.79,1.84-10.07A67.28,67.28,0,0,0,341.66,360.45Z"/><path class="cls-120" d="M365.78,426.76c-3.21,1.45-6.93-.29-10.07,1.61-6,.46-12.7-1.37-17,5-6.46,3.59-12.06,8.57-18.9,11.59A65.64,65.64,0,0,1,296,450.49l3.91-5.79a1,1,0,0,1,1.17-.46c4.88,2.21,9.32.38,13.75-1.52a6.9,6.9,0,0,1,2.06-.3c7.08-.74,11.17-6.73,17-9.81,4.56-2.43,9.19-5.15,12.82-9.06a41.67,41.67,0,0,0,9.26-3.64c6.42-3.3,7.79-3,13.11,2.18,1.18,1.16,2.43,2.27,3.64,3.4C370.67,427.45,368,425.89,365.78,426.76Z"/><path class="cls-121" d="M350.38,395.49a.59.59,0,0,1,.45.64c-.05,1.05-.1,2.11-.14,3.16-5.05,4.64-6.23,11.29-8.91,17.16-.63,1-1.26,2.09-1.9,3.13-.5-6.2,2.7-11.54,4.2-17.27,1.19-4.59,1-8.5-2.75-11.78l.3-.15c2.36-.73,3.38-3.55,6.28-4.23C348.61,389.48,348.07,392.92,350.38,395.49Z"/><path class="cls-122" d="M300.74,444.43a3,3,0,0,0-.82.27l-1.26-1.24c3.35-4.37,7.28-7,13.27-7.29,3.92-.16,7.75-2.56,11.62-4q.72-.13.51.57c-3,2.74-6.93,3.59-10.64,5,.46,2.08,2.71,2.79,3.48,4.6l-1,1.05a18,18,0,0,1-3-1.64c-4.54-3-5.8-2.86-9.68,1.08A3.88,3.88,0,0,1,300.74,444.43Z"/><path class="cls-123" d="M307.86,429.66l-.06-1.07c6.35-1,12.55-2.38,18.29-5.39C321,428,314.59,429.27,307.86,429.66Z"/><path class="cls-122" d="M323.55,432.21,330,427c-.88,3.21-3.37,4.56-6,5.79Q323.82,432.5,323.55,432.21Z"/><path class="cls-124" d="M416.88,383.31,423,401.42c.59,2.38,1.19,4.75,1.78,7.12-2.87-1.94-2.95-5.29-4.08-8.11-1.57-3.87-2.35-8.17-6-10.93l-.78.08-.24-1.08a13.87,13.87,0,0,1-2.57-9.27c2.54-1,2.54-1,5.56,3.39C416.75,382.85,416.81,383.08,416.88,383.31Z"/><path class="cls-116" d="M149.76,117.46l-4,3c-3.59.86-4.81-.64-4.06-4.09,3.84-4.31,9-6.56,14.06-8.94,2.65-.21,3.5,2,4.92,3.73C157,113.31,152.68,114.2,149.76,117.46Z"/><path class="cls-125" d="M141.74,116.39a4.23,4.23,0,0,0,4.06,4.09l-3.1,3.83c-3.28,0-4.69-1.84-5-4.86l3.09-3Z"/><path class="cls-3" d="M80.88,182.42c.58-5.55,5-8.76,8-12.8,7.76-10.58,15.69-21.1,26.38-29,8-6,16.74-10.71,26.55-13.14,4.27,1.19,6.45,4.94,9.07,7.92,2.19,2.48,4.38,5,6.69,7.36,12.39,12.73,23.95,26.2,35.7,39.5C205.35,195.94,217,210,228.68,224c6.21,7.5,12.6,14.9,18.12,23,4.15,5.05,7,11.11,12,15.47,4.43,3.7,7.28,8.73,11,13.06l0,0c4.76,5.95,9.4,12,14,18l-.06,0c2.66,5.61,7.13,9.92,10.64,14.92,1.12,1.59,2.72,2.92,3.13,5.5-9.08-.55-17.43-3.1-25.56-6.08a430.94,430.94,0,0,1-109-58.65C134.55,228.14,106.67,206.58,80.88,182.42Z"/><path class="cls-115" d="M246.8,247c-14.38-17.24-28.64-34.58-43.17-51.69C183.82,172,163.5,149.09,141.8,127.47c-.65-1.19-.73-2.08,1.06-2,5.5,6,10.95,12,16.51,17.92,21.94,23.35,43.13,47.36,63.26,72.31C230,224.88,237.49,234,245,243.09,245.91,244.26,247,245.3,246.8,247Z"/><path class="cls-13" d="M283.78,293.53a86.4,86.4,0,0,1-14-18A70.49,70.49,0,0,1,283.78,293.53Z"/><path class="cls-13" d="M269.79,275.53c-4.47-3.67-7.31-8.71-11-13.06,2.81-.17,3.26,2.4,4.56,4C265.75,269.31,268.62,271.82,269.79,275.53Z"/><path class="cls-126" d="M373,176.35l1-1.11c2.55.72,2.82,3.08,3.43,5,2.89,9.28,3.28,18.83,2.79,28.45-.08,1.59-.11,3.42-2.24,3.94-.41-1,.11-2.32-1-3.1C377.45,198.28,377.21,187.08,373,176.35Z"/><path class="cls-127" d="M499.65,157.49l-1,0c-12.89-12.68-29.86-16.41-46.39-21-7.62-2.11-15.65-3-22.24-7.92-3.58-2.69-6.95-5.58-8.2-10.16,2.45.84,3,3.4,4.55,5.08,6.17,6.73,14.35,8.9,22.82,11,15.23,3.71,30.59,7.27,43.8,16.44A23.25,23.25,0,0,1,499.65,157.49Z"/><path class="cls-128" d="M421.84,118.48c-1.24-.37-1.69-1.45-2.34-2.42-6.08-9.15-5.31-10.67,5.45-11.64,6.8-.61,12.44-4.27,18.09-7.75a24.4,24.4,0,0,1,2.64-1.23.66.66,0,0,1,1.09,0C439,101.71,430.29,106,420.13,106.4c-3,.12-3.15,1.16-2.34,3.63C418.78,113.05,421.45,115.21,421.84,118.48Z"/><path class="cls-129" d="M446.77,95.47l-1.09,0c3.43-3.6,7.29-6.54,12.16-8C454.62,90.81,450.49,92.86,446.77,95.47Z"/><path class="cls-130" d="M510.89,184.41A14.83,14.83,0,0,1,519,190c-3-1.38-6-2.82-8.27-5.39Z"/><path class="cls-131" d="M405.65,82c-2.36,1.32-3.92,2-4-2a69,69,0,0,0-5.52-24.54c-.37-2.81,3.53-3.25,3.41-5.8-1.26-1.87-3.71,1.21-4.48-1.28-.15-.5,1.07-1.42,1.66-2.15C419.18,32.38,443.86,25,469.84,21.78c7.39-.92,15-1,22.26,1.37,8.67,2.77,13.51,8.45,13.82,15.69.14,3.32-1.06,4.78-4.16,5.49a374.63,374.63,0,0,0-61,20.06A243.28,243.28,0,0,0,405.65,82Z"/><path class="cls-132" d="M321.74,112.53c.15,3.61,2.05,6.34,4.38,8.88,1,1.12,2.93,1.71,2.48,3.8-3.64,3.61-6.13,2.48-8.21-1.76-1.88-3.85-4.07-7.55-4.69-11.88-.41-1.09-.89-2.31.35-3.06,1-.58,1.87.26,2.66.81A10.1,10.1,0,0,1,321.74,112.53Z"/><path class="cls-133" d="M321.74,112.53c-1.81-.09-2.72-1.56-3.95-2.56-2.84-2.32-1.59.8-2.09,1.6-1.34-3.73-1.8-7.44.12-11.13,1.62,3.68,6.47,4.17,7.92,8C323.07,109.82,322.41,111.18,321.74,112.53Z"/><path class="cls-5" d="M116.76,240.49a21.42,21.42,0,0,0-5.91-4.05L86.79,218.57c-4.42-3.25-7.86-7.75-13-10.08-1.9-3.4-5.18-5.49-7.87-8.13-2-2-2.47-3.52-.76-6a33.8,33.8,0,0,1,8.59-8.81c1.54,2.91,2.85,6,6.93,6.16.81,0,1.43.82,1.7,1.67,1.55,4.93,6.06,6.58,9.75,9.36,4.87,3.68,10.53,6.46,14.23,11.69a10.45,10.45,0,0,0,9.25,4.86c3.58-.06,6,3.22,8.69,5.46,26.52,22.34,53.85,43.45,84.52,60,14.39,7.78,29,15,44,21.34a117.75,117.75,0,0,0,40,9.29c2.1.37,4.69-.7,6,2-.22,1.87-1.51,1.82-2.94,1.73-28.86-2-55.71-11.17-81.89-22.72-7.14-3.14-14.15-6.57-21.22-9.87C166.16,273.35,141,257.65,116.76,240.49Z"/><path class="cls-8" d="M292.82,315.46c-13.64,1.83-26.14-2.48-38.49-7.32a384.25,384.25,0,0,1-77.62-41.39c-18.68-12.84-37.08-26.21-53.93-41.56-2.63-2.4-5.2-6.83-10.45-4.21-.73.36-3-1.39-4-2.65-2.18-3-6.73-4-7.07-8.5a1,1,0,0,0-.67-.66c-6.54-1.41-10.78-6.56-16-10.06-1.52-1-4.58-2-3.28-5.32.39-1-.78-1.35-1.62-1.28-5.19.43-6.23-2.66-6-6.91,1.32-1.35,2.19-1.71,3.71.19s3.65,3.38,6.35,1.66C103.07,204.8,123.23,221,143.67,237c38.93,30.32,80.76,55.43,127.26,72.31C278,311.86,285.52,313.43,292.82,315.46Z"/><path class="cls-4" d="M373.88,79.61C372,90,365.59,97,356.6,101.79a40.91,40.91,0,0,1-17.55,4.72c-1.48.06-3.35,1-4.37-1.06,3.62-6.53,3.24-12.9-.81-19.12-1.27-2.62.89-3.53,2.43-4.57,5.57-3.74,11.86-5.84,18.27-7.52,4.64-1.22,9.22-2.71,14-3.43,5.24-.78,5.76-.37,5.72,4.9C374.26,77,374.58,78.37,373.88,79.61Z"/><path class="cls-134" d="M372.85,62.44c1.68,2.9-1.34,1.42-2,2.14-4.16,3.45-9.57,3.53-14.39,5.06A145.13,145.13,0,0,0,331.18,80a4.45,4.45,0,0,1-2.39.57c-2.87.34-4.4,3-6.89,4a1.4,1.4,0,0,1-.56-2.08c3.32-6.29,6.47-12.68,10-18.83s8.83-7.48,17.75-5.62C357,59.69,364.53,63.16,372.85,62.44Z"/><path class="cls-111" d="M373.88,79.61c-.41-8.76-.44-8.85-9.1-6.61-9.56,2.47-19.3,4.47-27.84,9.87-1.4.88-3.09,1.38-3.07,3.46l-5-4.75c5.59-5.2,12.79-7.37,19.68-9.85,7.55-2.72,15.25-5.22,23.32-6.19C375.77,69.78,375.15,74.65,373.88,79.61Z"/><path class="cls-79" d="M371.9,65.54c-8.06,2.41-16.19,4.62-24.16,7.27a98.33,98.33,0,0,0-18.84,8.77c0-.33-.07-.66-.11-1,6.07-5.43,13.79-7.52,21.15-10.17a133.17,133.17,0,0,1,20.92-5.83Z"/><path class="cls-135" d="M328.76,88.42c1.48.78,2.16,1.85,1.77,3.26-.29,1.09-.92,2.31-2.35,1.84a2.24,2.24,0,0,1-1.4-2.78A2.69,2.69,0,0,1,328.76,88.42Z"/><path class="cls-136" d="M366.74,321.49c.63-6.18-2.19-11.56-4.13-17.11-.8-2.29,1.63-1.6,1.92-2.72a3,3,0,0,0,.43-.36c3.24-2.36,6.25-5.22,10.69-5.06,2.48,1,3.2,3.11,3.63,5.48a62,62,0,0,1-1.72,29.42c-1.28,4.28-3.1,8.37-4.51,12.61-.88,2.62-2.38,4.25-4.77,1.08-1.65-4.69.06-9.48-.42-14.22C367.55,327.56,368.1,324.41,366.74,321.49Z"/><path class="cls-108" d="M357.85,303.76c.85,1.2,2.55-.19,3.61,1.78,5.52,10.26,2.42,34-6.28,41.61-.28-5.07-.22-9.78-.86-14.39a155.91,155.91,0,0,0-5-21.25c-.55-1.91.76-5.13-3.34-4-1.12-.95-1-2-.19-3.06l0,0C349.93,306.09,353.8,303.43,357.85,303.76Z"/><path class="cls-137" d="M350.75,333c-.1,2.32.47,6.33-.84,10.22-.43,1.3.37,3.57-1.68,3.54-1.87,0-2.15-2.05-2.54-3.76-1.51-6.43-3.15-12.83-4.86-19.21a43.74,43.74,0,0,0-2.65-7.48c-1.46-3,0-4,2.62-4.69,6.5-1.76,6.35-1.79,8.54,5C350.91,321.41,350.89,326.34,350.75,333Z"/><path class="cls-138" d="M352.91,396.61c-1.1-5.63,1.52-10.44,3.6-15.29a69.3,69.3,0,0,0,4.07-13.82,12.43,12.43,0,0,0-8-13.89c-3.58-1.31-6.8-3.57-10.68-4.07-.2-2,.12-4-.9-5.82,1.37-.35,2.94-.5,3.41,1.07,1.42,4.76,4.79,4,8.17,3,.95,1.46-.33,3.14.94,4.42,3.34.12,4.69-4.33,8.25-3.74,2.11,2.29,5.61.32,7.87,2.76-5.19,8-7.44,17.13-9.25,26.49C359.13,384.44,356,390.56,352.91,396.61Z"/><path class="cls-139" d="M366.74,321.49c3.33,5,2,10.77,2.53,16.2a43.9,43.9,0,0,1-.33,6.85,1.26,1.26,0,0,1-.22,1.85c-1.73,3.81-4.7.74-7,1.27-.72-.45-.66-1-.25-1.63C366.63,338.58,367.39,330.19,366.74,321.49Z"/><path class="cls-140" d="M357.85,303.76c-3.94,1.46-7.74,5.23-12,.72,0-2.08,1.69-1.87,3-2.23,2.62-.71,5.35-1.22,7.27-3.42,2.89-1.43,2.79,1.32,3.71,2.65Z"/><path class="cls-141" d="M345.83,304.46c.06,1,.13,2,.19,3.06a12.62,12.62,0,0,1-7.1,3.1c-3.78.48-4.15-1.34-3.14-4.27a9.09,9.09,0,0,0,6.32-1.76A2.84,2.84,0,0,1,345.83,304.46Z"/><path class="cls-142" d="M344,342.08c-8.11-2.88-8.12-2.93-3-10.16C343.08,334.89,342.72,338.34,344,342.08Z"/><path class="cls-143" d="M466.92,280.41c-1.78-3-2.08-5,2.54-4.38a6.5,6.5,0,0,0,2.37-.67c1.47,1.07.86,2.6.9,4C471,280.64,468.9,280.32,466.92,280.41Z"/><path class="cls-4" d="M377.93,212.68a66.8,66.8,0,0,0-4-37.44c-1.78-7-6.23-12.82-8.18-19.72.14-2.82,2.1-1.58,3.16-1.17,8,3.14,14.49,8.56,21.14,13.74a2.92,2.92,0,0,1,.92,3.59c-.09,3.95-3.86,7.53-1.2,11.76-2.75.92-1.78,3.18-1.84,5.06,2.44,3.32.18,7.41,1.81,10.84,3.24,3.5,4.33,8.21,5.94,12.37,3.46,9,10,15.52,15.61,22.81a23.51,23.51,0,0,0,1.55,1.94l16.88,23.78c-.57.62-1.09.32-1.61-.08.11.52.59.76.88,1.13a3.62,3.62,0,0,1,.81,2.18c2.29,4.37,5.34,8.35,6.36,13.37s-.26,9.37-4,13.27c-.63-2.31-.1-4.64-2.13-6.54-.39,3.69-1.29,6.93-5,8.47-.94-1.81.92-3.34.38-5.59-2.89,1.71-4.26,5.51-8.49,5.75,2.51-2.82,4.94-5.2,5.15-8.95-2.67,3.88-4.93,8.14-10.5,9.14,3.65,3.7,6.56.49,9.77.49,1.16,1.21-3.79,2.12-.53,3.62,1.21-.19,1.37.73,1.37,1.51.05,11.62-1.48,22.95-6.26,33.68a63.73,63.73,0,0,1-17,9.88c-1.26,1.95-2.1,4.66-5.38,3.05-4.2-1.05-7.73,2-11.78,1.91-1-2.45.43-4.43,1.29-6.49,1.64-3.93,3.35-7.82,3.57-12.16,4.68-12.42,7.35-25.18,6.69-38.53a3.45,3.45,0,0,1,.57-1.88c-1.05-18.56-8.86-34.72-18.07-50.32-1.8-3-2.71-5.39-1.22-9A40.42,40.42,0,0,0,377.93,212.68Z"/><path class="cls-144" d="M393.58,344.62c2.22-.25,3.79-1.68,5.38-3.05,0,2.4,1.44,1.22,2.24.82,3.23-1.61,6.39-3.37,9.57-5.07,3.59,3.35,2.92,8.05,3.9,12.22-6.52,5.81-13.22,11.46-17.9,19-3.23-6.74-8.51-12.78-7.17-21.07C390.21,345.53,392.66,346.14,393.58,344.62Z"/><path class="cls-111" d="M415.94,331.69c1.07-5.61,1.92-11.27,3.28-16.8a64.74,64.74,0,0,0,1.61-18.39l5.79-3a60,60,0,0,1-5.89,31.64C419.58,327.55,419.19,330.72,415.94,331.69Z"/><path class="cls-145" d="M429.82,263.47l-5.11-5.74c2.68-.39,3.46,1.86,5,2.51,1,1.7,1.62,1.09,2.13-.32l1.11,1.33C432.46,262.75,430.8,262.63,429.82,263.47Z"/><path class="cls-146" d="M393.92,287.47a72.79,72.79,0,0,1-5.65,39c-.26.59-.4,1.22-.6,1.83-1.23,2.25-1.06,6-5.39,4.85a6.73,6.73,0,0,1-.41-4.69,88.66,88.66,0,0,0,3.57-27.05c-.08-2.95-.89-5.17-4.08-5.85-.75-.33-1.4-.75-1.47-1.68l-.07-.4c2.92-1.85,6.35-2.7,9.21-4.69,1.27-.46,2.44-1.24,3.85-1.27Z"/><path class="cls-147" d="M392.88,287.49c-1,.63-1.44,2.28-3.1,1.9a4.16,4.16,0,0,1-2-2.91l1.23-1.57C392.74,282.15,393.39,284,392.88,287.49Z"/><path class="cls-95" d="M445,309.55l-2.17,5.92c-3.26,4.53-5.91,9.67-11.7,11.66q.13-.28.3-.57c.43-4,3-7.13,4.13-10.92,1.78-6.09-.59-12,.13-18-.31-1.13-.64-2.37.1-3.36,4.33-5.84,4.37-12.56,4.14-19.36,0-.43.41-.87.63-1.3C445.34,285.21,447.58,297.08,445,309.55Z"/><path class="cls-148" d="M412.86,236.46c-7.2-6.11-13.66-12.77-16.93-21.93-1.59-4.44-5.27-8-5.47-13.07a15.8,15.8,0,0,0-1.81-.1,40.92,40.92,0,0,1,.18-12.88c0-.16.09-.32.14-.48s.12-.45.18-.45c1.12,0,1.2,1,1.38,1.7,4.56,16.2,13.41,30.35,21.35,44.94C412.28,234.91,412.53,235.7,412.86,236.46Z"/><path class="cls-149" d="M388.83,188.48l-.18,12.88c-1.8-4.2-1.21-8.53-.7-12.86A8.68,8.68,0,0,0,388.83,188.48Z"/><path class="cls-7" d="M481.5,450.54c-1,3.53-3,1.55-4.44.64-2.22-1.41-4.15-3.26-6.26-4.86a19.89,19.89,0,0,0-10.51-3.94,31.67,31.67,0,0,1-21.53-10.93c6.61,2.19,13.14,4.22,20.27,4.67a48.88,48.88,0,0,0,7.63.42c2.09-.18,3.7,1.27,5.21,2.6C475.66,442.46,478.57,446.5,481.5,450.54Z"/><path class="cls-146" d="M379.89,293.85l.85.62c2.19,8.08,5,16.09,2.5,24.65a96.24,96.24,0,0,1-1.45,10.95,28.15,28.15,0,0,1-6,14.81c-1.26,1.59-2.63,2.95-4.9,2.7-1.12.33-2.13.45-2.2-1.19.07-.61.15-1.23.22-1.85.94.71,1.89,2.43,2.71-.11,3.84-11.78,8.68-23.42,7.05-36.19-.51-4,.67-8.82-3.86-11.56.34-1.64,1.06-2.76,3-2.18Z"/><path class="cls-150" d="M370.92,347.58c6.45-3.85,8.06-10.54,10-17,2.5-.31.55,2.46,2,2.88,2.62-.77,2.9-3.7,4.77-5.16.25,6.8-3.94,12.17-5.87,18.26C378.24,347.53,374.76,349.46,370.92,347.58Z"/><path class="cls-151" d="M396.77,368.54c-.29-2.58,1.27-4.54,2.8-6.06,4.72-4.66,8.45-10.53,15.1-12.94,2.31,8.61,3,17.46,4.1,26.26.19,1.59-.43,3.34.93,4.7V385c-1.59.35-1.52-1.88-2.82-1.7l0,.13c-2.19-2.45-3.43-5.8-6.79-7.12.12,1,.79,2,.74,3.14.51,3,2.44,5.74,2.08,9,0,1.95-.66,2.3-2.29,1.17-4.18-2.9-8.44-5.56-9.89-11.06C399.85,375.1,398.12,371.87,396.77,368.54Z"/><path class="cls-152" d="M412.93,388.44l-2.82-9c.3-.87.66-1.62,1.73-.81q.93,4.92,1.85,9.85Z"/><path class="cls-153" d="M305,321.24l-2.22-.83c3.09-1.42,7.42-.59,8.94-4.89a14.44,14.44,0,0,1,3,.21c2.07.57,2.11,2.32,1.94,4-.21,1.92-1.77,1.49-3,1.74C310.72,322.05,307.94,319.12,305,321.24Z"/><path class="cls-154" d="M430,320.49c1.7-6.6,4-13.06,4.51-19.94,3,3.1,2.52,7.07,2.06,10.65-.73,5.66-1.66,11.48-6.84,15.25l-2.83,1.77C428.06,325.42,429.84,323.24,430,320.49Z"/><path class="cls-155" d="M429.76,326.45c6-7.81,7.52-16.46,4.78-25.9.78-.8-1.75-2.88,1.12-2.88,3,10.28,2.94,20.11-4.26,28.89Z"/><path class="cls-154" d="M318,325.4c.08,2.7-1.7,2.54-3.26,1.82-3.41-1.56-7.11-2.66-9.81-5.51,3.42.57,6.82,1.23,10.26,1.64C316.65,323.53,317.83,323.67,318,325.4Z"/><path class="cls-144" d="M391,171.68c-4.08-6.49-11.06-9.38-17-13.44-2.23-1.52-4.69-4.18-8.18-2.72-1.44-4.23-4.73-8.18-2-13.06l21.77,9.37c3.49,2.7,8.35,3.06,11.31,6.64C393.69,162.35,392.91,167.27,391,171.68Z"/><path class="cls-156" d="M433.73,164.58c-5-.59-8.44-2.31-9.29-8.16a14,14,0,0,0-5.4-9.18c-2.29-4.65-6.69-6.89-11.1-8.45s-4.41-2.93-1.29-5.65a11.56,11.56,0,0,0,1.26-1.52c9.34,5.41,18.95,9.51,29.91,11.09,15,2.16,29.7,5.78,40.57,17.81a32.09,32.09,0,0,1,5.43,8.82c1.19,2.7.22,3.26-2.24,3-13.63-1.41-27.42-1.7-40.69-5.7C438.51,165.93,436.11,165.27,433.73,164.58Z"/><path class="cls-157" d="M377.71,137.33c-2.06.4-3.93-.31-5.8-1-4.43-5.15-9.48-9.77-13.25-15.49-.93-1.41-3.26-2.66-1.64-4.57a5.86,5.86,0,0,1,6-1.76c2.08.52,4,1.48,6.13,2,11.12,2.51,21.25-1.22,31.3-5.2,6.58-2.61,6.8-2.47,8.63,4.36,1.59,6,.06,11.23-3.21,16-2.05,3-4.39,4.91-9.06,4.14C390.52,134.8,383.86,134.42,377.71,137.33Z"/><path class="cls-158" d="M377,140.32c-1.26-1.45.23-1.91,1-2.65,6.56-.68,13.06-1.57,19.73-.45a36.7,36.7,0,0,1,20.86,10.52c1.82,3.35,4,6.55,4.94,10.31.28,1.12.92,3.48-1,2.94-3.65-1.07-8.24-.84-10.36-5-3.9-7.67-10.7-11.51-18.66-11.12C387.11,145.17,381.94,143.87,377,140.32Z"/><path class="cls-159" d="M388.42,147.21c7.8-3.14,17.07.79,22.44,9.72C402.67,154.53,395.63,151,388.42,147.21Z"/><path class="cls-134" d="M324.71,116.57c.42-2.8,2.61-2.08,4.29-2,19.72.72,34-9,45.59-23.8,3.58-4.55,4.7-10.14,5.23-15.81.31-3.29.7-6.58.91-9.88A2.83,2.83,0,0,1,383,62.27c4.21-1.44,8.37-3,12.55-4.57,3.64,10.52,5.61,21.25,4.12,32.41-1,2.28-2.73,3.2-5.25,3.75-19.21,4.16-35.94,14-52.9,23.36-1.79.87-3.63,1.64-5.35,2.64C329.72,123.62,328.9,123.4,324.71,116.57Z"/><path class="cls-160" d="M377.85,294.5l-3,2.18c-3.51,1.09-5.92,4.49-9.88,4.62-.46-1-1.35-.78-2.12-.67a2.25,2.25,0,0,1-2.82-2.09c-.23-1.88,1.64-1.34,2.51-1.48,5.54-.93,10.23-3.65,14.64-7A4.61,4.61,0,0,1,377.85,294.5Z"/><path class="cls-161" d="M387.8,286.48a3,3,0,0,1,2,2.91c-3,2-5.84,4.69-10,4.06-1.53-3.17-1.41-5.22,3-5.29C384.47,288.14,386.13,287.07,387.8,286.48Z"/><path class="cls-162" d="M350.38,395.49c-3-2-2.12-5.44-2.94-8.29-2.47.3-3.06,3.73-5.81,3.18q4.77-5.72,9.55-11.44C347.26,384.28,348.78,389.88,350.38,395.49Z"/><path class="cls-163" d="M300.74,444.43c5.85-8,8.79-8.2,15.15-1-3.84,2.07-7.84,3.42-12.31,3C302.14,446.33,300.93,446.16,300.74,444.43Z"/><path class="cls-164" d="M411.84,378.65l-1.73.81-2.27-4.79c4.31,1.71,7.62,4.3,9.06,8.77C414.32,382.78,414.1,379.64,411.84,378.65Z"/><path class="cls-165" d="M416.42,42.22c3.83-3.92,8.57-5.18,13.89-4.74C425.59,38.78,421.22,41.06,416.42,42.22Z"/><path class="cls-166" d="M381.92,318.68c1.78-2.2,1.74-4.45,1-7.19a75.46,75.46,0,0,1-2.19-17c4.64-.68,6,1.58,6.14,5.95a108.14,108.14,0,0,1-1.38,19.24,41.24,41.24,0,0,1-2.47,8.87C381.13,325.42,383.27,321.86,381.92,318.68Z"/><path class="cls-167" d="M381.92,318.68c2,3.11.65,6.58,1.11,9.85,0,1.64-.08,3.27-.13,4.9-1.72-.23-.68-2.37-2-2.88Z"/></g></g></svg>